<?xml version="1.0"?>
<svg width="192" height="256">
  <circle cx="27" cy="31" r="20" fill="#800080" />
  <circle cx="28" cy="81" r="20" fill="#800080" />
  <circle cx="31" cy="124" r="20" fill="#800080" />
  <circle cx="34" cy="160" r="20" fill="#800080" />
  <circle cx="30" cy="195" r="20" fill="#800080" />
  <circle cx="41" cy="232" r="20" fill="#800080" />
  <circle cx="78" cy="237" r="20" fill="#800080" />
  <circle cx="122" cy="232" r="20" fill="#800080" />
  <circle cx="153" cy="208" r="20" fill="#800080" />
  <circle cx="165" cy="174" r="20" fill="#800080" />
  <circle cx="137" cy="152" r="20" fill="#800080" />
  <circle cx="102" cy="136" r="20" fill="#800080" />
  <circle cx="65" cy="139" r="20" fill="#800080" />
  <circle cx="122" cy="106" r="20" fill="#800080" />
  <circle cx="154" cy="96" r="20" fill="#800080" />
  <circle cx="159" cy="58" r="20" fill="#800080" />
  <circle cx="153" cy="26" r="20" fill="#800080" />
  <circle cx="128" cy="24" r="20" fill="#800080" />
  <circle cx="93" cy="14" r="20" fill="#800080" />
  <circle cx="60" cy="21" r="20" fill="#800080" />
</svg>