<?xml version="1.0"?>
<svg width="256" height="256">
  <circle cx="208" cy="96" r="20" fill="#800080" />
  <circle cx="206" cy="128" r="20" fill="#800080" />
  <circle cx="206" cy="161" r="20" fill="#800080" />
  <circle cx="208" cy="192" r="20" fill="#800080" />
  <circle cx="208" cy="226" r="20" fill="#800080" />
  <circle cx="206" cy="66" r="20" fill="#800080" />
  <circle cx="45" cy="67" r="20" fill="#800080" />
  <circle cx="47" cy="100" r="20" fill="#800080" />
  <circle cx="49" cy="133" r="20" fill="#800080" />
  <circle cx="48" cy="162" r="20" fill="#800080" />
  <circle cx="48" cy="193" r="20" fill="#800080" />
  <circle cx="50" cy="224" r="20" fill="#800080" />
  <circle cx="75" cy="61" r="20" fill="#800080" />
  <circle cx="91" cy="90" r="20" fill="#800080" />
  <circle cx="101" cy="117" r="20" fill="#800080" />
  <circle cx="122" cy="146" r="20" fill="#800080" />
  <circle cx="166" cy="91" r="20" fill="#800080" />
  <circle cx="177" cy="57" r="20" fill="#800080" />
  <circle cx="201" cy="33" r="20" fill="#800080" />
  <circle cx="49" cy="38" r="20" fill="#800080" />
  <circle cx="145" cy="122" r="20" fill="#800080" />
</svg>