<?xml version="1.0"?>
<svg width="192" height="256">
  <circle cx="33" cy="73" r="20" fill="#800080" />
  <circle cx="35" cy="106" r="20" fill="#800080" />
  <circle cx="37" cy="139" r="20" fill="#800080" />
  <circle cx="36" cy="168" r="20" fill="#800080" />
  <circle cx="36" cy="199" r="20" fill="#800080" />
  <circle cx="38" cy="230" r="20" fill="#800080" />
  <circle cx="63" cy="67" r="20" fill="#800080" />
  <circle cx="79" cy="96" r="20" fill="#800080" />
  <circle cx="89" cy="123" r="20" fill="#800080" />
  <circle cx="104" cy="148" r="20" fill="#800080" />
  <circle cx="37" cy="44" r="20" fill="#800080" />
  <circle cx="114" cy="183" r="20" fill="#800080" />
  <circle cx="154" cy="228" r="20" fill="#800080" />
  <circle cx="160" cy="198" r="20" fill="#800080" />
  <circle cx="160" cy="166" r="20" fill="#800080" />
  <circle cx="158" cy="129" r="20" fill="#800080" />
  <circle cx="159" cy="98" r="20" fill="#800080" />
  <circle cx="158" cy="72" r="20" fill="#800080" />
  <circle cx="131" cy="211" r="20" fill="#800080" />
  <circle cx="157" cy="42" r="20" fill="#800080" />
</svg>