<?xml version="1.0"?>
<svg width="256" height="256">
  <circle cx="45" cy="67" r="20" fill="#800080" />
  <circle cx="47" cy="100" r="20" fill="#800080" />
  <circle cx="49" cy="133" r="20" fill="#800080" />
  <circle cx="48" cy="162" r="20" fill="#800080" />
  <circle cx="48" cy="193" r="20" fill="#800080" />
  <circle cx="50" cy="224" r="20" fill="#800080" />
  <circle cx="75" cy="61" r="20" fill="#800080" />
  <circle cx="91" cy="90" r="20" fill="#800080" />
  <circle cx="101" cy="117" r="20" fill="#800080" />
  <circle cx="116" cy="142" r="20" fill="#800080" />
  <circle cx="49" cy="38" r="20" fill="#800080" />
  <circle cx="126" cy="177" r="20" fill="#800080" />
  <circle cx="166" cy="222" r="20" fill="#800080" />
  <circle cx="172" cy="192" r="20" fill="#800080" />
  <circle cx="172" cy="160" r="20" fill="#800080" />
  <circle cx="170" cy="123" r="20" fill="#800080" />
  <circle cx="171" cy="92" r="20" fill="#800080" />
  <circle cx="170" cy="66" r="20" fill="#800080" />
  <circle cx="143" cy="205" r="20" fill="#800080" />
  <circle cx="169" cy="36" r="20" fill="#800080" />
</svg>