<?xml version="1.0"?>
<svg width="135" height="256">
  <circle cx="29" cy="175" r="12" fill="#800080" />
  <circle cx="30" cy="67" r="10" fill="#800080" />
  <circle cx="98" cy="55" r="10" fill="#800080" />
  <circle cx="105" cy="87" r="10" fill="#800080" />
  <circle cx="39" cy="156" r="9" fill="#800080" />
  <circle cx="43" cy="51" r="9" fill="#800080" />
  <circle cx="84" cy="116" r="9" fill="#800080" />
  <circle cx="49" cy="179" r="8" fill="#800080" />
  <circle cx="51" cy="143" r="8" fill="#800080" />
  <circle cx="60" cy="45" r="8" fill="#800080" />
  <circle cx="64" cy="132" r="8" fill="#800080" />
  <circle cx="65" cy="179" r="8" fill="#800080" />
  <circle cx="76" cy="45" r="8" fill="#800080" />
  <circle cx="81" cy="179" r="8" fill="#800080" />
  <circle cx="95" cy="103" r="8" fill="#800080" />
  <circle cx="97" cy="179" r="8" fill="#800080" />
  <circle cx="107" cy="70" r="7" fill="#800080" />
  <circle cx="112" cy="178" r="7" fill="#800080" />
  <circle cx="71" cy="121" r="4" fill="#800080" />
  <circle cx="76" cy="128" r="4" fill="#800080" />
  <circle cx="88" cy="44" r="4" fill="#800080" />
</svg>
