<?xml version="1.0"?>
<svg width="135" height="256">
  <circle cx="27" cy="158" r="10" fill="#800080" />
  <circle cx="98" cy="55" r="10" fill="#800080" />
  <circle cx="99" cy="172" r="10" fill="#800080" />
  <circle cx="105" cy="84" r="10" fill="#800080" />
  <circle cx="109" cy="138" r="10" fill="#800080" />
  <circle cx="28" cy="67" r="9" fill="#800080" />
  <circle cx="39" cy="174" r="9" fill="#800080" />
  <circle cx="68" cy="112" r="9" fill="#800080" />
  <circle cx="38" cy="53" r="8" fill="#800080" />
  <circle cx="53" cy="46" r="8" fill="#800080" />
  <circle cx="56" cy="180" r="8" fill="#800080" />
  <circle cx="69" cy="45" r="8" fill="#800080" />
  <circle cx="72" cy="181" r="8" fill="#800080" />
  <circle cx="94" cy="99" r="8" fill="#800080" />
  <circle cx="96" cy="123" r="8" fill="#800080" />
  <circle cx="108" cy="156" r="8" fill="#800080" />
  <circle cx="83" cy="44" r="6" fill="#800080" />
  <circle cx="83" cy="117" r="6" fill="#800080" />
  <circle cx="108" cy="68" r="6" fill="#800080" />
  <circle cx="81" cy="105" r="5" fill="#800080" />
  <circle cx="85" cy="179" r="5" fill="#800080" />
  <circle cx="55" cy="107" r="4" fill="#800080" />
  <circle cx="55" cy="115" r="4" fill="#800080" />
</svg>
