<?xml version="1.0"?>
<svg width="135" height="256">
  <circle cx="30" cy="105" r="11" fill="#800080" />
  <circle cx="28" cy="163" r="10" fill="#800080" />
  <circle cx="33" cy="49" r="10" fill="#800080" />
  <circle cx="98" cy="110" r="10" fill="#800080" />
  <circle cx="100" cy="168" r="10" fill="#800080" />
  <circle cx="109" cy="127" r="10" fill="#800080" />
  <circle cx="110" cy="147" r="10" fill="#800080" />
  <circle cx="30" cy="70" r="9" fill="#800080" />
  <circle cx="41" cy="176" r="8" fill="#800080" />
  <circle cx="51" cy="47" r="8" fill="#800080" />
  <circle cx="57" cy="181" r="8" fill="#800080" />
  <circle cx="63" cy="100" r="8" fill="#800080" />
  <circle cx="67" cy="47" r="8" fill="#800080" />
  <circle cx="73" cy="181" r="8" fill="#800080" />
  <circle cx="79" cy="101" r="8" fill="#800080" />
  <circle cx="83" cy="47" r="8" fill="#800080" />
  <circle cx="99" cy="47" r="8" fill="#800080" />
  <circle cx="27" cy="86" r="7" fill="#800080" />
  <circle cx="48" cy="104" r="7" fill="#800080" />
  <circle cx="87" cy="178" r="6" fill="#800080" />
</svg>
