<?xml version="1.0"?>
<svg width="135" height="256">
  <circle cx="28" cy="116" r="12" fill="#800080" />
  <circle cx="28" cy="138" r="10" fill="#800080" />
  <circle cx="102" cy="112" r="10" fill="#800080" />
  <circle cx="104" cy="164" r="10" fill="#800080" />
  <circle cx="110" cy="131" r="10" fill="#800080" />
  <circle cx="27" cy="92" r="9" fill="#800080" />
  <circle cx="32" cy="74" r="9" fill="#800080" />
  <circle cx="33" cy="157" r="9" fill="#800080" />
  <circle cx="43" cy="56" r="9" fill="#800080" />
  <circle cx="44" cy="172" r="9" fill="#800080" />
  <circle cx="94" cy="51" r="9" fill="#800080" />
  <circle cx="58" cy="47" r="8" fill="#800080" />
  <circle cx="61" cy="181" r="8" fill="#800080" />
  <circle cx="73" cy="98" r="8" fill="#800080" />
  <circle cx="76" cy="45" r="8" fill="#800080" />
  <circle cx="77" cy="181" r="8" fill="#800080" />
  <circle cx="88" cy="100" r="7" fill="#800080" />
  <circle cx="92" cy="177" r="7" fill="#800080" />
  <circle cx="105" cy="63" r="7" fill="#800080" />
  <circle cx="112" cy="148" r="7" fill="#800080" />
  <circle cx="45" cy="108" r="6" fill="#800080" />
  <circle cx="56" cy="100" r="6" fill="#800080" />
</svg>
