<?xml version="1.0"?>
<svg width="135" height="256">
  <circle cx="24" cy="145" r="10" fill="#800080" />
  <circle cx="28" cy="71" r="10" fill="#800080" />
  <circle cx="30" cy="166" r="10" fill="#800080" />
  <circle cx="104" cy="64" r="10" fill="#800080" />
  <circle cx="105" cy="165" r="10" fill="#800080" />
  <circle cx="109" cy="137" r="10" fill="#800080" />
  <circle cx="53" cy="109" r="9" fill="#800080" />
  <circle cx="80" cy="109" r="9" fill="#800080" />
  <circle cx="102" cy="91" r="9" fill="#800080" />
  <circle cx="29" cy="127" r="8" fill="#800080" />
  <circle cx="30" cy="89" r="8" fill="#800080" />
  <circle cx="36" cy="54" r="8" fill="#800080" />
  <circle cx="45" cy="178" r="8" fill="#800080" />
  <circle cx="88" cy="48" r="8" fill="#800080" />
  <circle cx="90" cy="178" r="8" fill="#800080" />
  <circle cx="99" cy="121" r="8" fill="#800080" />
  <circle cx="50" cy="46" r="7" fill="#800080" />
  <circle cx="60" cy="182" r="7" fill="#800080" />
  <circle cx="64" cy="44" r="7" fill="#800080" />
  <circle cx="74" cy="182" r="7" fill="#800080" />
  <circle cx="40" cy="100" r="6" fill="#800080" />
  <circle cx="38" cy="117" r="5" fill="#800080" />
  <circle cx="76" cy="42" r="5" fill="#800080" />
  <circle cx="91" cy="100" r="5" fill="#800080" />
  <circle cx="110" cy="79" r="5" fill="#800080" />
  <circle cx="113" cy="152" r="5" fill="#800080" />
  <circle cx="66" cy="106" r="4" fill="#800080" />
  <circle cx="100" cy="50" r="4" fill="#800080" />
  <circle cx="100" cy="78" r="4" fill="#800080" />
  <circle cx="103" cy="151" r="4" fill="#800080" />
</svg>
