<?xml version="1.0"?>
<svg width="135" height="256">
  <circle cx="31" cy="136" r="11" fill="#800080" />
  <circle cx="102" cy="134" r="11" fill="#800080" />
  <circle cx="14" cy="177" r="10" fill="#800080" />
  <circle cx="63" cy="49" r="10" fill="#800080" />
  <circle cx="112" cy="154" r="10" fill="#800080" />
  <circle cx="120" cy="176" r="10" fill="#800080" />
  <circle cx="21" cy="156" r="9" fill="#800080" />
  <circle cx="37" cy="114" r="9" fill="#800080" />
  <circle cx="44" cy="95" r="9" fill="#800080" />
  <circle cx="87" cy="84" r="9" fill="#800080" />
  <circle cx="94" cy="103" r="9" fill="#800080" />
  <circle cx="50" cy="77" r="8" fill="#800080" />
  <circle cx="50" cy="137" r="8" fill="#800080" />
  <circle cx="66" cy="137" r="8" fill="#800080" />
  <circle cx="78" cy="60" r="8" fill="#800080" />
  <circle cx="82" cy="137" r="8" fill="#800080" />
  <circle cx="53" cy="63" r="6" fill="#800080" />
  <circle cx="101" cy="117" r="6" fill="#800080" />
  <circle cx="77" cy="43" r="4" fill="#800080" />
  <circle cx="78" cy="72" r="4" fill="#800080" />
  <circle cx="86" cy="70" r="4" fill="#800080" />
</svg>
