<?xml version="1.0"?>
<svg width="135" height="256">
  <circle cx="29" cy="108" r="12" fill="#800080" />
  <circle cx="28" cy="50" r="11" fill="#800080" />
  <circle cx="28" cy="175" r="11" fill="#800080" />
  <circle cx="27" cy="71" r="10" fill="#800080" />
  <circle cx="27" cy="130" r="10" fill="#800080" />
  <circle cx="27" cy="150" r="10" fill="#800080" />
  <circle cx="95" cy="54" r="10" fill="#800080" />
  <circle cx="105" cy="169" r="10" fill="#800080" />
  <circle cx="106" cy="71" r="10" fill="#800080" />
  <circle cx="114" cy="134" r="10" fill="#800080" />
  <circle cx="78" cy="109" r="9" fill="#800080" />
  <circle cx="102" cy="92" r="9" fill="#800080" />
  <circle cx="116" cy="153" r="9" fill="#800080" />
  <circle cx="47" cy="47" r="8" fill="#800080" />
  <circle cx="47" cy="179" r="8" fill="#800080" />
  <circle cx="49" cy="109" r="8" fill="#800080" />
  <circle cx="63" cy="47" r="8" fill="#800080" />
  <circle cx="63" cy="179" r="8" fill="#800080" />
  <circle cx="79" cy="178" r="8" fill="#800080" />
  <circle cx="24" cy="88" r="7" fill="#800080" />
  <circle cx="78" cy="47" r="7" fill="#800080" />
  <circle cx="100" cy="119" r="7" fill="#800080" />
  <circle cx="63" cy="107" r="6" fill="#800080" />
  <circle cx="90" cy="100" r="5" fill="#800080" />
  <circle cx="92" cy="177" r="5" fill="#800080" />
  <circle cx="89" cy="117" r="4" fill="#800080" />
</svg>
