<?xml version="1.0"?>
<svg width="135" height="256">
  <circle cx="32" cy="95" r="12" fill="#800080" />
  <circle cx="32" cy="160" r="12" fill="#800080" />
  <circle cx="30" cy="34" r="10" fill="#800080" />
  <circle cx="30" cy="54" r="10" fill="#800080" />
  <circle cx="30" cy="117" r="10" fill="#800080" />
  <circle cx="30" cy="137" r="10" fill="#800080" />
  <circle cx="97" cy="82" r="10" fill="#800080" />
  <circle cx="103" cy="164" r="10" fill="#800080" />
  <circle cx="107" cy="102" r="10" fill="#800080" />
  <circle cx="109" cy="122" r="10" fill="#800080" />
  <circle cx="109" cy="142" r="10" fill="#800080" />
  <circle cx="29" cy="73" r="9" fill="#800080" />
  <circle cx="79" cy="74" r="8" fill="#800080" />
  <circle cx="83" cy="181" r="8" fill="#800080" />
  <circle cx="27" cy="179" r="7" fill="#800080" />
  <circle cx="63" cy="75" r="7" fill="#800080" />
  <circle cx="68" cy="182" r="7" fill="#800080" />
  <circle cx="53" cy="177" r="6" fill="#800080" />
  <circle cx="47" cy="85" r="5" fill="#800080" />
  <circle cx="96" cy="178" r="5" fill="#800080" />
  <circle cx="45" cy="170" r="4" fill="#800080" />
</svg>
