<?xml version="1.0"?>
<svg width="135" height="256">
  <circle cx="102" cy="94" r="12" fill="#800080" />
  <circle cx="102" cy="160" r="12" fill="#800080" />
  <circle cx="25" cy="117" r="10" fill="#800080" />
  <circle cx="25" cy="137" r="10" fill="#800080" />
  <circle cx="29" cy="159" r="10" fill="#800080" />
  <circle cx="30" cy="95" r="10" fill="#800080" />
  <circle cx="104" cy="116" r="10" fill="#800080" />
  <circle cx="104" cy="136" r="10" fill="#800080" />
  <circle cx="105" cy="34" r="10" fill="#800080" />
  <circle cx="105" cy="54" r="10" fill="#800080" />
  <circle cx="39" cy="176" r="9" fill="#800080" />
  <circle cx="42" cy="79" r="9" fill="#800080" />
  <circle cx="104" cy="73" r="9" fill="#800080" />
  <circle cx="55" cy="181" r="7" fill="#800080" />
  <circle cx="58" cy="74" r="7" fill="#800080" />
  <circle cx="69" cy="182" r="7" fill="#800080" />
  <circle cx="103" cy="179" r="7" fill="#800080" />
  <circle cx="71" cy="74" r="6" fill="#800080" />
  <circle cx="82" cy="176" r="6" fill="#800080" />
  <circle cx="81" cy="80" r="5" fill="#800080" />
</svg>
