<?xml version="1.0"?>
<svg width="135" height="256">
  <circle cx="29" cy="109" r="12" fill="#800080" />
  <circle cx="28" cy="50" r="11" fill="#800080" />
  <circle cx="28" cy="174" r="11" fill="#800080" />
  <circle cx="27" cy="71" r="10" fill="#800080" />
  <circle cx="27" cy="131" r="10" fill="#800080" />
  <circle cx="27" cy="151" r="10" fill="#800080" />
  <circle cx="25" cy="89" r="8" fill="#800080" />
  <circle cx="47" cy="47" r="8" fill="#800080" />
  <circle cx="47" cy="178" r="8" fill="#800080" />
  <circle cx="49" cy="110" r="8" fill="#800080" />
  <circle cx="63" cy="47" r="8" fill="#800080" />
  <circle cx="63" cy="178" r="8" fill="#800080" />
  <circle cx="65" cy="110" r="8" fill="#800080" />
  <circle cx="79" cy="47" r="8" fill="#800080" />
  <circle cx="79" cy="178" r="8" fill="#800080" />
  <circle cx="81" cy="110" r="8" fill="#800080" />
  <circle cx="95" cy="47" r="8" fill="#800080" />
  <circle cx="95" cy="178" r="8" fill="#800080" />
  <circle cx="97" cy="110" r="8" fill="#800080" />
  <circle cx="111" cy="47" r="8" fill="#800080" />
  <circle cx="111" cy="178" r="8" fill="#800080" />
</svg>
