<?xml version="1.0"?>
<svg width="135" height="256">
  <circle cx="102" cy="157" r="12" fill="#800080" />
  <circle cx="103" cy="96" r="12" fill="#800080" />
  <circle cx="25" cy="125" r="10" fill="#800080" />
  <circle cx="27" cy="145" r="10" fill="#800080" />
  <circle cx="28" cy="101" r="10" fill="#800080" />
  <circle cx="33" cy="165" r="10" fill="#800080" />
  <circle cx="37" cy="213" r="10" fill="#800080" />
  <circle cx="105" cy="118" r="10" fill="#800080" />
  <circle cx="105" cy="179" r="10" fill="#800080" />
  <circle cx="37" cy="82" r="9" fill="#800080" />
  <circle cx="93" cy="219" r="9" fill="#800080" />
  <circle cx="103" cy="198" r="9" fill="#800080" />
  <circle cx="48" cy="177" r="8" fill="#800080" />
  <circle cx="54" cy="225" r="8" fill="#800080" />
  <circle cx="103" cy="136" r="8" fill="#800080" />
  <circle cx="104" cy="76" r="8" fill="#800080" />
  <circle cx="52" cy="74" r="7" fill="#800080" />
  <circle cx="63" cy="178" r="7" fill="#800080" />
  <circle cx="66" cy="74" r="7" fill="#800080" />
  <circle cx="69" cy="226" r="7" fill="#800080" />
  <circle cx="76" cy="176" r="6" fill="#800080" />
  <circle cx="79" cy="78" r="6" fill="#800080" />
  <circle cx="81" cy="227" r="5" fill="#800080" />
  <circle cx="85" cy="169" r="5" fill="#800080" />
  <circle cx="87" cy="86" r="5" fill="#800080" />
  <circle cx="104" cy="211" r="4" fill="#800080" />
</svg>
