<?xml version="1.0"?>
<svg width="135" height="256">
  <circle cx="23" cy="103" r="11" fill="#800080" />
  <circle cx="24" cy="125" r="11" fill="#800080" />
  <circle cx="109" cy="121" r="11" fill="#800080" />
  <circle cx="26" cy="79" r="10" fill="#800080" />
  <circle cx="27" cy="146" r="10" fill="#800080" />
  <circle cx="35" cy="60" r="10" fill="#800080" />
  <circle cx="36" cy="165" r="10" fill="#800080" />
  <circle cx="101" cy="57" r="10" fill="#800080" />
  <circle cx="109" cy="168" r="10" fill="#800080" />
  <circle cx="110" cy="142" r="10" fill="#800080" />
  <circle cx="51" cy="49" r="9" fill="#800080" />
  <circle cx="52" cy="177" r="9" fill="#800080" />
  <circle cx="70" cy="45" r="9" fill="#800080" />
  <circle cx="69" cy="181" r="8" fill="#800080" />
  <circle cx="76" cy="118" r="8" fill="#800080" />
  <circle cx="85" cy="179" r="8" fill="#800080" />
  <circle cx="86" cy="46" r="7" fill="#800080" />
  <circle cx="91" cy="117" r="7" fill="#800080" />
  <circle cx="111" cy="70" r="6" fill="#800080" />
  <circle cx="98" cy="179" r="5" fill="#800080" />
  <circle cx="117" cy="155" r="4" fill="#800080" />
</svg>
