<?xml version="1.0"?>
<svg width="135" height="256">
  <circle cx="30" cy="122" r="13" fill="#800080" />
  <circle cx="58" cy="107" r="11" fill="#800080" />
  <circle cx="27" cy="49" r="10" fill="#800080" />
  <circle cx="27" cy="69" r="10" fill="#800080" />
  <circle cx="27" cy="89" r="10" fill="#800080" />
  <circle cx="27" cy="145" r="10" fill="#800080" />
  <circle cx="27" cy="165" r="10" fill="#800080" />
  <circle cx="73" cy="122" r="10" fill="#800080" />
  <circle cx="86" cy="139" r="10" fill="#800080" />
  <circle cx="99" cy="156" r="10" fill="#800080" />
  <circle cx="112" cy="173" r="10" fill="#800080" />
  <circle cx="72" cy="87" r="9" fill="#800080" />
  <circle cx="84" cy="73" r="9" fill="#800080" />
  <circle cx="96" cy="59" r="9" fill="#800080" />
  <circle cx="108" cy="47" r="8" fill="#800080" />
  <circle cx="23" cy="181" r="6" fill="#800080" />
  <circle cx="22" cy="104" r="5" fill="#800080" />
  <circle cx="32" cy="104" r="5" fill="#800080" />
  <circle cx="125" cy="182" r="5" fill="#800080" />
  <circle cx="33" cy="179" r="4" fill="#800080" />
  <circle cx="47" cy="118" r="4" fill="#800080" />
</svg>
