<?xml version="1.0"?>
<svg width="135" height="256">
  <circle cx="22" cy="92" r="11" fill="#800080" />
  <circle cx="67" cy="94" r="10" fill="#800080" />
  <circle cx="107" cy="78" r="10" fill="#800080" />
  <circle cx="20" cy="112" r="9" fill="#800080" />
  <circle cx="20" cy="130" r="9" fill="#800080" />
  <circle cx="20" cy="148" r="9" fill="#800080" />
  <circle cx="20" cy="166" r="9" fill="#800080" />
  <circle cx="57" cy="76" r="9" fill="#800080" />
  <circle cx="67" cy="113" r="9" fill="#800080" />
  <circle cx="67" cy="131" r="9" fill="#800080" />
  <circle cx="67" cy="149" r="9" fill="#800080" />
  <circle cx="67" cy="167" r="9" fill="#800080" />
  <circle cx="113" cy="97" r="9" fill="#800080" />
  <circle cx="114" cy="115" r="9" fill="#800080" />
  <circle cx="114" cy="133" r="9" fill="#800080" />
  <circle cx="114" cy="151" r="9" fill="#800080" />
  <circle cx="114" cy="169" r="9" fill="#800080" />
  <circle cx="17" cy="74" r="6" fill="#800080" />
  <circle cx="17" cy="181" r="6" fill="#800080" />
  <circle cx="41" cy="76" r="6" fill="#800080" />
  <circle cx="86" cy="77" r="6" fill="#800080" />
  <circle cx="63" cy="181" r="5" fill="#800080" />
  <circle cx="72" cy="180" r="4" fill="#800080" />
  <circle cx="79" cy="85" r="4" fill="#800080" />
  <circle cx="109" cy="182" r="4" fill="#800080" />
  <circle cx="117" cy="182" r="4" fill="#800080" />
</svg>
