<?xml version="1.0"?>
<svg width="135" height="256">
  <circle cx="105" cy="52" r="13" fill="#800080" />
  <circle cx="26" cy="51" r="12" fill="#800080" />
  <circle cx="66" cy="126" r="10" fill="#800080" />
  <circle cx="112" cy="74" r="9" fill="#800080" />
  <circle cx="112" cy="92" r="9" fill="#800080" />
  <circle cx="112" cy="110" r="9" fill="#800080" />
  <circle cx="112" cy="128" r="9" fill="#800080" />
  <circle cx="112" cy="146" r="9" fill="#800080" />
  <circle cx="112" cy="164" r="9" fill="#800080" />
  <circle cx="22" cy="71" r="8" fill="#800080" />
  <circle cx="22" cy="87" r="8" fill="#800080" />
  <circle cx="22" cy="103" r="8" fill="#800080" />
  <circle cx="22" cy="119" r="8" fill="#800080" />
  <circle cx="22" cy="135" r="8" fill="#800080" />
  <circle cx="22" cy="151" r="8" fill="#800080" />
  <circle cx="22" cy="167" r="8" fill="#800080" />
  <circle cx="43" cy="70" r="8" fill="#800080" />
  <circle cx="49" cy="86" r="8" fill="#800080" />
  <circle cx="55" cy="102" r="8" fill="#800080" />
  <circle cx="77" cy="112" r="7" fill="#800080" />
  <circle cx="82" cy="96" r="7" fill="#800080" />
  <circle cx="88" cy="80" r="7" fill="#800080" />
  <circle cx="110" cy="180" r="7" fill="#800080" />
  <circle cx="20" cy="181" r="6" fill="#800080" />
  <circle cx="92" cy="67" r="6" fill="#800080" />
  <circle cx="41" cy="58" r="4" fill="#800080" />
  <circle cx="55" cy="114" r="4" fill="#800080" />
</svg>
