<?xml version="1.0"?>
<svg width="135" height="256">
  <circle cx="31" cy="53" r="14" fill="#800080" />
  <circle cx="100" cy="174" r="13" fill="#800080" />
  <circle cx="26" cy="76" r="9" fill="#800080" />
  <circle cx="26" cy="94" r="9" fill="#800080" />
  <circle cx="26" cy="112" r="9" fill="#800080" />
  <circle cx="26" cy="130" r="9" fill="#800080" />
  <circle cx="26" cy="148" r="9" fill="#800080" />
  <circle cx="26" cy="166" r="9" fill="#800080" />
  <circle cx="107" cy="48" r="9" fill="#800080" />
  <circle cx="107" cy="66" r="9" fill="#800080" />
  <circle cx="107" cy="84" r="9" fill="#800080" />
  <circle cx="107" cy="102" r="9" fill="#800080" />
  <circle cx="107" cy="120" r="9" fill="#800080" />
  <circle cx="107" cy="138" r="9" fill="#800080" />
  <circle cx="46" cy="69" r="8" fill="#800080" />
  <circle cx="53" cy="84" r="8" fill="#800080" />
  <circle cx="60" cy="99" r="8" fill="#800080" />
  <circle cx="67" cy="114" r="8" fill="#800080" />
  <circle cx="74" cy="129" r="8" fill="#800080" />
  <circle cx="81" cy="144" r="8" fill="#800080" />
  <circle cx="106" cy="154" r="7" fill="#800080" />
  <circle cx="23" cy="181" r="6" fill="#800080" />
  <circle cx="85" cy="158" r="6" fill="#800080" />
</svg>
