<?xml version="1.0"?>
<svg width="135" height="256">
  <circle cx="29" cy="121" r="12" fill="#800080" />
  <circle cx="28" cy="50" r="11" fill="#800080" />
  <circle cx="27" cy="71" r="10" fill="#800080" />
  <circle cx="27" cy="91" r="10" fill="#800080" />
  <circle cx="27" cy="143" r="10" fill="#800080" />
  <circle cx="27" cy="163" r="10" fill="#800080" />
  <circle cx="101" cy="57" r="10" fill="#800080" />
  <circle cx="101" cy="111" r="10" fill="#800080" />
  <circle cx="111" cy="75" r="10" fill="#800080" />
  <circle cx="111" cy="94" r="9" fill="#800080" />
  <circle cx="47" cy="47" r="8" fill="#800080" />
  <circle cx="49" cy="122" r="8" fill="#800080" />
  <circle cx="63" cy="47" r="8" fill="#800080" />
  <circle cx="65" cy="122" r="8" fill="#800080" />
  <circle cx="79" cy="48" r="8" fill="#800080" />
  <circle cx="81" cy="121" r="8" fill="#800080" />
  <circle cx="24" cy="180" r="7" fill="#800080" />
  <circle cx="21" cy="105" r="4" fill="#800080" />
  <circle cx="29" cy="105" r="4" fill="#800080" />
  <circle cx="91" cy="46" r="4" fill="#800080" />
</svg>
