<?xml version="1.0"?>
<svg width="135" height="256">
  <circle cx="22" cy="101" r="11" fill="#800080" />
  <circle cx="22" cy="123" r="11" fill="#800080" />
  <circle cx="70" cy="184" r="11" fill="#800080" />
  <circle cx="111" cy="90" r="11" fill="#800080" />
  <circle cx="112" cy="119" r="11" fill="#800080" />
  <circle cx="25" cy="79" r="10" fill="#800080" />
  <circle cx="25" cy="144" r="10" fill="#800080" />
  <circle cx="33" cy="163" r="10" fill="#800080" />
  <circle cx="34" cy="60" r="10" fill="#800080" />
  <circle cx="78" cy="204" r="10" fill="#800080" />
  <circle cx="94" cy="54" r="10" fill="#800080" />
  <circle cx="95" cy="171" r="10" fill="#800080" />
  <circle cx="106" cy="153" r="10" fill="#800080" />
  <circle cx="49" cy="177" r="9" fill="#800080" />
  <circle cx="50" cy="48" r="9" fill="#800080" />
  <circle cx="68" cy="45" r="9" fill="#800080" />
  <circle cx="92" cy="218" r="9" fill="#800080" />
  <circle cx="105" cy="70" r="9" fill="#800080" />
  <circle cx="109" cy="222" r="8" fill="#800080" />
  <circle cx="114" cy="137" r="7" fill="#800080" />
  <circle cx="82" cy="43" r="5" fill="#800080" />
  <circle cx="80" cy="52" r="4" fill="#800080" />
  <circle cx="85" cy="182" r="4" fill="#800080" />
  <circle cx="105" cy="105" r="4" fill="#800080" />
  <circle cx="118" cy="104" r="4" fill="#800080" />
  <circle cx="121" cy="218" r="4" fill="#800080" />
</svg>
