<?xml version="1.0"?>
<svg width="135" height="256">
  <circle cx="29" cy="114" r="12" fill="#800080" />
  <circle cx="28" cy="50" r="11" fill="#800080" />
  <circle cx="74" cy="118" r="11" fill="#800080" />
  <circle cx="27" cy="71" r="10" fill="#800080" />
  <circle cx="27" cy="91" r="10" fill="#800080" />
  <circle cx="27" cy="136" r="10" fill="#800080" />
  <circle cx="27" cy="156" r="10" fill="#800080" />
  <circle cx="27" cy="176" r="10" fill="#800080" />
  <circle cx="94" cy="152" r="10" fill="#800080" />
  <circle cx="102" cy="56" r="10" fill="#800080" />
  <circle cx="105" cy="169" r="10" fill="#800080" />
  <circle cx="107" cy="99" r="10" fill="#800080" />
  <circle cx="112" cy="74" r="10" fill="#800080" />
  <circle cx="47" cy="47" r="8" fill="#800080" />
  <circle cx="49" cy="115" r="8" fill="#800080" />
  <circle cx="63" cy="47" r="8" fill="#800080" />
  <circle cx="79" cy="47" r="8" fill="#800080" />
  <circle cx="82" cy="136" r="8" fill="#800080" />
  <circle cx="93" cy="111" r="8" fill="#800080" />
  <circle cx="117" cy="181" r="6" fill="#800080" />
  <circle cx="91" cy="45" r="4" fill="#800080" />
  <circle cx="107" cy="183" r="4" fill="#800080" />
  <circle cx="117" cy="88" r="4" fill="#800080" />
</svg>
