<?xml version="1.0"?>
<svg width="135" height="256">
  <circle cx="33" cy="175" r="12" fill="#800080" />
  <circle cx="98" cy="175" r="12" fill="#800080" />
  <circle cx="66" cy="97" r="11" fill="#800080" />
  <circle cx="12" cy="51" r="10" fill="#800080" />
  <circle cx="15" cy="74" r="10" fill="#800080" />
  <circle cx="120" cy="71" r="10" fill="#800080" />
  <circle cx="123" cy="49" r="10" fill="#800080" />
  <circle cx="17" cy="93" r="9" fill="#800080" />
  <circle cx="20" cy="111" r="9" fill="#800080" />
  <circle cx="23" cy="129" r="9" fill="#800080" />
  <circle cx="112" cy="127" r="9" fill="#800080" />
  <circle cx="115" cy="103" r="9" fill="#800080" />
  <circle cx="25" cy="146" r="8" fill="#800080" />
  <circle cx="108" cy="155" r="8" fill="#800080" />
  <circle cx="46" cy="157" r="7" fill="#800080" />
  <circle cx="50" cy="141" r="7" fill="#800080" />
  <circle cx="54" cy="126" r="7" fill="#800080" />
  <circle cx="77" cy="112" r="7" fill="#800080" />
  <circle cx="80" cy="126" r="7" fill="#800080" />
  <circle cx="84" cy="140" r="7" fill="#800080" />
  <circle cx="88" cy="154" r="7" fill="#800080" />
  <circle cx="56" cy="113" r="6" fill="#800080" />
  <circle cx="114" cy="87" r="6" fill="#800080" />
  <circle cx="24" cy="159" r="5" fill="#800080" />
  <circle cx="107" cy="141" r="5" fill="#800080" />
  <circle cx="124" cy="85" r="4" fill="#800080" />
</svg>
