<?xml version="1.0"?>
<svg width="135" height="256">
  <circle cx="30" cy="175" r="10" fill="#800080" />
  <circle cx="97" cy="177" r="10" fill="#800080" />
  <circle cx="13" cy="77" r="9" fill="#800080" />
  <circle cx="16" cy="95" r="9" fill="#800080" />
  <circle cx="19" cy="113" r="9" fill="#800080" />
  <circle cx="22" cy="131" r="9" fill="#800080" />
  <circle cx="109" cy="151" r="9" fill="#800080" />
  <circle cx="112" cy="131" r="9" fill="#800080" />
  <circle cx="115" cy="113" r="9" fill="#800080" />
  <circle cx="118" cy="95" r="9" fill="#800080" />
  <circle cx="121" cy="77" r="9" fill="#800080" />
  <circle cx="24" cy="148" r="8" fill="#800080" />
  <circle cx="63" cy="109" r="8" fill="#800080" />
  <circle cx="45" cy="162" r="7" fill="#800080" />
  <circle cx="49" cy="148" r="7" fill="#800080" />
  <circle cx="54" cy="133" r="7" fill="#800080" />
  <circle cx="77" cy="122" r="7" fill="#800080" />
  <circle cx="81" cy="136" r="7" fill="#800080" />
  <circle cx="86" cy="151" r="7" fill="#800080" />
  <circle cx="23" cy="161" r="5" fill="#800080" />
  <circle cx="56" cy="121" r="5" fill="#800080" />
  <circle cx="87" cy="163" r="5" fill="#800080" />
  <circle cx="107" cy="165" r="5" fill="#800080" />
  <circle cx="44" cy="173" r="4" fill="#800080" />
  <circle cx="75" cy="105" r="4" fill="#800080" />
</svg>
