<?xml version="1.0"?>
<svg width="135" height="256">
  <circle cx="20" cy="175" r="12" fill="#800080" />
  <circle cx="108" cy="51" r="12" fill="#800080" />
  <circle cx="31" cy="156" r="9" fill="#800080" />
  <circle cx="43" cy="141" r="9" fill="#800080" />
  <circle cx="56" cy="124" r="9" fill="#800080" />
  <circle cx="68" cy="109" r="9" fill="#800080" />
  <circle cx="80" cy="93" r="9" fill="#800080" />
  <circle cx="92" cy="78" r="9" fill="#800080" />
  <circle cx="24" cy="47" r="8" fill="#800080" />
  <circle cx="40" cy="47" r="8" fill="#800080" />
  <circle cx="40" cy="178" r="8" fill="#800080" />
  <circle cx="56" cy="47" r="8" fill="#800080" />
  <circle cx="56" cy="178" r="8" fill="#800080" />
  <circle cx="72" cy="47" r="8" fill="#800080" />
  <circle cx="72" cy="178" r="8" fill="#800080" />
  <circle cx="88" cy="47" r="8" fill="#800080" />
  <circle cx="88" cy="178" r="8" fill="#800080" />
  <circle cx="104" cy="178" r="8" fill="#800080" />
  <circle cx="119" cy="177" r="7" fill="#800080" />
  <circle cx="101" cy="67" r="5" fill="#800080" />
</svg>
