<?xml version="1.0"?>
<svg width="192" height="256">
  <circle cx="94" cy="37" r="20" fill="#800080" />
  <circle cx="141" cy="61" r="20" fill="#800080" />
  <circle cx="65" cy="51" r="20" fill="#800080" />
  <circle cx="48" cy="71" r="20" fill="#800080" />
  <circle cx="36" cy="102" r="20" fill="#800080" />
  <circle cx="35" cy="127" r="20" fill="#800080" />
  <circle cx="34" cy="159" r="20" fill="#800080" />
  <circle cx="37" cy="190" r="20" fill="#800080" />
  <circle cx="44" cy="214" r="20" fill="#800080" />
  <circle cx="60" cy="235" r="20" fill="#800080" />
  <circle cx="144" cy="89" r="20" fill="#800080" />
  <circle cx="140" cy="119" r="20" fill="#800080" />
  <circle cx="134" cy="147" r="20" fill="#800080" />
  <circle cx="127" cy="171" r="20" fill="#800080" />
  <circle cx="123" cy="196" r="20" fill="#800080" />
  <circle cx="103" cy="228" r="20" fill="#800080" />
  <circle cx="147" cy="184" r="20" fill="#800080" />
  <circle cx="160" cy="203" r="20" fill="#800080" />
  <circle cx="175" cy="226" r="20" fill="#800080" />
  <circle cx="121" cy="47" r="20" fill="#800080" />
  <circle cx="82" cy="234" r="20" fill="#800080" />
</svg>