<?xml version="1.0"?>
<svg width="153" height="256">
  <circle cx="111" cy="159" r="12" fill="#800080" />
  <circle cx="112" cy="119" r="12" fill="#800080" />
  <circle cx="28" cy="149" r="11" fill="#800080" />
  <circle cx="29" cy="170" r="11" fill="#800080" />
  <circle cx="111" cy="88" r="11" fill="#800080" />
  <circle cx="117" cy="181" r="11" fill="#800080" />
  <circle cx="37" cy="83" r="10" fill="#800080" />
  <circle cx="39" cy="130" r="10" fill="#800080" />
  <circle cx="43" cy="186" r="9" fill="#800080" />
  <circle cx="73" cy="66" r="9" fill="#800080" />
  <circle cx="93" cy="69" r="9" fill="#800080" />
  <circle cx="51" cy="70" r="8" fill="#800080" />
  <circle cx="57" cy="122" r="8" fill="#800080" />
  <circle cx="59" cy="188" r="8" fill="#800080" />
  <circle cx="72" cy="121" r="8" fill="#800080" />
  <circle cx="110" cy="138" r="8" fill="#800080" />
  <circle cx="75" cy="186" r="7" fill="#800080" />
  <circle cx="86" cy="120" r="7" fill="#800080" />
  <circle cx="133" cy="188" r="7" fill="#800080" />
  <circle cx="87" cy="179" r="6" fill="#800080" />
  <circle cx="118" cy="102" r="5" fill="#800080" />
  <circle cx="106" cy="71" r="5" fill="#800080" />
  <circle cx="94" cy="171" r="4" fill="#800080" />
  <circle cx="29" cy="184" r="4" fill="#800080" />
  <circle cx="96" cy="117" r="4" fill="#800080" />
  <circle cx="96" cy="124" r="4" fill="#800080" />
  <circle cx="106" cy="102" r="4" fill="#800080" />
  <circle cx="119" cy="145" r="4" fill="#800080" />
  <circle cx="120" cy="132" r="4" fill="#800080" />
</svg>
