<?xml version="1.0"?>
<svg width="153" height="256">
  <circle cx="37" cy="90" r="13" fill="#800080" />
  <circle cx="36" cy="163" r="13" fill="#800080" />
  <circle cx="124" cy="122" r="12" fill="#800080" />
  <circle cx="120" cy="94" r="11" fill="#800080" />
  <circle cx="34" cy="21" r="11" fill="#800080" />
  <circle cx="34" cy="42" r="11" fill="#800080" />
  <circle cx="34" cy="63" r="11" fill="#800080" />
  <circle cx="34" cy="113" r="11" fill="#800080" />
  <circle cx="34" cy="134" r="11" fill="#800080" />
  <circle cx="116" cy="171" r="11" fill="#800080" />
  <circle cx="123" cy="144" r="11" fill="#800080" />
  <circle cx="108" cy="74" r="10" fill="#800080" />
  <circle cx="33" cy="185" r="10" fill="#800080" />
  <circle cx="101" cy="186" r="9" fill="#800080" />
  <circle cx="84" cy="66" r="9" fill="#800080" />
  <circle cx="76" cy="189" r="8" fill="#800080" />
  <circle cx="67" cy="69" r="7" fill="#800080" />
  <circle cx="59" cy="183" r="6" fill="#800080" />
  <circle cx="56" cy="76" r="6" fill="#800080" />
  <circle cx="50" cy="174" r="5" fill="#800080" />
  <circle cx="88" cy="193" r="5" fill="#800080" />
  <circle cx="127" cy="159" r="5" fill="#800080" />
  <circle cx="97" cy="63" r="4" fill="#800080" />
  <circle cx="27" cy="147" r="4" fill="#800080" />
  <circle cx="42" cy="146" r="4" fill="#800080" />
  <circle cx="94" cy="73" r="4" fill="#800080" />
  <circle cx="113" cy="185" r="4" fill="#800080" />
  <circle cx="114" cy="156" r="4" fill="#800080" />
  <circle cx="121" cy="78" r="4" fill="#800080" />
  <circle cx="128" cy="106" r="4" fill="#800080" />
</svg>
