<?xml version="1.0"?>
<svg width="153" height="256">
  <circle cx="34" cy="107" r="13" fill="#800080" />
  <circle cx="33" cy="40" r="12" fill="#800080" />
  <circle cx="32" cy="63" r="12" fill="#800080" />
  <circle cx="32" cy="131" r="12" fill="#800080" />
  <circle cx="32" cy="154" r="12" fill="#800080" />
  <circle cx="32" cy="177" r="12" fill="#800080" />
  <circle cx="119" cy="56" r="12" fill="#800080" />
  <circle cx="130" cy="158" r="12" fill="#800080" />
  <circle cx="120" cy="79" r="11" fill="#800080" />
  <circle cx="129" cy="134" r="11" fill="#800080" />
  <circle cx="93" cy="107" r="10" fill="#800080" />
  <circle cx="30" cy="84" r="10" fill="#800080" />
  <circle cx="100" cy="40" r="10" fill="#800080" />
  <circle cx="108" cy="181" r="10" fill="#800080" />
  <circle cx="51" cy="185" r="9" fill="#800080" />
  <circle cx="53" cy="36" r="9" fill="#800080" />
  <circle cx="55" cy="107" r="9" fill="#800080" />
  <circle cx="68" cy="185" r="9" fill="#800080" />
  <circle cx="70" cy="36" r="9" fill="#800080" />
  <circle cx="72" cy="107" r="9" fill="#800080" />
  <circle cx="85" cy="185" r="9" fill="#800080" />
  <circle cx="108" cy="95" r="8" fill="#800080" />
  <circle cx="115" cy="119" r="8" fill="#800080" />
  <circle cx="124" cy="176" r="6" fill="#800080" />
  <circle cx="84" cy="33" r="6" fill="#800080" />
  <circle cx="114" cy="40" r="4" fill="#800080" />
  <circle cx="24" cy="191" r="4" fill="#800080" />
  <circle cx="38" cy="191" r="4" fill="#800080" />
  <circle cx="81" cy="42" r="4" fill="#800080" />
  <circle cx="97" cy="190" r="4" fill="#800080" />
  <circle cx="103" cy="116" r="4" fill="#800080" />
  <circle cx="116" cy="168" r="4" fill="#800080" />
  <circle cx="119" cy="93" r="4" fill="#800080" />
  <circle cx="129" cy="67" r="4" fill="#800080" />
  <circle cx="139" cy="144" r="4" fill="#800080" />
</svg>
