<?xml version="1.0"?>
<svg width="153" height="256">
  <circle cx="28" cy="137" r="12" fill="#800080" />
  <circle cx="29" cy="108" r="11" fill="#800080" />
  <circle cx="33" cy="161" r="11" fill="#800080" />
  <circle cx="118" cy="86" r="11" fill="#800080" />
  <circle cx="119" cy="166" r="11" fill="#800080" />
  <circle cx="36" cy="87" r="10" fill="#800080" />
  <circle cx="45" cy="178" r="9" fill="#800080" />
  <circle cx="50" cy="73" r="9" fill="#800080" />
  <circle cx="72" cy="66" r="9" fill="#800080" />
  <circle cx="98" cy="69" r="9" fill="#800080" />
  <circle cx="102" cy="183" r="9" fill="#800080" />
  <circle cx="62" cy="187" r="8" fill="#800080" />
  <circle cx="77" cy="188" r="8" fill="#800080" />
  <circle cx="89" cy="191" r="5" fill="#800080" />
  <circle cx="85" cy="62" r="4" fill="#800080" />
  <circle cx="20" cy="120" r="4" fill="#800080" />
  <circle cx="34" cy="122" r="4" fill="#800080" />
  <circle cx="59" cy="63" r="4" fill="#800080" />
  <circle cx="84" cy="69" r="4" fill="#800080" />
  <circle cx="110" cy="69" r="4" fill="#800080" />
  <circle cx="114" cy="180" r="4" fill="#800080" />
</svg>
