<?xml version="1.0"?>
<svg width="153" height="256">
  <circle cx="27" cy="92" r="12" fill="#800080" />
  <circle cx="26" cy="115" r="12" fill="#800080" />
  <circle cx="29" cy="139" r="12" fill="#800080" />
  <circle cx="35" cy="60" r="11" fill="#800080" />
  <circle cx="36" cy="161" r="11" fill="#800080" />
  <circle cx="50" cy="42" r="11" fill="#800080" />
  <circle cx="115" cy="47" r="11" fill="#800080" />
  <circle cx="126" cy="160" r="10" fill="#800080" />
  <circle cx="49" cy="177" r="10" fill="#800080" />
  <circle cx="105" cy="182" r="10" fill="#800080" />
  <circle cx="67" cy="186" r="9" fill="#800080" />
  <circle cx="69" cy="34" r="9" fill="#800080" />
  <circle cx="84" cy="187" r="9" fill="#800080" />
  <circle cx="86" cy="33" r="9" fill="#800080" />
  <circle cx="127" cy="61" r="8" fill="#800080" />
  <circle cx="101" cy="34" r="7" fill="#800080" />
  <circle cx="120" cy="175" r="6" fill="#800080" />
  <circle cx="24" cy="73" r="6" fill="#800080" />
  <circle cx="36" cy="76" r="6" fill="#800080" />
  <circle cx="100" cy="44" r="4" fill="#800080" />
  <circle cx="111" cy="169" r="4" fill="#800080" />
</svg>
