<?xml version="1.0"?>
<svg width="153" height="256">
  <circle cx="33" cy="40" r="12" fill="#800080" />
  <circle cx="32" cy="63" r="12" fill="#800080" />
  <circle cx="32" cy="86" r="12" fill="#800080" />
  <circle cx="32" cy="109" r="12" fill="#800080" />
  <circle cx="32" cy="132" r="12" fill="#800080" />
  <circle cx="32" cy="155" r="12" fill="#800080" />
  <circle cx="32" cy="178" r="12" fill="#800080" />
  <circle cx="127" cy="92" r="12" fill="#800080" />
  <circle cx="127" cy="127" r="12" fill="#800080" />
  <circle cx="119" cy="65" r="11" fill="#800080" />
  <circle cx="110" cy="169" r="11" fill="#800080" />
  <circle cx="122" cy="149" r="11" fill="#800080" />
  <circle cx="104" cy="48" r="10" fill="#800080" />
  <circle cx="86" cy="183" r="10" fill="#800080" />
  <circle cx="71" cy="37" r="9" fill="#800080" />
  <circle cx="51" cy="186" r="9" fill="#800080" />
  <circle cx="53" cy="36" r="9" fill="#800080" />
  <circle cx="67" cy="184" r="8" fill="#800080" />
  <circle cx="87" cy="38" r="8" fill="#800080" />
  <circle cx="133" cy="109" r="6" fill="#800080" />
  <circle cx="100" cy="182" r="5" fill="#800080" />
  <circle cx="121" cy="108" r="5" fill="#800080" />
  <circle cx="130" cy="75" r="4" fill="#800080" />
  <circle cx="95" cy="172" r="4" fill="#800080" />
  <circle cx="117" cy="50" r="4" fill="#800080" />
  <circle cx="117" cy="79" r="4" fill="#800080" />
</svg>
