<?xml version="1.0"?>
<svg width="153" height="256">
  <circle cx="30" cy="123" r="13" fill="#800080" />
  <circle cx="124" cy="119" r="12" fill="#800080" />
  <circle cx="32" cy="157" r="11" fill="#800080" />
  <circle cx="31" cy="99" r="10" fill="#800080" />
  <circle cx="42" cy="175" r="10" fill="#800080" />
  <circle cx="113" cy="81" r="10" fill="#800080" />
  <circle cx="41" cy="80" r="9" fill="#800080" />
  <circle cx="106" cy="182" r="9" fill="#800080" />
  <circle cx="121" cy="98" r="9" fill="#800080" />
  <circle cx="56" cy="69" r="8" fill="#800080" />
  <circle cx="50" cy="123" r="8" fill="#800080" />
  <circle cx="57" cy="185" r="8" fill="#800080" />
  <circle cx="65" cy="123" r="8" fill="#800080" />
  <circle cx="71" cy="65" r="8" fill="#800080" />
  <circle cx="72" cy="189" r="8" fill="#800080" />
  <circle cx="80" cy="123" r="8" fill="#800080" />
  <circle cx="86" cy="66" r="8" fill="#800080" />
  <circle cx="87" cy="188" r="8" fill="#800080" />
  <circle cx="95" cy="123" r="8" fill="#800080" />
  <circle cx="118" cy="170" r="8" fill="#800080" />
  <circle cx="100" cy="68" r="7" fill="#800080" />
  <circle cx="24" cy="141" r="6" fill="#800080" />
  <circle cx="108" cy="126" r="5" fill="#800080" />
  <circle cx="34" cy="140" r="5" fill="#800080" />
</svg>
