<?xml version="1.0"?>
<svg width="153" height="256">
  <circle cx="116" cy="91" r="13" fill="#800080" />
  <circle cx="116" cy="160" r="13" fill="#800080" />
  <circle cx="29" cy="125" r="12" fill="#800080" />
  <circle cx="31" cy="152" r="11" fill="#800080" />
  <circle cx="31" cy="100" r="11" fill="#800080" />
  <circle cx="39" cy="173" r="11" fill="#800080" />
  <circle cx="40" cy="79" r="11" fill="#800080" />
  <circle cx="118" cy="207" r="11" fill="#800080" />
  <circle cx="119" cy="114" r="11" fill="#800080" />
  <circle cx="119" cy="135" r="11" fill="#800080" />
  <circle cx="119" cy="183" r="11" fill="#800080" />
  <circle cx="42" cy="224" r="10" fill="#800080" />
  <circle cx="108" cy="229" r="10" fill="#800080" />
  <circle cx="57" cy="68" r="9" fill="#800080" />
  <circle cx="55" cy="184" r="9" fill="#800080" />
  <circle cx="118" cy="69" r="9" fill="#800080" />
  <circle cx="56" cy="236" r="8" fill="#800080" />
  <circle cx="71" cy="185" r="8" fill="#800080" />
  <circle cx="71" cy="239" r="8" fill="#800080" />
  <circle cx="73" cy="67" r="8" fill="#800080" />
  <circle cx="86" cy="239" r="8" fill="#800080" />
  <circle cx="85" cy="183" r="6" fill="#800080" />
  <circle cx="86" cy="68" r="6" fill="#800080" />
  <circle cx="95" cy="75" r="6" fill="#800080" />
  <circle cx="95" cy="176" r="5" fill="#800080" />
  <circle cx="98" cy="240" r="4" fill="#800080" />
  <circle cx="22" cy="139" r="4" fill="#800080" />
  <circle cx="37" cy="138" r="4" fill="#800080" />
  <circle cx="100" cy="83" r="4" fill="#800080" />
  <circle cx="101" cy="168" r="4" fill="#800080" />
  <circle cx="120" cy="221" r="4" fill="#800080" />
  <circle cx="127" cy="77" r="4" fill="#800080" />
</svg>
