<?xml version="1.0"?>
<svg width="153" height="256">
  <circle cx="124" cy="120" r="12" fill="#800080" />
  <circle cx="26" cy="95" r="12" fill="#800080" />
  <circle cx="26" cy="118" r="12" fill="#800080" />
  <circle cx="29" cy="141" r="12" fill="#800080" />
  <circle cx="31" cy="70" r="12" fill="#800080" />
  <circle cx="125" cy="172" r="11" fill="#800080" />
  <circle cx="37" cy="162" r="11" fill="#800080" />
  <circle cx="41" cy="49" r="11" fill="#800080" />
  <circle cx="117" cy="50" r="11" fill="#800080" />
  <circle cx="125" cy="142" r="11" fill="#800080" />
  <circle cx="51" cy="179" r="10" fill="#800080" />
  <circle cx="59" cy="37" r="10" fill="#800080" />
  <circle cx="87" cy="117" r="10" fill="#800080" />
  <circle cx="70" cy="187" r="9" fill="#800080" />
  <circle cx="77" cy="33" r="9" fill="#800080" />
  <circle cx="87" cy="187" r="9" fill="#800080" />
  <circle cx="94" cy="35" r="9" fill="#800080" />
  <circle cx="104" cy="184" r="9" fill="#800080" />
  <circle cx="104" cy="115" r="8" fill="#800080" />
  <circle cx="129" cy="61" r="6" fill="#800080" />
  <circle cx="107" cy="35" r="5" fill="#800080" />
  <circle cx="132" cy="156" r="5" fill="#800080" />
  <circle cx="118" cy="65" r="4" fill="#800080" />
  <circle cx="102" cy="44" r="4" fill="#800080" />
  <circle cx="116" cy="184" r="4" fill="#800080" />
  <circle cx="118" cy="155" r="4" fill="#800080" />
</svg>
