<?xml version="1.0"?>
<svg width="153" height="256">
  <circle cx="36" cy="91" r="13" fill="#800080" />
  <circle cx="115" cy="83" r="11" fill="#800080" />
  <circle cx="34" cy="21" r="11" fill="#800080" />
  <circle cx="34" cy="42" r="11" fill="#800080" />
  <circle cx="34" cy="63" r="11" fill="#800080" />
  <circle cx="34" cy="114" r="11" fill="#800080" />
  <circle cx="34" cy="135" r="11" fill="#800080" />
  <circle cx="34" cy="156" r="11" fill="#800080" />
  <circle cx="34" cy="177" r="11" fill="#800080" />
  <circle cx="119" cy="104" r="11" fill="#800080" />
  <circle cx="119" cy="125" r="11" fill="#800080" />
  <circle cx="119" cy="146" r="11" fill="#800080" />
  <circle cx="119" cy="167" r="11" fill="#800080" />
  <circle cx="99" cy="69" r="9" fill="#800080" />
  <circle cx="117" cy="186" r="9" fill="#800080" />
  <circle cx="76" cy="67" r="8" fill="#800080" />
  <circle cx="61" cy="73" r="6" fill="#800080" />
  <circle cx="52" cy="82" r="5" fill="#800080" />
  <circle cx="27" cy="76" r="4" fill="#800080" />
  <circle cx="27" cy="190" r="4" fill="#800080" />
  <circle cx="34" cy="191" r="4" fill="#800080" />
  <circle cx="41" cy="190" r="4" fill="#800080" />
  <circle cx="87" cy="62" r="4" fill="#800080" />
  <circle cx="111" cy="68" r="4" fill="#800080" />
</svg>
