<?xml version="1.0"?>
<svg width="153" height="256">
  <circle cx="36" cy="122" r="15" fill="#800080" />
  <circle cx="68" cy="103" r="13" fill="#800080" />
  <circle cx="32" cy="39" r="12" fill="#800080" />
  <circle cx="32" cy="62" r="12" fill="#800080" />
  <circle cx="32" cy="85" r="12" fill="#800080" />
  <circle cx="32" cy="148" r="12" fill="#800080" />
  <circle cx="32" cy="171" r="12" fill="#800080" />
  <circle cx="85" cy="124" r="11" fill="#800080" />
  <circle cx="98" cy="141" r="11" fill="#800080" />
  <circle cx="111" cy="158" r="11" fill="#800080" />
  <circle cx="124" cy="176" r="11" fill="#800080" />
  <circle cx="102" cy="58" r="10" fill="#800080" />
  <circle cx="116" cy="42" r="10" fill="#800080" />
  <circle cx="88" cy="74" r="9" fill="#800080" />
  <circle cx="137" cy="188" r="7" fill="#800080" />
  <circle cx="76" cy="84" r="6" fill="#800080" />
  <circle cx="26" cy="102" r="6" fill="#800080" />
  <circle cx="26" cy="188" r="6" fill="#800080" />
  <circle cx="37" cy="188" r="6" fill="#800080" />
  <circle cx="38" cy="101" r="5" fill="#800080" />
  <circle cx="55" cy="116" r="5" fill="#800080" />
  <circle cx="128" cy="32" r="5" fill="#800080" />
  <circle cx="85" cy="86" r="4" fill="#800080" />
  <circle cx="126" cy="190" r="4" fill="#800080" />
</svg>
