<?xml version="1.0"?>
<svg width="153" height="256">
  <circle cx="43" cy="135" r="13" fill="#800080" />
  <circle cx="71" cy="122" r="11" fill="#800080" />
  <circle cx="40" cy="21" r="11" fill="#800080" />
  <circle cx="40" cy="42" r="11" fill="#800080" />
  <circle cx="40" cy="63" r="11" fill="#800080" />
  <circle cx="40" cy="84" r="11" fill="#800080" />
  <circle cx="40" cy="105" r="11" fill="#800080" />
  <circle cx="40" cy="158" r="11" fill="#800080" />
  <circle cx="40" cy="179" r="11" fill="#800080" />
  <circle cx="108" cy="170" r="10" fill="#800080" />
  <circle cx="85" cy="139" r="10" fill="#800080" />
  <circle cx="110" cy="75" r="9" fill="#800080" />
  <circle cx="96" cy="154" r="9" fill="#800080" />
  <circle cx="119" cy="185" r="9" fill="#800080" />
  <circle cx="82" cy="105" r="8" fill="#800080" />
  <circle cx="93" cy="92" r="8" fill="#800080" />
  <circle cx="122" cy="66" r="6" fill="#800080" />
  <circle cx="60" cy="133" r="4" fill="#800080" />
  <circle cx="33" cy="118" r="4" fill="#800080" />
  <circle cx="46" cy="118" r="4" fill="#800080" />
  <circle cx="98" cy="81" r="4" fill="#800080" />
  <circle cx="103" cy="86" r="4" fill="#800080" />
  <circle cx="130" cy="191" r="4" fill="#800080" />
</svg>
