<?xml version="1.0"?>
<svg width="153" height="256">
  <circle cx="122" cy="42" r="14" fill="#800080" />
  <circle cx="30" cy="41" r="13" fill="#800080" />
  <circle cx="76" cy="127" r="12" fill="#800080" />
  <circle cx="26" cy="82" r="10" fill="#800080" />
  <circle cx="26" cy="101" r="10" fill="#800080" />
  <circle cx="26" cy="120" r="10" fill="#800080" />
  <circle cx="26" cy="139" r="10" fill="#800080" />
  <circle cx="26" cy="158" r="10" fill="#800080" />
  <circle cx="26" cy="177" r="10" fill="#800080" />
  <circle cx="127" cy="65" r="10" fill="#800080" />
  <circle cx="127" cy="84" r="10" fill="#800080" />
  <circle cx="127" cy="103" r="10" fill="#800080" />
  <circle cx="127" cy="122" r="10" fill="#800080" />
  <circle cx="127" cy="141" r="10" fill="#800080" />
  <circle cx="127" cy="160" r="10" fill="#800080" />
  <circle cx="127" cy="179" r="10" fill="#800080" />
  <circle cx="56" cy="82" r="9" fill="#800080" />
  <circle cx="25" cy="62" r="9" fill="#800080" />
  <circle cx="63" cy="101" r="9" fill="#800080" />
  <circle cx="47" cy="57" r="8" fill="#800080" />
  <circle cx="88" cy="108" r="8" fill="#800080" />
  <circle cx="93" cy="92" r="8" fill="#800080" />
  <circle cx="99" cy="76" r="8" fill="#800080" />
  <circle cx="105" cy="60" r="7" fill="#800080" />
  <circle cx="55" cy="67" r="5" fill="#800080" />
  <circle cx="64" cy="114" r="5" fill="#800080" />
  <circle cx="31" cy="190" r="4" fill="#800080" />
  <circle cx="20" cy="190" r="4" fill="#800080" />
  <circle cx="46" cy="40" r="4" fill="#800080" />
  <circle cx="46" cy="68" r="4" fill="#800080" />
  <circle cx="105" cy="49" r="4" fill="#800080" />
  <circle cx="133" cy="191" r="4" fill="#800080" />
</svg>
