<?xml version="1.0"?>
<svg width="153" height="256">
  <circle cx="25" cy="101" r="12" fill="#800080" />
  <circle cx="25" cy="124" r="12" fill="#800080" />
  <circle cx="28" cy="76" r="12" fill="#800080" />
  <circle cx="29" cy="147" r="12" fill="#800080" />
  <circle cx="123" cy="71" r="12" fill="#800080" />
  <circle cx="124" cy="145" r="12" fill="#800080" />
  <circle cx="127" cy="94" r="12" fill="#800080" />
  <circle cx="127" cy="117" r="12" fill="#800080" />
  <circle cx="37" cy="54" r="11" fill="#800080" />
  <circle cx="38" cy="168" r="11" fill="#800080" />
  <circle cx="106" cy="43" r="11" fill="#800080" />
  <circle cx="109" cy="175" r="11" fill="#800080" />
  <circle cx="52" cy="39" r="10" fill="#800080" />
  <circle cx="53" cy="182" r="10" fill="#800080" />
  <circle cx="86" cy="34" r="9" fill="#800080" />
  <circle cx="71" cy="187" r="9" fill="#800080" />
  <circle cx="88" cy="186" r="9" fill="#800080" />
  <circle cx="69" cy="32" r="8" fill="#800080" />
  <circle cx="122" cy="163" r="6" fill="#800080" />
  <circle cx="119" cy="53" r="6" fill="#800080" />
  <circle cx="134" cy="132" r="4" fill="#800080" />
  <circle cx="100" cy="187" r="4" fill="#800080" />
  <circle cx="109" cy="57" r="4" fill="#800080" />
  <circle cx="111" cy="159" r="4" fill="#800080" />
</svg>
