<?xml version="1.0"?>
<svg width="153" height="256">
  <circle cx="116" cy="89" r="14" fill="#800080" />
  <circle cx="116" cy="163" r="13" fill="#800080" />
  <circle cx="29" cy="143" r="11" fill="#800080" />
  <circle cx="28" cy="117" r="11" fill="#800080" />
  <circle cx="33" cy="93" r="11" fill="#800080" />
  <circle cx="33" cy="164" r="11" fill="#800080" />
  <circle cx="45" cy="182" r="11" fill="#800080" />
  <circle cx="118" cy="113" r="11" fill="#800080" />
  <circle cx="118" cy="134" r="11" fill="#800080" />
  <circle cx="118" cy="193" r="11" fill="#800080" />
  <circle cx="118" cy="214" r="11" fill="#800080" />
  <circle cx="118" cy="235" r="11" fill="#800080" />
  <circle cx="45" cy="74" r="10" fill="#800080" />
  <circle cx="63" cy="189" r="8" fill="#800080" />
  <circle cx="62" cy="66" r="8" fill="#800080" />
  <circle cx="77" cy="67" r="8" fill="#800080" />
  <circle cx="78" cy="189" r="7" fill="#800080" />
  <circle cx="115" cy="67" r="7" fill="#800080" />
  <circle cx="91" cy="184" r="6" fill="#800080" />
  <circle cx="90" cy="70" r="6" fill="#800080" />
  <circle cx="98" cy="77" r="5" fill="#800080" />
  <circle cx="99" cy="176" r="5" fill="#800080" />
  <circle cx="125" cy="178" r="5" fill="#800080" />
  <circle cx="125" cy="72" r="4" fill="#800080" />
  <circle cx="36" cy="129" r="4" fill="#800080" />
  <circle cx="124" cy="147" r="4" fill="#800080" />
  <circle cx="125" cy="64" r="4" fill="#800080" />
</svg>
