<?xml version="1.0"?>
<svg width="153" height="256">
  <circle cx="81" cy="191" r="12" fill="#800080" />
  <circle cx="24" cy="104" r="12" fill="#800080" />
  <circle cx="25" cy="127" r="12" fill="#800080" />
  <circle cx="27" cy="80" r="12" fill="#800080" />
  <circle cx="30" cy="151" r="12" fill="#800080" />
  <circle cx="123" cy="71" r="12" fill="#800080" />
  <circle cx="124" cy="145" r="12" fill="#800080" />
  <circle cx="127" cy="94" r="12" fill="#800080" />
  <circle cx="127" cy="117" r="12" fill="#800080" />
  <circle cx="35" cy="57" r="11" fill="#800080" />
  <circle cx="40" cy="171" r="11" fill="#800080" />
  <circle cx="87" cy="213" r="11" fill="#800080" />
  <circle cx="106" cy="43" r="11" fill="#800080" />
  <circle cx="109" cy="175" r="11" fill="#800080" />
  <circle cx="102" cy="229" r="10" fill="#800080" />
  <circle cx="49" cy="41" r="10" fill="#800080" />
  <circle cx="57" cy="184" r="10" fill="#800080" />
  <circle cx="86" cy="34" r="9" fill="#800080" />
  <circle cx="67" cy="34" r="9" fill="#800080" />
  <circle cx="120" cy="234" r="9" fill="#800080" />
  <circle cx="135" cy="232" r="7" fill="#800080" />
  <circle cx="122" cy="163" r="6" fill="#800080" />
  <circle cx="119" cy="53" r="6" fill="#800080" />
  <circle cx="98" cy="187" r="5" fill="#800080" />
  <circle cx="134" cy="132" r="4" fill="#800080" />
  <circle cx="88" cy="227" r="4" fill="#800080" />
  <circle cx="92" cy="179" r="4" fill="#800080" />
  <circle cx="109" cy="57" r="4" fill="#800080" />
  <circle cx="111" cy="159" r="4" fill="#800080" />
</svg>
