<?xml version="1.0"?>
<svg width="153" height="256">
  <circle cx="120" cy="149" r="10" fill="#800080" />
  <circle cx="36" cy="93" r="10" fill="#800080" />
  <circle cx="43" cy="112" r="10" fill="#800080" />
  <circle cx="61" cy="121" r="10" fill="#800080" />
  <circle cx="80" cy="126" r="10" fill="#800080" />
  <circle cx="100" cy="132" r="10" fill="#800080" />
  <circle cx="119" cy="170" r="9" fill="#800080" />
  <circle cx="33" cy="171" r="9" fill="#800080" />
  <circle cx="113" cy="79" r="9" fill="#800080" />
  <circle cx="45" cy="75" r="8" fill="#800080" />
  <circle cx="44" cy="183" r="8" fill="#800080" />
  <circle cx="59" cy="188" r="8" fill="#800080" />
  <circle cx="60" cy="68" r="8" fill="#800080" />
  <circle cx="74" cy="189" r="8" fill="#800080" />
  <circle cx="75" cy="66" r="8" fill="#800080" />
  <circle cx="89" cy="188" r="8" fill="#800080" />
  <circle cx="90" cy="67" r="8" fill="#800080" />
  <circle cx="105" cy="184" r="8" fill="#800080" />
  <circle cx="103" cy="68" r="5" fill="#800080" />
  <circle cx="114" cy="134" r="5" fill="#800080" />
  <circle cx="116" cy="182" r="4" fill="#800080" />
  <circle cx="122" cy="87" r="4" fill="#800080" />
  <circle cx="128" cy="160" r="4" fill="#800080" />
</svg>
