<?xml version="1.0"?>
<svg width="127" height="256">
  <circle cx="19" cy="110" r="10" fill="#800080" />
  <circle cx="19" cy="130" r="10" fill="#800080" />
  <circle cx="20" cy="150" r="10" fill="#800080" />
  <circle cx="104" cy="163" r="10" fill="#800080" />
  <circle cx="105" cy="95" r="10" fill="#800080" />
  <circle cx="107" cy="115" r="10" fill="#800080" />
  <circle cx="107" cy="135" r="10" fill="#800080" />
  <circle cx="22" cy="88" r="9" fill="#800080" />
  <circle cx="23" cy="169" r="9" fill="#800080" />
  <circle cx="30" cy="71" r="9" fill="#800080" />
  <circle cx="32" cy="186" r="9" fill="#800080" />
  <circle cx="86" cy="61" r="9" fill="#800080" />
  <circle cx="87" cy="193" r="9" fill="#800080" />
  <circle cx="98" cy="75" r="9" fill="#800080" />
  <circle cx="42" cy="59" r="8" fill="#800080" />
  <circle cx="45" cy="197" r="8" fill="#800080" />
  <circle cx="58" cy="55" r="8" fill="#800080" />
  <circle cx="61" cy="200" r="8" fill="#800080" />
  <circle cx="99" cy="181" r="8" fill="#800080" />
  <circle cx="72" cy="53" r="6" fill="#800080" />
  <circle cx="74" cy="200" r="5" fill="#800080" />
  <circle cx="100" cy="149" r="4" fill="#800080" />
  <circle cx="108" cy="149" r="4" fill="#800080" />
</svg>
