<?xml version="1.0"?>
<svg width="127" height="256">
  <circle cx="25" cy="120" r="11" fill="#800080" />
  <circle cx="22" cy="180" r="10" fill="#800080" />
  <circle cx="26" cy="85" r="10" fill="#800080" />
  <circle cx="28" cy="59" r="10" fill="#800080" />
  <circle cx="91" cy="122" r="10" fill="#800080" />
  <circle cx="95" cy="188" r="10" fill="#800080" />
  <circle cx="104" cy="138" r="10" fill="#800080" />
  <circle cx="105" cy="168" r="10" fill="#800080" />
  <circle cx="37" cy="195" r="9" fill="#800080" />
  <circle cx="46" cy="57" r="8" fill="#800080" />
  <circle cx="54" cy="200" r="8" fill="#800080" />
  <circle cx="56" cy="115" r="8" fill="#800080" />
  <circle cx="62" cy="57" r="8" fill="#800080" />
  <circle cx="70" cy="200" r="8" fill="#800080" />
  <circle cx="72" cy="115" r="8" fill="#800080" />
  <circle cx="78" cy="57" r="8" fill="#800080" />
  <circle cx="94" cy="57" r="8" fill="#800080" />
  <circle cx="22" cy="102" r="7" fill="#800080" />
  <circle cx="42" cy="118" r="6" fill="#800080" />
  <circle cx="83" cy="198" r="5" fill="#800080" />
  <circle cx="101" cy="153" r="5" fill="#800080" />
  <circle cx="111" cy="152" r="5" fill="#800080" />
</svg>
