<?xml version="1.0"?>
<svg width="127" height="256">
  <circle cx="23" cy="131" r="12" fill="#800080" />
  <circle cx="23" cy="153" r="10" fill="#800080" />
  <circle cx="95" cy="123" r="10" fill="#800080" />
  <circle cx="95" cy="189" r="10" fill="#800080" />
  <circle cx="105" cy="141" r="10" fill="#800080" />
  <circle cx="105" cy="169" r="10" fill="#800080" />
  <circle cx="22" cy="105" r="9" fill="#800080" />
  <circle cx="27" cy="86" r="9" fill="#800080" />
  <circle cx="27" cy="172" r="9" fill="#800080" />
  <circle cx="37" cy="69" r="9" fill="#800080" />
  <circle cx="37" cy="188" r="9" fill="#800080" />
  <circle cx="90" cy="61" r="9" fill="#800080" />
  <circle cx="50" cy="58" r="8" fill="#800080" />
  <circle cx="51" cy="198" r="8" fill="#800080" />
  <circle cx="66" cy="55" r="8" fill="#800080" />
  <circle cx="67" cy="200" r="8" fill="#800080" />
  <circle cx="72" cy="113" r="8" fill="#800080" />
  <circle cx="55" cy="114" r="7" fill="#800080" />
  <circle cx="101" cy="73" r="7" fill="#800080" />
  <circle cx="43" cy="120" r="6" fill="#800080" />
  <circle cx="81" cy="198" r="6" fill="#800080" />
  <circle cx="112" cy="155" r="5" fill="#800080" />
  <circle cx="78" cy="52" r="4" fill="#800080" />
  <circle cx="84" cy="111" r="4" fill="#800080" />
  <circle cx="100" cy="155" r="4" fill="#800080" />
</svg>
