<?xml version="1.0"?>
<svg width="127" height="256">
  <circle cx="20" cy="156" r="10" fill="#800080" />
  <circle cx="22" cy="176" r="10" fill="#800080" />
  <circle cx="23" cy="87" r="10" fill="#800080" />
  <circle cx="98" cy="70" r="10" fill="#800080" />
  <circle cx="100" cy="186" r="10" fill="#800080" />
  <circle cx="102" cy="90" r="10" fill="#800080" />
  <circle cx="105" cy="150" r="10" fill="#800080" />
  <circle cx="29" cy="68" r="9" fill="#800080" />
  <circle cx="29" cy="107" r="9" fill="#800080" />
  <circle cx="33" cy="192" r="9" fill="#800080" />
  <circle cx="48" cy="123" r="9" fill="#800080" />
  <circle cx="78" cy="123" r="9" fill="#800080" />
  <circle cx="28" cy="138" r="8" fill="#800080" />
  <circle cx="84" cy="58" r="8" fill="#800080" />
  <circle cx="84" cy="198" r="8" fill="#800080" />
  <circle cx="94" cy="110" r="8" fill="#800080" />
  <circle cx="94" cy="135" r="8" fill="#800080" />
  <circle cx="104" cy="168" r="8" fill="#800080" />
  <circle cx="42" cy="58" r="7" fill="#800080" />
  <circle cx="48" cy="200" r="7" fill="#800080" />
  <circle cx="56" cy="54" r="7" fill="#800080" />
  <circle cx="62" cy="201" r="7" fill="#800080" />
  <circle cx="63" cy="122" r="6" fill="#800080" />
  <circle cx="69" cy="53" r="6" fill="#800080" />
  <circle cx="73" cy="204" r="4" fill="#800080" />
  <circle cx="105" cy="104" r="4" fill="#800080" />
</svg>
