<?xml version="1.0"?>
<svg width="127" height="256">
  <circle cx="103" cy="122" r="12" fill="#800080" />
  <circle cx="20" cy="99" r="10" fill="#800080" />
  <circle cx="24" cy="79" r="10" fill="#800080" />
  <circle cx="24" cy="120" r="10" fill="#800080" />
  <circle cx="104" cy="98" r="10" fill="#800080" />
  <circle cx="26" cy="183" r="9" fill="#800080" />
  <circle cx="35" cy="136" r="9" fill="#800080" />
  <circle cx="36" cy="63" r="9" fill="#800080" />
  <circle cx="39" cy="196" r="9" fill="#800080" />
  <circle cx="81" cy="59" r="9" fill="#800080" />
  <circle cx="87" cy="190" r="9" fill="#800080" />
  <circle cx="95" cy="71" r="9" fill="#800080" />
  <circle cx="98" cy="172" r="9" fill="#800080" />
  <circle cx="103" cy="153" r="9" fill="#800080" />
  <circle cx="51" cy="144" r="8" fill="#800080" />
  <circle cx="54" cy="55" r="8" fill="#800080" />
  <circle cx="56" cy="200" r="8" fill="#800080" />
  <circle cx="72" cy="199" r="8" fill="#800080" />
  <circle cx="66" cy="144" r="7" fill="#800080" />
  <circle cx="79" cy="139" r="6" fill="#800080" />
  <circle cx="67" cy="52" r="5" fill="#800080" />
  <circle cx="88" cy="131" r="5" fill="#800080" />
  <circle cx="96" cy="85" r="5" fill="#800080" />
  <circle cx="101" cy="139" r="5" fill="#800080" />
  <circle cx="105" cy="80" r="4" fill="#800080" />
  <circle cx="110" cy="137" r="4" fill="#800080" />
</svg>
