<?xml version="1.0"?>
<svg width="127" height="256">
  <circle cx="97" cy="175" r="12" fill="#800080" />
  <circle cx="97" cy="140" r="11" fill="#800080" />
  <circle cx="19" cy="173" r="10" fill="#800080" />
  <circle cx="26" cy="153" r="10" fill="#800080" />
  <circle cx="26" cy="193" r="10" fill="#800080" />
  <circle cx="28" cy="107" r="10" fill="#800080" />
  <circle cx="93" cy="103" r="10" fill="#800080" />
  <circle cx="102" cy="196" r="9" fill="#800080" />
  <circle cx="43" cy="94" r="8" fill="#800080" />
  <circle cx="60" cy="91" r="8" fill="#800080" />
  <circle cx="97" cy="121" r="8" fill="#800080" />
  <circle cx="41" cy="143" r="7" fill="#800080" />
  <circle cx="42" cy="201" r="7" fill="#800080" />
  <circle cx="55" cy="141" r="7" fill="#800080" />
  <circle cx="56" cy="200" r="7" fill="#800080" />
  <circle cx="69" cy="140" r="7" fill="#800080" />
  <circle cx="75" cy="92" r="7" fill="#800080" />
  <circle cx="69" cy="196" r="6" fill="#800080" />
  <circle cx="95" cy="157" r="6" fill="#800080" />
  <circle cx="117" cy="200" r="6" fill="#800080" />
  <circle cx="78" cy="189" r="5" fill="#800080" />
  <circle cx="81" cy="138" r="5" fill="#800080" />
  <circle cx="105" cy="154" r="4" fill="#800080" />
</svg>
