<?xml version="1.0"?>
<svg width="152" height="256">
  <circle cx="35" cy="150" r="11" fill="#800080" />
  <circle cx="114" cy="149" r="11" fill="#800080" />
  <circle cx="15" cy="196" r="10" fill="#800080" />
  <circle cx="23" cy="176" r="10" fill="#800080" />
  <circle cx="82" cy="59" r="10" fill="#800080" />
  <circle cx="126" cy="169" r="10" fill="#800080" />
  <circle cx="134" cy="189" r="10" fill="#800080" />
  <circle cx="41" cy="130" r="9" fill="#800080" />
  <circle cx="49" cy="110" r="9" fill="#800080" />
  <circle cx="57" cy="91" r="9" fill="#800080" />
  <circle cx="64" cy="73" r="9" fill="#800080" />
  <circle cx="90" cy="77" r="9" fill="#800080" />
  <circle cx="97" cy="95" r="9" fill="#800080" />
  <circle cx="104" cy="113" r="9" fill="#800080" />
  <circle cx="54" cy="152" r="8" fill="#800080" />
  <circle cx="70" cy="152" r="8" fill="#800080" />
  <circle cx="86" cy="152" r="8" fill="#800080" />
  <circle cx="109" cy="130" r="8" fill="#800080" />
  <circle cx="66" cy="58" r="5" fill="#800080" />
  <circle cx="144" cy="201" r="5" fill="#800080" />
  <circle cx="23" cy="161" r="4" fill="#800080" />
  <circle cx="33" cy="165" r="4" fill="#800080" />
  <circle cx="98" cy="148" r="4" fill="#800080" />
  <circle cx="98" cy="156" r="4" fill="#800080" />
</svg>
