<?xml version="1.0"?>
<svg width="127" height="256">
  <circle cx="27" cy="110" r="12" fill="#800080" />
  <circle cx="27" cy="177" r="12" fill="#800080" />
  <circle cx="25" cy="50" r="10" fill="#800080" />
  <circle cx="25" cy="70" r="10" fill="#800080" />
  <circle cx="25" cy="132" r="10" fill="#800080" />
  <circle cx="25" cy="152" r="10" fill="#800080" />
  <circle cx="93" cy="99" r="10" fill="#800080" />
  <circle cx="95" cy="191" r="10" fill="#800080" />
  <circle cx="103" cy="117" r="10" fill="#800080" />
  <circle cx="104" cy="171" r="10" fill="#800080" />
  <circle cx="106" cy="137" r="10" fill="#800080" />
  <circle cx="24" cy="89" r="9" fill="#800080" />
  <circle cx="23" cy="197" r="8" fill="#800080" />
  <circle cx="70" cy="91" r="8" fill="#800080" />
  <circle cx="79" cy="200" r="8" fill="#800080" />
  <circle cx="60" cy="200" r="7" fill="#800080" />
  <circle cx="103" cy="154" r="7" fill="#800080" />
  <circle cx="46" cy="99" r="6" fill="#800080" />
  <circle cx="41" cy="188" r="5" fill="#800080" />
  <circle cx="47" cy="196" r="5" fill="#800080" />
  <circle cx="55" cy="92" r="5" fill="#800080" />
  <circle cx="82" cy="88" r="4" fill="#800080" />
</svg>
