<?xml version="1.0"?>
<svg width="152" height="256">
  <circle cx="30" cy="122" r="12" fill="#800080" />
  <circle cx="29" cy="60" r="11" fill="#800080" />
  <circle cx="29" cy="82" r="11" fill="#800080" />
  <circle cx="29" cy="145" r="11" fill="#800080" />
  <circle cx="29" cy="167" r="11" fill="#800080" />
  <circle cx="29" cy="189" r="11" fill="#800080" />
  <circle cx="107" cy="64" r="10" fill="#800080" />
  <circle cx="117" cy="188" r="10" fill="#800080" />
  <circle cx="118" cy="101" r="10" fill="#800080" />
  <circle cx="119" cy="81" r="10" fill="#800080" />
  <circle cx="127" cy="148" r="10" fill="#800080" />
  <circle cx="128" cy="168" r="10" fill="#800080" />
  <circle cx="86" cy="124" r="9" fill="#800080" />
  <circle cx="26" cy="101" r="8" fill="#800080" />
  <circle cx="47" cy="197" r="8" fill="#800080" />
  <circle cx="48" cy="57" r="8" fill="#800080" />
  <circle cx="50" cy="124" r="8" fill="#800080" />
  <circle cx="63" cy="197" r="8" fill="#800080" />
  <circle cx="64" cy="57" r="8" fill="#800080" />
  <circle cx="66" cy="124" r="8" fill="#800080" />
  <circle cx="79" cy="197" r="8" fill="#800080" />
  <circle cx="80" cy="57" r="8" fill="#800080" />
  <circle cx="95" cy="197" r="8" fill="#800080" />
  <circle cx="106" cy="114" r="7" fill="#800080" />
  <circle cx="113" cy="134" r="7" fill="#800080" />
  <circle cx="93" cy="55" r="5" fill="#800080" />
  <circle cx="100" cy="126" r="5" fill="#800080" />
  <circle cx="93" cy="64" r="4" fill="#800080" />
  <circle cx="107" cy="199" r="4" fill="#800080" />
  <circle cx="131" cy="182" r="4" fill="#800080" />
</svg>
