<?xml version="1.0"?>
<svg width="165" height="256">
  <circle cx="22" cy="122" r="11" fill="#800080" />
  <circle cx="35" cy="174" r="11" fill="#800080" />
  <circle cx="23" cy="143" r="10" fill="#800080" />
  <circle cx="25" cy="99" r="10" fill="#800080" />
  <circle cx="34" cy="80" r="10" fill="#800080" />
  <circle cx="49" cy="66" r="10" fill="#800080" />
  <circle cx="50" cy="189" r="10" fill="#800080" />
  <circle cx="125" cy="65" r="10" fill="#800080" />
  <circle cx="132" cy="184" r="10" fill="#800080" />
  <circle cx="140" cy="79" r="10" fill="#800080" />
  <circle cx="67" cy="58" r="9" fill="#800080" />
  <circle cx="68" cy="197" r="9" fill="#800080" />
  <circle cx="87" cy="200" r="9" fill="#800080" />
  <circle cx="105" cy="57" r="9" fill="#800080" />
  <circle cx="84" cy="55" r="8" fill="#800080" />
  <circle cx="104" cy="198" r="8" fill="#800080" />
  <circle cx="144" cy="170" r="8" fill="#800080" />
  <circle cx="22" cy="159" r="6" fill="#800080" />
  <circle cx="117" cy="191" r="6" fill="#800080" />
  <circle cx="33" cy="157" r="5" fill="#800080" />
</svg>
