<?xml version="1.0"?>
<svg width="127" height="256">
  <circle cx="22" cy="142" r="12" fill="#800080" />
  <circle cx="21" cy="164" r="10" fill="#800080" />
  <circle cx="104" cy="140" r="10" fill="#800080" />
  <circle cx="22" cy="120" r="9" fill="#800080" />
  <circle cx="28" cy="183" r="9" fill="#800080" />
  <circle cx="32" cy="103" r="9" fill="#800080" />
  <circle cx="95" cy="104" r="9" fill="#800080" />
  <circle cx="100" cy="186" r="9" fill="#800080" />
  <circle cx="103" cy="121" r="9" fill="#800080" />
  <circle cx="40" cy="195" r="8" fill="#800080" />
  <circle cx="86" cy="197" r="8" fill="#800080" />
  <circle cx="41" cy="142" r="7" fill="#800080" />
  <circle cx="46" cy="93" r="7" fill="#800080" />
  <circle cx="55" cy="142" r="7" fill="#800080" />
  <circle cx="55" cy="200" r="7" fill="#800080" />
  <circle cx="60" cy="91" r="7" fill="#800080" />
  <circle cx="69" cy="142" r="7" fill="#800080" />
  <circle cx="69" cy="201" r="7" fill="#800080" />
  <circle cx="74" cy="91" r="7" fill="#800080" />
  <circle cx="83" cy="142" r="7" fill="#800080" />
  <circle cx="86" cy="93" r="5" fill="#800080" />
</svg>
