<?xml version="1.0"?>
<svg width="152" height="256">
  <circle cx="30" cy="123" r="12" fill="#800080" />
  <circle cx="29" cy="60" r="11" fill="#800080" />
  <circle cx="29" cy="82" r="11" fill="#800080" />
  <circle cx="29" cy="146" r="11" fill="#800080" />
  <circle cx="29" cy="168" r="11" fill="#800080" />
  <circle cx="29" cy="190" r="11" fill="#800080" />
  <circle cx="27" cy="102" r="9" fill="#800080" />
  <circle cx="47" cy="198" r="8" fill="#800080" />
  <circle cx="48" cy="57" r="8" fill="#800080" />
  <circle cx="50" cy="125" r="8" fill="#800080" />
  <circle cx="63" cy="197" r="8" fill="#800080" />
  <circle cx="64" cy="57" r="8" fill="#800080" />
  <circle cx="66" cy="125" r="8" fill="#800080" />
  <circle cx="79" cy="197" r="8" fill="#800080" />
  <circle cx="80" cy="57" r="8" fill="#800080" />
  <circle cx="82" cy="125" r="8" fill="#800080" />
  <circle cx="95" cy="197" r="8" fill="#800080" />
  <circle cx="96" cy="57" r="8" fill="#800080" />
  <circle cx="98" cy="125" r="8" fill="#800080" />
  <circle cx="111" cy="197" r="8" fill="#800080" />
  <circle cx="112" cy="57" r="8" fill="#800080" />
  <circle cx="114" cy="125" r="8" fill="#800080" />
  <circle cx="127" cy="197" r="8" fill="#800080" />
  <circle cx="128" cy="57" r="8" fill="#800080" />
  <circle cx="126" cy="121" r="4" fill="#800080" />
  <circle cx="126" cy="129" r="4" fill="#800080" />
</svg>
