<?xml version="1.0"?>
<svg width="139" height="256">
  <circle cx="31" cy="134" r="13" fill="#800080" />
  <circle cx="29" cy="60" r="11" fill="#800080" />
  <circle cx="29" cy="82" r="11" fill="#800080" />
  <circle cx="29" cy="104" r="11" fill="#800080" />
  <circle cx="29" cy="158" r="11" fill="#800080" />
  <circle cx="29" cy="180" r="11" fill="#800080" />
  <circle cx="53" cy="134" r="9" fill="#800080" />
  <circle cx="71" cy="134" r="9" fill="#800080" />
  <circle cx="89" cy="134" r="9" fill="#800080" />
  <circle cx="107" cy="134" r="9" fill="#800080" />
  <circle cx="48" cy="57" r="8" fill="#800080" />
  <circle cx="64" cy="57" r="8" fill="#800080" />
  <circle cx="80" cy="57" r="8" fill="#800080" />
  <circle cx="96" cy="57" r="8" fill="#800080" />
  <circle cx="112" cy="57" r="8" fill="#800080" />
  <circle cx="25" cy="198" r="7" fill="#800080" />
  <circle cx="122" cy="131" r="6" fill="#800080" />
  <circle cx="125" cy="54" r="5" fill="#800080" />
  <circle cx="22" cy="118" r="4" fill="#800080" />
  <circle cx="36" cy="194" r="4" fill="#800080" />
  <circle cx="36" cy="202" r="4" fill="#800080" />
</svg>
