<?xml version="1.0"?>
<svg width="178" height="256">
  <circle cx="22" cy="120" r="11" fill="#800080" />
  <circle cx="149" cy="139" r="11" fill="#800080" />
  <circle cx="22" cy="141" r="10" fill="#800080" />
  <circle cx="25" cy="98" r="10" fill="#800080" />
  <circle cx="27" cy="161" r="10" fill="#800080" />
  <circle cx="35" cy="79" r="10" fill="#800080" />
  <circle cx="38" cy="178" r="10" fill="#800080" />
  <circle cx="127" cy="64" r="10" fill="#800080" />
  <circle cx="147" cy="181" r="10" fill="#800080" />
  <circle cx="151" cy="160" r="10" fill="#800080" />
  <circle cx="50" cy="65" r="9" fill="#800080" />
  <circle cx="53" cy="191" r="9" fill="#800080" />
  <circle cx="72" cy="198" r="9" fill="#800080" />
  <circle cx="78" cy="56" r="9" fill="#800080" />
  <circle cx="90" cy="200" r="9" fill="#800080" />
  <circle cx="102" cy="56" r="9" fill="#800080" />
  <circle cx="103" cy="137" r="9" fill="#800080" />
  <circle cx="115" cy="197" r="9" fill="#800080" />
  <circle cx="121" cy="137" r="9" fill="#800080" />
  <circle cx="141" cy="78" r="9" fill="#800080" />
  <circle cx="132" cy="192" r="8" fill="#800080" />
  <circle cx="63" cy="56" r="6" fill="#800080" />
  <circle cx="103" cy="204" r="4" fill="#800080" />
  <circle cx="115" cy="54" r="4" fill="#800080" />
  <circle cx="134" cy="132" r="4" fill="#800080" />
  <circle cx="134" cy="140" r="4" fill="#800080" />
</svg>
