<?xml version="1.0"?>
<svg width="165" height="256">
  <circle cx="30" cy="122" r="12" fill="#800080" />
  <circle cx="133" cy="124" r="12" fill="#800080" />
  <circle cx="29" cy="60" r="11" fill="#800080" />
  <circle cx="29" cy="82" r="11" fill="#800080" />
  <circle cx="29" cy="145" r="11" fill="#800080" />
  <circle cx="29" cy="167" r="11" fill="#800080" />
  <circle cx="29" cy="189" r="11" fill="#800080" />
  <circle cx="135" cy="59" r="10" fill="#800080" />
  <circle cx="135" cy="79" r="10" fill="#800080" />
  <circle cx="135" cy="99" r="10" fill="#800080" />
  <circle cx="135" cy="146" r="10" fill="#800080" />
  <circle cx="135" cy="166" r="10" fill="#800080" />
  <circle cx="135" cy="186" r="10" fill="#800080" />
  <circle cx="26" cy="101" r="8" fill="#800080" />
  <circle cx="50" cy="124" r="8" fill="#800080" />
  <circle cx="66" cy="124" r="8" fill="#800080" />
  <circle cx="82" cy="124" r="8" fill="#800080" />
  <circle cx="98" cy="124" r="8" fill="#800080" />
  <circle cx="113" cy="123" r="7" fill="#800080" />
  <circle cx="130" cy="201" r="5" fill="#800080" />
  <circle cx="140" cy="201" r="5" fill="#800080" />
</svg>
