<?xml version="1.0"?>
<svg width="190" height="256">
  <circle cx="31" cy="62" r="13" fill="#800080" />
  <circle cx="157" cy="62" r="13" fill="#800080" />
  <circle cx="94" cy="191" r="11" fill="#800080" />
  <circle cx="162" cy="94" r="10" fill="#800080" />
  <circle cx="162" cy="114" r="10" fill="#800080" />
  <circle cx="162" cy="134" r="10" fill="#800080" />
  <circle cx="162" cy="154" r="10" fill="#800080" />
  <circle cx="162" cy="174" r="10" fill="#800080" />
  <circle cx="162" cy="194" r="10" fill="#800080" />
  <circle cx="27" cy="84" r="9" fill="#800080" />
  <circle cx="27" cy="102" r="9" fill="#800080" />
  <circle cx="27" cy="120" r="9" fill="#800080" />
  <circle cx="27" cy="138" r="9" fill="#800080" />
  <circle cx="27" cy="156" r="9" fill="#800080" />
  <circle cx="27" cy="174" r="9" fill="#800080" />
  <circle cx="27" cy="192" r="9" fill="#800080" />
  <circle cx="56" cy="99" r="9" fill="#800080" />
  <circle cx="63" cy="117" r="9" fill="#800080" />
  <circle cx="71" cy="138" r="9" fill="#800080" />
  <circle cx="78" cy="156" r="9" fill="#800080" />
  <circle cx="48" cy="76" r="8" fill="#800080" />
  <circle cx="84" cy="173" r="8" fill="#800080" />
  <circle cx="106" cy="175" r="8" fill="#800080" />
  <circle cx="112" cy="157" r="8" fill="#800080" />
  <circle cx="118" cy="141" r="8" fill="#800080" />
  <circle cx="124" cy="125" r="8" fill="#800080" />
  <circle cx="130" cy="109" r="8" fill="#800080" />
  <circle cx="137" cy="91" r="8" fill="#800080" />
  <circle cx="142" cy="76" r="7" fill="#800080" />
  <circle cx="164" cy="79" r="5" fill="#800080" />
  <circle cx="47" cy="88" r="4" fill="#800080" />
  <circle cx="48" cy="64" r="4" fill="#800080" />
  <circle cx="56" cy="86" r="4" fill="#800080" />
</svg>
