<?xml version="1.0"?>
<svg width="127" height="256">
  <circle cx="99" cy="112" r="12" fill="#800080" />
  <circle cx="99" cy="177" r="12" fill="#800080" />
  <circle cx="19" cy="142" r="10" fill="#800080" />
  <circle cx="20" cy="162" r="10" fill="#800080" />
  <circle cx="22" cy="120" r="10" fill="#800080" />
  <circle cx="25" cy="182" r="10" fill="#800080" />
  <circle cx="101" cy="134" r="10" fill="#800080" />
  <circle cx="101" cy="154" r="10" fill="#800080" />
  <circle cx="101" cy="203" r="10" fill="#800080" />
  <circle cx="101" cy="223" r="10" fill="#800080" />
  <circle cx="101" cy="243" r="10" fill="#800080" />
  <circle cx="30" cy="102" r="9" fill="#800080" />
  <circle cx="39" cy="197" r="9" fill="#800080" />
  <circle cx="45" cy="92" r="8" fill="#800080" />
  <circle cx="100" cy="92" r="8" fill="#800080" />
  <circle cx="55" cy="200" r="7" fill="#800080" />
  <circle cx="60" cy="91" r="7" fill="#800080" />
  <circle cx="69" cy="199" r="7" fill="#800080" />
  <circle cx="73" cy="93" r="6" fill="#800080" />
  <circle cx="80" cy="192" r="5" fill="#800080" />
  <circle cx="82" cy="100" r="5" fill="#800080" />
</svg>
