<?xml version="1.0"?>
<svg width="178" height="256">
  <circle cx="93" cy="203" r="12" fill="#800080" />
  <circle cx="22" cy="115" r="11" fill="#800080" />
  <circle cx="22" cy="138" r="11" fill="#800080" />
  <circle cx="155" cy="115" r="11" fill="#800080" />
  <circle cx="155" cy="138" r="11" fill="#800080" />
  <circle cx="26" cy="94" r="10" fill="#800080" />
  <circle cx="26" cy="159" r="10" fill="#800080" />
  <circle cx="36" cy="177" r="10" fill="#800080" />
  <circle cx="37" cy="76" r="10" fill="#800080" />
  <circle cx="100" cy="225" r="10" fill="#800080" />
  <circle cx="129" cy="67" r="10" fill="#800080" />
  <circle cx="133" cy="185" r="10" fill="#800080" />
  <circle cx="143" cy="82" r="10" fill="#800080" />
  <circle cx="146" cy="169" r="10" fill="#800080" />
  <circle cx="51" cy="190" r="9" fill="#800080" />
  <circle cx="53" cy="63" r="9" fill="#800080" />
  <circle cx="71" cy="57" r="9" fill="#800080" />
  <circle cx="98" cy="56" r="9" fill="#800080" />
  <circle cx="115" cy="238" r="9" fill="#800080" />
  <circle cx="67" cy="198" r="8" fill="#800080" />
  <circle cx="113" cy="196" r="8" fill="#800080" />
  <circle cx="114" cy="58" r="7" fill="#800080" />
  <circle cx="131" cy="241" r="7" fill="#800080" />
  <circle cx="152" cy="97" r="7" fill="#800080" />
  <circle cx="155" cy="155" r="6" fill="#800080" />
  <circle cx="84" cy="51" r="4" fill="#800080" />
  <circle cx="84" cy="59" r="4" fill="#800080" />
  <circle cx="142" cy="237" r="4" fill="#800080" />
  <circle cx="145" cy="155" r="4" fill="#800080" />
</svg>
