<?xml version="1.0"?>
<svg width="165" height="256">
  <circle cx="30" cy="130" r="12" fill="#800080" />
  <circle cx="29" cy="60" r="11" fill="#800080" />
  <circle cx="29" cy="82" r="11" fill="#800080" />
  <circle cx="29" cy="104" r="11" fill="#800080" />
  <circle cx="29" cy="153" r="11" fill="#800080" />
  <circle cx="29" cy="175" r="11" fill="#800080" />
  <circle cx="98" cy="135" r="11" fill="#800080" />
  <circle cx="28" cy="196" r="10" fill="#800080" />
  <circle cx="114" cy="163" r="10" fill="#800080" />
  <circle cx="125" cy="67" r="10" fill="#800080" />
  <circle cx="125" cy="122" r="10" fill="#800080" />
  <circle cx="125" cy="180" r="10" fill="#800080" />
  <circle cx="136" cy="84" r="10" fill="#800080" />
  <circle cx="136" cy="104" r="10" fill="#800080" />
  <circle cx="135" cy="197" r="9" fill="#800080" />
  <circle cx="48" cy="57" r="8" fill="#800080" />
  <circle cx="50" cy="132" r="8" fill="#800080" />
  <circle cx="64" cy="57" r="8" fill="#800080" />
  <circle cx="66" cy="132" r="8" fill="#800080" />
  <circle cx="80" cy="57" r="8" fill="#800080" />
  <circle cx="96" cy="57" r="8" fill="#800080" />
  <circle cx="80" cy="130" r="6" fill="#800080" />
  <circle cx="110" cy="57" r="6" fill="#800080" />
  <circle cx="101" cy="151" r="5" fill="#800080" />
  <circle cx="109" cy="146" r="4" fill="#800080" />
  <circle cx="110" cy="125" r="4" fill="#800080" />
  <circle cx="113" cy="133" r="4" fill="#800080" />
</svg>
