<?xml version="1.0"?>
<svg width="152" height="256">
  <circle cx="24" cy="176" r="10" fill="#800080" />
  <circle cx="28" cy="82" r="10" fill="#800080" />
  <circle cx="30" cy="102" r="10" fill="#800080" />
  <circle cx="46" cy="115" r="10" fill="#800080" />
  <circle cx="74" cy="124" r="10" fill="#800080" />
  <circle cx="108" cy="133" r="10" fill="#800080" />
  <circle cx="114" cy="64" r="10" fill="#800080" />
  <circle cx="124" cy="184" r="10" fill="#800080" />
  <circle cx="125" cy="144" r="10" fill="#800080" />
  <circle cx="131" cy="164" r="10" fill="#800080" />
  <circle cx="37" cy="191" r="9" fill="#800080" />
  <circle cx="38" cy="65" r="9" fill="#800080" />
  <circle cx="54" cy="57" r="8" fill="#800080" />
  <circle cx="54" cy="198" r="8" fill="#800080" />
  <circle cx="70" cy="55" r="8" fill="#800080" />
  <circle cx="70" cy="200" r="8" fill="#800080" />
  <circle cx="86" cy="55" r="8" fill="#800080" />
  <circle cx="86" cy="200" r="8" fill="#800080" />
  <circle cx="102" cy="197" r="8" fill="#800080" />
  <circle cx="91" cy="126" r="7" fill="#800080" />
  <circle cx="125" cy="78" r="7" fill="#800080" />
  <circle cx="100" cy="55" r="6" fill="#800080" />
  <circle cx="58" cy="125" r="5" fill="#800080" />
  <circle cx="60" cy="115" r="4" fill="#800080" />
  <circle cx="114" cy="195" r="4" fill="#800080" />
</svg>
