<?xml version="1.0"?>
<svg width="216" height="256">
  <circle cx="108" cy="62" r="13" fill="#800080" />
  <circle cx="55" cy="194" r="11" fill="#800080" />
  <circle cx="152" cy="195" r="11" fill="#800080" />
  <circle cx="14" cy="59" r="10" fill="#800080" />
  <circle cx="20" cy="79" r="10" fill="#800080" />
  <circle cx="26" cy="99" r="10" fill="#800080" />
  <circle cx="32" cy="119" r="10" fill="#800080" />
  <circle cx="38" cy="139" r="10" fill="#800080" />
  <circle cx="176" cy="146" r="10" fill="#800080" />
  <circle cx="182" cy="125" r="10" fill="#800080" />
  <circle cx="188" cy="103" r="10" fill="#800080" />
  <circle cx="194" cy="81" r="10" fill="#800080" />
  <circle cx="200" cy="60" r="10" fill="#800080" />
  <circle cx="42" cy="158" r="9" fill="#800080" />
  <circle cx="76" cy="160" r="9" fill="#800080" />
  <circle cx="82" cy="138" r="9" fill="#800080" />
  <circle cx="88" cy="116" r="9" fill="#800080" />
  <circle cx="129" cy="121" r="9" fill="#800080" />
  <circle cx="134" cy="139" r="9" fill="#800080" />
  <circle cx="167" cy="178" r="9" fill="#800080" />
  <circle cx="46" cy="175" r="8" fill="#800080" />
  <circle cx="70" cy="181" r="8" fill="#800080" />
  <circle cx="92" cy="99" r="8" fill="#800080" />
  <circle cx="97" cy="81" r="8" fill="#800080" />
  <circle cx="118" cy="81" r="8" fill="#800080" />
  <circle cx="122" cy="97" r="8" fill="#800080" />
  <circle cx="138" cy="156" r="8" fill="#800080" />
  <circle cx="142" cy="172" r="8" fill="#800080" />
  <circle cx="168" cy="161" r="6" fill="#800080" />
  <circle cx="69" cy="201" r="4" fill="#800080" />
  <circle cx="70" cy="193" r="4" fill="#800080" />
  <circle cx="121" cy="109" r="4" fill="#800080" />
  <circle cx="129" cy="108" r="4" fill="#800080" />
  <circle cx="141" cy="184" r="4" fill="#800080" />
  <circle cx="167" cy="191" r="4" fill="#800080" />
  <circle cx="178" cy="160" r="4" fill="#800080" />
</svg>
