<?xml version="1.0"?>
<svg width="165" height="256">
  <circle cx="41" cy="196" r="10" fill="#800080" />
  <circle cx="79" cy="96" r="10" fill="#800080" />
  <circle cx="115" cy="195" r="10" fill="#800080" />
  <circle cx="11" cy="94" r="9" fill="#800080" />
  <circle cx="16" cy="112" r="9" fill="#800080" />
  <circle cx="21" cy="130" r="9" fill="#800080" />
  <circle cx="146" cy="121" r="9" fill="#800080" />
  <circle cx="151" cy="102" r="9" fill="#800080" />
  <circle cx="25" cy="147" r="8" fill="#800080" />
  <circle cx="30" cy="163" r="8" fill="#800080" />
  <circle cx="57" cy="172" r="8" fill="#800080" />
  <circle cx="130" cy="179" r="8" fill="#800080" />
  <circle cx="135" cy="160" r="8" fill="#800080" />
  <circle cx="139" cy="144" r="8" fill="#800080" />
  <circle cx="33" cy="178" r="7" fill="#800080" />
  <circle cx="60" cy="157" r="7" fill="#800080" />
  <circle cx="64" cy="142" r="7" fill="#800080" />
  <circle cx="68" cy="127" r="7" fill="#800080" />
  <circle cx="72" cy="113" r="7" fill="#800080" />
  <circle cx="91" cy="109" r="7" fill="#800080" />
  <circle cx="94" cy="123" r="7" fill="#800080" />
  <circle cx="98" cy="137" r="7" fill="#800080" />
  <circle cx="101" cy="151" r="7" fill="#800080" />
  <circle cx="105" cy="165" r="7" fill="#800080" />
  <circle cx="54" cy="186" r="6" fill="#800080" />
  <circle cx="107" cy="178" r="6" fill="#800080" />
  <circle cx="130" cy="192" r="5" fill="#800080" />
  <circle cx="55" cy="196" r="4" fill="#800080" />
  <circle cx="128" cy="202" r="4" fill="#800080" />
  <circle cx="138" cy="132" r="4" fill="#800080" />
  <circle cx="147" cy="134" r="4" fill="#800080" />
  <circle cx="149" cy="89" r="4" fill="#800080" />
  <circle cx="157" cy="89" r="4" fill="#800080" />
</svg>
