<?xml version="1.0"?>
<svg width="139" height="256">
  <circle cx="19" cy="194" r="12" fill="#800080" />
  <circle cx="113" cy="61" r="12" fill="#800080" />
  <circle cx="30" cy="175" r="9" fill="#800080" />
  <circle cx="42" cy="160" r="9" fill="#800080" />
  <circle cx="53" cy="145" r="9" fill="#800080" />
  <circle cx="65" cy="130" r="9" fill="#800080" />
  <circle cx="77" cy="114" r="9" fill="#800080" />
  <circle cx="89" cy="99" r="9" fill="#800080" />
  <circle cx="101" cy="83" r="9" fill="#800080" />
  <circle cx="23" cy="57" r="8" fill="#800080" />
  <circle cx="39" cy="57" r="8" fill="#800080" />
  <circle cx="39" cy="197" r="8" fill="#800080" />
  <circle cx="55" cy="57" r="8" fill="#800080" />
  <circle cx="55" cy="197" r="8" fill="#800080" />
  <circle cx="71" cy="57" r="8" fill="#800080" />
  <circle cx="71" cy="197" r="8" fill="#800080" />
  <circle cx="87" cy="57" r="8" fill="#800080" />
  <circle cx="87" cy="197" r="8" fill="#800080" />
  <circle cx="103" cy="197" r="8" fill="#800080" />
  <circle cx="119" cy="197" r="8" fill="#800080" />
</svg>
