<?xml version="1.0"?>
<svg width="135" height="256">
  <circle cx="67" cy="112" r="4" fill="#800080" />
  <circle cx="23" cy="106" r="4" fill="#800080" />
  <circle cx="24" cy="124" r="4" fill="#800080" />
  <circle cx="110" cy="92" r="4" fill="#800080" />
  <circle cx="111" cy="106" r="4" fill="#800080" />
  <circle cx="111" cy="120" r="4" fill="#800080" />
  <circle cx="25" cy="88" r="4" fill="#800080" />
  <circle cx="25" cy="137" r="4" fill="#800080" />
  <circle cx="28" cy="73" r="4" fill="#800080" />
  <circle cx="28" cy="150" r="4" fill="#800080" />
  <circle cx="36" cy="58" r="4" fill="#800080" />
  <circle cx="99" cy="59" r="4" fill="#800080" />
  <circle cx="103" cy="159" r="4" fill="#800080" />
  <circle cx="106" cy="72" r="4" fill="#800080" />
  <circle cx="107" cy="146" r="4" fill="#800080" />
  <circle cx="109" cy="133" r="4" fill="#800080" />
  <circle cx="35" cy="166" r="4" fill="#800080" />
  <circle cx="44" cy="175" r="4" fill="#800080" />
  <circle cx="46" cy="50" r="4" fill="#800080" />
  <circle cx="59" cy="45" r="4" fill="#800080" />
  <circle cx="59" cy="181" r="4" fill="#800080" />
  <circle cx="71" cy="45" r="4" fill="#800080" />
  <circle cx="71" cy="181" r="4" fill="#800080" />
  <circle cx="83" cy="47" r="4" fill="#800080" />
  <circle cx="85" cy="178" r="4" fill="#800080" />
  <circle cx="95" cy="170" r="4" fill="#800080" />
  <circle cx="93" cy="50" r="4" fill="#800080" />
  <circle cx="60" cy="120" r="4" fill="#800080" />
  <circle cx="74" cy="120" r="4" fill="#800080" />
  <circle cx="105" cy="82" r="4" fill="#800080" />
  <circle cx="60" cy="105" r="4" fill="#800080" />
  <circle cx="18" cy="115" r="4" fill="#800080" />
  <circle cx="19" cy="96" r="4" fill="#800080" />
  <circle cx="27" cy="115" r="4" fill="#800080" />
  <circle cx="27" cy="159" r="4" fill="#800080" />
  <circle cx="28" cy="64" r="4" fill="#800080" />
  <circle cx="28" cy="97" r="4" fill="#800080" />
  <circle cx="73" cy="104" r="4" fill="#800080" />
  <circle cx="50" cy="182" r="4" fill="#800080" />
  <circle cx="18" cy="130" r="4" fill="#800080" />
  <circle cx="20" cy="81" r="4" fill="#800080" />
  <circle cx="20" cy="144" r="4" fill="#800080" />
  <circle cx="30" cy="81" r="4" fill="#800080" />
  <circle cx="30" cy="130" r="4" fill="#800080" />
  <circle cx="35" cy="155" r="4" fill="#800080" />
  <circle cx="35" cy="174" r="4" fill="#800080" />
  <circle cx="36" cy="66" r="4" fill="#800080" />
  <circle cx="37" cy="50" r="4" fill="#800080" />
  <circle cx="51" cy="43" r="4" fill="#800080" />
  <circle cx="75" cy="112" r="4" fill="#800080" />
  <circle cx="79" cy="184" r="4" fill="#800080" />
  <circle cx="93" cy="178" r="4" fill="#800080" />
  <circle cx="98" cy="67" r="4" fill="#800080" />
  <circle cx="103" cy="167" r="4" fill="#800080" />
  <circle cx="105" cy="99" r="4" fill="#800080" />
  <circle cx="105" cy="112" r="4" fill="#800080" />
  <circle cx="106" cy="64" r="4" fill="#800080" />
  <circle cx="110" cy="154" r="4" fill="#800080" />
  <circle cx="113" cy="77" r="4" fill="#800080" />
  <circle cx="114" cy="140" r="4" fill="#800080" />
  <circle cx="115" cy="85" r="4" fill="#800080" />
  <circle cx="116" cy="98" r="4" fill="#800080" />
  <circle cx="116" cy="113" r="4" fill="#800080" />
  <circle cx="116" cy="127" r="4" fill="#800080" />
  <circle cx="32" cy="142" r="4" fill="#800080" />
  <circle cx="16" cy="104" r="4" fill="#800080" />
  <circle cx="17" cy="122" r="4" fill="#800080" />
  <circle cx="18" cy="88" r="4" fill="#800080" />
  <circle cx="18" cy="137" r="4" fill="#800080" />
  <circle cx="21" cy="74" r="4" fill="#800080" />
  <circle cx="28" cy="166" r="4" fill="#800080" />
  <circle cx="29" cy="57" r="4" fill="#800080" />
  <circle cx="30" cy="104" r="4" fill="#800080" />
  <circle cx="31" cy="122" r="4" fill="#800080" />
  <circle cx="32" cy="88" r="4" fill="#800080" />
  <circle cx="35" cy="73" r="4" fill="#800080" />
  <circle cx="42" cy="165" r="4" fill="#800080" />
  <circle cx="43" cy="57" r="4" fill="#800080" />
  <circle cx="51" cy="173" r="4" fill="#800080" />
  <circle cx="53" cy="50" r="4" fill="#800080" />
  <circle cx="57" cy="112" r="4" fill="#800080" />
  <circle cx="65" cy="40" r="4" fill="#800080" />
  <circle cx="65" cy="50" r="4" fill="#800080" />
  <circle cx="65" cy="176" r="4" fill="#800080" />
  <circle cx="65" cy="186" r="4" fill="#800080" />
  <circle cx="67" cy="119" r="4" fill="#800080" />
  <circle cx="77" cy="40" r="4" fill="#800080" />
  <circle cx="77" cy="176" r="4" fill="#800080" />
  <circle cx="86" cy="54" r="4" fill="#800080" />
  <circle cx="86" cy="171" r="4" fill="#800080" />
  <circle cx="92" cy="59" r="4" fill="#800080" />
  <circle cx="94" cy="163" r="4" fill="#800080" />
  <circle cx="99" cy="152" r="4" fill="#800080" />
  <circle cx="100" cy="51" r="4" fill="#800080" />
  <circle cx="102" cy="138" r="4" fill="#800080" />
  <circle cx="103" cy="89" r="4" fill="#800080" />
  <circle cx="104" cy="119" r="4" fill="#800080" />
  <circle cx="104" cy="126" r="4" fill="#800080" />
  <circle cx="114" cy="147" r="4" fill="#800080" />
  <circle cx="118" cy="105" r="4" fill="#800080" />
  <circle cx="118" cy="120" r="4" fill="#800080" />
</svg>
