<?xml version="1.0"?>
<svg width="135" height="256">
  <circle cx="73" cy="52" r="4" fill="#800080" />
  <circle cx="75" cy="176" r="4" fill="#800080" />
  <circle cx="75" cy="66" r="4" fill="#800080" />
  <circle cx="75" cy="80" r="4" fill="#800080" />
  <circle cx="75" cy="94" r="4" fill="#800080" />
  <circle cx="75" cy="108" r="4" fill="#800080" />
  <circle cx="75" cy="122" r="4" fill="#800080" />
  <circle cx="75" cy="136" r="4" fill="#800080" />
  <circle cx="75" cy="150" r="4" fill="#800080" />
  <circle cx="74" cy="163" r="4" fill="#800080" />
  <circle cx="27" cy="71" r="4" fill="#800080" />
  <circle cx="24" cy="179" r="4" fill="#800080" />
  <circle cx="35" cy="179" r="4" fill="#800080" />
  <circle cx="38" cy="68" r="4" fill="#800080" />
  <circle cx="46" cy="179" r="4" fill="#800080" />
  <circle cx="49" cy="64" r="4" fill="#800080" />
  <circle cx="57" cy="179" r="4" fill="#800080" />
  <circle cx="86" cy="179" r="4" fill="#800080" />
  <circle cx="97" cy="179" r="4" fill="#800080" />
  <circle cx="108" cy="179" r="4" fill="#800080" />
  <circle cx="62" cy="55" r="4" fill="#800080" />
  <circle cx="118" cy="178" r="4" fill="#800080" />
  <circle cx="66" cy="177" r="4" fill="#800080" />
  <circle cx="79" cy="44" r="4" fill="#800080" />
  <circle cx="80" cy="58" r="4" fill="#800080" />
  <circle cx="20" cy="76" r="4" fill="#800080" />
  <circle cx="54" cy="57" r="4" fill="#800080" />
  <circle cx="66" cy="47" r="4" fill="#800080" />
  <circle cx="69" cy="60" r="4" fill="#800080" />
  <circle cx="69" cy="72" r="4" fill="#800080" />
  <circle cx="69" cy="86" r="4" fill="#800080" />
  <circle cx="69" cy="100" r="4" fill="#800080" />
  <circle cx="69" cy="114" r="4" fill="#800080" />
  <circle cx="69" cy="128" r="4" fill="#800080" />
  <circle cx="69" cy="142" r="4" fill="#800080" />
  <circle cx="69" cy="156" r="4" fill="#800080" />
  <circle cx="80" cy="73" r="4" fill="#800080" />
  <circle cx="80" cy="87" r="4" fill="#800080" />
  <circle cx="80" cy="101" r="4" fill="#800080" />
  <circle cx="80" cy="115" r="4" fill="#800080" />
  <circle cx="80" cy="129" r="4" fill="#800080" />
  <circle cx="80" cy="143" r="4" fill="#800080" />
  <circle cx="80" cy="157" r="4" fill="#800080" />
  <circle cx="80" cy="169" r="4" fill="#800080" />
  <circle cx="79" cy="183" r="4" fill="#800080" />
  <circle cx="19" cy="67" r="4" fill="#800080" />
  <circle cx="56" cy="64" r="4" fill="#800080" />
  <circle cx="63" cy="184" r="4" fill="#800080" />
  <circle cx="68" cy="79" r="4" fill="#800080" />
  <circle cx="68" cy="93" r="4" fill="#800080" />
  <circle cx="68" cy="107" r="4" fill="#800080" />
  <circle cx="68" cy="121" r="4" fill="#800080" />
  <circle cx="68" cy="135" r="4" fill="#800080" />
  <circle cx="68" cy="149" r="4" fill="#800080" />
  <circle cx="68" cy="168" r="4" fill="#800080" />
  <circle cx="70" cy="184" r="4" fill="#800080" />
  <circle cx="72" cy="42" r="4" fill="#800080" />
  <circle cx="80" cy="51" r="4" fill="#800080" />
  <circle cx="82" cy="65" r="4" fill="#800080" />
  <circle cx="82" cy="80" r="4" fill="#800080" />
  <circle cx="82" cy="94" r="4" fill="#800080" />
  <circle cx="82" cy="108" r="4" fill="#800080" />
  <circle cx="82" cy="122" r="4" fill="#800080" />
  <circle cx="82" cy="136" r="4" fill="#800080" />
  <circle cx="82" cy="150" r="4" fill="#800080" />
</svg>
