<?xml version="1.0"?>
<svg width="135" height="256">
  <circle cx="103" cy="62" r="4" fill="#800080" />
  <circle cx="106" cy="76" r="4" fill="#800080" />
  <circle cx="108" cy="160" r="4" fill="#800080" />
  <circle cx="110" cy="142" r="4" fill="#800080" />
  <circle cx="27" cy="158" r="4" fill="#800080" />
  <circle cx="28" cy="68" r="4" fill="#800080" />
  <circle cx="35" cy="170" r="4" fill="#800080" />
  <circle cx="69" cy="112" r="4" fill="#800080" />
  <circle cx="93" cy="51" r="4" fill="#800080" />
  <circle cx="95" cy="175" r="4" fill="#800080" />
  <circle cx="36" cy="56" r="4" fill="#800080" />
  <circle cx="47" cy="178" r="4" fill="#800080" />
  <circle cx="48" cy="48" r="4" fill="#800080" />
  <circle cx="59" cy="181" r="4" fill="#800080" />
  <circle cx="60" cy="45" r="4" fill="#800080" />
  <circle cx="71" cy="181" r="4" fill="#800080" />
  <circle cx="72" cy="45" r="4" fill="#800080" />
  <circle cx="83" cy="180" r="4" fill="#800080" />
  <circle cx="98" cy="96" r="4" fill="#800080" />
  <circle cx="99" cy="125" r="4" fill="#800080" />
  <circle cx="80" cy="107" r="4" fill="#800080" />
  <circle cx="58" cy="110" r="4" fill="#800080" />
  <circle cx="83" cy="45" r="4" fill="#800080" />
  <circle cx="106" cy="87" r="4" fill="#800080" />
  <circle cx="88" cy="119" r="4" fill="#800080" />
  <circle cx="105" cy="170" r="4" fill="#800080" />
  <circle cx="107" cy="132" r="4" fill="#800080" />
  <circle cx="89" cy="102" r="4" fill="#800080" />
  <circle cx="78" cy="116" r="4" fill="#800080" />
  <circle cx="102" cy="53" r="4" fill="#800080" />
  <circle cx="105" cy="151" r="4" fill="#800080" />
  <circle cx="114" cy="151" r="4" fill="#800080" />
  <circle cx="26" cy="167" r="4" fill="#800080" />
  <circle cx="19" cy="151" r="4" fill="#800080" />
  <circle cx="21" cy="73" r="4" fill="#800080" />
  <circle cx="26" cy="60" r="4" fill="#800080" />
  <circle cx="27" cy="150" r="4" fill="#800080" />
  <circle cx="35" cy="161" r="4" fill="#800080" />
  <circle cx="36" cy="64" r="4" fill="#800080" />
  <circle cx="36" cy="178" r="4" fill="#800080" />
  <circle cx="38" cy="48" r="4" fill="#800080" />
  <circle cx="43" cy="170" r="4" fill="#800080" />
  <circle cx="94" cy="59" r="4" fill="#800080" />
  <circle cx="96" cy="167" r="4" fill="#800080" />
  <circle cx="98" cy="88" r="4" fill="#800080" />
  <circle cx="99" cy="70" r="4" fill="#800080" />
  <circle cx="109" cy="68" r="4" fill="#800080" />
  <circle cx="44" cy="55" r="4" fill="#800080" />
  <circle cx="20" cy="158" r="4" fill="#800080" />
  <circle cx="28" cy="75" r="4" fill="#800080" />
  <circle cx="51" cy="185" r="4" fill="#800080" />
  <circle cx="52" cy="41" r="4" fill="#800080" />
  <circle cx="54" cy="117" r="4" fill="#800080" />
  <circle cx="54" cy="175" r="4" fill="#800080" />
  <circle cx="55" cy="51" r="4" fill="#800080" />
  <circle cx="61" cy="117" r="4" fill="#800080" />
  <circle cx="65" cy="176" r="4" fill="#800080" />
  <circle cx="65" cy="186" r="4" fill="#800080" />
  <circle cx="66" cy="40" r="4" fill="#800080" />
  <circle cx="66" cy="50" r="4" fill="#800080" />
  <circle cx="71" cy="105" r="4" fill="#800080" />
  <circle cx="77" cy="186" r="4" fill="#800080" />
  <circle cx="78" cy="51" r="4" fill="#800080" />
  <circle cx="85" cy="52" r="4" fill="#800080" />
  <circle cx="86" cy="173" r="4" fill="#800080" />
  <circle cx="90" cy="43" r="4" fill="#800080" />
  <circle cx="90" cy="181" r="4" fill="#800080" />
  <circle cx="95" cy="118" r="4" fill="#800080" />
  <circle cx="96" cy="103" r="4" fill="#800080" />
  <circle cx="99" cy="77" r="4" fill="#800080" />
  <circle cx="99" cy="132" r="4" fill="#800080" />
  <circle cx="101" cy="158" r="4" fill="#800080" />
  <circle cx="102" cy="139" r="4" fill="#800080" />
  <circle cx="102" cy="177" r="4" fill="#800080" />
  <circle cx="105" cy="94" r="4" fill="#800080" />
  <circle cx="106" cy="124" r="4" fill="#800080" />
  <circle cx="110" cy="60" r="4" fill="#800080" />
  <circle cx="112" cy="81" r="4" fill="#800080" />
  <circle cx="112" cy="167" r="4" fill="#800080" />
  <circle cx="114" cy="133" r="4" fill="#800080" />
  <circle cx="115" cy="158" r="4" fill="#800080" />
  <circle cx="117" cy="140" r="4" fill="#800080" />
</svg>
