<?xml version="1.0"?>
<svg width="135" height="256">
  <circle cx="90" cy="52" r="4" fill="#800080" />
  <circle cx="93" cy="143" r="4" fill="#800080" />
  <circle cx="93" cy="66" r="4" fill="#800080" />
  <circle cx="93" cy="80" r="4" fill="#800080" />
  <circle cx="93" cy="94" r="4" fill="#800080" />
  <circle cx="93" cy="108" r="4" fill="#800080" />
  <circle cx="93" cy="122" r="4" fill="#800080" />
  <circle cx="93" cy="157" r="4" fill="#800080" />
  <circle cx="93" cy="171" r="4" fill="#800080" />
  <circle cx="21" cy="142" r="4" fill="#800080" />
  <circle cx="78" cy="56" r="4" fill="#800080" />
  <circle cx="32" cy="144" r="4" fill="#800080" />
  <circle cx="43" cy="144" r="4" fill="#800080" />
  <circle cx="54" cy="144" r="4" fill="#800080" />
  <circle cx="65" cy="144" r="4" fill="#800080" />
  <circle cx="76" cy="144" r="4" fill="#800080" />
  <circle cx="104" cy="144" r="4" fill="#800080" />
  <circle cx="115" cy="144" r="4" fill="#800080" />
  <circle cx="25" cy="129" r="4" fill="#800080" />
  <circle cx="31" cy="119" r="4" fill="#800080" />
  <circle cx="38" cy="110" r="4" fill="#800080" />
  <circle cx="44" cy="101" r="4" fill="#800080" />
  <circle cx="51" cy="91" r="4" fill="#800080" />
  <circle cx="58" cy="82" r="4" fill="#800080" />
  <circle cx="64" cy="73" r="4" fill="#800080" />
  <circle cx="71" cy="64" r="4" fill="#800080" />
  <circle cx="89" cy="132" r="4" fill="#800080" />
  <circle cx="89" cy="181" r="4" fill="#800080" />
  <circle cx="97" cy="45" r="4" fill="#800080" />
  <circle cx="83" cy="45" r="4" fill="#800080" />
  <circle cx="98" cy="131" r="4" fill="#800080" />
  <circle cx="98" cy="180" r="4" fill="#800080" />
  <circle cx="85" cy="148" r="4" fill="#800080" />
  <circle cx="15" cy="148" r="4" fill="#800080" />
  <circle cx="18" cy="134" r="4" fill="#800080" />
  <circle cx="85" cy="140" r="4" fill="#800080" />
  <circle cx="86" cy="60" r="4" fill="#800080" />
  <circle cx="87" cy="72" r="4" fill="#800080" />
  <circle cx="87" cy="86" r="4" fill="#800080" />
  <circle cx="87" cy="100" r="4" fill="#800080" />
  <circle cx="87" cy="114" r="4" fill="#800080" />
  <circle cx="87" cy="163" r="4" fill="#800080" />
  <circle cx="96" cy="58" r="4" fill="#800080" />
  <circle cx="98" cy="73" r="4" fill="#800080" />
  <circle cx="98" cy="87" r="4" fill="#800080" />
  <circle cx="98" cy="101" r="4" fill="#800080" />
  <circle cx="98" cy="115" r="4" fill="#800080" />
  <circle cx="98" cy="150" r="4" fill="#800080" />
  <circle cx="98" cy="164" r="4" fill="#800080" />
  <circle cx="14" cy="141" r="4" fill="#800080" />
  <circle cx="22" cy="149" r="4" fill="#800080" />
  <circle cx="26" cy="136" r="4" fill="#800080" />
  <circle cx="38" cy="117" r="4" fill="#800080" />
  <circle cx="51" cy="98" r="4" fill="#800080" />
  <circle cx="58" cy="89" r="4" fill="#800080" />
  <circle cx="65" cy="80" r="4" fill="#800080" />
  <circle cx="71" cy="71" r="4" fill="#800080" />
  <circle cx="86" cy="79" r="4" fill="#800080" />
  <circle cx="86" cy="93" r="4" fill="#800080" />
  <circle cx="86" cy="107" r="4" fill="#800080" />
  <circle cx="86" cy="121" r="4" fill="#800080" />
  <circle cx="86" cy="155" r="4" fill="#800080" />
  <circle cx="86" cy="170" r="4" fill="#800080" />
  <circle cx="90" cy="42" r="4" fill="#800080" />
  <circle cx="99" cy="138" r="4" fill="#800080" />
  <circle cx="100" cy="65" r="4" fill="#800080" />
  <circle cx="100" cy="80" r="4" fill="#800080" />
  <circle cx="100" cy="94" r="4" fill="#800080" />
  <circle cx="100" cy="108" r="4" fill="#800080" />
  <circle cx="100" cy="122" r="4" fill="#800080" />
  <circle cx="100" cy="157" r="4" fill="#800080" />
  <circle cx="100" cy="171" r="4" fill="#800080" />
  <circle cx="121" cy="149" r="4" fill="#800080" />
</svg>
