<?xml version="1.0"?>
<svg width="135" height="256">
  <circle cx="31" cy="107" r="4" fill="#800080" />
  <circle cx="107" cy="122" r="4" fill="#800080" />
  <circle cx="33" cy="49" r="4" fill="#800080" />
  <circle cx="109" cy="151" r="4" fill="#800080" />
  <circle cx="110" cy="136" r="4" fill="#800080" />
  <circle cx="28" cy="163" r="4" fill="#800080" />
  <circle cx="29" cy="87" r="4" fill="#800080" />
  <circle cx="30" cy="71" r="4" fill="#800080" />
  <circle cx="94" cy="107" r="4" fill="#800080" />
  <circle cx="96" cy="172" r="4" fill="#800080" />
  <circle cx="37" cy="173" r="4" fill="#800080" />
  <circle cx="45" cy="47" r="4" fill="#800080" />
  <circle cx="49" cy="179" r="4" fill="#800080" />
  <circle cx="57" cy="47" r="4" fill="#800080" />
  <circle cx="61" cy="181" r="4" fill="#800080" />
  <circle cx="64" cy="100" r="4" fill="#800080" />
  <circle cx="69" cy="47" r="4" fill="#800080" />
  <circle cx="73" cy="181" r="4" fill="#800080" />
  <circle cx="76" cy="100" r="4" fill="#800080" />
  <circle cx="81" cy="47" r="4" fill="#800080" />
  <circle cx="93" cy="47" r="4" fill="#800080" />
  <circle cx="105" cy="163" r="4" fill="#800080" />
  <circle cx="85" cy="178" r="4" fill="#800080" />
  <circle cx="29" cy="60" r="4" fill="#800080" />
  <circle cx="42" cy="107" r="4" fill="#800080" />
  <circle cx="53" cy="102" r="4" fill="#800080" />
  <circle cx="104" cy="46" r="4" fill="#800080" />
  <circle cx="104" cy="111" r="4" fill="#800080" />
  <circle cx="26" cy="97" r="4" fill="#800080" />
  <circle cx="86" cy="100" r="4" fill="#800080" />
  <circle cx="24" cy="114" r="4" fill="#800080" />
  <circle cx="20" cy="157" r="4" fill="#800080" />
  <circle cx="23" cy="105" r="4" fill="#800080" />
  <circle cx="25" cy="78" r="4" fill="#800080" />
  <circle cx="27" cy="43" r="4" fill="#800080" />
  <circle cx="27" cy="171" r="4" fill="#800080" />
  <circle cx="28" cy="155" r="4" fill="#800080" />
  <circle cx="32" cy="115" r="4" fill="#800080" />
  <circle cx="33" cy="79" r="4" fill="#800080" />
  <circle cx="34" cy="94" r="4" fill="#800080" />
  <circle cx="36" cy="65" r="4" fill="#800080" />
  <circle cx="36" cy="164" r="4" fill="#800080" />
  <circle cx="37" cy="57" r="4" fill="#800080" />
  <circle cx="40" cy="181" r="4" fill="#800080" />
  <circle cx="86" cy="108" r="4" fill="#800080" />
  <circle cx="93" cy="180" r="4" fill="#800080" />
  <circle cx="95" cy="115" r="4" fill="#800080" />
  <circle cx="96" cy="164" r="4" fill="#800080" />
  <circle cx="103" cy="130" r="4" fill="#800080" />
  <circle cx="104" cy="142" r="4" fill="#800080" />
  <circle cx="104" cy="171" r="4" fill="#800080" />
  <circle cx="113" cy="128" r="4" fill="#800080" />
  <circle cx="113" cy="159" r="4" fill="#800080" />
  <circle cx="114" cy="144" r="4" fill="#800080" />
  <circle cx="45" cy="172" r="4" fill="#800080" />
  <circle cx="21" cy="164" r="4" fill="#800080" />
  <circle cx="26" cy="50" r="4" fill="#800080" />
  <circle cx="34" cy="42" r="4" fill="#800080" />
  <circle cx="36" cy="86" r="4" fill="#800080" />
  <circle cx="36" cy="101" r="4" fill="#800080" />
  <circle cx="37" cy="72" r="4" fill="#800080" />
  <circle cx="39" cy="114" r="4" fill="#800080" />
  <circle cx="51" cy="42" r="4" fill="#800080" />
  <circle cx="51" cy="52" r="4" fill="#800080" />
  <circle cx="54" cy="185" r="4" fill="#800080" />
  <circle cx="63" cy="42" r="4" fill="#800080" />
  <circle cx="63" cy="52" r="4" fill="#800080" />
  <circle cx="66" cy="187" r="4" fill="#800080" />
  <circle cx="67" cy="176" r="4" fill="#800080" />
  <circle cx="70" cy="95" r="4" fill="#800080" />
  <circle cx="70" cy="105" r="4" fill="#800080" />
  <circle cx="75" cy="42" r="4" fill="#800080" />
  <circle cx="75" cy="52" r="4" fill="#800080" />
  <circle cx="78" cy="175" r="4" fill="#800080" />
  <circle cx="80" cy="184" r="4" fill="#800080" />
  <circle cx="87" cy="42" r="4" fill="#800080" />
  <circle cx="87" cy="52" r="4" fill="#800080" />
  <circle cx="87" cy="171" r="4" fill="#800080" />
  <circle cx="93" cy="100" r="4" fill="#800080" />
  <circle cx="99" cy="52" r="4" fill="#800080" />
  <circle cx="99" cy="122" r="4" fill="#800080" />
  <circle cx="100" cy="156" r="4" fill="#800080" />
  <circle cx="101" cy="104" r="4" fill="#800080" />
  <circle cx="102" cy="149" r="4" fill="#800080" />
  <circle cx="109" cy="52" r="4" fill="#800080" />
  <circle cx="111" cy="115" r="4" fill="#800080" />
  <circle cx="116" cy="151" r="4" fill="#800080" />
  <circle cx="117" cy="135" r="4" fill="#800080" />
</svg>
