<?xml version="1.0"?>
<svg width="135" height="256">
  <circle cx="29" cy="118" r="4" fill="#800080" />
  <circle cx="27" cy="132" r="4" fill="#800080" />
  <circle cx="110" cy="132" r="4" fill="#800080" />
  <circle cx="110" cy="146" r="4" fill="#800080" />
  <circle cx="105" cy="162" r="4" fill="#800080" />
  <circle cx="26" cy="100" r="4" fill="#800080" />
  <circle cx="29" cy="84" r="4" fill="#800080" />
  <circle cx="29" cy="145" r="4" fill="#800080" />
  <circle cx="100" cy="110" r="4" fill="#800080" />
  <circle cx="101" cy="58" r="4" fill="#800080" />
  <circle cx="39" cy="167" r="4" fill="#800080" />
  <circle cx="33" cy="71" r="4" fill="#800080" />
  <circle cx="40" cy="59" r="4" fill="#800080" />
  <circle cx="49" cy="176" r="4" fill="#800080" />
  <circle cx="50" cy="51" r="4" fill="#800080" />
  <circle cx="62" cy="181" r="4" fill="#800080" />
  <circle cx="64" cy="45" r="4" fill="#800080" />
  <circle cx="76" cy="181" r="4" fill="#800080" />
  <circle cx="77" cy="45" r="4" fill="#800080" />
  <circle cx="81" cy="99" r="4" fill="#800080" />
  <circle cx="88" cy="178" r="4" fill="#800080" />
  <circle cx="89" cy="48" r="4" fill="#800080" />
  <circle cx="108" cy="120" r="4" fill="#800080" />
  <circle cx="32" cy="157" r="4" fill="#800080" />
  <circle cx="62" cy="99" r="4" fill="#800080" />
  <circle cx="98" cy="172" r="4" fill="#800080" />
  <circle cx="92" cy="102" r="4" fill="#800080" />
  <circle cx="22" cy="110" r="4" fill="#800080" />
  <circle cx="39" cy="114" r="4" fill="#800080" />
  <circle cx="47" cy="106" r="4" fill="#800080" />
  <circle cx="71" cy="96" r="4" fill="#800080" />
  <circle cx="98" cy="49" r="4" fill="#800080" />
  <circle cx="109" cy="64" r="4" fill="#800080" />
  <circle cx="112" cy="155" r="4" fill="#800080" />
  <circle cx="31" cy="108" r="4" fill="#800080" />
  <circle cx="20" cy="118" r="4" fill="#800080" />
  <circle cx="21" cy="126" r="4" fill="#800080" />
  <circle cx="22" cy="91" r="4" fill="#800080" />
  <circle cx="22" cy="139" r="4" fill="#800080" />
  <circle cx="26" cy="76" r="4" fill="#800080" />
  <circle cx="30" cy="92" r="4" fill="#800080" />
  <circle cx="32" cy="63" r="4" fill="#800080" />
  <circle cx="33" cy="126" r="4" fill="#800080" />
  <circle cx="34" cy="137" r="4" fill="#800080" />
  <circle cx="36" cy="79" r="4" fill="#800080" />
  <circle cx="39" cy="175" r="4" fill="#800080" />
  <circle cx="41" cy="67" r="4" fill="#800080" />
  <circle cx="42" cy="51" r="4" fill="#800080" />
  <circle cx="47" cy="168" r="4" fill="#800080" />
  <circle cx="53" cy="99" r="4" fill="#800080" />
  <circle cx="54" cy="183" r="4" fill="#800080" />
  <circle cx="55" cy="43" r="4" fill="#800080" />
  <circle cx="58" cy="51" r="4" fill="#800080" />
  <circle cx="69" cy="186" r="4" fill="#800080" />
  <circle cx="92" cy="56" r="4" fill="#800080" />
  <circle cx="97" cy="164" r="4" fill="#800080" />
  <circle cx="100" cy="66" r="4" fill="#800080" />
  <circle cx="100" cy="102" r="4" fill="#800080" />
  <circle cx="100" cy="118" r="4" fill="#800080" />
  <circle cx="102" cy="154" r="4" fill="#800080" />
  <circle cx="103" cy="127" r="4" fill="#800080" />
  <circle cx="104" cy="138" r="4" fill="#800080" />
  <circle cx="106" cy="170" r="4" fill="#800080" />
  <circle cx="108" cy="110" r="4" fill="#800080" />
  <circle cx="115" cy="139" r="4" fill="#800080" />
  <circle cx="25" cy="152" r="4" fill="#800080" />
  <circle cx="30" cy="164" r="4" fill="#800080" />
  <circle cx="33" cy="99" r="4" fill="#800080" />
  <circle cx="35" cy="150" r="4" fill="#800080" />
  <circle cx="39" cy="157" r="4" fill="#800080" />
  <circle cx="47" cy="58" r="4" fill="#800080" />
  <circle cx="54" cy="106" r="4" fill="#800080" />
  <circle cx="56" cy="174" r="4" fill="#800080" />
  <circle cx="69" cy="103" r="4" fill="#800080" />
  <circle cx="69" cy="177" r="4" fill="#800080" />
  <circle cx="70" cy="40" r="4" fill="#800080" />
  <circle cx="81" cy="175" r="4" fill="#800080" />
  <circle cx="82" cy="51" r="4" fill="#800080" />
  <circle cx="83" cy="184" r="4" fill="#800080" />
  <circle cx="84" cy="41" r="4" fill="#800080" />
  <circle cx="85" cy="106" r="4" fill="#800080" />
  <circle cx="89" cy="171" r="4" fill="#800080" />
  <circle cx="92" cy="109" r="4" fill="#800080" />
  <circle cx="95" cy="179" r="4" fill="#800080" />
  <circle cx="103" cy="145" r="4" fill="#800080" />
  <circle cx="108" cy="57" r="4" fill="#800080" />
  <circle cx="112" cy="162" r="4" fill="#800080" />
  <circle cx="114" cy="125" r="4" fill="#800080" />
  <circle cx="117" cy="132" r="4" fill="#800080" />
  <circle cx="117" cy="146" r="4" fill="#800080" />
</svg>
