<?xml version="1.0"?>
<svg width="135" height="256">
  <circle cx="106" cy="50" r="4" fill="#800080" />
  <circle cx="55" cy="176" r="4" fill="#800080" />
  <circle cx="58" cy="159" r="4" fill="#800080" />
  <circle cx="62" cy="143" r="4" fill="#800080" />
  <circle cx="66" cy="130" r="4" fill="#800080" />
  <circle cx="72" cy="116" r="4" fill="#800080" />
  <circle cx="25" cy="47" r="4" fill="#800080" />
  <circle cx="37" cy="47" r="4" fill="#800080" />
  <circle cx="49" cy="47" r="4" fill="#800080" />
  <circle cx="61" cy="47" r="4" fill="#800080" />
  <circle cx="73" cy="47" r="4" fill="#800080" />
  <circle cx="78" cy="103" r="4" fill="#800080" />
  <circle cx="85" cy="47" r="4" fill="#800080" />
  <circle cx="85" cy="90" r="4" fill="#800080" />
  <circle cx="92" cy="78" r="4" fill="#800080" />
  <circle cx="98" cy="68" r="4" fill="#800080" />
  <circle cx="96" cy="46" r="4" fill="#800080" />
  <circle cx="105" cy="60" r="4" fill="#800080" />
  <circle cx="52" cy="167" r="4" fill="#800080" />
  <circle cx="61" cy="168" r="4" fill="#800080" />
  <circle cx="55" cy="150" r="4" fill="#800080" />
  <circle cx="49" cy="182" r="4" fill="#800080" />
  <circle cx="59" cy="135" r="4" fill="#800080" />
  <circle cx="60" cy="183" r="4" fill="#800080" />
  <circle cx="63" cy="151" r="4" fill="#800080" />
  <circle cx="64" cy="121" r="4" fill="#800080" />
  <circle cx="69" cy="138" r="4" fill="#800080" />
  <circle cx="70" cy="108" r="4" fill="#800080" />
  <circle cx="72" cy="124" r="4" fill="#800080" />
  <circle cx="77" cy="95" r="4" fill="#800080" />
  <circle cx="79" cy="111" r="4" fill="#800080" />
  <circle cx="85" cy="98" r="4" fill="#800080" />
  <circle cx="111" cy="43" r="4" fill="#800080" />
  <circle cx="85" cy="82" r="4" fill="#800080" />
  <circle cx="31" cy="42" r="4" fill="#800080" />
  <circle cx="31" cy="52" r="4" fill="#800080" />
  <circle cx="43" cy="42" r="4" fill="#800080" />
  <circle cx="43" cy="52" r="4" fill="#800080" />
  <circle cx="48" cy="174" r="4" fill="#800080" />
  <circle cx="51" cy="157" r="4" fill="#800080" />
  <circle cx="55" cy="42" r="4" fill="#800080" />
  <circle cx="55" cy="52" r="4" fill="#800080" />
  <circle cx="55" cy="142" r="4" fill="#800080" />
  <circle cx="62" cy="175" r="4" fill="#800080" />
  <circle cx="65" cy="158" r="4" fill="#800080" />
  <circle cx="67" cy="42" r="4" fill="#800080" />
  <circle cx="67" cy="52" r="4" fill="#800080" />
  <circle cx="73" cy="131" r="4" fill="#800080" />
  <circle cx="79" cy="42" r="4" fill="#800080" />
  <circle cx="79" cy="52" r="4" fill="#800080" />
  <circle cx="91" cy="52" r="4" fill="#800080" />
  <circle cx="91" cy="71" r="4" fill="#800080" />
  <circle cx="92" cy="85" r="4" fill="#800080" />
  <circle cx="98" cy="61" r="4" fill="#800080" />
  <circle cx="99" cy="53" r="4" fill="#800080" />
  <circle cx="99" cy="75" r="4" fill="#800080" />
  <circle cx="103" cy="42" r="4" fill="#800080" />
  <circle cx="105" cy="67" r="4" fill="#800080" />
  <circle cx="112" cy="55" r="4" fill="#800080" />
</svg>
