<?xml version="1.0"?>
<svg width="135" height="256">
  <circle cx="105" cy="67" r="4" fill="#800080" />
  <circle cx="25" cy="140" r="4" fill="#800080" />
  <circle cx="28" cy="72" r="4" fill="#800080" />
  <circle cx="109" cy="138" r="4" fill="#800080" />
  <circle cx="109" cy="152" r="4" fill="#800080" />
  <circle cx="25" cy="154" r="4" fill="#800080" />
  <circle cx="30" cy="85" r="4" fill="#800080" />
  <circle cx="31" cy="167" r="4" fill="#800080" />
  <circle cx="53" cy="109" r="4" fill="#800080" />
  <circle cx="81" cy="109" r="4" fill="#800080" />
  <circle cx="102" cy="169" r="4" fill="#800080" />
  <circle cx="103" cy="89" r="4" fill="#800080" />
  <circle cx="33" cy="58" r="4" fill="#800080" />
  <circle cx="29" cy="128" r="4" fill="#800080" />
  <circle cx="41" cy="176" r="4" fill="#800080" />
  <circle cx="93" cy="51" r="4" fill="#800080" />
  <circle cx="103" cy="125" r="4" fill="#800080" />
  <circle cx="90" cy="178" r="4" fill="#800080" />
  <circle cx="35" cy="96" r="4" fill="#800080" />
  <circle cx="42" cy="49" r="4" fill="#800080" />
  <circle cx="52" cy="180" r="4" fill="#800080" />
  <circle cx="53" cy="45" r="4" fill="#800080" />
  <circle cx="63" cy="182" r="4" fill="#800080" />
  <circle cx="64" cy="44" r="4" fill="#800080" />
  <circle cx="64" cy="109" r="4" fill="#800080" />
  <circle cx="74" cy="182" r="4" fill="#800080" />
  <circle cx="75" cy="44" r="4" fill="#800080" />
  <circle cx="95" cy="99" r="4" fill="#800080" />
  <circle cx="103" cy="78" r="4" fill="#800080" />
  <circle cx="37" cy="120" r="4" fill="#800080" />
  <circle cx="44" cy="102" r="4" fill="#800080" />
  <circle cx="91" cy="116" r="4" fill="#800080" />
  <circle cx="102" cy="57" r="4" fill="#800080" />
  <circle cx="110" cy="162" r="4" fill="#800080" />
  <circle cx="85" cy="45" r="4" fill="#800080" />
  <circle cx="25" cy="63" r="4" fill="#800080" />
  <circle cx="18" cy="145" r="4" fill="#800080" />
  <circle cx="21" cy="162" r="4" fill="#800080" />
  <circle cx="22" cy="78" r="4" fill="#800080" />
  <circle cx="30" cy="147" r="4" fill="#800080" />
  <circle cx="31" cy="175" r="4" fill="#800080" />
  <circle cx="32" cy="159" r="4" fill="#800080" />
  <circle cx="34" cy="50" r="4" fill="#800080" />
  <circle cx="34" cy="66" r="4" fill="#800080" />
  <circle cx="41" cy="57" r="4" fill="#800080" />
  <circle cx="43" cy="114" r="4" fill="#800080" />
  <circle cx="72" cy="105" r="4" fill="#800080" />
  <circle cx="72" cy="113" r="4" fill="#800080" />
  <circle cx="81" cy="177" r="4" fill="#800080" />
  <circle cx="86" cy="102" r="4" fill="#800080" />
  <circle cx="94" cy="170" r="4" fill="#800080" />
  <circle cx="98" cy="178" r="4" fill="#800080" />
  <circle cx="99" cy="117" r="4" fill="#800080" />
  <circle cx="101" cy="160" r="4" fill="#800080" />
  <circle cx="102" cy="133" r="4" fill="#800080" />
  <circle cx="103" cy="97" r="4" fill="#800080" />
  <circle cx="104" cy="145" r="4" fill="#800080" />
  <circle cx="110" cy="83" r="4" fill="#800080" />
  <circle cx="110" cy="130" r="4" fill="#800080" />
  <circle cx="111" cy="73" r="4" fill="#800080" />
  <circle cx="114" cy="145" r="4" fill="#800080" />
  <circle cx="21" cy="132" r="4" fill="#800080" />
  <circle cx="18" cy="152" r="4" fill="#800080" />
  <circle cx="21" cy="70" r="4" fill="#800080" />
  <circle cx="23" cy="85" r="4" fill="#800080" />
  <circle cx="24" cy="169" r="4" fill="#800080" />
  <circle cx="26" cy="92" r="4" fill="#800080" />
  <circle cx="28" cy="121" r="4" fill="#800080" />
  <circle cx="31" cy="135" r="4" fill="#800080" />
  <circle cx="33" cy="78" r="4" fill="#800080" />
  <circle cx="36" cy="127" r="4" fill="#800080" />
  <circle cx="37" cy="87" r="4" fill="#800080" />
  <circle cx="38" cy="166" r="4" fill="#800080" />
  <circle cx="44" cy="183" r="4" fill="#800080" />
  <circle cx="50" cy="116" r="4" fill="#800080" />
  <circle cx="51" cy="102" r="4" fill="#800080" />
  <circle cx="81" cy="184" r="4" fill="#800080" />
  <circle cx="83" cy="116" r="4" fill="#800080" />
  <circle cx="86" cy="52" r="4" fill="#800080" />
  <circle cx="92" cy="44" r="4" fill="#800080" />
  <circle cx="93" cy="58" r="4" fill="#800080" />
  <circle cx="95" cy="92" r="4" fill="#800080" />
  <circle cx="96" cy="124" r="4" fill="#800080" />
  <circle cx="97" cy="65" r="4" fill="#800080" />
  <circle cx="100" cy="49" r="4" fill="#800080" />
  <circle cx="102" cy="152" r="4" fill="#800080" />
  <circle cx="109" cy="59" r="4" fill="#800080" />
  <circle cx="109" cy="169" r="4" fill="#800080" />
  <circle cx="112" cy="66" r="4" fill="#800080" />
  <circle cx="116" cy="136" r="4" fill="#800080" />
  <circle cx="116" cy="152" r="4" fill="#800080" />
</svg>
