<?xml version="1.0"?>
<svg width="135" height="256">
  <circle cx="107" cy="107" r="4" fill="#800080" />
  <circle cx="25" cy="86" r="4" fill="#800080" />
  <circle cx="108" cy="89" r="4" fill="#800080" />
  <circle cx="27" cy="101" r="4" fill="#800080" />
  <circle cx="27" cy="70" r="4" fill="#800080" />
  <circle cx="32" cy="114" r="4" fill="#800080" />
  <circle cx="32" cy="166" r="4" fill="#800080" />
  <circle cx="35" cy="58" r="4" fill="#800080" />
  <circle cx="89" cy="51" r="4" fill="#800080" />
  <circle cx="99" cy="61" r="4" fill="#800080" />
  <circle cx="99" cy="161" r="4" fill="#800080" />
  <circle cx="105" cy="74" r="4" fill="#800080" />
  <circle cx="105" cy="147" r="4" fill="#800080" />
  <circle cx="108" cy="126" r="4" fill="#800080" />
  <circle cx="42" cy="123" r="4" fill="#800080" />
  <circle cx="41" cy="175" r="4" fill="#800080" />
  <circle cx="45" cy="50" r="4" fill="#800080" />
  <circle cx="54" cy="129" r="4" fill="#800080" />
  <circle cx="55" cy="181" r="4" fill="#800080" />
  <circle cx="58" cy="45" r="4" fill="#800080" />
  <circle cx="69" cy="181" r="4" fill="#800080" />
  <circle cx="71" cy="45" r="4" fill="#800080" />
  <circle cx="81" cy="178" r="4" fill="#800080" />
  <circle cx="91" cy="171" r="4" fill="#800080" />
  <circle cx="65" cy="129" r="4" fill="#800080" />
  <circle cx="76" cy="128" r="4" fill="#800080" />
  <circle cx="110" cy="137" r="4" fill="#800080" />
  <circle cx="86" cy="123" r="4" fill="#800080" />
  <circle cx="113" cy="116" r="4" fill="#800080" />
  <circle cx="81" cy="44" r="4" fill="#800080" />
  <circle cx="95" cy="114" r="4" fill="#800080" />
  <circle cx="102" cy="98" r="4" fill="#800080" />
  <circle cx="111" cy="98" r="4" fill="#800080" />
  <circle cx="104" cy="116" r="4" fill="#800080" />
  <circle cx="20" cy="76" r="4" fill="#800080" />
  <circle cx="20" cy="93" r="4" fill="#800080" />
  <circle cx="24" cy="109" r="4" fill="#800080" />
  <circle cx="24" cy="161" r="4" fill="#800080" />
  <circle cx="25" cy="62" r="4" fill="#800080" />
  <circle cx="28" cy="78" r="4" fill="#800080" />
  <circle cx="30" cy="93" r="4" fill="#800080" />
  <circle cx="31" cy="174" r="4" fill="#800080" />
  <circle cx="32" cy="122" r="4" fill="#800080" />
  <circle cx="34" cy="106" r="4" fill="#800080" />
  <circle cx="35" cy="50" r="4" fill="#800080" />
  <circle cx="35" cy="66" r="4" fill="#800080" />
  <circle cx="40" cy="114" r="4" fill="#800080" />
  <circle cx="45" cy="131" r="4" fill="#800080" />
  <circle cx="45" cy="183" r="4" fill="#800080" />
  <circle cx="49" cy="175" r="4" fill="#800080" />
  <circle cx="50" cy="43" r="4" fill="#800080" />
  <circle cx="62" cy="186" r="4" fill="#800080" />
  <circle cx="81" cy="52" r="4" fill="#800080" />
  <circle cx="90" cy="59" r="4" fill="#800080" />
  <circle cx="97" cy="50" r="4" fill="#800080" />
  <circle cx="97" cy="69" r="4" fill="#800080" />
  <circle cx="97" cy="153" r="4" fill="#800080" />
  <circle cx="99" cy="106" r="4" fill="#800080" />
  <circle cx="99" cy="169" r="4" fill="#800080" />
  <circle cx="101" cy="82" r="4" fill="#800080" />
  <circle cx="102" cy="134" r="4" fill="#800080" />
  <circle cx="105" cy="155" r="4" fill="#800080" />
  <circle cx="106" cy="66" r="4" fill="#800080" />
  <circle cx="110" cy="81" r="4" fill="#800080" />
  <circle cx="115" cy="106" r="4" fill="#800080" />
  <circle cx="50" cy="122" r="4" fill="#800080" />
  <circle cx="18" cy="84" r="4" fill="#800080" />
  <circle cx="20" cy="100" r="4" fill="#800080" />
  <circle cx="31" cy="159" r="4" fill="#800080" />
  <circle cx="32" cy="85" r="4" fill="#800080" />
  <circle cx="34" cy="73" r="4" fill="#800080" />
  <circle cx="39" cy="165" r="4" fill="#800080" />
  <circle cx="42" cy="57" r="4" fill="#800080" />
  <circle cx="52" cy="50" r="4" fill="#800080" />
  <circle cx="62" cy="177" r="4" fill="#800080" />
  <circle cx="64" cy="40" r="4" fill="#800080" />
  <circle cx="74" cy="175" r="4" fill="#800080" />
  <circle cx="76" cy="184" r="4" fill="#800080" />
  <circle cx="82" cy="171" r="4" fill="#800080" />
  <circle cx="88" cy="44" r="4" fill="#800080" />
  <circle cx="88" cy="178" r="4" fill="#800080" />
  <circle cx="90" cy="164" r="4" fill="#800080" />
  <circle cx="93" cy="121" r="4" fill="#800080" />
  <circle cx="100" cy="141" r="4" fill="#800080" />
  <circle cx="101" cy="89" r="4" fill="#800080" />
  <circle cx="112" cy="74" r="4" fill="#800080" />
  <circle cx="112" cy="144" r="4" fill="#800080" />
  <circle cx="115" cy="87" r="4" fill="#800080" />
  <circle cx="115" cy="123" r="4" fill="#800080" />
  <circle cx="115" cy="130" r="4" fill="#800080" />
</svg>
