<?xml version="1.0"?>
<svg width="135" height="256">
  <circle cx="79" cy="35" r="4" fill="#800080" />
  <circle cx="79" cy="223" r="4" fill="#800080" />
  <circle cx="80" cy="49" r="4" fill="#800080" />
  <circle cx="80" cy="63" r="4" fill="#800080" />
  <circle cx="80" cy="77" r="4" fill="#800080" />
  <circle cx="80" cy="91" r="4" fill="#800080" />
  <circle cx="80" cy="105" r="4" fill="#800080" />
  <circle cx="80" cy="119" r="4" fill="#800080" />
  <circle cx="80" cy="133" r="4" fill="#800080" />
  <circle cx="80" cy="147" r="4" fill="#800080" />
  <circle cx="80" cy="161" r="4" fill="#800080" />
  <circle cx="80" cy="175" r="4" fill="#800080" />
  <circle cx="80" cy="189" r="4" fill="#800080" />
  <circle cx="80" cy="203" r="4" fill="#800080" />
  <circle cx="36" cy="31" r="4" fill="#800080" />
  <circle cx="36" cy="226" r="4" fill="#800080" />
  <circle cx="47" cy="31" r="4" fill="#800080" />
  <circle cx="47" cy="226" r="4" fill="#800080" />
  <circle cx="58" cy="31" r="4" fill="#800080" />
  <circle cx="58" cy="226" r="4" fill="#800080" />
  <circle cx="69" cy="31" r="4" fill="#800080" />
  <circle cx="68" cy="225" r="4" fill="#800080" />
  <circle cx="76" cy="213" r="4" fill="#800080" />
  <circle cx="85" cy="212" r="4" fill="#800080" />
  <circle cx="74" cy="42" r="4" fill="#800080" />
  <circle cx="74" cy="55" r="4" fill="#800080" />
  <circle cx="74" cy="69" r="4" fill="#800080" />
  <circle cx="74" cy="83" r="4" fill="#800080" />
  <circle cx="74" cy="97" r="4" fill="#800080" />
  <circle cx="74" cy="111" r="4" fill="#800080" />
  <circle cx="74" cy="125" r="4" fill="#800080" />
  <circle cx="74" cy="139" r="4" fill="#800080" />
  <circle cx="74" cy="153" r="4" fill="#800080" />
  <circle cx="74" cy="167" r="4" fill="#800080" />
  <circle cx="74" cy="181" r="4" fill="#800080" />
  <circle cx="74" cy="195" r="4" fill="#800080" />
  <circle cx="84" cy="28" r="4" fill="#800080" />
  <circle cx="84" cy="230" r="4" fill="#800080" />
  <circle cx="85" cy="41" r="4" fill="#800080" />
  <circle cx="85" cy="56" r="4" fill="#800080" />
  <circle cx="85" cy="70" r="4" fill="#800080" />
  <circle cx="85" cy="84" r="4" fill="#800080" />
  <circle cx="85" cy="98" r="4" fill="#800080" />
  <circle cx="85" cy="112" r="4" fill="#800080" />
  <circle cx="85" cy="126" r="4" fill="#800080" />
  <circle cx="85" cy="140" r="4" fill="#800080" />
  <circle cx="85" cy="154" r="4" fill="#800080" />
  <circle cx="85" cy="168" r="4" fill="#800080" />
  <circle cx="85" cy="182" r="4" fill="#800080" />
  <circle cx="85" cy="196" r="4" fill="#800080" />
  <circle cx="75" cy="230" r="4" fill="#800080" />
  <circle cx="73" cy="62" r="4" fill="#800080" />
  <circle cx="73" cy="76" r="4" fill="#800080" />
  <circle cx="73" cy="90" r="4" fill="#800080" />
  <circle cx="73" cy="104" r="4" fill="#800080" />
  <circle cx="73" cy="118" r="4" fill="#800080" />
  <circle cx="73" cy="132" r="4" fill="#800080" />
  <circle cx="73" cy="146" r="4" fill="#800080" />
  <circle cx="73" cy="160" r="4" fill="#800080" />
  <circle cx="73" cy="174" r="4" fill="#800080" />
  <circle cx="73" cy="188" r="4" fill="#800080" />
  <circle cx="73" cy="202" r="4" fill="#800080" />
  <circle cx="76" cy="27" r="4" fill="#800080" />
  <circle cx="86" cy="219" r="4" fill="#800080" />
  <circle cx="87" cy="48" r="4" fill="#800080" />
  <circle cx="87" cy="63" r="4" fill="#800080" />
  <circle cx="87" cy="77" r="4" fill="#800080" />
  <circle cx="87" cy="91" r="4" fill="#800080" />
  <circle cx="87" cy="105" r="4" fill="#800080" />
  <circle cx="87" cy="119" r="4" fill="#800080" />
  <circle cx="87" cy="133" r="4" fill="#800080" />
  <circle cx="87" cy="147" r="4" fill="#800080" />
  <circle cx="87" cy="161" r="4" fill="#800080" />
  <circle cx="87" cy="175" r="4" fill="#800080" />
  <circle cx="87" cy="189" r="4" fill="#800080" />
  <circle cx="87" cy="203" r="4" fill="#800080" />
</svg>
