<?xml version="1.0"?>
<svg width="135" height="256">
  <circle cx="84" cy="97" r="4" fill="#800080" />
  <circle cx="85" cy="153" r="4" fill="#800080" />
  <circle cx="86" cy="111" r="4" fill="#800080" />
  <circle cx="86" cy="139" r="4" fill="#800080" />
  <circle cx="87" cy="125" r="4" fill="#800080" />
  <circle cx="79" cy="78" r="4" fill="#800080" />
  <circle cx="68" cy="54" r="4" fill="#800080" />
  <circle cx="68" cy="204" r="4" fill="#800080" />
  <circle cx="75" cy="190" r="4" fill="#800080" />
  <circle cx="80" cy="175" r="4" fill="#800080" />
  <circle cx="60" cy="217" r="4" fill="#800080" />
  <circle cx="54" cy="33" r="4" fill="#800080" />
  <circle cx="73" cy="66" r="4" fill="#800080" />
  <circle cx="62" cy="43" r="4" fill="#800080" />
  <circle cx="52" cy="226" r="4" fill="#800080" />
  <circle cx="81" cy="164" r="4" fill="#800080" />
  <circle cx="78" cy="88" r="4" fill="#800080" />
  <circle cx="87" cy="88" r="4" fill="#800080" />
  <circle cx="82" cy="184" r="4" fill="#800080" />
  <circle cx="45" cy="28" r="4" fill="#800080" />
  <circle cx="54" cy="41" r="4" fill="#800080" />
  <circle cx="60" cy="208" r="4" fill="#800080" />
  <circle cx="60" cy="225" r="4" fill="#800080" />
  <circle cx="67" cy="194" r="4" fill="#800080" />
  <circle cx="68" cy="212" r="4" fill="#800080" />
  <circle cx="72" cy="182" r="4" fill="#800080" />
  <circle cx="75" cy="198" r="4" fill="#800080" />
  <circle cx="76" cy="58" r="4" fill="#800080" />
  <circle cx="79" cy="104" r="4" fill="#800080" />
  <circle cx="80" cy="117" r="4" fill="#800080" />
  <circle cx="80" cy="145" r="4" fill="#800080" />
  <circle cx="81" cy="68" r="4" fill="#800080" />
  <circle cx="81" cy="131" r="4" fill="#800080" />
  <circle cx="87" cy="170" r="4" fill="#800080" />
  <circle cx="89" cy="161" r="4" fill="#800080" />
  <circle cx="90" cy="103" r="4" fill="#800080" />
  <circle cx="91" cy="146" r="4" fill="#800080" />
  <circle cx="92" cy="117" r="4" fill="#800080" />
  <circle cx="92" cy="132" r="4" fill="#800080" />
  <circle cx="45" cy="230" r="4" fill="#800080" />
  <circle cx="52" cy="219" r="4" fill="#800080" />
  <circle cx="59" cy="50" r="4" fill="#800080" />
  <circle cx="61" cy="33" r="4" fill="#800080" />
  <circle cx="65" cy="61" r="4" fill="#800080" />
  <circle cx="69" cy="45" r="4" fill="#800080" />
  <circle cx="70" cy="73" r="4" fill="#800080" />
  <circle cx="75" cy="169" r="4" fill="#800080" />
  <circle cx="77" cy="95" r="4" fill="#800080" />
  <circle cx="78" cy="152" r="4" fill="#800080" />
  <circle cx="79" cy="138" r="4" fill="#800080" />
  <circle cx="80" cy="124" r="4" fill="#800080" />
  <circle cx="86" cy="77" r="4" fill="#800080" />
  <circle cx="87" cy="177" r="4" fill="#800080" />
  <circle cx="91" cy="95" r="4" fill="#800080" />
  <circle cx="92" cy="153" r="4" fill="#800080" />
  <circle cx="93" cy="110" r="4" fill="#800080" />
  <circle cx="93" cy="139" r="4" fill="#800080" />
  <circle cx="94" cy="124" r="4" fill="#800080" />
</svg>
