<?xml version="1.0"?>
<svg width="135" height="256">
  <circle cx="92" cy="36" r="4" fill="#800080" />
  <circle cx="42" cy="35" r="4" fill="#800080" />
  <circle cx="92" cy="51" r="4" fill="#800080" />
  <circle cx="42" cy="49" r="4" fill="#800080" />
  <circle cx="92" cy="65" r="4" fill="#800080" />
  <circle cx="42" cy="62" r="4" fill="#800080" />
  <circle cx="92" cy="78" r="4" fill="#800080" />
  <circle cx="42" cy="75" r="4" fill="#800080" />
  <circle cx="41" cy="86" r="4" fill="#800080" />
  <circle cx="90" cy="88" r="4" fill="#800080" />
  <circle cx="85" cy="29" r="4" fill="#800080" />
  <circle cx="99" cy="29" r="4" fill="#800080" />
  <circle cx="36" cy="42" r="4" fill="#800080" />
  <circle cx="34" cy="28" r="4" fill="#800080" />
  <circle cx="36" cy="55" r="4" fill="#800080" />
  <circle cx="47" cy="28" r="4" fill="#800080" />
  <circle cx="47" cy="42" r="4" fill="#800080" />
  <circle cx="48" cy="55" r="4" fill="#800080" />
  <circle cx="48" cy="68" r="4" fill="#800080" />
  <circle cx="85" cy="41" r="4" fill="#800080" />
  <circle cx="86" cy="57" r="4" fill="#800080" />
  <circle cx="97" cy="43" r="4" fill="#800080" />
  <circle cx="97" cy="58" r="4" fill="#800080" />
  <circle cx="37" cy="68" r="4" fill="#800080" />
  <circle cx="34" cy="35" r="4" fill="#800080" />
  <circle cx="47" cy="81" r="4" fill="#800080" />
  <circle cx="47" cy="91" r="4" fill="#800080" />
  <circle cx="49" cy="35" r="4" fill="#800080" />
  <circle cx="84" cy="48" r="4" fill="#800080" />
  <circle cx="85" cy="64" r="4" fill="#800080" />
  <circle cx="86" cy="71" r="4" fill="#800080" />
  <circle cx="92" cy="27" r="4" fill="#800080" />
  <circle cx="97" cy="71" r="4" fill="#800080" />
  <circle cx="97" cy="84" r="4" fill="#800080" />
  <circle cx="97" cy="91" r="4" fill="#800080" />
  <circle cx="99" cy="36" r="4" fill="#800080" />
  <circle cx="99" cy="50" r="4" fill="#800080" />
</svg>
