<?xml version="1.0"?>
<svg width="135" height="256">
  <circle cx="67" cy="176" r="4" fill="#800080" />
  <circle cx="67" cy="49" r="4" fill="#800080" />
  <circle cx="67" cy="63" r="4" fill="#800080" />
  <circle cx="67" cy="76" r="4" fill="#800080" />
  <circle cx="67" cy="89" r="4" fill="#800080" />
  <circle cx="67" cy="102" r="4" fill="#800080" />
  <circle cx="67" cy="115" r="4" fill="#800080" />
  <circle cx="67" cy="127" r="4" fill="#800080" />
  <circle cx="65" cy="137" r="4" fill="#800080" />
  <circle cx="73" cy="56" r="4" fill="#800080" />
  <circle cx="60" cy="169" r="4" fill="#800080" />
  <circle cx="60" cy="181" r="4" fill="#800080" />
  <circle cx="61" cy="43" r="4" fill="#800080" />
  <circle cx="61" cy="55" r="4" fill="#800080" />
  <circle cx="61" cy="69" r="4" fill="#800080" />
  <circle cx="72" cy="169" r="4" fill="#800080" />
  <circle cx="72" cy="183" r="4" fill="#800080" />
  <circle cx="73" cy="43" r="4" fill="#800080" />
  <circle cx="73" cy="69" r="4" fill="#800080" />
  <circle cx="73" cy="82" r="4" fill="#800080" />
  <circle cx="73" cy="95" r="4" fill="#800080" />
  <circle cx="62" cy="82" r="4" fill="#800080" />
  <circle cx="60" cy="62" r="4" fill="#800080" />
  <circle cx="61" cy="94" r="4" fill="#800080" />
  <circle cx="61" cy="107" r="4" fill="#800080" />
  <circle cx="62" cy="121" r="4" fill="#800080" />
  <circle cx="72" cy="108" r="4" fill="#800080" />
  <circle cx="72" cy="121" r="4" fill="#800080" />
  <circle cx="72" cy="133" r="4" fill="#800080" />
  <circle cx="72" cy="140" r="4" fill="#800080" />
  <circle cx="74" cy="176" r="4" fill="#800080" />
</svg>
