<?xml version="1.0"?>
<svg width="135" height="256">
  <circle cx="47" cy="126" r="4" fill="#800080" />
  <circle cx="48" cy="140" r="4" fill="#800080" />
  <circle cx="49" cy="104" r="4" fill="#800080" />
  <circle cx="49" cy="154" r="4" fill="#800080" />
  <circle cx="52" cy="168" r="4" fill="#800080" />
  <circle cx="52" cy="90" r="4" fill="#800080" />
  <circle cx="56" cy="76" r="4" fill="#800080" />
  <circle cx="56" cy="181" r="4" fill="#800080" />
  <circle cx="62" cy="63" r="4" fill="#800080" />
  <circle cx="62" cy="195" r="4" fill="#800080" />
  <circle cx="68" cy="207" r="4" fill="#800080" />
  <circle cx="68" cy="51" r="4" fill="#800080" />
  <circle cx="75" cy="40" r="4" fill="#800080" />
  <circle cx="75" cy="218" r="4" fill="#800080" />
  <circle cx="45" cy="115" r="4" fill="#800080" />
  <circle cx="83" cy="31" r="4" fill="#800080" />
  <circle cx="83" cy="227" r="4" fill="#800080" />
  <circle cx="54" cy="112" r="4" fill="#800080" />
  <circle cx="41" cy="132" r="4" fill="#800080" />
  <circle cx="42" cy="146" r="4" fill="#800080" />
  <circle cx="45" cy="95" r="4" fill="#800080" />
  <circle cx="45" cy="162" r="4" fill="#800080" />
  <circle cx="48" cy="82" r="4" fill="#800080" />
  <circle cx="48" cy="176" r="4" fill="#800080" />
  <circle cx="53" cy="120" r="4" fill="#800080" />
  <circle cx="53" cy="132" r="4" fill="#800080" />
  <circle cx="53" cy="189" r="4" fill="#800080" />
  <circle cx="54" cy="67" r="4" fill="#800080" />
  <circle cx="54" cy="146" r="4" fill="#800080" />
  <circle cx="55" cy="98" r="4" fill="#800080" />
  <circle cx="55" cy="160" r="4" fill="#800080" />
  <circle cx="58" cy="84" r="4" fill="#800080" />
  <circle cx="59" cy="173" r="4" fill="#800080" />
  <circle cx="60" cy="55" r="4" fill="#800080" />
  <circle cx="60" cy="203" r="4" fill="#800080" />
  <circle cx="62" cy="187" r="4" fill="#800080" />
  <circle cx="63" cy="71" r="4" fill="#800080" />
  <circle cx="67" cy="215" r="4" fill="#800080" />
  <circle cx="40" cy="124" r="4" fill="#800080" />
  <circle cx="41" cy="139" r="4" fill="#800080" />
  <circle cx="42" cy="102" r="4" fill="#800080" />
  <circle cx="42" cy="153" r="4" fill="#800080" />
  <circle cx="45" cy="169" r="4" fill="#800080" />
  <circle cx="55" cy="139" r="4" fill="#800080" />
  <circle cx="56" cy="105" r="4" fill="#800080" />
  <circle cx="56" cy="153" r="4" fill="#800080" />
  <circle cx="59" cy="91" r="4" fill="#800080" />
  <circle cx="63" cy="78" r="4" fill="#800080" />
  <circle cx="66" cy="44" r="4" fill="#800080" />
  <circle cx="68" cy="58" r="4" fill="#800080" />
  <circle cx="68" cy="200" r="4" fill="#800080" />
  <circle cx="74" cy="33" r="4" fill="#800080" />
  <circle cx="74" cy="225" r="4" fill="#800080" />
  <circle cx="75" cy="47" r="4" fill="#800080" />
  <circle cx="75" cy="207" r="4" fill="#800080" />
  <circle cx="82" cy="38" r="4" fill="#800080" />
  <circle cx="82" cy="218" r="4" fill="#800080" />
  <circle cx="90" cy="27" r="4" fill="#800080" />
  <circle cx="90" cy="229" r="4" fill="#800080" />
</svg>
