<?xml version="1.0"?>
<svg width="135" height="256">
  <circle cx="56" cy="35" r="4" fill="#800080" />
  <circle cx="55" cy="49" r="4" fill="#800080" />
  <circle cx="55" cy="63" r="4" fill="#800080" />
  <circle cx="55" cy="77" r="4" fill="#800080" />
  <circle cx="55" cy="91" r="4" fill="#800080" />
  <circle cx="55" cy="105" r="4" fill="#800080" />
  <circle cx="55" cy="119" r="4" fill="#800080" />
  <circle cx="55" cy="133" r="4" fill="#800080" />
  <circle cx="55" cy="147" r="4" fill="#800080" />
  <circle cx="55" cy="161" r="4" fill="#800080" />
  <circle cx="55" cy="175" r="4" fill="#800080" />
  <circle cx="55" cy="189" r="4" fill="#800080" />
  <circle cx="55" cy="203" r="4" fill="#800080" />
  <circle cx="55" cy="217" r="4" fill="#800080" />
  <circle cx="63" cy="226" r="4" fill="#800080" />
  <circle cx="67" cy="31" r="4" fill="#800080" />
  <circle cx="74" cy="226" r="4" fill="#800080" />
  <circle cx="78" cy="31" r="4" fill="#800080" />
  <circle cx="85" cy="226" r="4" fill="#800080" />
  <circle cx="89" cy="31" r="4" fill="#800080" />
  <circle cx="96" cy="226" r="4" fill="#800080" />
  <circle cx="52" cy="227" r="4" fill="#800080" />
  <circle cx="99" cy="30" r="4" fill="#800080" />
  <circle cx="49" cy="28" r="4" fill="#800080" />
  <circle cx="49" cy="40" r="4" fill="#800080" />
  <circle cx="49" cy="55" r="4" fill="#800080" />
  <circle cx="49" cy="69" r="4" fill="#800080" />
  <circle cx="49" cy="83" r="4" fill="#800080" />
  <circle cx="49" cy="97" r="4" fill="#800080" />
  <circle cx="49" cy="111" r="4" fill="#800080" />
  <circle cx="49" cy="125" r="4" fill="#800080" />
  <circle cx="49" cy="139" r="4" fill="#800080" />
  <circle cx="49" cy="153" r="4" fill="#800080" />
  <circle cx="49" cy="167" r="4" fill="#800080" />
  <circle cx="49" cy="181" r="4" fill="#800080" />
  <circle cx="49" cy="195" r="4" fill="#800080" />
  <circle cx="49" cy="209" r="4" fill="#800080" />
  <circle cx="60" cy="56" r="4" fill="#800080" />
  <circle cx="60" cy="70" r="4" fill="#800080" />
  <circle cx="60" cy="84" r="4" fill="#800080" />
  <circle cx="60" cy="98" r="4" fill="#800080" />
  <circle cx="60" cy="112" r="4" fill="#800080" />
  <circle cx="60" cy="126" r="4" fill="#800080" />
  <circle cx="60" cy="140" r="4" fill="#800080" />
  <circle cx="60" cy="154" r="4" fill="#800080" />
  <circle cx="60" cy="168" r="4" fill="#800080" />
  <circle cx="60" cy="182" r="4" fill="#800080" />
  <circle cx="60" cy="196" r="4" fill="#800080" />
  <circle cx="60" cy="210" r="4" fill="#800080" />
  <circle cx="61" cy="42" r="4" fill="#800080" />
  <circle cx="59" cy="28" r="4" fill="#800080" />
  <circle cx="48" cy="47" r="4" fill="#800080" />
  <circle cx="48" cy="62" r="4" fill="#800080" />
  <circle cx="48" cy="76" r="4" fill="#800080" />
  <circle cx="48" cy="90" r="4" fill="#800080" />
  <circle cx="48" cy="104" r="4" fill="#800080" />
  <circle cx="48" cy="118" r="4" fill="#800080" />
  <circle cx="48" cy="132" r="4" fill="#800080" />
  <circle cx="48" cy="146" r="4" fill="#800080" />
  <circle cx="48" cy="160" r="4" fill="#800080" />
  <circle cx="48" cy="174" r="4" fill="#800080" />
  <circle cx="48" cy="188" r="4" fill="#800080" />
  <circle cx="48" cy="202" r="4" fill="#800080" />
  <circle cx="48" cy="216" r="4" fill="#800080" />
  <circle cx="62" cy="49" r="4" fill="#800080" />
  <circle cx="62" cy="63" r="4" fill="#800080" />
  <circle cx="62" cy="77" r="4" fill="#800080" />
  <circle cx="62" cy="91" r="4" fill="#800080" />
  <circle cx="62" cy="105" r="4" fill="#800080" />
  <circle cx="62" cy="119" r="4" fill="#800080" />
  <circle cx="62" cy="133" r="4" fill="#800080" />
  <circle cx="62" cy="147" r="4" fill="#800080" />
  <circle cx="62" cy="161" r="4" fill="#800080" />
  <circle cx="62" cy="175" r="4" fill="#800080" />
  <circle cx="62" cy="189" r="4" fill="#800080" />
  <circle cx="62" cy="203" r="4" fill="#800080" />
  <circle cx="62" cy="217" r="4" fill="#800080" />
  <circle cx="102" cy="231" r="4" fill="#800080" />
</svg>
