<?xml version="1.0"?>
<svg width="135" height="256">
  <circle cx="59" cy="175" r="4" fill="#800080" />
  <circle cx="107" cy="70" r="4" fill="#800080" />
  <circle cx="24" cy="68" r="4" fill="#800080" />
  <circle cx="32" cy="57" r="4" fill="#800080" />
  <circle cx="61" cy="138" r="4" fill="#800080" />
  <circle cx="96" cy="53" r="4" fill="#800080" />
  <circle cx="102" cy="96" r="4" fill="#800080" />
  <circle cx="107" cy="83" r="4" fill="#800080" />
  <circle cx="43" cy="49" r="4" fill="#800080" />
  <circle cx="56" cy="45" r="4" fill="#800080" />
  <circle cx="68" cy="45" r="4" fill="#800080" />
  <circle cx="68" cy="126" r="4" fill="#800080" />
  <circle cx="80" cy="46" r="4" fill="#800080" />
  <circle cx="90" cy="108" r="4" fill="#800080" />
  <circle cx="78" cy="117" r="4" fill="#800080" />
  <circle cx="106" cy="59" r="4" fill="#800080" />
  <circle cx="17" cy="76" r="4" fill="#800080" />
  <circle cx="26" cy="77" r="4" fill="#800080" />
  <circle cx="89" cy="46" r="4" fill="#800080" />
  <circle cx="99" cy="105" r="4" fill="#800080" />
  <circle cx="65" cy="182" r="4" fill="#800080" />
  <circle cx="22" cy="60" r="4" fill="#800080" />
  <circle cx="32" cy="65" r="4" fill="#800080" />
  <circle cx="34" cy="49" r="4" fill="#800080" />
  <circle cx="40" cy="57" r="4" fill="#800080" />
  <circle cx="53" cy="169" r="4" fill="#800080" />
  <circle cx="53" cy="181" r="4" fill="#800080" />
  <circle cx="54" cy="144" r="4" fill="#800080" />
  <circle cx="59" cy="130" r="4" fill="#800080" />
  <circle cx="65" cy="169" r="4" fill="#800080" />
  <circle cx="76" cy="125" r="4" fill="#800080" />
  <circle cx="82" cy="109" r="4" fill="#800080" />
  <circle cx="88" cy="54" r="4" fill="#800080" />
  <circle cx="94" cy="98" r="4" fill="#800080" />
  <circle cx="96" cy="61" r="4" fill="#800080" />
  <circle cx="100" cy="88" r="4" fill="#800080" />
  <circle cx="109" cy="91" r="4" fill="#800080" />
  <circle cx="113" cy="76" r="4" fill="#800080" />
  <circle cx="68" cy="134" r="4" fill="#800080" />
  <circle cx="17" cy="67" r="4" fill="#800080" />
  <circle cx="46" cy="42" r="4" fill="#800080" />
  <circle cx="50" cy="50" r="4" fill="#800080" />
  <circle cx="61" cy="145" r="4" fill="#800080" />
  <circle cx="62" cy="40" r="4" fill="#800080" />
  <circle cx="62" cy="50" r="4" fill="#800080" />
  <circle cx="68" cy="119" r="4" fill="#800080" />
  <circle cx="74" cy="40" r="4" fill="#800080" />
  <circle cx="85" cy="116" r="4" fill="#800080" />
  <circle cx="96" cy="46" r="4" fill="#800080" />
  <circle cx="99" cy="68" r="4" fill="#800080" />
  <circle cx="101" cy="75" r="4" fill="#800080" />
  <circle cx="103" cy="51" r="4" fill="#800080" />
  <circle cx="112" cy="64" r="4" fill="#800080" />
  <circle cx="114" cy="83" r="4" fill="#800080" />
</svg>
