<?xml version="1.0"?>
<svg width="135" height="256">
  <circle cx="67" cy="81" r="4" fill="#800080" />
  <circle cx="66" cy="168" r="4" fill="#800080" />
  <circle cx="61" cy="183" r="4" fill="#800080" />
  <circle cx="56" cy="197" r="4" fill="#800080" />
  <circle cx="62" cy="93" r="4" fill="#800080" />
  <circle cx="51" cy="210" r="4" fill="#800080" />
  <circle cx="73" cy="91" r="4" fill="#800080" />
  <circle cx="47" cy="221" r="4" fill="#800080" />
  <circle cx="74" cy="161" r="4" fill="#800080" />
  <circle cx="60" cy="74" r="4" fill="#800080" />
  <circle cx="58" cy="174" r="4" fill="#800080" />
  <circle cx="69" cy="177" r="4" fill="#800080" />
  <circle cx="73" cy="73" r="4" fill="#800080" />
  <circle cx="61" cy="160" r="4" fill="#800080" />
  <circle cx="49" cy="202" r="4" fill="#800080" />
  <circle cx="53" cy="186" r="4" fill="#800080" />
  <circle cx="58" cy="82" r="4" fill="#800080" />
  <circle cx="58" cy="205" r="4" fill="#800080" />
  <circle cx="62" cy="191" r="4" fill="#800080" />
  <circle cx="74" cy="169" r="4" fill="#800080" />
  <circle cx="75" cy="81" r="4" fill="#800080" />
  <circle cx="68" cy="186" r="4" fill="#800080" />
  <circle cx="57" cy="167" r="4" fill="#800080" />
  <circle cx="68" cy="98" r="4" fill="#800080" />
  <circle cx="75" cy="98" r="4" fill="#800080" />
  <circle cx="81" cy="158" r="4" fill="#800080" />
</svg>
