<?xml version="1.0"?>
<svg width="135" height="256">
  <circle cx="67" cy="64" r="4" fill="#800080" />
  <circle cx="38" cy="55" r="4" fill="#800080" />
  <circle cx="49" cy="91" r="4" fill="#800080" />
  <circle cx="67" cy="31" r="4" fill="#800080" />
  <circle cx="97" cy="55" r="4" fill="#800080" />
  <circle cx="83" cy="88" r="4" fill="#800080" />
  <circle cx="48" cy="58" r="4" fill="#800080" />
  <circle cx="55" cy="82" r="4" fill="#800080" />
  <circle cx="67" cy="41" r="4" fill="#800080" />
  <circle cx="67" cy="51" r="4" fill="#800080" />
  <circle cx="73" cy="73" r="4" fill="#800080" />
  <circle cx="82" cy="60" r="4" fill="#800080" />
  <circle cx="61" cy="73" r="4" fill="#800080" />
  <circle cx="57" cy="61" r="4" fill="#800080" />
  <circle cx="77" cy="81" r="4" fill="#800080" />
  <circle cx="85" cy="96" r="4" fill="#800080" />
  <circle cx="89" cy="55" r="4" fill="#800080" />
  <circle cx="74" cy="60" r="4" fill="#800080" />
  <circle cx="31" cy="57" r="4" fill="#800080" />
  <circle cx="42" cy="94" r="4" fill="#800080" />
  <circle cx="49" cy="98" r="4" fill="#800080" />
  <circle cx="92" cy="94" r="4" fill="#800080" />
</svg>
