<?xml version="1.0"?>
<svg width="135" height="256">
  <circle cx="98" cy="156" r="4" fill="#800080" />
  <circle cx="98" cy="122" r="4" fill="#800080" />
  <circle cx="26" cy="166" r="4" fill="#800080" />
  <circle cx="24" cy="149" r="4" fill="#800080" />
  <circle cx="99" cy="99" r="4" fill="#800080" />
  <circle cx="100" cy="136" r="4" fill="#800080" />
  <circle cx="103" cy="175" r="4" fill="#800080" />
  <circle cx="29" cy="136" r="4" fill="#800080" />
  <circle cx="32" cy="89" r="4" fill="#800080" />
  <circle cx="34" cy="177" r="4" fill="#800080" />
  <circle cx="92" cy="83" r="4" fill="#800080" />
  <circle cx="39" cy="128" r="4" fill="#800080" />
  <circle cx="41" cy="80" r="4" fill="#800080" />
  <circle cx="49" cy="182" r="4" fill="#800080" />
  <circle cx="50" cy="124" r="4" fill="#800080" />
  <circle cx="52" cy="75" r="4" fill="#800080" />
  <circle cx="60" cy="181" r="4" fill="#800080" />
  <circle cx="61" cy="122" r="4" fill="#800080" />
  <circle cx="63" cy="73" r="4" fill="#800080" />
  <circle cx="72" cy="122" r="4" fill="#800080" />
  <circle cx="74" cy="74" r="4" fill="#800080" />
  <circle cx="83" cy="122" r="4" fill="#800080" />
  <circle cx="97" cy="110" r="4" fill="#800080" />
  <circle cx="113" cy="181" r="4" fill="#800080" />
  <circle cx="70" cy="178" r="4" fill="#800080" />
  <circle cx="84" cy="75" r="4" fill="#800080" />
  <circle cx="95" cy="146" r="4" fill="#800080" />
  <circle cx="97" cy="166" r="4" fill="#800080" />
  <circle cx="78" cy="172" r="4" fill="#800080" />
  <circle cx="19" cy="158" r="4" fill="#800080" />
  <circle cx="25" cy="175" r="4" fill="#800080" />
  <circle cx="30" cy="157" r="4" fill="#800080" />
  <circle cx="89" cy="160" r="4" fill="#800080" />
  <circle cx="99" cy="90" r="4" fill="#800080" />
  <circle cx="104" cy="145" r="4" fill="#800080" />
  <circle cx="122" cy="180" r="4" fill="#800080" />
  <circle cx="105" cy="115" r="4" fill="#800080" />
  <circle cx="20" cy="140" r="4" fill="#800080" />
  <circle cx="24" cy="94" r="4" fill="#800080" />
  <circle cx="29" cy="128" r="4" fill="#800080" />
  <circle cx="31" cy="81" r="4" fill="#800080" />
  <circle cx="31" cy="144" r="4" fill="#800080" />
  <circle cx="34" cy="169" r="4" fill="#800080" />
  <circle cx="37" cy="136" r="4" fill="#800080" />
  <circle cx="39" cy="184" r="4" fill="#800080" />
  <circle cx="42" cy="176" r="4" fill="#800080" />
  <circle cx="91" cy="91" r="4" fill="#800080" />
  <circle cx="94" cy="130" r="4" fill="#800080" />
  <circle cx="103" cy="183" r="4" fill="#800080" />
  <circle cx="104" cy="128" r="4" fill="#800080" />
  <circle cx="105" cy="105" r="4" fill="#800080" />
  <circle cx="105" cy="161" r="4" fill="#800080" />
  <circle cx="106" cy="153" r="4" fill="#800080" />
  <circle cx="36" cy="96" r="4" fill="#800080" />
  <circle cx="17" cy="147" r="4" fill="#800080" />
  <circle cx="18" cy="165" r="4" fill="#800080" />
  <circle cx="39" cy="87" r="4" fill="#800080" />
  <circle cx="41" cy="73" r="4" fill="#800080" />
  <circle cx="42" cy="121" r="4" fill="#800080" />
  <circle cx="82" cy="82" r="4" fill="#800080" />
  <circle cx="83" cy="165" r="4" fill="#800080" />
  <circle cx="90" cy="118" r="4" fill="#800080" />
  <circle cx="90" cy="152" r="4" fill="#800080" />
  <circle cx="91" cy="75" r="4" fill="#800080" />
  <circle cx="92" cy="98" r="4" fill="#800080" />
  <circle cx="93" cy="137" r="4" fill="#800080" />
  <circle cx="95" cy="173" r="4" fill="#800080" />
  <circle cx="99" cy="82" r="4" fill="#800080" />
  <circle cx="104" cy="168" r="4" fill="#800080" />
  <circle cx="106" cy="97" r="4" fill="#800080" />
  <circle cx="107" cy="135" r="4" fill="#800080" />
  <circle cx="110" cy="173" r="4" fill="#800080" />
</svg>
