<?xml version="1.0"?>
<svg width="135" height="256">
  <circle cx="103" cy="135" r="4" fill="#800080" />
  <circle cx="32" cy="133" r="4" fill="#800080" />
  <circle cx="14" cy="177" r="4" fill="#800080" />
  <circle cx="19" cy="163" r="4" fill="#800080" />
  <circle cx="24" cy="149" r="4" fill="#800080" />
  <circle cx="35" cy="120" r="4" fill="#800080" />
  <circle cx="61" cy="51" r="4" fill="#800080" />
  <circle cx="74" cy="50" r="4" fill="#800080" />
  <circle cx="96" cy="109" r="4" fill="#800080" />
  <circle cx="110" cy="147" r="4" fill="#800080" />
  <circle cx="114" cy="160" r="4" fill="#800080" />
  <circle cx="119" cy="173" r="4" fill="#800080" />
  <circle cx="40" cy="106" r="4" fill="#800080" />
  <circle cx="44" cy="94" r="4" fill="#800080" />
  <circle cx="44" cy="137" r="4" fill="#800080" />
  <circle cx="49" cy="81" r="4" fill="#800080" />
  <circle cx="54" cy="67" r="4" fill="#800080" />
  <circle cx="56" cy="137" r="4" fill="#800080" />
  <circle cx="68" cy="137" r="4" fill="#800080" />
  <circle cx="79" cy="62" r="4" fill="#800080" />
  <circle cx="80" cy="137" r="4" fill="#800080" />
  <circle cx="83" cy="74" r="4" fill="#800080" />
  <circle cx="87" cy="86" r="4" fill="#800080" />
  <circle cx="99" cy="121" r="4" fill="#800080" />
  <circle cx="91" cy="98" r="4" fill="#800080" />
  <circle cx="91" cy="136" r="4" fill="#800080" />
  <circle cx="126" cy="181" r="4" fill="#800080" />
  <circle cx="24" cy="139" r="4" fill="#800080" />
  <circle cx="54" cy="58" r="4" fill="#800080" />
  <circle cx="107" cy="126" r="4" fill="#800080" />
  <circle cx="6" cy="182" r="4" fill="#800080" />
  <circle cx="11" cy="168" r="4" fill="#800080" />
  <circle cx="16" cy="155" r="4" fill="#800080" />
  <circle cx="20" cy="171" r="4" fill="#800080" />
  <circle cx="25" cy="157" r="4" fill="#800080" />
  <circle cx="27" cy="126" r="4" fill="#800080" />
  <circle cx="31" cy="144" r="4" fill="#800080" />
  <circle cx="33" cy="111" r="4" fill="#800080" />
  <circle cx="41" cy="114" r="4" fill="#800080" />
  <circle cx="42" cy="86" r="4" fill="#800080" />
  <circle cx="47" cy="73" r="4" fill="#800080" />
  <circle cx="51" cy="89" r="4" fill="#800080" />
  <circle cx="55" cy="75" r="4" fill="#800080" />
  <circle cx="59" cy="43" r="4" fill="#800080" />
  <circle cx="62" cy="59" r="4" fill="#800080" />
  <circle cx="67" cy="43" r="4" fill="#800080" />
  <circle cx="97" cy="129" r="4" fill="#800080" />
  <circle cx="101" cy="143" r="4" fill="#800080" />
  <circle cx="106" cy="155" r="4" fill="#800080" />
  <circle cx="111" cy="134" r="4" fill="#800080" />
  <circle cx="111" cy="168" r="4" fill="#800080" />
  <circle cx="116" cy="181" r="4" fill="#800080" />
  <circle cx="117" cy="152" r="4" fill="#800080" />
  <circle cx="121" cy="165" r="4" fill="#800080" />
  <circle cx="47" cy="102" r="4" fill="#800080" />
  <circle cx="13" cy="184" r="4" fill="#800080" />
  <circle cx="20" cy="182" r="4" fill="#800080" />
  <circle cx="26" cy="164" r="4" fill="#800080" />
  <circle cx="31" cy="151" r="4" fill="#800080" />
  <circle cx="37" cy="97" r="4" fill="#800080" />
  <circle cx="37" cy="127" r="4" fill="#800080" />
  <circle cx="37" cy="139" r="4" fill="#800080" />
  <circle cx="50" cy="132" r="4" fill="#800080" />
  <circle cx="50" cy="142" r="4" fill="#800080" />
  <circle cx="62" cy="132" r="4" fill="#800080" />
  <circle cx="62" cy="142" r="4" fill="#800080" />
  <circle cx="72" cy="57" r="4" fill="#800080" />
  <circle cx="74" cy="42" r="4" fill="#800080" />
  <circle cx="74" cy="132" r="4" fill="#800080" />
  <circle cx="74" cy="142" r="4" fill="#800080" />
  <circle cx="76" cy="69" r="4" fill="#800080" />
  <circle cx="80" cy="55" r="4" fill="#800080" />
  <circle cx="80" cy="81" r="4" fill="#800080" />
  <circle cx="84" cy="93" r="4" fill="#800080" />
  <circle cx="85" cy="67" r="4" fill="#800080" />
  <circle cx="86" cy="142" r="4" fill="#800080" />
  <circle cx="88" cy="105" r="4" fill="#800080" />
  <circle cx="89" cy="79" r="4" fill="#800080" />
  <circle cx="92" cy="116" r="4" fill="#800080" />
  <circle cx="93" cy="91" r="4" fill="#800080" />
  <circle cx="98" cy="97" r="4" fill="#800080" />
  <circle cx="102" cy="114" r="4" fill="#800080" />
  <circle cx="126" cy="172" r="4" fill="#800080" />
</svg>
