<?xml version="1.0"?>
<svg width="135" height="256">
  <circle cx="29" cy="109" r="4" fill="#800080" />
  <circle cx="28" cy="50" r="4" fill="#800080" />
  <circle cx="28" cy="175" r="4" fill="#800080" />
  <circle cx="102" cy="60" r="4" fill="#800080" />
  <circle cx="27" cy="64" r="4" fill="#800080" />
  <circle cx="27" cy="78" r="4" fill="#800080" />
  <circle cx="27" cy="92" r="4" fill="#800080" />
  <circle cx="27" cy="123" r="4" fill="#800080" />
  <circle cx="27" cy="137" r="4" fill="#800080" />
  <circle cx="27" cy="151" r="4" fill="#800080" />
  <circle cx="106" cy="74" r="4" fill="#800080" />
  <circle cx="110" cy="164" r="4" fill="#800080" />
  <circle cx="115" cy="137" r="4" fill="#800080" />
  <circle cx="116" cy="151" r="4" fill="#800080" />
  <circle cx="79" cy="109" r="4" fill="#800080" />
  <circle cx="99" cy="173" r="4" fill="#800080" />
  <circle cx="104" cy="88" r="4" fill="#800080" />
  <circle cx="89" cy="51" r="4" fill="#800080" />
  <circle cx="25" cy="163" r="4" fill="#800080" />
  <circle cx="40" cy="47" r="4" fill="#800080" />
  <circle cx="40" cy="179" r="4" fill="#800080" />
  <circle cx="41" cy="109" r="4" fill="#800080" />
  <circle cx="52" cy="47" r="4" fill="#800080" />
  <circle cx="52" cy="179" r="4" fill="#800080" />
  <circle cx="53" cy="109" r="4" fill="#800080" />
  <circle cx="64" cy="47" r="4" fill="#800080" />
  <circle cx="64" cy="179" r="4" fill="#800080" />
  <circle cx="65" cy="109" r="4" fill="#800080" />
  <circle cx="76" cy="48" r="4" fill="#800080" />
  <circle cx="76" cy="178" r="4" fill="#800080" />
  <circle cx="107" cy="124" r="4" fill="#800080" />
  <circle cx="96" cy="98" r="4" fill="#800080" />
  <circle cx="87" cy="176" r="4" fill="#800080" />
  <circle cx="95" cy="117" r="4" fill="#800080" />
  <circle cx="87" cy="103" r="4" fill="#800080" />
  <circle cx="22" cy="101" r="4" fill="#800080" />
  <circle cx="33" cy="100" r="4" fill="#800080" />
  <circle cx="98" cy="51" r="4" fill="#800080" />
  <circle cx="110" cy="65" r="4" fill="#800080" />
  <circle cx="21" cy="43" r="4" fill="#800080" />
  <circle cx="21" cy="55" r="4" fill="#800080" />
  <circle cx="21" cy="70" r="4" fill="#800080" />
  <circle cx="21" cy="84" r="4" fill="#800080" />
  <circle cx="21" cy="109" r="4" fill="#800080" />
  <circle cx="21" cy="117" r="4" fill="#800080" />
  <circle cx="21" cy="129" r="4" fill="#800080" />
  <circle cx="21" cy="143" r="4" fill="#800080" />
  <circle cx="21" cy="180" r="4" fill="#800080" />
  <circle cx="29" cy="183" r="4" fill="#800080" />
  <circle cx="32" cy="71" r="4" fill="#800080" />
  <circle cx="32" cy="85" r="4" fill="#800080" />
  <circle cx="32" cy="130" r="4" fill="#800080" />
  <circle cx="32" cy="144" r="4" fill="#800080" />
  <circle cx="32" cy="158" r="4" fill="#800080" />
  <circle cx="33" cy="57" r="4" fill="#800080" />
  <circle cx="33" cy="117" r="4" fill="#800080" />
  <circle cx="33" cy="166" r="4" fill="#800080" />
  <circle cx="72" cy="114" r="4" fill="#800080" />
  <circle cx="85" cy="115" r="4" fill="#800080" />
  <circle cx="92" cy="59" r="4" fill="#800080" />
  <circle cx="99" cy="68" r="4" fill="#800080" />
  <circle cx="100" cy="80" r="4" fill="#800080" />
  <circle cx="101" cy="165" r="4" fill="#800080" />
  <circle cx="104" cy="96" r="4" fill="#800080" />
  <circle cx="107" cy="132" r="4" fill="#800080" />
  <circle cx="107" cy="156" r="4" fill="#800080" />
  <circle cx="107" cy="172" r="4" fill="#800080" />
  <circle cx="109" cy="143" r="4" fill="#800080" />
  <circle cx="110" cy="82" r="4" fill="#800080" />
  <circle cx="115" cy="125" r="4" fill="#800080" />
  <circle cx="117" cy="159" r="4" fill="#800080" />
  <circle cx="121" cy="143" r="4" fill="#800080" />
  <circle cx="21" cy="170" r="4" fill="#800080" />
  <circle cx="20" cy="62" r="4" fill="#800080" />
  <circle cx="20" cy="77" r="4" fill="#800080" />
  <circle cx="20" cy="91" r="4" fill="#800080" />
  <circle cx="20" cy="136" r="4" fill="#800080" />
  <circle cx="20" cy="150" r="4" fill="#800080" />
  <circle cx="20" cy="157" r="4" fill="#800080" />
  <circle cx="28" cy="42" r="4" fill="#800080" />
  <circle cx="34" cy="64" r="4" fill="#800080" />
  <circle cx="34" cy="78" r="4" fill="#800080" />
  <circle cx="34" cy="92" r="4" fill="#800080" />
  <circle cx="34" cy="137" r="4" fill="#800080" />
  <circle cx="34" cy="151" r="4" fill="#800080" />
  <circle cx="35" cy="173" r="4" fill="#800080" />
  <circle cx="45" cy="53" r="4" fill="#800080" />
  <circle cx="46" cy="42" r="4" fill="#800080" />
  <circle cx="46" cy="115" r="4" fill="#800080" />
  <circle cx="46" cy="174" r="4" fill="#800080" />
  <circle cx="46" cy="184" r="4" fill="#800080" />
  <circle cx="47" cy="104" r="4" fill="#800080" />
  <circle cx="57" cy="53" r="4" fill="#800080" />
  <circle cx="58" cy="42" r="4" fill="#800080" />
  <circle cx="58" cy="115" r="4" fill="#800080" />
  <circle cx="58" cy="174" r="4" fill="#800080" />
  <circle cx="58" cy="184" r="4" fill="#800080" />
  <circle cx="59" cy="104" r="4" fill="#800080" />
  <circle cx="69" cy="53" r="4" fill="#800080" />
  <circle cx="70" cy="42" r="4" fill="#800080" />
  <circle cx="70" cy="184" r="4" fill="#800080" />
  <circle cx="71" cy="104" r="4" fill="#800080" />
  <circle cx="81" cy="54" r="4" fill="#800080" />
  <circle cx="81" cy="184" r="4" fill="#800080" />
  <circle cx="82" cy="43" r="4" fill="#800080" />
  <circle cx="92" cy="170" r="4" fill="#800080" />
  <circle cx="92" cy="182" r="4" fill="#800080" />
  <circle cx="96" cy="91" r="4" fill="#800080" />
  <circle cx="100" cy="123" r="4" fill="#800080" />
  <circle cx="102" cy="116" r="4" fill="#800080" />
  <circle cx="105" cy="53" r="4" fill="#800080" />
  <circle cx="111" cy="89" r="4" fill="#800080" />
  <circle cx="113" cy="72" r="4" fill="#800080" />
  <circle cx="117" cy="166" r="4" fill="#800080" />
  <circle cx="120" cy="131" r="4" fill="#800080" />
  <circle cx="123" cy="150" r="4" fill="#800080" />
</svg>
