<?xml version="1.0"?>
<svg width="135" height="256">
  <circle cx="32" cy="96" r="4" fill="#800080" />
  <circle cx="32" cy="160" r="4" fill="#800080" />
  <circle cx="106" cy="99" r="4" fill="#800080" />
  <circle cx="30" cy="34" r="4" fill="#800080" />
  <circle cx="30" cy="48" r="4" fill="#800080" />
  <circle cx="30" cy="62" r="4" fill="#800080" />
  <circle cx="30" cy="76" r="4" fill="#800080" />
  <circle cx="30" cy="110" r="4" fill="#800080" />
  <circle cx="30" cy="124" r="4" fill="#800080" />
  <circle cx="30" cy="138" r="4" fill="#800080" />
  <circle cx="108" cy="146" r="4" fill="#800080" />
  <circle cx="109" cy="113" r="4" fill="#800080" />
  <circle cx="109" cy="127" r="4" fill="#800080" />
  <circle cx="103" cy="164" r="4" fill="#800080" />
  <circle cx="29" cy="173" r="4" fill="#800080" />
  <circle cx="93" cy="79" r="4" fill="#800080" />
  <circle cx="95" cy="175" r="4" fill="#800080" />
  <circle cx="80" cy="74" r="4" fill="#800080" />
  <circle cx="83" cy="181" r="4" fill="#800080" />
  <circle cx="27" cy="149" r="4" fill="#800080" />
  <circle cx="63" cy="75" r="4" fill="#800080" />
  <circle cx="68" cy="182" r="4" fill="#800080" />
  <circle cx="99" cy="89" r="4" fill="#800080" />
  <circle cx="27" cy="86" r="4" fill="#800080" />
  <circle cx="57" cy="179" r="4" fill="#800080" />
  <circle cx="110" cy="156" r="4" fill="#800080" />
  <circle cx="41" cy="165" r="4" fill="#800080" />
  <circle cx="25" cy="182" r="4" fill="#800080" />
  <circle cx="34" cy="182" r="4" fill="#800080" />
  <circle cx="36" cy="146" r="4" fill="#800080" />
  <circle cx="41" cy="91" r="4" fill="#800080" />
  <circle cx="48" cy="84" r="4" fill="#800080" />
  <circle cx="104" cy="136" r="4" fill="#800080" />
  <circle cx="113" cy="136" r="4" fill="#800080" />
  <circle cx="48" cy="173" r="4" fill="#800080" />
  <circle cx="24" cy="28" r="4" fill="#800080" />
  <circle cx="24" cy="40" r="4" fill="#800080" />
  <circle cx="24" cy="54" r="4" fill="#800080" />
  <circle cx="24" cy="68" r="4" fill="#800080" />
  <circle cx="24" cy="94" r="4" fill="#800080" />
  <circle cx="24" cy="102" r="4" fill="#800080" />
  <circle cx="24" cy="116" r="4" fill="#800080" />
  <circle cx="24" cy="130" r="4" fill="#800080" />
  <circle cx="24" cy="157" r="4" fill="#800080" />
  <circle cx="24" cy="165" r="4" fill="#800080" />
  <circle cx="35" cy="41" r="4" fill="#800080" />
  <circle cx="35" cy="55" r="4" fill="#800080" />
  <circle cx="35" cy="69" r="4" fill="#800080" />
  <circle cx="35" cy="83" r="4" fill="#800080" />
  <circle cx="35" cy="117" r="4" fill="#800080" />
  <circle cx="35" cy="131" r="4" fill="#800080" />
  <circle cx="36" cy="28" r="4" fill="#800080" />
  <circle cx="36" cy="104" r="4" fill="#800080" />
  <circle cx="38" cy="154" r="4" fill="#800080" />
  <circle cx="53" cy="77" r="4" fill="#800080" />
  <circle cx="70" cy="70" r="4" fill="#800080" />
  <circle cx="76" cy="186" r="4" fill="#800080" />
  <circle cx="88" cy="72" r="4" fill="#800080" />
  <circle cx="91" cy="183" r="4" fill="#800080" />
  <circle cx="95" cy="167" r="4" fill="#800080" />
  <circle cx="100" cy="155" r="4" fill="#800080" />
  <circle cx="101" cy="78" r="4" fill="#800080" />
  <circle cx="102" cy="107" r="4" fill="#800080" />
  <circle cx="103" cy="119" r="4" fill="#800080" />
  <circle cx="103" cy="172" r="4" fill="#800080" />
  <circle cx="107" cy="86" r="4" fill="#800080" />
  <circle cx="112" cy="105" r="4" fill="#800080" />
  <circle cx="114" cy="120" r="4" fill="#800080" />
  <circle cx="85" cy="80" r="4" fill="#800080" />
  <circle cx="23" cy="47" r="4" fill="#800080" />
  <circle cx="23" cy="61" r="4" fill="#800080" />
  <circle cx="23" cy="75" r="4" fill="#800080" />
  <circle cx="23" cy="109" r="4" fill="#800080" />
  <circle cx="23" cy="123" r="4" fill="#800080" />
  <circle cx="23" cy="137" r="4" fill="#800080" />
  <circle cx="34" cy="167" r="4" fill="#800080" />
  <circle cx="36" cy="174" r="4" fill="#800080" />
  <circle cx="37" cy="48" r="4" fill="#800080" />
  <circle cx="37" cy="62" r="4" fill="#800080" />
  <circle cx="37" cy="76" r="4" fill="#800080" />
  <circle cx="37" cy="124" r="4" fill="#800080" />
  <circle cx="37" cy="138" r="4" fill="#800080" />
  <circle cx="41" cy="98" r="4" fill="#800080" />
  <circle cx="70" cy="77" r="4" fill="#800080" />
  <circle cx="75" cy="178" r="4" fill="#800080" />
  <circle cx="87" cy="174" r="4" fill="#800080" />
  <circle cx="92" cy="86" r="4" fill="#800080" />
  <circle cx="98" cy="96" r="4" fill="#800080" />
  <circle cx="101" cy="144" r="4" fill="#800080" />
  <circle cx="102" cy="126" r="4" fill="#800080" />
  <circle cx="110" cy="163" r="4" fill="#800080" />
  <circle cx="111" cy="93" r="4" fill="#800080" />
  <circle cx="115" cy="143" r="4" fill="#800080" />
  <circle cx="116" cy="112" r="4" fill="#800080" />
  <circle cx="116" cy="127" r="4" fill="#800080" />
</svg>
