<?xml version="1.0"?>
<svg width="135" height="256">
  <circle cx="23" cy="104" r="4" fill="#800080" />
  <circle cx="23" cy="119" r="4" fill="#800080" />
  <circle cx="25" cy="88" r="4" fill="#800080" />
  <circle cx="24" cy="133" r="4" fill="#800080" />
  <circle cx="28" cy="147" r="4" fill="#800080" />
  <circle cx="29" cy="72" r="4" fill="#800080" />
  <circle cx="37" cy="59" r="4" fill="#800080" />
  <circle cx="35" cy="163" r="4" fill="#800080" />
  <circle cx="45" cy="173" r="4" fill="#800080" />
  <circle cx="48" cy="50" r="4" fill="#800080" />
  <circle cx="92" cy="50" r="4" fill="#800080" />
  <circle cx="103" cy="59" r="4" fill="#800080" />
  <circle cx="106" cy="164" r="4" fill="#800080" />
  <circle cx="70" cy="45" r="4" fill="#800080" />
  <circle cx="57" cy="179" r="4" fill="#800080" />
  <circle cx="69" cy="181" r="4" fill="#800080" />
  <circle cx="81" cy="180" r="4" fill="#800080" />
  <circle cx="93" cy="175" r="4" fill="#800080" />
  <circle cx="113" cy="153" r="4" fill="#800080" />
  <circle cx="109" cy="70" r="4" fill="#800080" />
  <circle cx="59" cy="45" r="4" fill="#800080" />
  <circle cx="81" cy="45" r="4" fill="#800080" />
  <circle cx="27" cy="157" r="4" fill="#800080" />
  <circle cx="18" cy="95" r="4" fill="#800080" />
  <circle cx="21" cy="79" r="4" fill="#800080" />
  <circle cx="28" cy="63" r="4" fill="#800080" />
  <circle cx="30" cy="97" r="4" fill="#800080" />
  <circle cx="32" cy="81" r="4" fill="#800080" />
  <circle cx="36" cy="154" r="4" fill="#800080" />
  <circle cx="102" cy="173" r="4" fill="#800080" />
  <circle cx="20" cy="142" r="4" fill="#800080" />
  <circle cx="16" cy="109" r="4" fill="#800080" />
  <circle cx="17" cy="125" r="4" fill="#800080" />
  <circle cx="28" cy="111" r="4" fill="#800080" />
  <circle cx="29" cy="125" r="4" fill="#800080" />
  <circle cx="30" cy="139" r="4" fill="#800080" />
  <circle cx="34" cy="171" r="4" fill="#800080" />
  <circle cx="36" cy="67" r="4" fill="#800080" />
  <circle cx="37" cy="51" r="4" fill="#800080" />
  <circle cx="43" cy="163" r="4" fill="#800080" />
  <circle cx="45" cy="58" r="4" fill="#800080" />
  <circle cx="48" cy="181" r="4" fill="#800080" />
  <circle cx="89" cy="183" r="4" fill="#800080" />
  <circle cx="94" cy="58" r="4" fill="#800080" />
  <circle cx="96" cy="167" r="4" fill="#800080" />
  <circle cx="100" cy="49" r="4" fill="#800080" />
  <circle cx="111" cy="60" r="4" fill="#800080" />
  <circle cx="114" cy="161" r="4" fill="#800080" />
  <circle cx="117" cy="71" r="4" fill="#800080" />
  <circle cx="53" cy="172" r="4" fill="#800080" />
  <circle cx="15" cy="102" r="4" fill="#800080" />
  <circle cx="15" cy="116" r="4" fill="#800080" />
  <circle cx="17" cy="87" r="4" fill="#800080" />
  <circle cx="17" cy="132" r="4" fill="#800080" />
  <circle cx="21" cy="149" r="4" fill="#800080" />
  <circle cx="22" cy="70" r="4" fill="#800080" />
  <circle cx="28" cy="164" r="4" fill="#800080" />
  <circle cx="30" cy="104" r="4" fill="#800080" />
  <circle cx="30" cy="118" r="4" fill="#800080" />
  <circle cx="31" cy="132" r="4" fill="#800080" />
  <circle cx="32" cy="88" r="4" fill="#800080" />
  <circle cx="35" cy="145" r="4" fill="#800080" />
  <circle cx="36" cy="74" r="4" fill="#800080" />
  <circle cx="49" cy="43" r="4" fill="#800080" />
  <circle cx="55" cy="52" r="4" fill="#800080" />
  <circle cx="61" cy="186" r="4" fill="#800080" />
  <circle cx="64" cy="51" r="4" fill="#800080" />
  <circle cx="64" cy="175" r="4" fill="#800080" />
  <circle cx="75" cy="51" r="4" fill="#800080" />
  <circle cx="75" cy="186" r="4" fill="#800080" />
  <circle cx="82" cy="52" r="4" fill="#800080" />
  <circle cx="86" cy="173" r="4" fill="#800080" />
  <circle cx="88" cy="42" r="4" fill="#800080" />
  <circle cx="100" cy="66" r="4" fill="#800080" />
  <circle cx="104" cy="157" r="4" fill="#800080" />
  <circle cx="110" cy="146" r="4" fill="#800080" />
  <circle cx="120" cy="150" r="4" fill="#800080" />
</svg>
