<?xml version="1.0"?>
<svg width="135" height="256">
  <circle cx="24" cy="122" r="4" fill="#800080" />
  <circle cx="25" cy="136" r="4" fill="#800080" />
  <circle cx="27" cy="151" r="4" fill="#800080" />
  <circle cx="27" cy="104" r="4" fill="#800080" />
  <circle cx="33" cy="165" r="4" fill="#800080" />
  <circle cx="99" cy="85" r="4" fill="#800080" />
  <circle cx="100" cy="169" r="4" fill="#800080" />
  <circle cx="33" cy="91" r="4" fill="#800080" />
  <circle cx="42" cy="174" r="4" fill="#800080" />
  <circle cx="66" cy="74" r="4" fill="#800080" />
  <circle cx="90" cy="177" r="4" fill="#800080" />
  <circle cx="42" cy="81" r="4" fill="#800080" />
  <circle cx="52" cy="180" r="4" fill="#800080" />
  <circle cx="53" cy="76" r="4" fill="#800080" />
  <circle cx="63" cy="181" r="4" fill="#800080" />
  <circle cx="74" cy="181" r="4" fill="#800080" />
  <circle cx="77" cy="74" r="4" fill="#800080" />
  <circle cx="88" cy="77" r="4" fill="#800080" />
  <circle cx="104" cy="158" r="4" fill="#800080" />
  <circle cx="105" cy="95" r="4" fill="#800080" />
  <circle cx="21" cy="112" r="4" fill="#800080" />
  <circle cx="30" cy="113" r="4" fill="#800080" />
  <circle cx="25" cy="160" r="4" fill="#800080" />
  <circle cx="18" cy="128" r="4" fill="#800080" />
  <circle cx="19" cy="142" r="4" fill="#800080" />
  <circle cx="24" cy="96" r="4" fill="#800080" />
  <circle cx="30" cy="128" r="4" fill="#800080" />
  <circle cx="30" cy="143" r="4" fill="#800080" />
  <circle cx="33" cy="83" r="4" fill="#800080" />
  <circle cx="33" cy="157" r="4" fill="#800080" />
  <circle cx="33" cy="173" r="4" fill="#800080" />
  <circle cx="34" cy="99" r="4" fill="#800080" />
  <circle cx="82" cy="176" r="4" fill="#800080" />
  <circle cx="82" cy="184" r="4" fill="#800080" />
  <circle cx="96" cy="77" r="4" fill="#800080" />
  <circle cx="98" cy="177" r="4" fill="#800080" />
  <circle cx="107" cy="86" r="4" fill="#800080" />
  <circle cx="108" cy="166" r="4" fill="#800080" />
  <circle cx="112" cy="156" r="4" fill="#800080" />
  <circle cx="113" cy="97" r="4" fill="#800080" />
  <circle cx="41" cy="89" r="4" fill="#800080" />
  <circle cx="17" cy="120" r="4" fill="#800080" />
  <circle cx="17" cy="135" r="4" fill="#800080" />
  <circle cx="20" cy="103" r="4" fill="#800080" />
  <circle cx="20" cy="149" r="4" fill="#800080" />
  <circle cx="31" cy="120" r="4" fill="#800080" />
  <circle cx="32" cy="135" r="4" fill="#800080" />
  <circle cx="34" cy="106" r="4" fill="#800080" />
  <circle cx="34" cy="150" r="4" fill="#800080" />
  <circle cx="40" cy="165" r="4" fill="#800080" />
  <circle cx="43" cy="181" r="4" fill="#800080" />
  <circle cx="45" cy="74" r="4" fill="#800080" />
  <circle cx="49" cy="83" r="4" fill="#800080" />
  <circle cx="49" cy="173" r="4" fill="#800080" />
  <circle cx="58" cy="70" r="4" fill="#800080" />
  <circle cx="60" cy="79" r="4" fill="#800080" />
  <circle cx="69" cy="187" r="4" fill="#800080" />
  <circle cx="89" cy="84" r="4" fill="#800080" />
  <circle cx="91" cy="170" r="4" fill="#800080" />
  <circle cx="97" cy="92" r="4" fill="#800080" />
</svg>
