<?xml version="1.0"?>
<svg width="135" height="256">
  <circle cx="102" cy="160" r="4" fill="#800080" />
  <circle cx="103" cy="94" r="4" fill="#800080" />
  <circle cx="104" cy="109" r="4" fill="#800080" />
  <circle cx="25" cy="118" r="4" fill="#800080" />
  <circle cx="25" cy="132" r="4" fill="#800080" />
  <circle cx="26" cy="146" r="4" fill="#800080" />
  <circle cx="104" cy="136" r="4" fill="#800080" />
  <circle cx="105" cy="34" r="4" fill="#800080" />
  <circle cx="105" cy="48" r="4" fill="#800080" />
  <circle cx="105" cy="62" r="4" fill="#800080" />
  <circle cx="105" cy="76" r="4" fill="#800080" />
  <circle cx="105" cy="174" r="4" fill="#800080" />
  <circle cx="27" cy="104" r="4" fill="#800080" />
  <circle cx="28" cy="159" r="4" fill="#800080" />
  <circle cx="32" cy="90" r="4" fill="#800080" />
  <circle cx="35" cy="171" r="4" fill="#800080" />
  <circle cx="104" cy="122" r="4" fill="#800080" />
  <circle cx="41" cy="80" r="4" fill="#800080" />
  <circle cx="45" cy="179" r="4" fill="#800080" />
  <circle cx="101" cy="148" r="4" fill="#800080" />
  <circle cx="52" cy="75" r="4" fill="#800080" />
  <circle cx="56" cy="182" r="4" fill="#800080" />
  <circle cx="63" cy="74" r="4" fill="#800080" />
  <circle cx="67" cy="182" r="4" fill="#800080" />
  <circle cx="75" cy="76" r="4" fill="#800080" />
  <circle cx="77" cy="179" r="4" fill="#800080" />
  <circle cx="84" cy="81" r="4" fill="#800080" />
  <circle cx="93" cy="90" r="4" fill="#800080" />
  <circle cx="93" cy="164" r="4" fill="#800080" />
  <circle cx="97" cy="102" r="4" fill="#800080" />
  <circle cx="102" cy="85" r="4" fill="#800080" />
  <circle cx="110" cy="101" r="4" fill="#800080" />
  <circle cx="110" cy="144" r="4" fill="#800080" />
  <circle cx="110" cy="153" r="4" fill="#800080" />
  <circle cx="85" cy="173" r="4" fill="#800080" />
  <circle cx="19" cy="124" r="4" fill="#800080" />
  <circle cx="19" cy="138" r="4" fill="#800080" />
  <circle cx="20" cy="109" r="4" fill="#800080" />
  <circle cx="21" cy="153" r="4" fill="#800080" />
  <circle cx="24" cy="94" r="4" fill="#800080" />
  <circle cx="26" cy="167" r="4" fill="#800080" />
  <circle cx="30" cy="125" r="4" fill="#800080" />
  <circle cx="31" cy="82" r="4" fill="#800080" />
  <circle cx="31" cy="112" r="4" fill="#800080" />
  <circle cx="31" cy="138" r="4" fill="#800080" />
  <circle cx="33" cy="98" r="4" fill="#800080" />
  <circle cx="33" cy="151" r="4" fill="#800080" />
  <circle cx="34" cy="179" r="4" fill="#800080" />
  <circle cx="36" cy="161" r="4" fill="#800080" />
  <circle cx="40" cy="88" r="4" fill="#800080" />
  <circle cx="95" cy="155" r="4" fill="#800080" />
  <circle cx="98" cy="115" r="4" fill="#800080" />
  <circle cx="99" cy="28" r="4" fill="#800080" />
  <circle cx="99" cy="40" r="4" fill="#800080" />
  <circle cx="99" cy="54" r="4" fill="#800080" />
  <circle cx="99" cy="68" r="4" fill="#800080" />
  <circle cx="99" cy="129" r="4" fill="#800080" />
  <circle cx="100" cy="181" r="4" fill="#800080" />
  <circle cx="108" cy="166" r="4" fill="#800080" />
  <circle cx="108" cy="182" r="4" fill="#800080" />
  <circle cx="109" cy="129" r="4" fill="#800080" />
  <circle cx="110" cy="41" r="4" fill="#800080" />
  <circle cx="110" cy="55" r="4" fill="#800080" />
  <circle cx="110" cy="69" r="4" fill="#800080" />
  <circle cx="110" cy="83" r="4" fill="#800080" />
  <circle cx="110" cy="115" r="4" fill="#800080" />
  <circle cx="111" cy="28" r="4" fill="#800080" />
  <circle cx="111" cy="91" r="4" fill="#800080" />
  <circle cx="43" cy="171" r="4" fill="#800080" />
  <circle cx="18" cy="116" r="4" fill="#800080" />
  <circle cx="18" cy="131" r="4" fill="#800080" />
  <circle cx="19" cy="145" r="4" fill="#800080" />
  <circle cx="34" cy="105" r="4" fill="#800080" />
  <circle cx="41" cy="73" r="4" fill="#800080" />
  <circle cx="47" cy="186" r="4" fill="#800080" />
  <circle cx="48" cy="82" r="4" fill="#800080" />
  <circle cx="97" cy="136" r="4" fill="#800080" />
  <circle cx="98" cy="47" r="4" fill="#800080" />
  <circle cx="98" cy="61" r="4" fill="#800080" />
  <circle cx="98" cy="75" r="4" fill="#800080" />
  <circle cx="98" cy="170" r="4" fill="#800080" />
  <circle cx="111" cy="108" r="4" fill="#800080" />
  <circle cx="111" cy="122" r="4" fill="#800080" />
  <circle cx="111" cy="136" r="4" fill="#800080" />
  <circle cx="112" cy="48" r="4" fill="#800080" />
  <circle cx="112" cy="62" r="4" fill="#800080" />
  <circle cx="112" cy="76" r="4" fill="#800080" />
  <circle cx="112" cy="173" r="4" fill="#800080" />
</svg>
