<?xml version="1.0"?>
<svg width="135" height="256">
  <circle cx="28" cy="50" r="4" fill="#800080" />
  <circle cx="28" cy="174" r="4" fill="#800080" />
  <circle cx="113" cy="112" r="4" fill="#800080" />
  <circle cx="105" cy="73" r="4" fill="#800080" />
  <circle cx="27" cy="64" r="4" fill="#800080" />
  <circle cx="27" cy="78" r="4" fill="#800080" />
  <circle cx="27" cy="92" r="4" fill="#800080" />
  <circle cx="27" cy="106" r="4" fill="#800080" />
  <circle cx="27" cy="120" r="4" fill="#800080" />
  <circle cx="27" cy="134" r="4" fill="#800080" />
  <circle cx="27" cy="148" r="4" fill="#800080" />
  <circle cx="105" cy="152" r="4" fill="#800080" />
  <circle cx="110" cy="87" r="4" fill="#800080" />
  <circle cx="110" cy="136" r="4" fill="#800080" />
  <circle cx="91" cy="169" r="4" fill="#800080" />
  <circle cx="26" cy="161" r="4" fill="#800080" />
  <circle cx="89" cy="56" r="4" fill="#800080" />
  <circle cx="73" cy="177" r="4" fill="#800080" />
  <circle cx="40" cy="47" r="4" fill="#800080" />
  <circle cx="40" cy="178" r="4" fill="#800080" />
  <circle cx="52" cy="47" r="4" fill="#800080" />
  <circle cx="52" cy="178" r="4" fill="#800080" />
  <circle cx="64" cy="48" r="4" fill="#800080" />
  <circle cx="76" cy="50" r="4" fill="#800080" />
  <circle cx="110" cy="99" r="4" fill="#800080" />
  <circle cx="110" cy="124" r="4" fill="#800080" />
  <circle cx="100" cy="62" r="4" fill="#800080" />
  <circle cx="101" cy="163" r="4" fill="#800080" />
  <circle cx="63" cy="180" r="4" fill="#800080" />
  <circle cx="83" cy="176" r="4" fill="#800080" />
  <circle cx="113" cy="145" r="4" fill="#800080" />
  <circle cx="22" cy="182" r="4" fill="#800080" />
  <circle cx="103" cy="143" r="4" fill="#800080" />
  <circle cx="21" cy="43" r="4" fill="#800080" />
  <circle cx="21" cy="55" r="4" fill="#800080" />
  <circle cx="21" cy="70" r="4" fill="#800080" />
  <circle cx="21" cy="84" r="4" fill="#800080" />
  <circle cx="21" cy="98" r="4" fill="#800080" />
  <circle cx="21" cy="112" r="4" fill="#800080" />
  <circle cx="21" cy="126" r="4" fill="#800080" />
  <circle cx="21" cy="140" r="4" fill="#800080" />
  <circle cx="21" cy="154" r="4" fill="#800080" />
  <circle cx="21" cy="168" r="4" fill="#800080" />
  <circle cx="30" cy="182" r="4" fill="#800080" />
  <circle cx="32" cy="71" r="4" fill="#800080" />
  <circle cx="32" cy="85" r="4" fill="#800080" />
  <circle cx="32" cy="99" r="4" fill="#800080" />
  <circle cx="32" cy="113" r="4" fill="#800080" />
  <circle cx="32" cy="127" r="4" fill="#800080" />
  <circle cx="32" cy="141" r="4" fill="#800080" />
  <circle cx="32" cy="155" r="4" fill="#800080" />
  <circle cx="33" cy="57" r="4" fill="#800080" />
  <circle cx="33" cy="166" r="4" fill="#800080" />
  <circle cx="81" cy="57" r="4" fill="#800080" />
  <circle cx="82" cy="168" r="4" fill="#800080" />
  <circle cx="84" cy="48" r="4" fill="#800080" />
  <circle cx="90" cy="64" r="4" fill="#800080" />
  <circle cx="91" cy="161" r="4" fill="#800080" />
  <circle cx="96" cy="70" r="4" fill="#800080" />
  <circle cx="97" cy="154" r="4" fill="#800080" />
  <circle cx="102" cy="81" r="4" fill="#800080" />
  <circle cx="106" cy="107" r="4" fill="#800080" />
  <circle cx="111" cy="79" r="4" fill="#800080" />
  <circle cx="116" cy="93" r="4" fill="#800080" />
  <circle cx="116" cy="130" r="4" fill="#800080" />
  <circle cx="117" cy="104" r="4" fill="#800080" />
  <circle cx="118" cy="119" r="4" fill="#800080" />
  <circle cx="32" cy="43" r="4" fill="#800080" />
  <circle cx="20" cy="62" r="4" fill="#800080" />
  <circle cx="20" cy="77" r="4" fill="#800080" />
  <circle cx="20" cy="91" r="4" fill="#800080" />
  <circle cx="20" cy="105" r="4" fill="#800080" />
  <circle cx="20" cy="119" r="4" fill="#800080" />
  <circle cx="20" cy="133" r="4" fill="#800080" />
  <circle cx="20" cy="147" r="4" fill="#800080" />
  <circle cx="20" cy="175" r="4" fill="#800080" />
  <circle cx="34" cy="64" r="4" fill="#800080" />
  <circle cx="34" cy="78" r="4" fill="#800080" />
  <circle cx="34" cy="92" r="4" fill="#800080" />
  <circle cx="34" cy="106" r="4" fill="#800080" />
  <circle cx="34" cy="120" r="4" fill="#800080" />
  <circle cx="34" cy="134" r="4" fill="#800080" />
  <circle cx="34" cy="148" r="4" fill="#800080" />
  <circle cx="45" cy="53" r="4" fill="#800080" />
  <circle cx="45" cy="184" r="4" fill="#800080" />
  <circle cx="46" cy="42" r="4" fill="#800080" />
  <circle cx="46" cy="173" r="4" fill="#800080" />
  <circle cx="57" cy="53" r="4" fill="#800080" />
  <circle cx="58" cy="42" r="4" fill="#800080" />
  <circle cx="58" cy="173" r="4" fill="#800080" />
  <circle cx="65" cy="173" r="4" fill="#800080" />
  <circle cx="69" cy="54" r="4" fill="#800080" />
  <circle cx="70" cy="43" r="4" fill="#800080" />
  <circle cx="90" cy="176" r="4" fill="#800080" />
  <circle cx="96" cy="53" r="4" fill="#800080" />
  <circle cx="98" cy="170" r="4" fill="#800080" />
  <circle cx="103" cy="88" r="4" fill="#800080" />
  <circle cx="103" cy="134" r="4" fill="#800080" />
  <circle cx="105" cy="114" r="4" fill="#800080" />
  <circle cx="107" cy="63" r="4" fill="#800080" />
  <circle cx="108" cy="159" r="4" fill="#800080" />
  <circle cx="112" cy="71" r="4" fill="#800080" />
  <circle cx="112" cy="152" r="4" fill="#800080" />
  <circle cx="117" cy="84" r="4" fill="#800080" />
  <circle cx="117" cy="137" r="4" fill="#800080" />
  <circle cx="120" cy="111" r="4" fill="#800080" />
</svg>
