<?xml version="1.0"?>
<svg width="135" height="256">
  <circle cx="29" cy="110" r="4" fill="#800080" />
  <circle cx="28" cy="50" r="4" fill="#800080" />
  <circle cx="28" cy="174" r="4" fill="#800080" />
  <circle cx="27" cy="64" r="4" fill="#800080" />
  <circle cx="27" cy="78" r="4" fill="#800080" />
  <circle cx="27" cy="92" r="4" fill="#800080" />
  <circle cx="27" cy="124" r="4" fill="#800080" />
  <circle cx="27" cy="138" r="4" fill="#800080" />
  <circle cx="27" cy="152" r="4" fill="#800080" />
  <circle cx="40" cy="47" r="4" fill="#800080" />
  <circle cx="40" cy="178" r="4" fill="#800080" />
  <circle cx="41" cy="110" r="4" fill="#800080" />
  <circle cx="52" cy="47" r="4" fill="#800080" />
  <circle cx="52" cy="178" r="4" fill="#800080" />
  <circle cx="53" cy="110" r="4" fill="#800080" />
  <circle cx="64" cy="47" r="4" fill="#800080" />
  <circle cx="64" cy="178" r="4" fill="#800080" />
  <circle cx="65" cy="110" r="4" fill="#800080" />
  <circle cx="76" cy="47" r="4" fill="#800080" />
  <circle cx="76" cy="178" r="4" fill="#800080" />
  <circle cx="77" cy="110" r="4" fill="#800080" />
  <circle cx="88" cy="47" r="4" fill="#800080" />
  <circle cx="88" cy="178" r="4" fill="#800080" />
  <circle cx="89" cy="110" r="4" fill="#800080" />
  <circle cx="100" cy="47" r="4" fill="#800080" />
  <circle cx="100" cy="178" r="4" fill="#800080" />
  <circle cx="101" cy="110" r="4" fill="#800080" />
  <circle cx="112" cy="178" r="4" fill="#800080" />
  <circle cx="24" cy="163" r="4" fill="#800080" />
  <circle cx="111" cy="46" r="4" fill="#800080" />
  <circle cx="23" cy="102" r="4" fill="#800080" />
  <circle cx="22" cy="182" r="4" fill="#800080" />
  <circle cx="32" cy="101" r="4" fill="#800080" />
  <circle cx="33" cy="160" r="4" fill="#800080" />
  <circle cx="22" cy="116" r="4" fill="#800080" />
  <circle cx="21" cy="43" r="4" fill="#800080" />
  <circle cx="21" cy="55" r="4" fill="#800080" />
  <circle cx="21" cy="70" r="4" fill="#800080" />
  <circle cx="21" cy="84" r="4" fill="#800080" />
  <circle cx="21" cy="130" r="4" fill="#800080" />
  <circle cx="21" cy="144" r="4" fill="#800080" />
  <circle cx="30" cy="182" r="4" fill="#800080" />
  <circle cx="32" cy="71" r="4" fill="#800080" />
  <circle cx="32" cy="85" r="4" fill="#800080" />
  <circle cx="32" cy="131" r="4" fill="#800080" />
  <circle cx="32" cy="145" r="4" fill="#800080" />
  <circle cx="33" cy="57" r="4" fill="#800080" />
  <circle cx="33" cy="118" r="4" fill="#800080" />
  <circle cx="34" cy="168" r="4" fill="#800080" />
  <circle cx="108" cy="115" r="4" fill="#800080" />
  <circle cx="119" cy="183" r="4" fill="#800080" />
  <circle cx="32" cy="43" r="4" fill="#800080" />
  <circle cx="20" cy="62" r="4" fill="#800080" />
  <circle cx="20" cy="77" r="4" fill="#800080" />
  <circle cx="20" cy="91" r="4" fill="#800080" />
  <circle cx="20" cy="109" r="4" fill="#800080" />
  <circle cx="20" cy="123" r="4" fill="#800080" />
  <circle cx="20" cy="137" r="4" fill="#800080" />
  <circle cx="20" cy="151" r="4" fill="#800080" />
  <circle cx="20" cy="170" r="4" fill="#800080" />
  <circle cx="34" cy="64" r="4" fill="#800080" />
  <circle cx="34" cy="78" r="4" fill="#800080" />
  <circle cx="34" cy="92" r="4" fill="#800080" />
  <circle cx="34" cy="138" r="4" fill="#800080" />
  <circle cx="34" cy="152" r="4" fill="#800080" />
  <circle cx="45" cy="53" r="4" fill="#800080" />
  <circle cx="45" cy="184" r="4" fill="#800080" />
  <circle cx="46" cy="42" r="4" fill="#800080" />
  <circle cx="46" cy="116" r="4" fill="#800080" />
  <circle cx="46" cy="173" r="4" fill="#800080" />
  <circle cx="47" cy="105" r="4" fill="#800080" />
  <circle cx="57" cy="53" r="4" fill="#800080" />
  <circle cx="57" cy="184" r="4" fill="#800080" />
  <circle cx="58" cy="42" r="4" fill="#800080" />
  <circle cx="58" cy="116" r="4" fill="#800080" />
  <circle cx="58" cy="173" r="4" fill="#800080" />
  <circle cx="59" cy="105" r="4" fill="#800080" />
  <circle cx="69" cy="53" r="4" fill="#800080" />
  <circle cx="69" cy="184" r="4" fill="#800080" />
  <circle cx="70" cy="42" r="4" fill="#800080" />
  <circle cx="70" cy="116" r="4" fill="#800080" />
  <circle cx="70" cy="173" r="4" fill="#800080" />
  <circle cx="71" cy="105" r="4" fill="#800080" />
  <circle cx="81" cy="53" r="4" fill="#800080" />
  <circle cx="81" cy="184" r="4" fill="#800080" />
  <circle cx="82" cy="42" r="4" fill="#800080" />
  <circle cx="82" cy="116" r="4" fill="#800080" />
  <circle cx="82" cy="173" r="4" fill="#800080" />
  <circle cx="83" cy="105" r="4" fill="#800080" />
  <circle cx="93" cy="53" r="4" fill="#800080" />
  <circle cx="93" cy="184" r="4" fill="#800080" />
  <circle cx="94" cy="42" r="4" fill="#800080" />
  <circle cx="94" cy="116" r="4" fill="#800080" />
  <circle cx="94" cy="173" r="4" fill="#800080" />
  <circle cx="95" cy="105" r="4" fill="#800080" />
  <circle cx="105" cy="53" r="4" fill="#800080" />
  <circle cx="105" cy="184" r="4" fill="#800080" />
  <circle cx="106" cy="173" r="4" fill="#800080" />
  <circle cx="107" cy="105" r="4" fill="#800080" />
  <circle cx="112" cy="53" r="4" fill="#800080" />
  <circle cx="118" cy="173" r="4" fill="#800080" />
</svg>
