<?xml version="1.0"?>
<svg width="135" height="256">
  <circle cx="26" cy="125" r="4" fill="#800080" />
  <circle cx="109" cy="121" r="4" fill="#800080" />
  <circle cx="25" cy="139" r="4" fill="#800080" />
  <circle cx="26" cy="110" r="4" fill="#800080" />
  <circle cx="28" cy="153" r="4" fill="#800080" />
  <circle cx="30" cy="96" r="4" fill="#800080" />
  <circle cx="35" cy="167" r="4" fill="#800080" />
  <circle cx="104" cy="94" r="4" fill="#800080" />
  <circle cx="108" cy="107" r="4" fill="#800080" />
  <circle cx="104" cy="167" r="4" fill="#800080" />
  <circle cx="37" cy="85" r="4" fill="#800080" />
  <circle cx="45" cy="176" r="4" fill="#800080" />
  <circle cx="93" cy="81" r="4" fill="#800080" />
  <circle cx="49" cy="77" r="4" fill="#800080" />
  <circle cx="37" cy="124" r="4" fill="#800080" />
  <circle cx="48" cy="124" r="4" fill="#800080" />
  <circle cx="56" cy="180" r="4" fill="#800080" />
  <circle cx="59" cy="124" r="4" fill="#800080" />
  <circle cx="60" cy="74" r="4" fill="#800080" />
  <circle cx="67" cy="182" r="4" fill="#800080" />
  <circle cx="70" cy="124" r="4" fill="#800080" />
  <circle cx="71" cy="73" r="4" fill="#800080" />
  <circle cx="78" cy="181" r="4" fill="#800080" />
  <circle cx="81" cy="124" r="4" fill="#800080" />
  <circle cx="82" cy="75" r="4" fill="#800080" />
  <circle cx="89" cy="178" r="4" fill="#800080" />
  <circle cx="92" cy="124" r="4" fill="#800080" />
  <circle cx="99" cy="176" r="4" fill="#800080" />
  <circle cx="101" cy="127" r="4" fill="#800080" />
  <circle cx="102" cy="85" r="4" fill="#800080" />
  <circle cx="27" cy="162" r="4" fill="#800080" />
  <circle cx="18" cy="124" r="4" fill="#800080" />
  <circle cx="19" cy="115" r="4" fill="#800080" />
  <circle cx="19" cy="132" r="4" fill="#800080" />
  <circle cx="20" cy="146" r="4" fill="#800080" />
  <circle cx="22" cy="101" r="4" fill="#800080" />
  <circle cx="29" cy="87" r="4" fill="#800080" />
  <circle cx="31" cy="117" r="4" fill="#800080" />
  <circle cx="31" cy="132" r="4" fill="#800080" />
  <circle cx="31" cy="145" r="4" fill="#800080" />
  <circle cx="32" cy="104" r="4" fill="#800080" />
  <circle cx="35" cy="158" r="4" fill="#800080" />
  <circle cx="36" cy="175" r="4" fill="#800080" />
  <circle cx="40" cy="77" r="4" fill="#800080" />
  <circle cx="43" cy="168" r="4" fill="#800080" />
  <circle cx="96" cy="91" r="4" fill="#800080" />
  <circle cx="101" cy="102" r="4" fill="#800080" />
  <circle cx="111" cy="99" r="4" fill="#800080" />
  <circle cx="114" cy="113" r="4" fill="#800080" />
  <circle cx="114" cy="128" r="4" fill="#800080" />
  <circle cx="38" cy="93" r="4" fill="#800080" />
  <circle cx="18" cy="139" r="4" fill="#800080" />
  <circle cx="19" cy="108" r="4" fill="#800080" />
  <circle cx="21" cy="153" r="4" fill="#800080" />
  <circle cx="44" cy="84" r="4" fill="#800080" />
  <circle cx="47" cy="183" r="4" fill="#800080" />
  <circle cx="86" cy="82" r="4" fill="#800080" />
  <circle cx="89" cy="73" r="4" fill="#800080" />
  <circle cx="92" cy="171" r="4" fill="#800080" />
  <circle cx="99" cy="120" r="4" fill="#800080" />
  <circle cx="102" cy="112" r="4" fill="#800080" />
  <circle cx="111" cy="163" r="4" fill="#800080" />
  <circle cx="116" cy="120" r="4" fill="#800080" />
</svg>
