<?xml version="1.0"?>
<svg width="135" height="256">
  <circle cx="34" cy="119" r="4" fill="#800080" />
  <circle cx="32" cy="50" r="4" fill="#800080" />
  <circle cx="31" cy="64" r="4" fill="#800080" />
  <circle cx="31" cy="78" r="4" fill="#800080" />
  <circle cx="31" cy="92" r="4" fill="#800080" />
  <circle cx="31" cy="133" r="4" fill="#800080" />
  <circle cx="31" cy="147" r="4" fill="#800080" />
  <circle cx="31" cy="161" r="4" fill="#800080" />
  <circle cx="31" cy="175" r="4" fill="#800080" />
  <circle cx="31" cy="106" r="4" fill="#800080" />
  <circle cx="47" cy="119" r="4" fill="#800080" />
  <circle cx="60" cy="119" r="4" fill="#800080" />
  <circle cx="73" cy="119" r="4" fill="#800080" />
  <circle cx="86" cy="119" r="4" fill="#800080" />
  <circle cx="99" cy="119" r="4" fill="#800080" />
  <circle cx="44" cy="47" r="4" fill="#800080" />
  <circle cx="56" cy="47" r="4" fill="#800080" />
  <circle cx="68" cy="47" r="4" fill="#800080" />
  <circle cx="80" cy="47" r="4" fill="#800080" />
  <circle cx="92" cy="47" r="4" fill="#800080" />
  <circle cx="104" cy="47" r="4" fill="#800080" />
  <circle cx="110" cy="117" r="4" fill="#800080" />
  <circle cx="113" cy="50" r="4" fill="#800080" />
  <circle cx="26" cy="114" r="4" fill="#800080" />
  <circle cx="25" cy="43" r="4" fill="#800080" />
  <circle cx="25" cy="55" r="4" fill="#800080" />
  <circle cx="25" cy="70" r="4" fill="#800080" />
  <circle cx="25" cy="84" r="4" fill="#800080" />
  <circle cx="25" cy="98" r="4" fill="#800080" />
  <circle cx="25" cy="122" r="4" fill="#800080" />
  <circle cx="25" cy="139" r="4" fill="#800080" />
  <circle cx="25" cy="153" r="4" fill="#800080" />
  <circle cx="25" cy="167" r="4" fill="#800080" />
  <circle cx="25" cy="181" r="4" fill="#800080" />
  <circle cx="33" cy="183" r="4" fill="#800080" />
  <circle cx="36" cy="71" r="4" fill="#800080" />
  <circle cx="36" cy="85" r="4" fill="#800080" />
  <circle cx="36" cy="99" r="4" fill="#800080" />
  <circle cx="36" cy="140" r="4" fill="#800080" />
  <circle cx="36" cy="154" r="4" fill="#800080" />
  <circle cx="36" cy="168" r="4" fill="#800080" />
  <circle cx="37" cy="57" r="4" fill="#800080" />
  <circle cx="37" cy="127" r="4" fill="#800080" />
  <circle cx="38" cy="111" r="4" fill="#800080" />
  <circle cx="36" cy="43" r="4" fill="#800080" />
  <circle cx="24" cy="62" r="4" fill="#800080" />
  <circle cx="24" cy="77" r="4" fill="#800080" />
  <circle cx="24" cy="91" r="4" fill="#800080" />
  <circle cx="24" cy="105" r="4" fill="#800080" />
  <circle cx="24" cy="129" r="4" fill="#800080" />
  <circle cx="24" cy="146" r="4" fill="#800080" />
  <circle cx="24" cy="160" r="4" fill="#800080" />
  <circle cx="24" cy="174" r="4" fill="#800080" />
  <circle cx="38" cy="64" r="4" fill="#800080" />
  <circle cx="38" cy="78" r="4" fill="#800080" />
  <circle cx="38" cy="92" r="4" fill="#800080" />
  <circle cx="38" cy="147" r="4" fill="#800080" />
  <circle cx="38" cy="161" r="4" fill="#800080" />
  <circle cx="38" cy="175" r="4" fill="#800080" />
  <circle cx="49" cy="53" r="4" fill="#800080" />
  <circle cx="50" cy="42" r="4" fill="#800080" />
  <circle cx="52" cy="113" r="4" fill="#800080" />
  <circle cx="52" cy="125" r="4" fill="#800080" />
  <circle cx="61" cy="53" r="4" fill="#800080" />
  <circle cx="62" cy="42" r="4" fill="#800080" />
  <circle cx="65" cy="113" r="4" fill="#800080" />
  <circle cx="65" cy="125" r="4" fill="#800080" />
  <circle cx="73" cy="53" r="4" fill="#800080" />
  <circle cx="74" cy="42" r="4" fill="#800080" />
  <circle cx="78" cy="113" r="4" fill="#800080" />
  <circle cx="78" cy="125" r="4" fill="#800080" />
  <circle cx="85" cy="53" r="4" fill="#800080" />
  <circle cx="86" cy="42" r="4" fill="#800080" />
  <circle cx="91" cy="113" r="4" fill="#800080" />
  <circle cx="91" cy="125" r="4" fill="#800080" />
  <circle cx="97" cy="53" r="4" fill="#800080" />
  <circle cx="98" cy="42" r="4" fill="#800080" />
  <circle cx="104" cy="125" r="4" fill="#800080" />
  <circle cx="110" cy="42" r="4" fill="#800080" />
  <circle cx="111" cy="124" r="4" fill="#800080" />
</svg>
