<?xml version="1.0"?>
<svg width="135" height="256">
  <circle cx="103" cy="97" r="4" fill="#800080" />
  <circle cx="103" cy="155" r="4" fill="#800080" />
  <circle cx="25" cy="126" r="4" fill="#800080" />
  <circle cx="26" cy="140" r="4" fill="#800080" />
  <circle cx="27" cy="107" r="4" fill="#800080" />
  <circle cx="105" cy="111" r="4" fill="#800080" />
  <circle cx="105" cy="125" r="4" fill="#800080" />
  <circle cx="105" cy="139" r="4" fill="#800080" />
  <circle cx="105" cy="169" r="4" fill="#800080" />
  <circle cx="105" cy="183" r="4" fill="#800080" />
  <circle cx="29" cy="156" r="4" fill="#800080" />
  <circle cx="30" cy="93" r="4" fill="#800080" />
  <circle cx="36" cy="169" r="4" fill="#800080" />
  <circle cx="37" cy="212" r="4" fill="#800080" />
  <circle cx="38" cy="82" r="4" fill="#800080" />
  <circle cx="97" cy="215" r="4" fill="#800080" />
  <circle cx="103" cy="199" r="4" fill="#800080" />
  <circle cx="105" cy="77" r="4" fill="#800080" />
  <circle cx="47" cy="222" r="4" fill="#800080" />
  <circle cx="47" cy="176" r="4" fill="#800080" />
  <circle cx="48" cy="75" r="4" fill="#800080" />
  <circle cx="58" cy="178" r="4" fill="#800080" />
  <circle cx="58" cy="226" r="4" fill="#800080" />
  <circle cx="59" cy="74" r="4" fill="#800080" />
  <circle cx="69" cy="226" r="4" fill="#800080" />
  <circle cx="80" cy="225" r="4" fill="#800080" />
  <circle cx="71" cy="75" r="4" fill="#800080" />
  <circle cx="68" cy="177" r="4" fill="#800080" />
  <circle cx="90" cy="223" r="4" fill="#800080" />
  <circle cx="102" cy="87" r="4" fill="#800080" />
  <circle cx="22" cy="116" r="4" fill="#800080" />
  <circle cx="31" cy="116" r="4" fill="#800080" />
  <circle cx="77" cy="175" r="4" fill="#800080" />
  <circle cx="80" cy="78" r="4" fill="#800080" />
  <circle cx="87" cy="85" r="4" fill="#800080" />
  <circle cx="93" cy="93" r="4" fill="#800080" />
  <circle cx="93" cy="160" r="4" fill="#800080" />
  <circle cx="104" cy="208" r="4" fill="#800080" />
  <circle cx="110" cy="148" r="4" fill="#800080" />
  <circle cx="22" cy="149" r="4" fill="#800080" />
  <circle cx="20" cy="133" r="4" fill="#800080" />
  <circle cx="22" cy="100" r="4" fill="#800080" />
  <circle cx="26" cy="164" r="4" fill="#800080" />
  <circle cx="29" cy="84" r="4" fill="#800080" />
  <circle cx="29" cy="208" r="4" fill="#800080" />
  <circle cx="30" cy="148" r="4" fill="#800080" />
  <circle cx="31" cy="132" r="4" fill="#800080" />
  <circle cx="33" cy="101" r="4" fill="#800080" />
  <circle cx="36" cy="161" r="4" fill="#800080" />
  <circle cx="36" cy="220" r="4" fill="#800080" />
  <circle cx="37" cy="177" r="4" fill="#800080" />
  <circle cx="38" cy="90" r="4" fill="#800080" />
  <circle cx="45" cy="214" r="4" fill="#800080" />
  <circle cx="83" cy="169" r="4" fill="#800080" />
  <circle cx="96" cy="102" r="4" fill="#800080" />
  <circle cx="96" cy="149" r="4" fill="#800080" />
  <circle cx="96" cy="205" r="4" fill="#800080" />
  <circle cx="99" cy="117" r="4" fill="#800080" />
  <circle cx="99" cy="131" r="4" fill="#800080" />
  <circle cx="99" cy="175" r="4" fill="#800080" />
  <circle cx="99" cy="189" r="4" fill="#800080" />
  <circle cx="107" cy="191" r="4" fill="#800080" />
  <circle cx="109" cy="103" r="4" fill="#800080" />
  <circle cx="109" cy="161" r="4" fill="#800080" />
  <circle cx="110" cy="84" r="4" fill="#800080" />
  <circle cx="110" cy="92" r="4" fill="#800080" />
  <circle cx="110" cy="118" r="4" fill="#800080" />
  <circle cx="110" cy="132" r="4" fill="#800080" />
  <circle cx="110" cy="176" r="4" fill="#800080" />
  <circle cx="40" cy="74" r="4" fill="#800080" />
  <circle cx="18" cy="124" r="4" fill="#800080" />
  <circle cx="19" cy="140" r="4" fill="#800080" />
  <circle cx="20" cy="107" r="4" fill="#800080" />
  <circle cx="22" cy="156" r="4" fill="#800080" />
  <circle cx="29" cy="171" r="4" fill="#800080" />
  <circle cx="32" cy="123" r="4" fill="#800080" />
  <circle cx="33" cy="139" r="4" fill="#800080" />
  <circle cx="34" cy="108" r="4" fill="#800080" />
  <circle cx="43" cy="167" r="4" fill="#800080" />
  <circle cx="45" cy="82" r="4" fill="#800080" />
  <circle cx="50" cy="229" r="4" fill="#800080" />
  <circle cx="52" cy="183" r="4" fill="#800080" />
  <circle cx="75" cy="231" r="4" fill="#800080" />
  <circle cx="88" cy="216" r="4" fill="#800080" />
  <circle cx="97" cy="109" r="4" fill="#800080" />
  <circle cx="97" cy="141" r="4" fill="#800080" />
  <circle cx="97" cy="222" r="4" fill="#800080" />
  <circle cx="98" cy="124" r="4" fill="#800080" />
  <circle cx="98" cy="166" r="4" fill="#800080" />
  <circle cx="98" cy="182" r="4" fill="#800080" />
  <circle cx="100" cy="71" r="4" fill="#800080" />
  <circle cx="103" cy="146" r="4" fill="#800080" />
  <circle cx="104" cy="215" r="4" fill="#800080" />
  <circle cx="110" cy="71" r="4" fill="#800080" />
  <circle cx="110" cy="198" r="4" fill="#800080" />
  <circle cx="112" cy="110" r="4" fill="#800080" />
  <circle cx="112" cy="125" r="4" fill="#800080" />
  <circle cx="112" cy="139" r="4" fill="#800080" />
  <circle cx="112" cy="168" r="4" fill="#800080" />
  <circle cx="112" cy="183" r="4" fill="#800080" />
</svg>
