<?xml version="1.0"?>
<svg width="135" height="256">
  <circle cx="23" cy="103" r="4" fill="#800080" />
  <circle cx="23" cy="118" r="4" fill="#800080" />
  <circle cx="25" cy="88" r="4" fill="#800080" />
  <circle cx="109" cy="121" r="4" fill="#800080" />
  <circle cx="25" cy="135" r="4" fill="#800080" />
  <circle cx="28" cy="74" r="4" fill="#800080" />
  <circle cx="29" cy="150" r="4" fill="#800080" />
  <circle cx="35" cy="61" r="4" fill="#800080" />
  <circle cx="110" cy="135" r="4" fill="#800080" />
  <circle cx="110" cy="149" r="4" fill="#800080" />
  <circle cx="110" cy="163" r="4" fill="#800080" />
  <circle cx="35" cy="163" r="4" fill="#800080" />
  <circle cx="45" cy="173" r="4" fill="#800080" />
  <circle cx="46" cy="51" r="4" fill="#800080" />
  <circle cx="93" cy="51" r="4" fill="#800080" />
  <circle cx="104" cy="61" r="4" fill="#800080" />
  <circle cx="57" cy="179" r="4" fill="#800080" />
  <circle cx="58" cy="46" r="4" fill="#800080" />
  <circle cx="69" cy="181" r="4" fill="#800080" />
  <circle cx="70" cy="45" r="4" fill="#800080" />
  <circle cx="76" cy="118" r="4" fill="#800080" />
  <circle cx="81" cy="180" r="4" fill="#800080" />
  <circle cx="88" cy="118" r="4" fill="#800080" />
  <circle cx="94" cy="177" r="4" fill="#800080" />
  <circle cx="82" cy="46" r="4" fill="#800080" />
  <circle cx="105" cy="174" r="4" fill="#800080" />
  <circle cx="98" cy="116" r="4" fill="#800080" />
  <circle cx="106" cy="71" r="4" fill="#800080" />
  <circle cx="19" cy="127" r="4" fill="#800080" />
  <circle cx="21" cy="144" r="4" fill="#800080" />
  <circle cx="29" cy="126" r="4" fill="#800080" />
  <circle cx="37" cy="52" r="4" fill="#800080" />
  <circle cx="18" cy="95" r="4" fill="#800080" />
  <circle cx="16" cy="108" r="4" fill="#800080" />
  <circle cx="19" cy="82" r="4" fill="#800080" />
  <circle cx="25" cy="65" r="4" fill="#800080" />
  <circle cx="25" cy="158" r="4" fill="#800080" />
  <circle cx="28" cy="96" r="4" fill="#800080" />
  <circle cx="28" cy="110" r="4" fill="#800080" />
  <circle cx="30" cy="142" r="4" fill="#800080" />
  <circle cx="31" cy="82" r="4" fill="#800080" />
  <circle cx="34" cy="171" r="4" fill="#800080" />
  <circle cx="35" cy="69" r="4" fill="#800080" />
  <circle cx="36" cy="155" r="4" fill="#800080" />
  <circle cx="43" cy="59" r="4" fill="#800080" />
  <circle cx="43" cy="163" r="4" fill="#800080" />
  <circle cx="47" cy="181" r="4" fill="#800080" />
  <circle cx="95" cy="59" r="4" fill="#800080" />
  <circle cx="101" cy="50" r="4" fill="#800080" />
  <circle cx="104" cy="128" r="4" fill="#800080" />
  <circle cx="104" cy="141" r="4" fill="#800080" />
  <circle cx="104" cy="155" r="4" fill="#800080" />
  <circle cx="112" cy="63" r="4" fill="#800080" />
  <circle cx="113" cy="171" r="4" fill="#800080" />
  <circle cx="114" cy="71" r="4" fill="#800080" />
  <circle cx="114" cy="114" r="4" fill="#800080" />
  <circle cx="115" cy="127" r="4" fill="#800080" />
  <circle cx="115" cy="142" r="4" fill="#800080" />
  <circle cx="115" cy="156" r="4" fill="#800080" />
  <circle cx="50" cy="43" r="4" fill="#800080" />
  <circle cx="15" cy="115" r="4" fill="#800080" />
  <circle cx="17" cy="134" r="4" fill="#800080" />
  <circle cx="20" cy="75" r="4" fill="#800080" />
  <circle cx="22" cy="151" r="4" fill="#800080" />
  <circle cx="30" cy="103" r="4" fill="#800080" />
  <circle cx="30" cy="117" r="4" fill="#800080" />
  <circle cx="32" cy="89" r="4" fill="#800080" />
  <circle cx="32" cy="133" r="4" fill="#800080" />
  <circle cx="36" cy="76" r="4" fill="#800080" />
  <circle cx="36" cy="148" r="4" fill="#800080" />
  <circle cx="52" cy="171" r="4" fill="#800080" />
  <circle cx="53" cy="52" r="4" fill="#800080" />
  <circle cx="60" cy="186" r="4" fill="#800080" />
  <circle cx="63" cy="40" r="4" fill="#800080" />
  <circle cx="64" cy="51" r="4" fill="#800080" />
  <circle cx="64" cy="175" r="4" fill="#800080" />
  <circle cx="71" cy="124" r="4" fill="#800080" />
  <circle cx="75" cy="51" r="4" fill="#800080" />
  <circle cx="75" cy="175" r="4" fill="#800080" />
  <circle cx="75" cy="186" r="4" fill="#800080" />
  <circle cx="76" cy="40" r="4" fill="#800080" />
  <circle cx="81" cy="124" r="4" fill="#800080" />
  <circle cx="82" cy="113" r="4" fill="#800080" />
  <circle cx="84" cy="53" r="4" fill="#800080" />
  <circle cx="86" cy="174" r="4" fill="#800080" />
  <circle cx="88" cy="182" r="4" fill="#800080" />
  <circle cx="89" cy="43" r="4" fill="#800080" />
  <circle cx="93" cy="124" r="4" fill="#800080" />
  <circle cx="97" cy="170" r="4" fill="#800080" />
  <circle cx="103" cy="148" r="4" fill="#800080" />
  <circle cx="103" cy="162" r="4" fill="#800080" />
  <circle cx="105" cy="113" r="4" fill="#800080" />
  <circle cx="117" cy="134" r="4" fill="#800080" />
  <circle cx="117" cy="149" r="4" fill="#800080" />
  <circle cx="117" cy="163" r="4" fill="#800080" />
</svg>
