<?xml version="1.0"?>
<svg width="135" height="256">
  <circle cx="32" cy="95" r="4" fill="#800080" />
  <circle cx="101" cy="88" r="4" fill="#800080" />
  <circle cx="30" cy="34" r="4" fill="#800080" />
  <circle cx="30" cy="48" r="4" fill="#800080" />
  <circle cx="30" cy="62" r="4" fill="#800080" />
  <circle cx="30" cy="109" r="4" fill="#800080" />
  <circle cx="30" cy="123" r="4" fill="#800080" />
  <circle cx="30" cy="137" r="4" fill="#800080" />
  <circle cx="30" cy="151" r="4" fill="#800080" />
  <circle cx="30" cy="165" r="4" fill="#800080" />
  <circle cx="105" cy="102" r="4" fill="#800080" />
  <circle cx="105" cy="116" r="4" fill="#800080" />
  <circle cx="105" cy="130" r="4" fill="#800080" />
  <circle cx="105" cy="144" r="4" fill="#800080" />
  <circle cx="105" cy="158" r="4" fill="#800080" />
  <circle cx="105" cy="172" r="4" fill="#800080" />
  <circle cx="30" cy="76" r="4" fill="#800080" />
  <circle cx="29" cy="178" r="4" fill="#800080" />
  <circle cx="91" cy="78" r="4" fill="#800080" />
  <circle cx="79" cy="74" r="4" fill="#800080" />
  <circle cx="64" cy="75" r="4" fill="#800080" />
  <circle cx="26" cy="86" r="4" fill="#800080" />
  <circle cx="53" cy="80" r="4" fill="#800080" />
  <circle cx="41" cy="91" r="4" fill="#800080" />
  <circle cx="100" cy="79" r="4" fill="#800080" />
  <circle cx="100" cy="181" r="4" fill="#800080" />
  <circle cx="109" cy="181" r="4" fill="#800080" />
  <circle cx="25" cy="101" r="4" fill="#800080" />
  <circle cx="24" cy="28" r="4" fill="#800080" />
  <circle cx="24" cy="40" r="4" fill="#800080" />
  <circle cx="24" cy="54" r="4" fill="#800080" />
  <circle cx="24" cy="68" r="4" fill="#800080" />
  <circle cx="24" cy="115" r="4" fill="#800080" />
  <circle cx="24" cy="129" r="4" fill="#800080" />
  <circle cx="24" cy="143" r="4" fill="#800080" />
  <circle cx="24" cy="157" r="4" fill="#800080" />
  <circle cx="24" cy="171" r="4" fill="#800080" />
  <circle cx="34" cy="84" r="4" fill="#800080" />
  <circle cx="35" cy="41" r="4" fill="#800080" />
  <circle cx="35" cy="55" r="4" fill="#800080" />
  <circle cx="35" cy="69" r="4" fill="#800080" />
  <circle cx="35" cy="116" r="4" fill="#800080" />
  <circle cx="35" cy="130" r="4" fill="#800080" />
  <circle cx="35" cy="144" r="4" fill="#800080" />
  <circle cx="35" cy="158" r="4" fill="#800080" />
  <circle cx="35" cy="172" r="4" fill="#800080" />
  <circle cx="36" cy="28" r="4" fill="#800080" />
  <circle cx="36" cy="103" r="4" fill="#800080" />
  <circle cx="36" cy="183" r="4" fill="#800080" />
  <circle cx="71" cy="70" r="4" fill="#800080" />
  <circle cx="92" cy="86" r="4" fill="#800080" />
  <circle cx="98" cy="96" r="4" fill="#800080" />
  <circle cx="99" cy="108" r="4" fill="#800080" />
  <circle cx="99" cy="122" r="4" fill="#800080" />
  <circle cx="99" cy="136" r="4" fill="#800080" />
  <circle cx="99" cy="150" r="4" fill="#800080" />
  <circle cx="99" cy="164" r="4" fill="#800080" />
  <circle cx="107" cy="94" r="4" fill="#800080" />
  <circle cx="110" cy="109" r="4" fill="#800080" />
  <circle cx="110" cy="123" r="4" fill="#800080" />
  <circle cx="110" cy="137" r="4" fill="#800080" />
  <circle cx="110" cy="151" r="4" fill="#800080" />
  <circle cx="110" cy="165" r="4" fill="#800080" />
  <circle cx="87" cy="71" r="4" fill="#800080" />
  <circle cx="23" cy="47" r="4" fill="#800080" />
  <circle cx="23" cy="61" r="4" fill="#800080" />
  <circle cx="23" cy="75" r="4" fill="#800080" />
  <circle cx="23" cy="93" r="4" fill="#800080" />
  <circle cx="23" cy="108" r="4" fill="#800080" />
  <circle cx="23" cy="122" r="4" fill="#800080" />
  <circle cx="23" cy="136" r="4" fill="#800080" />
  <circle cx="23" cy="150" r="4" fill="#800080" />
  <circle cx="23" cy="164" r="4" fill="#800080" />
  <circle cx="23" cy="183" r="4" fill="#800080" />
  <circle cx="37" cy="48" r="4" fill="#800080" />
  <circle cx="37" cy="62" r="4" fill="#800080" />
  <circle cx="37" cy="76" r="4" fill="#800080" />
  <circle cx="37" cy="123" r="4" fill="#800080" />
  <circle cx="37" cy="137" r="4" fill="#800080" />
  <circle cx="37" cy="151" r="4" fill="#800080" />
  <circle cx="37" cy="165" r="4" fill="#800080" />
  <circle cx="46" cy="84" r="4" fill="#800080" />
  <circle cx="71" cy="77" r="4" fill="#800080" />
  <circle cx="84" cy="80" r="4" fill="#800080" />
  <circle cx="98" cy="115" r="4" fill="#800080" />
  <circle cx="98" cy="129" r="4" fill="#800080" />
  <circle cx="98" cy="143" r="4" fill="#800080" />
  <circle cx="98" cy="157" r="4" fill="#800080" />
  <circle cx="98" cy="171" r="4" fill="#800080" />
  <circle cx="108" cy="86" r="4" fill="#800080" />
  <circle cx="112" cy="100" r="4" fill="#800080" />
  <circle cx="112" cy="116" r="4" fill="#800080" />
  <circle cx="112" cy="130" r="4" fill="#800080" />
  <circle cx="112" cy="144" r="4" fill="#800080" />
  <circle cx="112" cy="158" r="4" fill="#800080" />
  <circle cx="112" cy="172" r="4" fill="#800080" />
</svg>
