<?xml version="1.0"?>
<svg width="135" height="256">
  <circle cx="67" cy="51" r="4" fill="#800080" />
  <circle cx="66" cy="176" r="4" fill="#800080" />
  <circle cx="67" cy="65" r="4" fill="#800080" />
  <circle cx="67" cy="79" r="4" fill="#800080" />
  <circle cx="67" cy="93" r="4" fill="#800080" />
  <circle cx="67" cy="107" r="4" fill="#800080" />
  <circle cx="67" cy="121" r="4" fill="#800080" />
  <circle cx="67" cy="135" r="4" fill="#800080" />
  <circle cx="67" cy="149" r="4" fill="#800080" />
  <circle cx="66" cy="162" r="4" fill="#800080" />
  <circle cx="30" cy="47" r="4" fill="#800080" />
  <circle cx="30" cy="178" r="4" fill="#800080" />
  <circle cx="42" cy="47" r="4" fill="#800080" />
  <circle cx="42" cy="178" r="4" fill="#800080" />
  <circle cx="54" cy="47" r="4" fill="#800080" />
  <circle cx="54" cy="178" r="4" fill="#800080" />
  <circle cx="78" cy="178" r="4" fill="#800080" />
  <circle cx="79" cy="47" r="4" fill="#800080" />
  <circle cx="90" cy="178" r="4" fill="#800080" />
  <circle cx="91" cy="47" r="4" fill="#800080" />
  <circle cx="102" cy="178" r="4" fill="#800080" />
  <circle cx="103" cy="47" r="4" fill="#800080" />
  <circle cx="73" cy="169" r="4" fill="#800080" />
  <circle cx="73" cy="58" r="4" fill="#800080" />
  <circle cx="61" cy="57" r="4" fill="#800080" />
  <circle cx="61" cy="71" r="4" fill="#800080" />
  <circle cx="61" cy="85" r="4" fill="#800080" />
  <circle cx="61" cy="99" r="4" fill="#800080" />
  <circle cx="61" cy="113" r="4" fill="#800080" />
  <circle cx="61" cy="127" r="4" fill="#800080" />
  <circle cx="61" cy="141" r="4" fill="#800080" />
  <circle cx="61" cy="155" r="4" fill="#800080" />
  <circle cx="61" cy="169" r="4" fill="#800080" />
  <circle cx="61" cy="183" r="4" fill="#800080" />
  <circle cx="62" cy="43" r="4" fill="#800080" />
  <circle cx="70" cy="43" r="4" fill="#800080" />
  <circle cx="71" cy="183" r="4" fill="#800080" />
  <circle cx="72" cy="72" r="4" fill="#800080" />
  <circle cx="72" cy="86" r="4" fill="#800080" />
  <circle cx="72" cy="100" r="4" fill="#800080" />
  <circle cx="72" cy="114" r="4" fill="#800080" />
  <circle cx="72" cy="128" r="4" fill="#800080" />
  <circle cx="72" cy="142" r="4" fill="#800080" />
  <circle cx="72" cy="156" r="4" fill="#800080" />
  <circle cx="109" cy="183" r="4" fill="#800080" />
  <circle cx="109" cy="174" r="4" fill="#800080" />
  <circle cx="25" cy="53" r="4" fill="#800080" />
  <circle cx="25" cy="184" r="4" fill="#800080" />
  <circle cx="35" cy="53" r="4" fill="#800080" />
  <circle cx="35" cy="184" r="4" fill="#800080" />
  <circle cx="36" cy="42" r="4" fill="#800080" />
  <circle cx="36" cy="173" r="4" fill="#800080" />
  <circle cx="47" cy="53" r="4" fill="#800080" />
  <circle cx="47" cy="184" r="4" fill="#800080" />
  <circle cx="48" cy="42" r="4" fill="#800080" />
  <circle cx="48" cy="173" r="4" fill="#800080" />
  <circle cx="60" cy="64" r="4" fill="#800080" />
  <circle cx="60" cy="78" r="4" fill="#800080" />
  <circle cx="60" cy="92" r="4" fill="#800080" />
  <circle cx="60" cy="106" r="4" fill="#800080" />
  <circle cx="60" cy="120" r="4" fill="#800080" />
  <circle cx="60" cy="134" r="4" fill="#800080" />
  <circle cx="60" cy="148" r="4" fill="#800080" />
  <circle cx="74" cy="65" r="4" fill="#800080" />
  <circle cx="74" cy="79" r="4" fill="#800080" />
  <circle cx="74" cy="93" r="4" fill="#800080" />
  <circle cx="74" cy="107" r="4" fill="#800080" />
  <circle cx="74" cy="121" r="4" fill="#800080" />
  <circle cx="74" cy="135" r="4" fill="#800080" />
  <circle cx="74" cy="149" r="4" fill="#800080" />
  <circle cx="83" cy="184" r="4" fill="#800080" />
  <circle cx="84" cy="53" r="4" fill="#800080" />
  <circle cx="84" cy="173" r="4" fill="#800080" />
  <circle cx="85" cy="42" r="4" fill="#800080" />
  <circle cx="95" cy="184" r="4" fill="#800080" />
  <circle cx="96" cy="53" r="4" fill="#800080" />
  <circle cx="96" cy="173" r="4" fill="#800080" />
  <circle cx="97" cy="42" r="4" fill="#800080" />
  <circle cx="108" cy="53" r="4" fill="#800080" />
  <circle cx="109" cy="42" r="4" fill="#800080" />
</svg>
