<?xml version="1.0"?>
<svg width="135" height="256">
  <circle cx="72" cy="176" r="4" fill="#800080" />
  <circle cx="71" cy="79" r="4" fill="#800080" />
  <circle cx="70" cy="34" r="4" fill="#800080" />
  <circle cx="72" cy="93" r="4" fill="#800080" />
  <circle cx="72" cy="107" r="4" fill="#800080" />
  <circle cx="72" cy="121" r="4" fill="#800080" />
  <circle cx="72" cy="135" r="4" fill="#800080" />
  <circle cx="72" cy="149" r="4" fill="#800080" />
  <circle cx="71" cy="162" r="4" fill="#800080" />
  <circle cx="35" cy="76" r="4" fill="#800080" />
  <circle cx="47" cy="76" r="4" fill="#800080" />
  <circle cx="59" cy="76" r="4" fill="#800080" />
  <circle cx="22" cy="179" r="4" fill="#800080" />
  <circle cx="33" cy="179" r="4" fill="#800080" />
  <circle cx="44" cy="179" r="4" fill="#800080" />
  <circle cx="55" cy="179" r="4" fill="#800080" />
  <circle cx="83" cy="179" r="4" fill="#800080" />
  <circle cx="94" cy="179" r="4" fill="#800080" />
  <circle cx="105" cy="179" r="4" fill="#800080" />
  <circle cx="116" cy="179" r="4" fill="#800080" />
  <circle cx="64" cy="182" r="4" fill="#800080" />
  <circle cx="77" cy="40" r="4" fill="#800080" />
  <circle cx="64" cy="28" r="4" fill="#800080" />
  <circle cx="64" cy="40" r="4" fill="#800080" />
  <circle cx="66" cy="86" r="4" fill="#800080" />
  <circle cx="66" cy="99" r="4" fill="#800080" />
  <circle cx="66" cy="113" r="4" fill="#800080" />
  <circle cx="66" cy="127" r="4" fill="#800080" />
  <circle cx="66" cy="141" r="4" fill="#800080" />
  <circle cx="66" cy="155" r="4" fill="#800080" />
  <circle cx="66" cy="169" r="4" fill="#800080" />
  <circle cx="76" cy="28" r="4" fill="#800080" />
  <circle cx="76" cy="72" r="4" fill="#800080" />
  <circle cx="77" cy="85" r="4" fill="#800080" />
  <circle cx="77" cy="100" r="4" fill="#800080" />
  <circle cx="77" cy="114" r="4" fill="#800080" />
  <circle cx="77" cy="128" r="4" fill="#800080" />
  <circle cx="77" cy="142" r="4" fill="#800080" />
  <circle cx="77" cy="156" r="4" fill="#800080" />
  <circle cx="77" cy="168" r="4" fill="#800080" />
  <circle cx="66" cy="72" r="4" fill="#800080" />
  <circle cx="41" cy="71" r="4" fill="#800080" />
  <circle cx="41" cy="81" r="4" fill="#800080" />
  <circle cx="53" cy="71" r="4" fill="#800080" />
  <circle cx="53" cy="81" r="4" fill="#800080" />
  <circle cx="65" cy="106" r="4" fill="#800080" />
  <circle cx="65" cy="120" r="4" fill="#800080" />
  <circle cx="65" cy="134" r="4" fill="#800080" />
  <circle cx="65" cy="148" r="4" fill="#800080" />
  <circle cx="71" cy="183" r="4" fill="#800080" />
  <circle cx="79" cy="92" r="4" fill="#800080" />
  <circle cx="79" cy="107" r="4" fill="#800080" />
  <circle cx="79" cy="121" r="4" fill="#800080" />
  <circle cx="79" cy="135" r="4" fill="#800080" />
  <circle cx="79" cy="149" r="4" fill="#800080" />
</svg>
