<?xml version="1.0"?>
<svg width="135" height="256">
  <circle cx="81" cy="79" r="4" fill="#800080" />
  <circle cx="80" cy="34" r="4" fill="#800080" />
  <circle cx="82" cy="93" r="4" fill="#800080" />
  <circle cx="82" cy="107" r="4" fill="#800080" />
  <circle cx="82" cy="121" r="4" fill="#800080" />
  <circle cx="82" cy="135" r="4" fill="#800080" />
  <circle cx="82" cy="149" r="4" fill="#800080" />
  <circle cx="82" cy="163" r="4" fill="#800080" />
  <circle cx="82" cy="177" r="4" fill="#800080" />
  <circle cx="77" cy="210" r="4" fill="#800080" />
  <circle cx="81" cy="190" r="4" fill="#800080" />
  <circle cx="67" cy="220" r="4" fill="#800080" />
  <circle cx="28" cy="225" r="4" fill="#800080" />
  <circle cx="35" cy="76" r="4" fill="#800080" />
  <circle cx="40" cy="226" r="4" fill="#800080" />
  <circle cx="47" cy="76" r="4" fill="#800080" />
  <circle cx="52" cy="226" r="4" fill="#800080" />
  <circle cx="59" cy="76" r="4" fill="#800080" />
  <circle cx="70" cy="75" r="4" fill="#800080" />
  <circle cx="84" cy="201" r="4" fill="#800080" />
  <circle cx="18" cy="222" r="4" fill="#800080" />
  <circle cx="76" cy="219" r="4" fill="#800080" />
  <circle cx="58" cy="220" r="4" fill="#800080" />
  <circle cx="60" cy="228" r="4" fill="#800080" />
  <circle cx="68" cy="212" r="4" fill="#800080" />
  <circle cx="74" cy="28" r="4" fill="#800080" />
  <circle cx="74" cy="40" r="4" fill="#800080" />
  <circle cx="74" cy="202" r="4" fill="#800080" />
  <circle cx="76" cy="86" r="4" fill="#800080" />
  <circle cx="76" cy="99" r="4" fill="#800080" />
  <circle cx="76" cy="113" r="4" fill="#800080" />
  <circle cx="76" cy="127" r="4" fill="#800080" />
  <circle cx="76" cy="141" r="4" fill="#800080" />
  <circle cx="76" cy="155" r="4" fill="#800080" />
  <circle cx="76" cy="169" r="4" fill="#800080" />
  <circle cx="76" cy="183" r="4" fill="#800080" />
  <circle cx="85" cy="41" r="4" fill="#800080" />
  <circle cx="86" cy="28" r="4" fill="#800080" />
  <circle cx="86" cy="72" r="4" fill="#800080" />
  <circle cx="87" cy="85" r="4" fill="#800080" />
  <circle cx="87" cy="100" r="4" fill="#800080" />
  <circle cx="87" cy="114" r="4" fill="#800080" />
  <circle cx="87" cy="128" r="4" fill="#800080" />
  <circle cx="87" cy="142" r="4" fill="#800080" />
  <circle cx="87" cy="156" r="4" fill="#800080" />
  <circle cx="87" cy="170" r="4" fill="#800080" />
  <circle cx="87" cy="184" r="4" fill="#800080" />
  <circle cx="77" cy="72" r="4" fill="#800080" />
  <circle cx="21" cy="229" r="4" fill="#800080" />
  <circle cx="33" cy="231" r="4" fill="#800080" />
  <circle cx="41" cy="71" r="4" fill="#800080" />
  <circle cx="41" cy="81" r="4" fill="#800080" />
  <circle cx="46" cy="221" r="4" fill="#800080" />
  <circle cx="46" cy="231" r="4" fill="#800080" />
  <circle cx="53" cy="71" r="4" fill="#800080" />
  <circle cx="53" cy="81" r="4" fill="#800080" />
  <circle cx="65" cy="81" r="4" fill="#800080" />
  <circle cx="67" cy="227" r="4" fill="#800080" />
  <circle cx="75" cy="106" r="4" fill="#800080" />
  <circle cx="75" cy="120" r="4" fill="#800080" />
  <circle cx="75" cy="134" r="4" fill="#800080" />
  <circle cx="75" cy="148" r="4" fill="#800080" />
  <circle cx="75" cy="162" r="4" fill="#800080" />
  <circle cx="75" cy="176" r="4" fill="#800080" />
  <circle cx="75" cy="195" r="4" fill="#800080" />
  <circle cx="84" cy="208" r="4" fill="#800080" />
  <circle cx="88" cy="191" r="4" fill="#800080" />
  <circle cx="89" cy="92" r="4" fill="#800080" />
  <circle cx="89" cy="107" r="4" fill="#800080" />
  <circle cx="89" cy="121" r="4" fill="#800080" />
  <circle cx="89" cy="135" r="4" fill="#800080" />
  <circle cx="89" cy="149" r="4" fill="#800080" />
  <circle cx="89" cy="163" r="4" fill="#800080" />
  <circle cx="89" cy="177" r="4" fill="#800080" />
</svg>
