<?xml version="1.0"?>
<svg width="135" height="256">
  <circle cx="96" cy="50" r="4" fill="#800080" />
  <circle cx="32" cy="158" r="4" fill="#800080" />
  <circle cx="95" cy="160" r="4" fill="#800080" />
  <circle cx="97" cy="64" r="4" fill="#800080" />
  <circle cx="97" cy="78" r="4" fill="#800080" />
  <circle cx="97" cy="92" r="4" fill="#800080" />
  <circle cx="97" cy="106" r="4" fill="#800080" />
  <circle cx="97" cy="120" r="4" fill="#800080" />
  <circle cx="97" cy="134" r="4" fill="#800080" />
  <circle cx="39" cy="171" r="4" fill="#800080" />
  <circle cx="83" cy="176" r="4" fill="#800080" />
  <circle cx="96" cy="147" r="4" fill="#800080" />
  <circle cx="51" cy="179" r="4" fill="#800080" />
  <circle cx="61" cy="47" r="4" fill="#800080" />
  <circle cx="63" cy="181" r="4" fill="#800080" />
  <circle cx="73" cy="47" r="4" fill="#800080" />
  <circle cx="85" cy="47" r="4" fill="#800080" />
  <circle cx="74" cy="182" r="4" fill="#800080" />
  <circle cx="92" cy="170" r="4" fill="#800080" />
  <circle cx="30" cy="167" r="4" fill="#800080" />
  <circle cx="24" cy="152" r="4" fill="#800080" />
  <circle cx="35" cy="150" r="4" fill="#800080" />
  <circle cx="39" cy="163" r="4" fill="#800080" />
  <circle cx="40" cy="179" r="4" fill="#800080" />
  <circle cx="47" cy="170" r="4" fill="#800080" />
  <circle cx="84" cy="168" r="4" fill="#800080" />
  <circle cx="91" cy="57" r="4" fill="#800080" />
  <circle cx="91" cy="70" r="4" fill="#800080" />
  <circle cx="91" cy="84" r="4" fill="#800080" />
  <circle cx="91" cy="98" r="4" fill="#800080" />
  <circle cx="91" cy="112" r="4" fill="#800080" />
  <circle cx="91" cy="126" r="4" fill="#800080" />
  <circle cx="91" cy="140" r="4" fill="#800080" />
  <circle cx="101" cy="43" r="4" fill="#800080" />
  <circle cx="101" cy="154" r="4" fill="#800080" />
  <circle cx="102" cy="56" r="4" fill="#800080" />
  <circle cx="102" cy="71" r="4" fill="#800080" />
  <circle cx="102" cy="85" r="4" fill="#800080" />
  <circle cx="102" cy="99" r="4" fill="#800080" />
  <circle cx="102" cy="113" r="4" fill="#800080" />
  <circle cx="102" cy="127" r="4" fill="#800080" />
  <circle cx="102" cy="141" r="4" fill="#800080" />
  <circle cx="90" cy="153" r="4" fill="#800080" />
  <circle cx="25" cy="159" r="4" fill="#800080" />
  <circle cx="55" cy="186" r="4" fill="#800080" />
  <circle cx="56" cy="53" r="4" fill="#800080" />
  <circle cx="58" cy="175" r="4" fill="#800080" />
  <circle cx="66" cy="53" r="4" fill="#800080" />
  <circle cx="67" cy="42" r="4" fill="#800080" />
  <circle cx="68" cy="175" r="4" fill="#800080" />
  <circle cx="75" cy="174" r="4" fill="#800080" />
  <circle cx="78" cy="53" r="4" fill="#800080" />
  <circle cx="79" cy="42" r="4" fill="#800080" />
  <circle cx="81" cy="183" r="4" fill="#800080" />
  <circle cx="87" cy="161" r="4" fill="#800080" />
  <circle cx="90" cy="77" r="4" fill="#800080" />
  <circle cx="90" cy="91" r="4" fill="#800080" />
  <circle cx="90" cy="105" r="4" fill="#800080" />
  <circle cx="90" cy="119" r="4" fill="#800080" />
  <circle cx="90" cy="133" r="4" fill="#800080" />
  <circle cx="90" cy="177" r="4" fill="#800080" />
  <circle cx="91" cy="42" r="4" fill="#800080" />
  <circle cx="99" cy="167" r="4" fill="#800080" />
  <circle cx="104" cy="63" r="4" fill="#800080" />
  <circle cx="104" cy="78" r="4" fill="#800080" />
  <circle cx="104" cy="92" r="4" fill="#800080" />
  <circle cx="104" cy="106" r="4" fill="#800080" />
  <circle cx="104" cy="120" r="4" fill="#800080" />
  <circle cx="104" cy="134" r="4" fill="#800080" />
</svg>
