<?xml version="1.0"?>
<svg width="135" height="256">
  <circle cx="38" cy="134" r="4" fill="#800080" />
  <circle cx="63" cy="123" r="4" fill="#800080" />
  <circle cx="35" cy="33" r="4" fill="#800080" />
  <circle cx="35" cy="46" r="4" fill="#800080" />
  <circle cx="35" cy="59" r="4" fill="#800080" />
  <circle cx="35" cy="72" r="4" fill="#800080" />
  <circle cx="35" cy="85" r="4" fill="#800080" />
  <circle cx="35" cy="98" r="4" fill="#800080" />
  <circle cx="35" cy="111" r="4" fill="#800080" />
  <circle cx="35" cy="147" r="4" fill="#800080" />
  <circle cx="35" cy="160" r="4" fill="#800080" />
  <circle cx="35" cy="173" r="4" fill="#800080" />
  <circle cx="93" cy="162" r="4" fill="#800080" />
  <circle cx="102" cy="174" r="4" fill="#800080" />
  <circle cx="73" cy="135" r="4" fill="#800080" />
  <circle cx="77" cy="103" r="4" fill="#800080" />
  <circle cx="81" cy="145" r="4" fill="#800080" />
  <circle cx="87" cy="92" r="4" fill="#800080" />
  <circle cx="96" cy="82" r="4" fill="#800080" />
  <circle cx="68" cy="112" r="4" fill="#800080" />
  <circle cx="33" cy="122" r="4" fill="#800080" />
  <circle cx="49" cy="132" r="4" fill="#800080" />
  <circle cx="84" cy="155" r="4" fill="#800080" />
  <circle cx="103" cy="74" r="4" fill="#800080" />
  <circle cx="110" cy="181" r="4" fill="#800080" />
  <circle cx="31" cy="182" r="4" fill="#800080" />
  <circle cx="40" cy="182" r="4" fill="#800080" />
  <circle cx="54" cy="124" r="4" fill="#800080" />
  <circle cx="30" cy="130" r="4" fill="#800080" />
  <circle cx="30" cy="138" r="4" fill="#800080" />
  <circle cx="41" cy="39" r="4" fill="#800080" />
  <circle cx="41" cy="52" r="4" fill="#800080" />
  <circle cx="41" cy="65" r="4" fill="#800080" />
  <circle cx="41" cy="78" r="4" fill="#800080" />
  <circle cx="41" cy="91" r="4" fill="#800080" />
  <circle cx="41" cy="104" r="4" fill="#800080" />
  <circle cx="41" cy="117" r="4" fill="#800080" />
  <circle cx="41" cy="125" r="4" fill="#800080" />
  <circle cx="41" cy="153" r="4" fill="#800080" />
  <circle cx="41" cy="166" r="4" fill="#800080" />
  <circle cx="64" cy="131" r="4" fill="#800080" />
  <circle cx="71" cy="124" r="4" fill="#800080" />
  <circle cx="73" cy="143" r="4" fill="#800080" />
  <circle cx="79" cy="95" r="4" fill="#800080" />
  <circle cx="81" cy="137" r="4" fill="#800080" />
  <circle cx="85" cy="101" r="4" fill="#800080" />
  <circle cx="89" cy="148" r="4" fill="#800080" />
  <circle cx="93" cy="170" r="4" fill="#800080" />
  <circle cx="95" cy="90" r="4" fill="#800080" />
  <circle cx="101" cy="164" r="4" fill="#800080" />
  <circle cx="101" cy="182" r="4" fill="#800080" />
  <circle cx="111" cy="72" r="4" fill="#800080" />
  <circle cx="42" cy="141" r="4" fill="#800080" />
  <circle cx="29" cy="27" r="4" fill="#800080" />
  <circle cx="29" cy="38" r="4" fill="#800080" />
  <circle cx="29" cy="51" r="4" fill="#800080" />
  <circle cx="29" cy="64" r="4" fill="#800080" />
  <circle cx="29" cy="77" r="4" fill="#800080" />
  <circle cx="29" cy="90" r="4" fill="#800080" />
  <circle cx="29" cy="103" r="4" fill="#800080" />
  <circle cx="29" cy="152" r="4" fill="#800080" />
  <circle cx="29" cy="165" r="4" fill="#800080" />
  <circle cx="40" cy="27" r="4" fill="#800080" />
  <circle cx="42" cy="173" r="4" fill="#800080" />
  <circle cx="56" cy="131" r="4" fill="#800080" />
  <circle cx="58" cy="117" r="4" fill="#800080" />
  <circle cx="69" cy="105" r="4" fill="#800080" />
  <circle cx="75" cy="110" r="4" fill="#800080" />
  <circle cx="86" cy="162" r="4" fill="#800080" />
  <circle cx="87" cy="85" r="4" fill="#800080" />
  <circle cx="91" cy="155" r="4" fill="#800080" />
  <circle cx="96" cy="75" r="4" fill="#800080" />
  <circle cx="103" cy="81" r="4" fill="#800080" />
  <circle cx="109" cy="173" r="4" fill="#800080" />
  <circle cx="117" cy="184" r="4" fill="#800080" />
</svg>
