<?xml version="1.0"?>
<svg width="135" height="256">
  <circle cx="31" cy="123" r="4" fill="#800080" />
  <circle cx="60" cy="106" r="4" fill="#800080" />
  <circle cx="70" cy="118" r="4" fill="#800080" />
  <circle cx="27" cy="49" r="4" fill="#800080" />
  <circle cx="27" cy="63" r="4" fill="#800080" />
  <circle cx="27" cy="77" r="4" fill="#800080" />
  <circle cx="27" cy="91" r="4" fill="#800080" />
  <circle cx="27" cy="105" r="4" fill="#800080" />
  <circle cx="27" cy="137" r="4" fill="#800080" />
  <circle cx="27" cy="151" r="4" fill="#800080" />
  <circle cx="27" cy="165" r="4" fill="#800080" />
  <circle cx="79" cy="130" r="4" fill="#800080" />
  <circle cx="26" cy="178" r="4" fill="#800080" />
  <circle cx="87" cy="141" r="4" fill="#800080" />
  <circle cx="95" cy="152" r="4" fill="#800080" />
  <circle cx="103" cy="163" r="4" fill="#800080" />
  <circle cx="112" cy="174" r="4" fill="#800080" />
  <circle cx="73" cy="86" r="4" fill="#800080" />
  <circle cx="49" cy="113" r="4" fill="#800080" />
  <circle cx="81" cy="76" r="4" fill="#800080" />
  <circle cx="89" cy="66" r="4" fill="#800080" />
  <circle cx="98" cy="56" r="4" fill="#800080" />
  <circle cx="107" cy="47" r="4" fill="#800080" />
  <circle cx="65" cy="95" r="4" fill="#800080" />
  <circle cx="42" cy="122" r="4" fill="#800080" />
  <circle cx="23" cy="115" r="4" fill="#800080" />
  <circle cx="120" cy="181" r="4" fill="#800080" />
  <circle cx="33" cy="113" r="4" fill="#800080" />
  <circle cx="22" cy="124" r="4" fill="#800080" />
  <circle cx="69" cy="108" r="4" fill="#800080" />
  <circle cx="35" cy="132" r="4" fill="#800080" />
  <circle cx="21" cy="43" r="4" fill="#800080" />
  <circle cx="21" cy="55" r="4" fill="#800080" />
  <circle cx="21" cy="69" r="4" fill="#800080" />
  <circle cx="21" cy="83" r="4" fill="#800080" />
  <circle cx="21" cy="97" r="4" fill="#800080" />
  <circle cx="21" cy="143" r="4" fill="#800080" />
  <circle cx="21" cy="157" r="4" fill="#800080" />
  <circle cx="21" cy="171" r="4" fill="#800080" />
  <circle cx="32" cy="56" r="4" fill="#800080" />
  <circle cx="32" cy="70" r="4" fill="#800080" />
  <circle cx="32" cy="84" r="4" fill="#800080" />
  <circle cx="32" cy="98" r="4" fill="#800080" />
  <circle cx="32" cy="144" r="4" fill="#800080" />
  <circle cx="32" cy="158" r="4" fill="#800080" />
  <circle cx="32" cy="172" r="4" fill="#800080" />
  <circle cx="33" cy="43" r="4" fill="#800080" />
  <circle cx="33" cy="183" r="4" fill="#800080" />
  <circle cx="51" cy="104" r="4" fill="#800080" />
  <circle cx="57" cy="97" r="4" fill="#800080" />
  <circle cx="57" cy="114" r="4" fill="#800080" />
  <circle cx="68" cy="126" r="4" fill="#800080" />
  <circle cx="73" cy="78" r="4" fill="#800080" />
  <circle cx="78" cy="118" r="4" fill="#800080" />
  <circle cx="78" cy="138" r="4" fill="#800080" />
  <circle cx="81" cy="84" r="4" fill="#800080" />
  <circle cx="86" cy="149" r="4" fill="#800080" />
  <circle cx="87" cy="130" r="4" fill="#800080" />
  <circle cx="89" cy="74" r="4" fill="#800080" />
  <circle cx="90" cy="58" r="4" fill="#800080" />
  <circle cx="94" cy="160" r="4" fill="#800080" />
  <circle cx="95" cy="141" r="4" fill="#800080" />
  <circle cx="97" cy="64" r="4" fill="#800080" />
  <circle cx="99" cy="48" r="4" fill="#800080" />
  <circle cx="103" cy="152" r="4" fill="#800080" />
  <circle cx="103" cy="171" r="4" fill="#800080" />
  <circle cx="106" cy="55" r="4" fill="#800080" />
  <circle cx="111" cy="162" r="4" fill="#800080" />
  <circle cx="111" cy="182" r="4" fill="#800080" />
  <circle cx="115" cy="43" r="4" fill="#800080" />
  <circle cx="21" cy="132" r="4" fill="#800080" />
  <circle cx="20" cy="62" r="4" fill="#800080" />
  <circle cx="20" cy="76" r="4" fill="#800080" />
  <circle cx="20" cy="90" r="4" fill="#800080" />
  <circle cx="20" cy="104" r="4" fill="#800080" />
  <circle cx="20" cy="150" r="4" fill="#800080" />
  <circle cx="20" cy="164" r="4" fill="#800080" />
  <circle cx="20" cy="183" r="4" fill="#800080" />
  <circle cx="28" cy="130" r="4" fill="#800080" />
  <circle cx="34" cy="63" r="4" fill="#800080" />
  <circle cx="34" cy="77" r="4" fill="#800080" />
  <circle cx="34" cy="91" r="4" fill="#800080" />
  <circle cx="34" cy="105" r="4" fill="#800080" />
  <circle cx="34" cy="151" r="4" fill="#800080" />
  <circle cx="34" cy="165" r="4" fill="#800080" />
  <circle cx="40" cy="115" r="4" fill="#800080" />
  <circle cx="49" cy="120" r="4" fill="#800080" />
  <circle cx="63" cy="119" r="4" fill="#800080" />
  <circle cx="64" cy="88" r="4" fill="#800080" />
  <circle cx="72" cy="93" r="4" fill="#800080" />
  <circle cx="80" cy="69" r="4" fill="#800080" />
  <circle cx="119" cy="172" r="4" fill="#800080" />
  <circle cx="127" cy="182" r="4" fill="#800080" />
</svg>
