<?xml version="1.0"?>
<svg width="135" height="256">
  <circle cx="37" cy="174" r="4" fill="#800080" />
  <circle cx="36" cy="49" r="4" fill="#800080" />
  <circle cx="36" cy="63" r="4" fill="#800080" />
  <circle cx="36" cy="77" r="4" fill="#800080" />
  <circle cx="36" cy="91" r="4" fill="#800080" />
  <circle cx="36" cy="105" r="4" fill="#800080" />
  <circle cx="36" cy="119" r="4" fill="#800080" />
  <circle cx="36" cy="133" r="4" fill="#800080" />
  <circle cx="36" cy="147" r="4" fill="#800080" />
  <circle cx="35" cy="160" r="4" fill="#800080" />
  <circle cx="49" cy="178" r="4" fill="#800080" />
  <circle cx="61" cy="178" r="4" fill="#800080" />
  <circle cx="73" cy="178" r="4" fill="#800080" />
  <circle cx="85" cy="178" r="4" fill="#800080" />
  <circle cx="97" cy="178" r="4" fill="#800080" />
  <circle cx="109" cy="178" r="4" fill="#800080" />
  <circle cx="31" cy="182" r="4" fill="#800080" />
  <circle cx="42" cy="56" r="4" fill="#800080" />
  <circle cx="30" cy="43" r="4" fill="#800080" />
  <circle cx="30" cy="55" r="4" fill="#800080" />
  <circle cx="30" cy="69" r="4" fill="#800080" />
  <circle cx="30" cy="83" r="4" fill="#800080" />
  <circle cx="30" cy="97" r="4" fill="#800080" />
  <circle cx="30" cy="111" r="4" fill="#800080" />
  <circle cx="30" cy="125" r="4" fill="#800080" />
  <circle cx="30" cy="139" r="4" fill="#800080" />
  <circle cx="30" cy="153" r="4" fill="#800080" />
  <circle cx="30" cy="167" r="4" fill="#800080" />
  <circle cx="39" cy="182" r="4" fill="#800080" />
  <circle cx="41" cy="70" r="4" fill="#800080" />
  <circle cx="41" cy="84" r="4" fill="#800080" />
  <circle cx="41" cy="98" r="4" fill="#800080" />
  <circle cx="41" cy="112" r="4" fill="#800080" />
  <circle cx="41" cy="126" r="4" fill="#800080" />
  <circle cx="41" cy="140" r="4" fill="#800080" />
  <circle cx="41" cy="154" r="4" fill="#800080" />
  <circle cx="41" cy="166" r="4" fill="#800080" />
  <circle cx="42" cy="43" r="4" fill="#800080" />
  <circle cx="116" cy="183" r="4" fill="#800080" />
  <circle cx="117" cy="174" r="4" fill="#800080" />
  <circle cx="55" cy="183" r="4" fill="#800080" />
  <circle cx="29" cy="62" r="4" fill="#800080" />
  <circle cx="29" cy="76" r="4" fill="#800080" />
  <circle cx="29" cy="90" r="4" fill="#800080" />
  <circle cx="29" cy="104" r="4" fill="#800080" />
  <circle cx="29" cy="118" r="4" fill="#800080" />
  <circle cx="29" cy="132" r="4" fill="#800080" />
  <circle cx="29" cy="146" r="4" fill="#800080" />
  <circle cx="29" cy="174" r="4" fill="#800080" />
  <circle cx="43" cy="63" r="4" fill="#800080" />
  <circle cx="43" cy="77" r="4" fill="#800080" />
  <circle cx="43" cy="91" r="4" fill="#800080" />
  <circle cx="43" cy="105" r="4" fill="#800080" />
  <circle cx="43" cy="119" r="4" fill="#800080" />
  <circle cx="43" cy="133" r="4" fill="#800080" />
  <circle cx="43" cy="147" r="4" fill="#800080" />
  <circle cx="55" cy="173" r="4" fill="#800080" />
  <circle cx="66" cy="184" r="4" fill="#800080" />
  <circle cx="67" cy="173" r="4" fill="#800080" />
  <circle cx="78" cy="184" r="4" fill="#800080" />
  <circle cx="79" cy="173" r="4" fill="#800080" />
  <circle cx="90" cy="184" r="4" fill="#800080" />
  <circle cx="91" cy="173" r="4" fill="#800080" />
  <circle cx="102" cy="184" r="4" fill="#800080" />
  <circle cx="103" cy="173" r="4" fill="#800080" />
</svg>
