<?xml version="1.0"?>
<svg width="135" height="256">
  <circle cx="73" cy="172" r="4" fill="#800080" />
  <circle cx="70" cy="34" r="4" fill="#800080" />
  <circle cx="71" cy="48" r="4" fill="#800080" />
  <circle cx="71" cy="62" r="4" fill="#800080" />
  <circle cx="71" cy="76" r="4" fill="#800080" />
  <circle cx="71" cy="90" r="4" fill="#800080" />
  <circle cx="71" cy="104" r="4" fill="#800080" />
  <circle cx="71" cy="118" r="4" fill="#800080" />
  <circle cx="71" cy="132" r="4" fill="#800080" />
  <circle cx="71" cy="146" r="4" fill="#800080" />
  <circle cx="70" cy="159" r="4" fill="#800080" />
  <circle cx="84" cy="179" r="4" fill="#800080" />
  <circle cx="96" cy="179" r="4" fill="#800080" />
  <circle cx="36" cy="31" r="4" fill="#800080" />
  <circle cx="47" cy="31" r="4" fill="#800080" />
  <circle cx="58" cy="31" r="4" fill="#800080" />
  <circle cx="107" cy="179" r="4" fill="#800080" />
  <circle cx="117" cy="178" r="4" fill="#800080" />
  <circle cx="65" cy="41" r="4" fill="#800080" />
  <circle cx="65" cy="54" r="4" fill="#800080" />
  <circle cx="65" cy="68" r="4" fill="#800080" />
  <circle cx="65" cy="82" r="4" fill="#800080" />
  <circle cx="65" cy="96" r="4" fill="#800080" />
  <circle cx="65" cy="110" r="4" fill="#800080" />
  <circle cx="65" cy="124" r="4" fill="#800080" />
  <circle cx="65" cy="138" r="4" fill="#800080" />
  <circle cx="65" cy="152" r="4" fill="#800080" />
  <circle cx="65" cy="166" r="4" fill="#800080" />
  <circle cx="73" cy="180" r="4" fill="#800080" />
  <circle cx="76" cy="28" r="4" fill="#800080" />
  <circle cx="76" cy="40" r="4" fill="#800080" />
  <circle cx="76" cy="55" r="4" fill="#800080" />
  <circle cx="76" cy="69" r="4" fill="#800080" />
  <circle cx="76" cy="83" r="4" fill="#800080" />
  <circle cx="76" cy="97" r="4" fill="#800080" />
  <circle cx="76" cy="111" r="4" fill="#800080" />
  <circle cx="76" cy="125" r="4" fill="#800080" />
  <circle cx="76" cy="139" r="4" fill="#800080" />
  <circle cx="76" cy="153" r="4" fill="#800080" />
  <circle cx="77" cy="164" r="4" fill="#800080" />
  <circle cx="81" cy="171" r="4" fill="#800080" />
  <circle cx="64" cy="61" r="4" fill="#800080" />
  <circle cx="64" cy="75" r="4" fill="#800080" />
  <circle cx="64" cy="89" r="4" fill="#800080" />
  <circle cx="64" cy="103" r="4" fill="#800080" />
  <circle cx="64" cy="117" r="4" fill="#800080" />
  <circle cx="64" cy="131" r="4" fill="#800080" />
  <circle cx="64" cy="145" r="4" fill="#800080" />
  <circle cx="65" cy="27" r="4" fill="#800080" />
  <circle cx="66" cy="173" r="4" fill="#800080" />
  <circle cx="78" cy="47" r="4" fill="#800080" />
  <circle cx="78" cy="62" r="4" fill="#800080" />
  <circle cx="78" cy="76" r="4" fill="#800080" />
  <circle cx="78" cy="90" r="4" fill="#800080" />
  <circle cx="78" cy="104" r="4" fill="#800080" />
  <circle cx="78" cy="118" r="4" fill="#800080" />
  <circle cx="78" cy="132" r="4" fill="#800080" />
  <circle cx="78" cy="146" r="4" fill="#800080" />
  <circle cx="90" cy="174" r="4" fill="#800080" />
  <circle cx="90" cy="184" r="4" fill="#800080" />
</svg>
