<?xml version="1.0"?>
<svg width="135" height="256">
  <circle cx="106" cy="52" r="4" fill="#800080" />
  <circle cx="26" cy="51" r="4" fill="#800080" />
  <circle cx="67" cy="127" r="4" fill="#800080" />
  <circle cx="112" cy="65" r="4" fill="#800080" />
  <circle cx="112" cy="78" r="4" fill="#800080" />
  <circle cx="112" cy="91" r="4" fill="#800080" />
  <circle cx="112" cy="104" r="4" fill="#800080" />
  <circle cx="112" cy="117" r="4" fill="#800080" />
  <circle cx="112" cy="130" r="4" fill="#800080" />
  <circle cx="112" cy="143" r="4" fill="#800080" />
  <circle cx="112" cy="156" r="4" fill="#800080" />
  <circle cx="112" cy="169" r="4" fill="#800080" />
  <circle cx="47" cy="81" r="4" fill="#800080" />
  <circle cx="22" cy="63" r="4" fill="#800080" />
  <circle cx="22" cy="75" r="4" fill="#800080" />
  <circle cx="22" cy="87" r="4" fill="#800080" />
  <circle cx="22" cy="99" r="4" fill="#800080" />
  <circle cx="22" cy="111" r="4" fill="#800080" />
  <circle cx="22" cy="123" r="4" fill="#800080" />
  <circle cx="22" cy="135" r="4" fill="#800080" />
  <circle cx="22" cy="147" r="4" fill="#800080" />
  <circle cx="22" cy="159" r="4" fill="#800080" />
  <circle cx="22" cy="171" r="4" fill="#800080" />
  <circle cx="53" cy="97" r="4" fill="#800080" />
  <circle cx="38" cy="57" r="4" fill="#800080" />
  <circle cx="42" cy="68" r="4" fill="#800080" />
  <circle cx="56" cy="108" r="4" fill="#800080" />
  <circle cx="76" cy="115" r="4" fill="#800080" />
  <circle cx="80" cy="102" r="4" fill="#800080" />
  <circle cx="84" cy="91" r="4" fill="#800080" />
  <circle cx="88" cy="80" r="4" fill="#800080" />
  <circle cx="92" cy="69" r="4" fill="#800080" />
  <circle cx="110" cy="180" r="4" fill="#800080" />
  <circle cx="96" cy="58" r="4" fill="#800080" />
  <circle cx="20" cy="181" r="4" fill="#800080" />
  <circle cx="35" cy="45" r="4" fill="#800080" />
  <circle cx="59" cy="118" r="4" fill="#800080" />
  <circle cx="114" cy="45" r="4" fill="#800080" />
  <circle cx="115" cy="55" r="4" fill="#800080" />
  <circle cx="19" cy="44" r="4" fill="#800080" />
  <circle cx="100" cy="44" r="4" fill="#800080" />
  <circle cx="47" cy="90" r="4" fill="#800080" />
  <circle cx="18" cy="52" r="4" fill="#800080" />
  <circle cx="27" cy="43" r="4" fill="#800080" />
  <circle cx="30" cy="59" r="4" fill="#800080" />
  <circle cx="63" cy="135" r="4" fill="#800080" />
  <circle cx="71" cy="135" r="4" fill="#800080" />
  <circle cx="75" cy="123" r="4" fill="#800080" />
  <circle cx="104" cy="60" r="4" fill="#800080" />
  <circle cx="49" cy="73" r="4" fill="#800080" />
  <circle cx="17" cy="69" r="4" fill="#800080" />
  <circle cx="17" cy="81" r="4" fill="#800080" />
  <circle cx="17" cy="93" r="4" fill="#800080" />
  <circle cx="17" cy="105" r="4" fill="#800080" />
  <circle cx="17" cy="117" r="4" fill="#800080" />
  <circle cx="17" cy="129" r="4" fill="#800080" />
  <circle cx="17" cy="141" r="4" fill="#800080" />
  <circle cx="17" cy="153" r="4" fill="#800080" />
  <circle cx="17" cy="165" r="4" fill="#800080" />
  <circle cx="27" cy="69" r="4" fill="#800080" />
  <circle cx="27" cy="81" r="4" fill="#800080" />
  <circle cx="27" cy="93" r="4" fill="#800080" />
  <circle cx="27" cy="105" r="4" fill="#800080" />
  <circle cx="27" cy="117" r="4" fill="#800080" />
  <circle cx="27" cy="129" r="4" fill="#800080" />
  <circle cx="27" cy="141" r="4" fill="#800080" />
  <circle cx="27" cy="153" r="4" fill="#800080" />
  <circle cx="27" cy="165" r="4" fill="#800080" />
  <circle cx="27" cy="177" r="4" fill="#800080" />
  <circle cx="27" cy="184" r="4" fill="#800080" />
  <circle cx="40" cy="75" r="4" fill="#800080" />
  <circle cx="41" cy="50" r="4" fill="#800080" />
  <circle cx="45" cy="61" r="4" fill="#800080" />
  <circle cx="54" cy="85" r="4" fill="#800080" />
  <circle cx="58" cy="125" r="4" fill="#800080" />
  <circle cx="60" cy="101" r="4" fill="#800080" />
  <circle cx="66" cy="119" r="4" fill="#800080" />
  <circle cx="74" cy="108" r="4" fill="#800080" />
  <circle cx="81" cy="109" r="4" fill="#800080" />
  <circle cx="87" cy="98" r="4" fill="#800080" />
  <circle cx="91" cy="87" r="4" fill="#800080" />
  <circle cx="95" cy="50" r="4" fill="#800080" />
  <circle cx="106" cy="70" r="4" fill="#800080" />
  <circle cx="106" cy="83" r="4" fill="#800080" />
  <circle cx="106" cy="96" r="4" fill="#800080" />
  <circle cx="106" cy="109" r="4" fill="#800080" />
  <circle cx="106" cy="122" r="4" fill="#800080" />
  <circle cx="106" cy="135" r="4" fill="#800080" />
  <circle cx="106" cy="148" r="4" fill="#800080" />
  <circle cx="106" cy="161" r="4" fill="#800080" />
  <circle cx="107" cy="42" r="4" fill="#800080" />
  <circle cx="117" cy="71" r="4" fill="#800080" />
  <circle cx="117" cy="84" r="4" fill="#800080" />
  <circle cx="117" cy="97" r="4" fill="#800080" />
  <circle cx="117" cy="110" r="4" fill="#800080" />
  <circle cx="117" cy="123" r="4" fill="#800080" />
  <circle cx="117" cy="136" r="4" fill="#800080" />
  <circle cx="117" cy="149" r="4" fill="#800080" />
  <circle cx="117" cy="162" r="4" fill="#800080" />
  <circle cx="117" cy="175" r="4" fill="#800080" />
  <circle cx="117" cy="182" r="4" fill="#800080" />
</svg>
