<?xml version="1.0"?>
<svg width="135" height="256">
  <circle cx="22" cy="92" r="4" fill="#800080" />
  <circle cx="68" cy="96" r="4" fill="#800080" />
  <circle cx="110" cy="82" r="4" fill="#800080" />
  <circle cx="20" cy="105" r="4" fill="#800080" />
  <circle cx="20" cy="118" r="4" fill="#800080" />
  <circle cx="20" cy="131" r="4" fill="#800080" />
  <circle cx="20" cy="144" r="4" fill="#800080" />
  <circle cx="20" cy="157" r="4" fill="#800080" />
  <circle cx="20" cy="170" r="4" fill="#800080" />
  <circle cx="67" cy="109" r="4" fill="#800080" />
  <circle cx="67" cy="122" r="4" fill="#800080" />
  <circle cx="67" cy="135" r="4" fill="#800080" />
  <circle cx="67" cy="148" r="4" fill="#800080" />
  <circle cx="67" cy="161" r="4" fill="#800080" />
  <circle cx="67" cy="174" r="4" fill="#800080" />
  <circle cx="113" cy="95" r="4" fill="#800080" />
  <circle cx="114" cy="108" r="4" fill="#800080" />
  <circle cx="114" cy="121" r="4" fill="#800080" />
  <circle cx="114" cy="134" r="4" fill="#800080" />
  <circle cx="114" cy="147" r="4" fill="#800080" />
  <circle cx="114" cy="160" r="4" fill="#800080" />
  <circle cx="114" cy="173" r="4" fill="#800080" />
  <circle cx="57" cy="76" r="4" fill="#800080" />
  <circle cx="19" cy="76" r="4" fill="#800080" />
  <circle cx="99" cy="74" r="4" fill="#800080" />
  <circle cx="46" cy="74" r="4" fill="#800080" />
  <circle cx="65" cy="85" r="4" fill="#800080" />
  <circle cx="23" cy="180" r="4" fill="#800080" />
  <circle cx="87" cy="76" r="4" fill="#800080" />
  <circle cx="108" cy="73" r="4" fill="#800080" />
  <circle cx="110" cy="182" r="4" fill="#800080" />
  <circle cx="119" cy="182" r="4" fill="#800080" />
  <circle cx="72" cy="182" r="4" fill="#800080" />
  <circle cx="15" cy="84" r="4" fill="#800080" />
  <circle cx="15" cy="97" r="4" fill="#800080" />
  <circle cx="15" cy="177" r="4" fill="#800080" />
  <circle cx="23" cy="84" r="4" fill="#800080" />
  <circle cx="26" cy="111" r="4" fill="#800080" />
  <circle cx="26" cy="124" r="4" fill="#800080" />
  <circle cx="26" cy="137" r="4" fill="#800080" />
  <circle cx="26" cy="150" r="4" fill="#800080" />
  <circle cx="26" cy="163" r="4" fill="#800080" />
  <circle cx="27" cy="99" r="4" fill="#800080" />
  <circle cx="30" cy="89" r="4" fill="#800080" />
  <circle cx="35" cy="81" r="4" fill="#800080" />
  <circle cx="62" cy="102" r="4" fill="#800080" />
  <circle cx="62" cy="181" r="4" fill="#800080" />
  <circle cx="65" cy="77" r="4" fill="#800080" />
  <circle cx="73" cy="103" r="4" fill="#800080" />
  <circle cx="73" cy="115" r="4" fill="#800080" />
  <circle cx="73" cy="128" r="4" fill="#800080" />
  <circle cx="73" cy="141" r="4" fill="#800080" />
  <circle cx="73" cy="154" r="4" fill="#800080" />
  <circle cx="73" cy="167" r="4" fill="#800080" />
  <circle cx="74" cy="90" r="4" fill="#800080" />
  <circle cx="80" cy="82" r="4" fill="#800080" />
  <circle cx="117" cy="87" r="4" fill="#800080" />
  <circle cx="119" cy="101" r="4" fill="#800080" />
  <circle cx="120" cy="114" r="4" fill="#800080" />
  <circle cx="120" cy="127" r="4" fill="#800080" />
  <circle cx="120" cy="140" r="4" fill="#800080" />
  <circle cx="120" cy="153" r="4" fill="#800080" />
  <circle cx="120" cy="166" r="4" fill="#800080" />
  <circle cx="61" cy="92" r="4" fill="#800080" />
  <circle cx="14" cy="110" r="4" fill="#800080" />
  <circle cx="14" cy="123" r="4" fill="#800080" />
  <circle cx="14" cy="136" r="4" fill="#800080" />
  <circle cx="14" cy="149" r="4" fill="#800080" />
  <circle cx="14" cy="162" r="4" fill="#800080" />
  <circle cx="14" cy="184" r="4" fill="#800080" />
  <circle cx="27" cy="170" r="4" fill="#800080" />
  <circle cx="39" cy="74" r="4" fill="#800080" />
  <circle cx="52" cy="69" r="4" fill="#800080" />
  <circle cx="56" cy="83" r="4" fill="#800080" />
  <circle cx="61" cy="114" r="4" fill="#800080" />
  <circle cx="61" cy="127" r="4" fill="#800080" />
  <circle cx="61" cy="140" r="4" fill="#800080" />
  <circle cx="61" cy="153" r="4" fill="#800080" />
  <circle cx="61" cy="166" r="4" fill="#800080" />
  <circle cx="74" cy="174" r="4" fill="#800080" />
  <circle cx="92" cy="70" r="4" fill="#800080" />
  <circle cx="101" cy="81" r="4" fill="#800080" />
  <circle cx="106" cy="89" r="4" fill="#800080" />
  <circle cx="108" cy="101" r="4" fill="#800080" />
  <circle cx="108" cy="113" r="4" fill="#800080" />
  <circle cx="108" cy="126" r="4" fill="#800080" />
  <circle cx="108" cy="139" r="4" fill="#800080" />
  <circle cx="108" cy="152" r="4" fill="#800080" />
  <circle cx="108" cy="165" r="4" fill="#800080" />
  <circle cx="120" cy="94" r="4" fill="#800080" />
  <circle cx="121" cy="173" r="4" fill="#800080" />
</svg>
