<?xml version="1.0"?>
<svg width="135" height="256">
  <circle cx="31" cy="53" r="4" fill="#800080" />
  <circle cx="101" cy="174" r="4" fill="#800080" />
  <circle cx="26" cy="66" r="4" fill="#800080" />
  <circle cx="26" cy="79" r="4" fill="#800080" />
  <circle cx="26" cy="92" r="4" fill="#800080" />
  <circle cx="26" cy="105" r="4" fill="#800080" />
  <circle cx="26" cy="118" r="4" fill="#800080" />
  <circle cx="26" cy="131" r="4" fill="#800080" />
  <circle cx="26" cy="144" r="4" fill="#800080" />
  <circle cx="26" cy="157" r="4" fill="#800080" />
  <circle cx="26" cy="170" r="4" fill="#800080" />
  <circle cx="107" cy="48" r="4" fill="#800080" />
  <circle cx="107" cy="61" r="4" fill="#800080" />
  <circle cx="107" cy="74" r="4" fill="#800080" />
  <circle cx="107" cy="87" r="4" fill="#800080" />
  <circle cx="107" cy="100" r="4" fill="#800080" />
  <circle cx="107" cy="113" r="4" fill="#800080" />
  <circle cx="107" cy="126" r="4" fill="#800080" />
  <circle cx="107" cy="139" r="4" fill="#800080" />
  <circle cx="108" cy="152" r="4" fill="#800080" />
  <circle cx="42" cy="60" r="4" fill="#800080" />
  <circle cx="48" cy="72" r="4" fill="#800080" />
  <circle cx="54" cy="85" r="4" fill="#800080" />
  <circle cx="60" cy="98" r="4" fill="#800080" />
  <circle cx="66" cy="111" r="4" fill="#800080" />
  <circle cx="72" cy="124" r="4" fill="#800080" />
  <circle cx="78" cy="137" r="4" fill="#800080" />
  <circle cx="84" cy="150" r="4" fill="#800080" />
  <circle cx="90" cy="163" r="4" fill="#800080" />
  <circle cx="109" cy="164" r="4" fill="#800080" />
  <circle cx="110" cy="180" r="4" fill="#800080" />
  <circle cx="23" cy="45" r="4" fill="#800080" />
  <circle cx="23" cy="180" r="4" fill="#800080" />
  <circle cx="38" cy="45" r="4" fill="#800080" />
  <circle cx="91" cy="173" r="4" fill="#800080" />
  <circle cx="22" cy="54" r="4" fill="#800080" />
  <circle cx="95" cy="182" r="4" fill="#800080" />
  <circle cx="34" cy="63" r="4" fill="#800080" />
  <circle cx="31" cy="177" r="4" fill="#800080" />
  <circle cx="32" cy="85" r="4" fill="#800080" />
  <circle cx="32" cy="98" r="4" fill="#800080" />
  <circle cx="32" cy="111" r="4" fill="#800080" />
  <circle cx="32" cy="124" r="4" fill="#800080" />
  <circle cx="32" cy="137" r="4" fill="#800080" />
  <circle cx="32" cy="150" r="4" fill="#800080" />
  <circle cx="32" cy="163" r="4" fill="#800080" />
  <circle cx="43" cy="52" r="4" fill="#800080" />
  <circle cx="47" cy="80" r="4" fill="#800080" />
  <circle cx="53" cy="93" r="4" fill="#800080" />
  <circle cx="55" cy="77" r="4" fill="#800080" />
  <circle cx="59" cy="106" r="4" fill="#800080" />
  <circle cx="61" cy="90" r="4" fill="#800080" />
  <circle cx="65" cy="119" r="4" fill="#800080" />
  <circle cx="67" cy="103" r="4" fill="#800080" />
  <circle cx="71" cy="132" r="4" fill="#800080" />
  <circle cx="73" cy="116" r="4" fill="#800080" />
  <circle cx="77" cy="145" r="4" fill="#800080" />
  <circle cx="79" cy="129" r="4" fill="#800080" />
  <circle cx="83" cy="158" r="4" fill="#800080" />
  <circle cx="85" cy="142" r="4" fill="#800080" />
  <circle cx="91" cy="155" r="4" fill="#800080" />
  <circle cx="98" cy="165" r="4" fill="#800080" />
  <circle cx="109" cy="172" r="4" fill="#800080" />
  <circle cx="113" cy="54" r="4" fill="#800080" />
  <circle cx="113" cy="67" r="4" fill="#800080" />
  <circle cx="113" cy="80" r="4" fill="#800080" />
  <circle cx="113" cy="93" r="4" fill="#800080" />
  <circle cx="113" cy="106" r="4" fill="#800080" />
  <circle cx="113" cy="119" r="4" fill="#800080" />
  <circle cx="113" cy="132" r="4" fill="#800080" />
  <circle cx="113" cy="145" r="4" fill="#800080" />
  <circle cx="41" cy="68" r="4" fill="#800080" />
  <circle cx="20" cy="61" r="4" fill="#800080" />
  <circle cx="20" cy="71" r="4" fill="#800080" />
  <circle cx="20" cy="84" r="4" fill="#800080" />
  <circle cx="20" cy="97" r="4" fill="#800080" />
  <circle cx="20" cy="110" r="4" fill="#800080" />
  <circle cx="20" cy="123" r="4" fill="#800080" />
  <circle cx="20" cy="136" r="4" fill="#800080" />
  <circle cx="20" cy="149" r="4" fill="#800080" />
  <circle cx="20" cy="162" r="4" fill="#800080" />
  <circle cx="30" cy="42" r="4" fill="#800080" />
  <circle cx="30" cy="184" r="4" fill="#800080" />
  <circle cx="31" cy="72" r="4" fill="#800080" />
  <circle cx="33" cy="170" r="4" fill="#800080" />
  <circle cx="48" cy="65" r="4" fill="#800080" />
  <circle cx="101" cy="42" r="4" fill="#800080" />
  <circle cx="101" cy="53" r="4" fill="#800080" />
  <circle cx="101" cy="66" r="4" fill="#800080" />
  <circle cx="101" cy="79" r="4" fill="#800080" />
  <circle cx="101" cy="92" r="4" fill="#800080" />
  <circle cx="101" cy="105" r="4" fill="#800080" />
  <circle cx="101" cy="118" r="4" fill="#800080" />
  <circle cx="101" cy="131" r="4" fill="#800080" />
  <circle cx="102" cy="145" r="4" fill="#800080" />
  <circle cx="102" cy="181" r="4" fill="#800080" />
  <circle cx="103" cy="158" r="4" fill="#800080" />
  <circle cx="112" cy="42" r="4" fill="#800080" />
  <circle cx="114" cy="157" r="4" fill="#800080" />
</svg>
