<?xml version="1.0"?>
<svg width="135" height="256">
  <circle cx="109" cy="112" r="4" fill="#800080" />
  <circle cx="24" cy="121" r="4" fill="#800080" />
  <circle cx="25" cy="135" r="4" fill="#800080" />
  <circle cx="27" cy="104" r="4" fill="#800080" />
  <circle cx="27" cy="151" r="4" fill="#800080" />
  <circle cx="108" cy="148" r="4" fill="#800080" />
  <circle cx="110" cy="126" r="4" fill="#800080" />
  <circle cx="104" cy="94" r="4" fill="#800080" />
  <circle cx="32" cy="164" r="4" fill="#800080" />
  <circle cx="33" cy="90" r="4" fill="#800080" />
  <circle cx="102" cy="164" r="4" fill="#800080" />
  <circle cx="96" cy="83" r="4" fill="#800080" />
  <circle cx="41" cy="174" r="4" fill="#800080" />
  <circle cx="42" cy="81" r="4" fill="#800080" />
  <circle cx="92" cy="175" r="4" fill="#800080" />
  <circle cx="84" cy="76" r="4" fill="#800080" />
  <circle cx="51" cy="180" r="4" fill="#800080" />
  <circle cx="52" cy="75" r="4" fill="#800080" />
  <circle cx="62" cy="182" r="4" fill="#800080" />
  <circle cx="63" cy="73" r="4" fill="#800080" />
  <circle cx="73" cy="182" r="4" fill="#800080" />
  <circle cx="106" cy="137" r="4" fill="#800080" />
  <circle cx="74" cy="73" r="4" fill="#800080" />
  <circle cx="83" cy="181" r="4" fill="#800080" />
  <circle cx="111" cy="102" r="4" fill="#800080" />
  <circle cx="21" cy="112" r="4" fill="#800080" />
  <circle cx="30" cy="113" r="4" fill="#800080" />
  <circle cx="102" cy="103" r="4" fill="#800080" />
  <circle cx="109" cy="157" r="4" fill="#800080" />
  <circle cx="115" cy="135" r="4" fill="#800080" />
  <circle cx="20" cy="143" r="4" fill="#800080" />
  <circle cx="18" cy="127" r="4" fill="#800080" />
  <circle cx="24" cy="95" r="4" fill="#800080" />
  <circle cx="24" cy="159" r="4" fill="#800080" />
  <circle cx="28" cy="143" r="4" fill="#800080" />
  <circle cx="30" cy="127" r="4" fill="#800080" />
  <circle cx="32" cy="172" r="4" fill="#800080" />
  <circle cx="33" cy="82" r="4" fill="#800080" />
  <circle cx="33" cy="98" r="4" fill="#800080" />
  <circle cx="34" cy="156" r="4" fill="#800080" />
  <circle cx="40" cy="166" r="4" fill="#800080" />
  <circle cx="92" cy="75" r="4" fill="#800080" />
  <circle cx="94" cy="167" r="4" fill="#800080" />
  <circle cx="96" cy="91" r="4" fill="#800080" />
  <circle cx="100" cy="155" r="4" fill="#800080" />
  <circle cx="100" cy="173" r="4" fill="#800080" />
  <circle cx="103" cy="118" r="4" fill="#800080" />
  <circle cx="104" cy="84" r="4" fill="#800080" />
  <circle cx="115" cy="118" r="4" fill="#800080" />
  <circle cx="115" cy="143" r="4" fill="#800080" />
  <circle cx="88" cy="83" r="4" fill="#800080" />
  <circle cx="17" cy="119" r="4" fill="#800080" />
  <circle cx="17" cy="134" r="4" fill="#800080" />
  <circle cx="20" cy="102" r="4" fill="#800080" />
  <circle cx="20" cy="150" r="4" fill="#800080" />
  <circle cx="31" cy="120" r="4" fill="#800080" />
  <circle cx="32" cy="134" r="4" fill="#800080" />
  <circle cx="34" cy="105" r="4" fill="#800080" />
  <circle cx="34" cy="149" r="4" fill="#800080" />
  <circle cx="40" cy="88" r="4" fill="#800080" />
  <circle cx="42" cy="181" r="4" fill="#800080" />
  <circle cx="44" cy="74" r="4" fill="#800080" />
  <circle cx="48" cy="173" r="4" fill="#800080" />
  <circle cx="49" cy="82" r="4" fill="#800080" />
  <circle cx="85" cy="174" r="4" fill="#800080" />
  <circle cx="90" cy="182" r="4" fill="#800080" />
  <circle cx="101" cy="110" r="4" fill="#800080" />
  <circle cx="101" cy="146" r="4" fill="#800080" />
  <circle cx="103" cy="125" r="4" fill="#800080" />
  <circle cx="109" cy="164" r="4" fill="#800080" />
  <circle cx="111" cy="93" r="4" fill="#800080" />
  <circle cx="115" cy="150" r="4" fill="#800080" />
  <circle cx="116" cy="109" r="4" fill="#800080" />
  <circle cx="117" cy="125" r="4" fill="#800080" />
</svg>
