<?xml version="1.0"?>
<svg width="135" height="256">
  <circle cx="22" cy="101" r="4" fill="#800080" />
  <circle cx="22" cy="116" r="4" fill="#800080" />
  <circle cx="23" cy="131" r="4" fill="#800080" />
  <circle cx="111" cy="90" r="4" fill="#800080" />
  <circle cx="111" cy="135" r="4" fill="#800080" />
  <circle cx="112" cy="105" r="4" fill="#800080" />
  <circle cx="112" cy="120" r="4" fill="#800080" />
  <circle cx="25" cy="82" r="4" fill="#800080" />
  <circle cx="25" cy="145" r="4" fill="#800080" />
  <circle cx="30" cy="67" r="4" fill="#800080" />
  <circle cx="31" cy="159" r="4" fill="#800080" />
  <circle cx="103" cy="65" r="4" fill="#800080" />
  <circle cx="105" cy="156" r="4" fill="#800080" />
  <circle cx="39" cy="55" r="4" fill="#800080" />
  <circle cx="39" cy="170" r="4" fill="#800080" />
  <circle cx="88" cy="50" r="4" fill="#800080" />
  <circle cx="88" cy="176" r="4" fill="#800080" />
  <circle cx="50" cy="178" r="4" fill="#800080" />
  <circle cx="50" cy="48" r="4" fill="#800080" />
  <circle cx="62" cy="45" r="4" fill="#800080" />
  <circle cx="62" cy="180" r="4" fill="#800080" />
  <circle cx="74" cy="45" r="4" fill="#800080" />
  <circle cx="74" cy="180" r="4" fill="#800080" />
  <circle cx="97" cy="167" r="4" fill="#800080" />
  <circle cx="106" cy="77" r="4" fill="#800080" />
  <circle cx="111" cy="146" r="4" fill="#800080" />
  <circle cx="98" cy="55" r="4" fill="#800080" />
  <circle cx="19" cy="91" r="4" fill="#800080" />
  <circle cx="22" cy="73" r="4" fill="#800080" />
  <circle cx="16" cy="124" r="4" fill="#800080" />
  <circle cx="28" cy="91" r="4" fill="#800080" />
  <circle cx="30" cy="58" r="4" fill="#800080" />
  <circle cx="115" cy="80" r="4" fill="#800080" />
  <circle cx="118" cy="97" r="4" fill="#800080" />
  <circle cx="118" cy="128" r="4" fill="#800080" />
  <circle cx="119" cy="112" r="4" fill="#800080" />
  <circle cx="23" cy="154" r="4" fill="#800080" />
  <circle cx="15" cy="106" r="4" fill="#800080" />
  <circle cx="17" cy="137" r="4" fill="#800080" />
  <circle cx="27" cy="108" r="4" fill="#800080" />
  <circle cx="27" cy="123" r="4" fill="#800080" />
  <circle cx="28" cy="167" r="4" fill="#800080" />
  <circle cx="29" cy="137" r="4" fill="#800080" />
  <circle cx="30" cy="75" r="4" fill="#800080" />
  <circle cx="31" cy="151" r="4" fill="#800080" />
  <circle cx="38" cy="63" r="4" fill="#800080" />
  <circle cx="39" cy="161" r="4" fill="#800080" />
  <circle cx="39" cy="178" r="4" fill="#800080" />
  <circle cx="41" cy="47" r="4" fill="#800080" />
  <circle cx="47" cy="56" r="4" fill="#800080" />
  <circle cx="47" cy="170" r="4" fill="#800080" />
  <circle cx="68" cy="186" r="4" fill="#800080" />
  <circle cx="80" cy="51" r="4" fill="#800080" />
  <circle cx="82" cy="42" r="4" fill="#800080" />
  <circle cx="82" cy="182" r="4" fill="#800080" />
  <circle cx="90" cy="58" r="4" fill="#800080" />
  <circle cx="96" cy="175" r="4" fill="#800080" />
  <circle cx="97" cy="159" r="4" fill="#800080" />
  <circle cx="102" cy="145" r="4" fill="#800080" />
  <circle cx="103" cy="85" r="4" fill="#800080" />
  <circle cx="105" cy="96" r="4" fill="#800080" />
  <circle cx="105" cy="125" r="4" fill="#800080" />
  <circle cx="105" cy="164" r="4" fill="#800080" />
  <circle cx="106" cy="111" r="4" fill="#800080" />
  <circle cx="111" cy="66" r="4" fill="#800080" />
  <circle cx="113" cy="154" r="4" fill="#800080" />
  <circle cx="80" cy="174" r="4" fill="#800080" />
  <circle cx="14" cy="99" r="4" fill="#800080" />
  <circle cx="14" cy="113" r="4" fill="#800080" />
  <circle cx="17" cy="81" r="4" fill="#800080" />
  <circle cx="17" cy="144" r="4" fill="#800080" />
  <circle cx="23" cy="65" r="4" fill="#800080" />
  <circle cx="29" cy="98" r="4" fill="#800080" />
  <circle cx="29" cy="115" r="4" fill="#800080" />
  <circle cx="30" cy="130" r="4" fill="#800080" />
  <circle cx="32" cy="82" r="4" fill="#800080" />
  <circle cx="32" cy="144" r="4" fill="#800080" />
  <circle cx="37" cy="70" r="4" fill="#800080" />
  <circle cx="53" cy="41" r="4" fill="#800080" />
  <circle cx="53" cy="185" r="4" fill="#800080" />
  <circle cx="57" cy="51" r="4" fill="#800080" />
  <circle cx="57" cy="174" r="4" fill="#800080" />
  <circle cx="67" cy="39" r="4" fill="#800080" />
  <circle cx="67" cy="51" r="4" fill="#800080" />
  <circle cx="88" cy="169" r="4" fill="#800080" />
  <circle cx="95" cy="47" r="4" fill="#800080" />
  <circle cx="95" cy="64" r="4" fill="#800080" />
  <circle cx="98" cy="71" r="4" fill="#800080" />
  <circle cx="103" cy="133" r="4" fill="#800080" />
  <circle cx="103" cy="172" r="4" fill="#800080" />
  <circle cx="104" cy="103" r="4" fill="#800080" />
  <circle cx="104" cy="118" r="4" fill="#800080" />
  <circle cx="105" cy="56" r="4" fill="#800080" />
  <circle cx="113" cy="73" r="4" fill="#800080" />
  <circle cx="117" cy="140" r="4" fill="#800080" />
  <circle cx="118" cy="87" r="4" fill="#800080" />
  <circle cx="119" cy="104" r="4" fill="#800080" />
  <circle cx="119" cy="119" r="4" fill="#800080" />
</svg>
