<?xml version="1.0"?>
<svg width="135" height="256">
  <circle cx="32" cy="94" r="4" fill="#800080" />
  <circle cx="32" cy="160" r="4" fill="#800080" />
  <circle cx="31" cy="109" r="4" fill="#800080" />
  <circle cx="30" cy="123" r="4" fill="#800080" />
  <circle cx="30" cy="137" r="4" fill="#800080" />
  <circle cx="30" cy="174" r="4" fill="#800080" />
  <circle cx="30" cy="188" r="4" fill="#800080" />
  <circle cx="30" cy="202" r="4" fill="#800080" />
  <circle cx="30" cy="216" r="4" fill="#800080" />
  <circle cx="107" cy="102" r="4" fill="#800080" />
  <circle cx="108" cy="146" r="4" fill="#800080" />
  <circle cx="109" cy="116" r="4" fill="#800080" />
  <circle cx="109" cy="130" r="4" fill="#800080" />
  <circle cx="101" cy="87" r="4" fill="#800080" />
  <circle cx="29" cy="77" r="4" fill="#800080" />
  <circle cx="98" cy="172" r="4" fill="#800080" />
  <circle cx="105" cy="159" r="4" fill="#800080" />
  <circle cx="90" cy="77" r="4" fill="#800080" />
  <circle cx="83" cy="181" r="4" fill="#800080" />
  <circle cx="27" cy="148" r="4" fill="#800080" />
  <circle cx="27" cy="227" r="4" fill="#800080" />
  <circle cx="62" cy="75" r="4" fill="#800080" />
  <circle cx="68" cy="182" r="4" fill="#800080" />
  <circle cx="73" cy="73" r="4" fill="#800080" />
  <circle cx="57" cy="179" r="4" fill="#800080" />
  <circle cx="41" cy="166" r="4" fill="#800080" />
  <circle cx="42" cy="91" r="4" fill="#800080" />
  <circle cx="25" cy="86" r="4" fill="#800080" />
  <circle cx="25" cy="101" r="4" fill="#800080" />
  <circle cx="36" cy="145" r="4" fill="#800080" />
  <circle cx="38" cy="102" r="4" fill="#800080" />
  <circle cx="49" cy="83" r="4" fill="#800080" />
  <circle cx="82" cy="71" r="4" fill="#800080" />
  <circle cx="92" cy="180" r="4" fill="#800080" />
  <circle cx="99" cy="78" r="4" fill="#800080" />
  <circle cx="109" cy="93" r="4" fill="#800080" />
  <circle cx="34" cy="85" r="4" fill="#800080" />
  <circle cx="24" cy="114" r="4" fill="#800080" />
  <circle cx="24" cy="129" r="4" fill="#800080" />
  <circle cx="24" cy="156" r="4" fill="#800080" />
  <circle cx="24" cy="164" r="4" fill="#800080" />
  <circle cx="24" cy="180" r="4" fill="#800080" />
  <circle cx="24" cy="194" r="4" fill="#800080" />
  <circle cx="24" cy="208" r="4" fill="#800080" />
  <circle cx="35" cy="130" r="4" fill="#800080" />
  <circle cx="35" cy="181" r="4" fill="#800080" />
  <circle cx="35" cy="195" r="4" fill="#800080" />
  <circle cx="35" cy="209" r="4" fill="#800080" />
  <circle cx="35" cy="223" r="4" fill="#800080" />
  <circle cx="36" cy="116" r="4" fill="#800080" />
  <circle cx="37" cy="153" r="4" fill="#800080" />
  <circle cx="47" cy="172" r="4" fill="#800080" />
  <circle cx="54" cy="76" r="4" fill="#800080" />
  <circle cx="76" cy="186" r="4" fill="#800080" />
  <circle cx="92" cy="85" r="4" fill="#800080" />
  <circle cx="97" cy="164" r="4" fill="#800080" />
  <circle cx="99" cy="95" r="4" fill="#800080" />
  <circle cx="102" cy="109" r="4" fill="#800080" />
  <circle cx="103" cy="122" r="4" fill="#800080" />
  <circle cx="103" cy="136" r="4" fill="#800080" />
  <circle cx="105" cy="167" r="4" fill="#800080" />
  <circle cx="111" cy="138" r="4" fill="#800080" />
  <circle cx="112" cy="154" r="4" fill="#800080" />
  <circle cx="113" cy="108" r="4" fill="#800080" />
  <circle cx="114" cy="123" r="4" fill="#800080" />
  <circle cx="82" cy="79" r="4" fill="#800080" />
  <circle cx="23" cy="71" r="4" fill="#800080" />
  <circle cx="23" cy="93" r="4" fill="#800080" />
  <circle cx="23" cy="121" r="4" fill="#800080" />
  <circle cx="23" cy="136" r="4" fill="#800080" />
  <circle cx="23" cy="171" r="4" fill="#800080" />
  <circle cx="23" cy="187" r="4" fill="#800080" />
  <circle cx="23" cy="201" r="4" fill="#800080" />
  <circle cx="23" cy="215" r="4" fill="#800080" />
  <circle cx="31" cy="167" r="4" fill="#800080" />
  <circle cx="34" cy="71" r="4" fill="#800080" />
  <circle cx="34" cy="230" r="4" fill="#800080" />
  <circle cx="36" cy="78" r="4" fill="#800080" />
  <circle cx="37" cy="123" r="4" fill="#800080" />
  <circle cx="37" cy="137" r="4" fill="#800080" />
  <circle cx="37" cy="173" r="4" fill="#800080" />
  <circle cx="37" cy="188" r="4" fill="#800080" />
  <circle cx="37" cy="202" r="4" fill="#800080" />
  <circle cx="37" cy="216" r="4" fill="#800080" />
  <circle cx="38" cy="109" r="4" fill="#800080" />
  <circle cx="75" cy="178" r="4" fill="#800080" />
  <circle cx="87" cy="174" r="4" fill="#800080" />
  <circle cx="99" cy="179" r="4" fill="#800080" />
  <circle cx="100" cy="102" r="4" fill="#800080" />
  <circle cx="100" cy="152" r="4" fill="#800080" />
  <circle cx="101" cy="144" r="4" fill="#800080" />
  <circle cx="102" cy="129" r="4" fill="#800080" />
  <circle cx="105" cy="174" r="4" fill="#800080" />
  <circle cx="108" cy="85" r="4" fill="#800080" />
  <circle cx="112" cy="161" r="4" fill="#800080" />
  <circle cx="114" cy="100" r="4" fill="#800080" />
  <circle cx="115" cy="145" r="4" fill="#800080" />
  <circle cx="116" cy="115" r="4" fill="#800080" />
  <circle cx="116" cy="130" r="4" fill="#800080" />
</svg>
