<?xml version="1.0"?>
<svg width="135" height="256">
  <circle cx="29" cy="122" r="4" fill="#800080" />
  <circle cx="28" cy="50" r="4" fill="#800080" />
  <circle cx="109" cy="67" r="4" fill="#800080" />
  <circle cx="27" cy="64" r="4" fill="#800080" />
  <circle cx="27" cy="78" r="4" fill="#800080" />
  <circle cx="27" cy="92" r="4" fill="#800080" />
  <circle cx="27" cy="106" r="4" fill="#800080" />
  <circle cx="27" cy="136" r="4" fill="#800080" />
  <circle cx="27" cy="150" r="4" fill="#800080" />
  <circle cx="27" cy="164" r="4" fill="#800080" />
  <circle cx="109" cy="100" r="4" fill="#800080" />
  <circle cx="112" cy="81" r="4" fill="#800080" />
  <circle cx="97" cy="54" r="4" fill="#800080" />
  <circle cx="26" cy="177" r="4" fill="#800080" />
  <circle cx="94" cy="116" r="4" fill="#800080" />
  <circle cx="79" cy="48" r="4" fill="#800080" />
  <circle cx="40" cy="47" r="4" fill="#800080" />
  <circle cx="41" cy="122" r="4" fill="#800080" />
  <circle cx="52" cy="47" r="4" fill="#800080" />
  <circle cx="53" cy="122" r="4" fill="#800080" />
  <circle cx="64" cy="47" r="4" fill="#800080" />
  <circle cx="65" cy="122" r="4" fill="#800080" />
  <circle cx="77" cy="122" r="4" fill="#800080" />
  <circle cx="105" cy="111" r="4" fill="#800080" />
  <circle cx="107" cy="57" r="4" fill="#800080" />
  <circle cx="115" cy="91" r="4" fill="#800080" />
  <circle cx="89" cy="47" r="4" fill="#800080" />
  <circle cx="22" cy="115" r="4" fill="#800080" />
  <circle cx="86" cy="122" r="4" fill="#800080" />
  <circle cx="106" cy="90" r="4" fill="#800080" />
  <circle cx="117" cy="73" r="4" fill="#800080" />
  <circle cx="21" cy="43" r="4" fill="#800080" />
  <circle cx="21" cy="55" r="4" fill="#800080" />
  <circle cx="21" cy="70" r="4" fill="#800080" />
  <circle cx="21" cy="84" r="4" fill="#800080" />
  <circle cx="21" cy="98" r="4" fill="#800080" />
  <circle cx="21" cy="123" r="4" fill="#800080" />
  <circle cx="21" cy="142" r="4" fill="#800080" />
  <circle cx="21" cy="156" r="4" fill="#800080" />
  <circle cx="21" cy="170" r="4" fill="#800080" />
  <circle cx="30" cy="114" r="4" fill="#800080" />
  <circle cx="32" cy="71" r="4" fill="#800080" />
  <circle cx="32" cy="85" r="4" fill="#800080" />
  <circle cx="32" cy="99" r="4" fill="#800080" />
  <circle cx="32" cy="143" r="4" fill="#800080" />
  <circle cx="32" cy="157" r="4" fill="#800080" />
  <circle cx="32" cy="171" r="4" fill="#800080" />
  <circle cx="32" cy="183" r="4" fill="#800080" />
  <circle cx="33" cy="57" r="4" fill="#800080" />
  <circle cx="33" cy="130" r="4" fill="#800080" />
  <circle cx="71" cy="52" r="4" fill="#800080" />
  <circle cx="72" cy="43" r="4" fill="#800080" />
  <circle cx="87" cy="55" r="4" fill="#800080" />
  <circle cx="96" cy="108" r="4" fill="#800080" />
  <circle cx="98" cy="62" r="4" fill="#800080" />
  <circle cx="105" cy="75" r="4" fill="#800080" />
  <circle cx="32" cy="43" r="4" fill="#800080" />
  <circle cx="20" cy="62" r="4" fill="#800080" />
  <circle cx="20" cy="77" r="4" fill="#800080" />
  <circle cx="20" cy="91" r="4" fill="#800080" />
  <circle cx="20" cy="105" r="4" fill="#800080" />
  <circle cx="20" cy="130" r="4" fill="#800080" />
  <circle cx="20" cy="149" r="4" fill="#800080" />
  <circle cx="20" cy="163" r="4" fill="#800080" />
  <circle cx="20" cy="182" r="4" fill="#800080" />
  <circle cx="34" cy="64" r="4" fill="#800080" />
  <circle cx="34" cy="78" r="4" fill="#800080" />
  <circle cx="34" cy="92" r="4" fill="#800080" />
  <circle cx="34" cy="106" r="4" fill="#800080" />
  <circle cx="34" cy="150" r="4" fill="#800080" />
  <circle cx="34" cy="164" r="4" fill="#800080" />
  <circle cx="45" cy="53" r="4" fill="#800080" />
  <circle cx="46" cy="42" r="4" fill="#800080" />
  <circle cx="46" cy="128" r="4" fill="#800080" />
  <circle cx="47" cy="117" r="4" fill="#800080" />
  <circle cx="57" cy="53" r="4" fill="#800080" />
  <circle cx="58" cy="42" r="4" fill="#800080" />
  <circle cx="58" cy="128" r="4" fill="#800080" />
  <circle cx="59" cy="117" r="4" fill="#800080" />
  <circle cx="70" cy="128" r="4" fill="#800080" />
  <circle cx="71" cy="117" r="4" fill="#800080" />
  <circle cx="81" cy="115" r="4" fill="#800080" />
  <circle cx="93" cy="123" r="4" fill="#800080" />
  <circle cx="96" cy="47" r="4" fill="#800080" />
  <circle cx="101" cy="100" r="4" fill="#800080" />
  <circle cx="101" cy="118" r="4" fill="#800080" />
  <circle cx="105" cy="82" r="4" fill="#800080" />
  <circle cx="112" cy="107" r="4" fill="#800080" />
  <circle cx="116" cy="65" r="4" fill="#800080" />
  <circle cx="116" cy="98" r="4" fill="#800080" />
  <circle cx="119" cy="80" r="4" fill="#800080" />
</svg>
