<?xml version="1.0"?>
<svg width="135" height="256">
  <circle cx="102" cy="160" r="4" fill="#800080" />
  <circle cx="103" cy="94" r="4" fill="#800080" />
  <circle cx="104" cy="145" r="4" fill="#800080" />
  <circle cx="25" cy="118" r="4" fill="#800080" />
  <circle cx="25" cy="132" r="4" fill="#800080" />
  <circle cx="26" cy="146" r="4" fill="#800080" />
  <circle cx="30" cy="162" r="4" fill="#800080" />
  <circle cx="104" cy="108" r="4" fill="#800080" />
  <circle cx="105" cy="78" r="4" fill="#800080" />
  <circle cx="105" cy="122" r="4" fill="#800080" />
  <circle cx="105" cy="174" r="4" fill="#800080" />
  <circle cx="105" cy="188" r="4" fill="#800080" />
  <circle cx="105" cy="202" r="4" fill="#800080" />
  <circle cx="105" cy="216" r="4" fill="#800080" />
  <circle cx="27" cy="104" r="4" fill="#800080" />
  <circle cx="32" cy="90" r="4" fill="#800080" />
  <circle cx="37" cy="174" r="4" fill="#800080" />
  <circle cx="41" cy="80" r="4" fill="#800080" />
  <circle cx="49" cy="181" r="4" fill="#800080" />
  <circle cx="52" cy="75" r="4" fill="#800080" />
  <circle cx="60" cy="182" r="4" fill="#800080" />
  <circle cx="63" cy="74" r="4" fill="#800080" />
  <circle cx="72" cy="181" r="4" fill="#800080" />
  <circle cx="102" cy="133" r="4" fill="#800080" />
  <circle cx="102" cy="227" r="4" fill="#800080" />
  <circle cx="75" cy="76" r="4" fill="#800080" />
  <circle cx="82" cy="176" r="4" fill="#800080" />
  <circle cx="23" cy="155" r="4" fill="#800080" />
  <circle cx="84" cy="81" r="4" fill="#800080" />
  <circle cx="92" cy="165" r="4" fill="#800080" />
  <circle cx="93" cy="90" r="4" fill="#800080" />
  <circle cx="110" cy="87" r="4" fill="#800080" />
  <circle cx="110" cy="153" r="4" fill="#800080" />
  <circle cx="97" cy="152" r="4" fill="#800080" />
  <circle cx="19" cy="124" r="4" fill="#800080" />
  <circle cx="19" cy="138" r="4" fill="#800080" />
  <circle cx="20" cy="109" r="4" fill="#800080" />
  <circle cx="24" cy="94" r="4" fill="#800080" />
  <circle cx="27" cy="170" r="4" fill="#800080" />
  <circle cx="30" cy="125" r="4" fill="#800080" />
  <circle cx="31" cy="82" r="4" fill="#800080" />
  <circle cx="31" cy="112" r="4" fill="#800080" />
  <circle cx="31" cy="138" r="4" fill="#800080" />
  <circle cx="31" cy="153" r="4" fill="#800080" />
  <circle cx="33" cy="98" r="4" fill="#800080" />
  <circle cx="38" cy="165" r="4" fill="#800080" />
  <circle cx="39" cy="182" r="4" fill="#800080" />
  <circle cx="40" cy="88" r="4" fill="#800080" />
  <circle cx="45" cy="173" r="4" fill="#800080" />
  <circle cx="95" cy="98" r="4" fill="#800080" />
  <circle cx="98" cy="114" r="4" fill="#800080" />
  <circle cx="99" cy="84" r="4" fill="#800080" />
  <circle cx="99" cy="180" r="4" fill="#800080" />
  <circle cx="99" cy="194" r="4" fill="#800080" />
  <circle cx="99" cy="208" r="4" fill="#800080" />
  <circle cx="108" cy="166" r="4" fill="#800080" />
  <circle cx="109" cy="100" r="4" fill="#800080" />
  <circle cx="109" cy="138" r="4" fill="#800080" />
  <circle cx="110" cy="114" r="4" fill="#800080" />
  <circle cx="110" cy="129" r="4" fill="#800080" />
  <circle cx="110" cy="181" r="4" fill="#800080" />
  <circle cx="110" cy="195" r="4" fill="#800080" />
  <circle cx="110" cy="209" r="4" fill="#800080" />
  <circle cx="110" cy="223" r="4" fill="#800080" />
  <circle cx="111" cy="72" r="4" fill="#800080" />
  <circle cx="99" cy="72" r="4" fill="#800080" />
  <circle cx="18" cy="116" r="4" fill="#800080" />
  <circle cx="18" cy="131" r="4" fill="#800080" />
  <circle cx="19" cy="145" r="4" fill="#800080" />
  <circle cx="23" cy="162" r="4" fill="#800080" />
  <circle cx="33" cy="145" r="4" fill="#800080" />
  <circle cx="34" cy="105" r="4" fill="#800080" />
  <circle cx="41" cy="73" r="4" fill="#800080" />
  <circle cx="48" cy="82" r="4" fill="#800080" />
  <circle cx="54" cy="187" r="4" fill="#800080" />
  <circle cx="96" cy="105" r="4" fill="#800080" />
  <circle cx="96" cy="145" r="4" fill="#800080" />
  <circle cx="98" cy="121" r="4" fill="#800080" />
  <circle cx="98" cy="170" r="4" fill="#800080" />
  <circle cx="98" cy="187" r="4" fill="#800080" />
  <circle cx="98" cy="201" r="4" fill="#800080" />
  <circle cx="98" cy="215" r="4" fill="#800080" />
  <circle cx="109" cy="230" r="4" fill="#800080" />
  <circle cx="111" cy="107" r="4" fill="#800080" />
  <circle cx="111" cy="145" r="4" fill="#800080" />
  <circle cx="112" cy="79" r="4" fill="#800080" />
  <circle cx="112" cy="121" r="4" fill="#800080" />
  <circle cx="112" cy="173" r="4" fill="#800080" />
  <circle cx="112" cy="188" r="4" fill="#800080" />
  <circle cx="112" cy="202" r="4" fill="#800080" />
  <circle cx="112" cy="216" r="4" fill="#800080" />
</svg>
