<?xml version="1.0"?>
<svg width="135" height="256">
  <circle cx="44" cy="105" r="4" fill="#800080" />
  <circle cx="42" cy="119" r="4" fill="#800080" />
  <circle cx="42" cy="133" r="4" fill="#800080" />
  <circle cx="42" cy="147" r="4" fill="#800080" />
  <circle cx="42" cy="161" r="4" fill="#800080" />
  <circle cx="42" cy="175" r="4" fill="#800080" />
  <circle cx="38" cy="79" r="4" fill="#800080" />
  <circle cx="40" cy="92" r="4" fill="#800080" />
  <circle cx="83" cy="76" r="4" fill="#800080" />
  <circle cx="96" cy="75" r="4" fill="#800080" />
  <circle cx="70" cy="81" r="4" fill="#800080" />
  <circle cx="107" cy="74" r="4" fill="#800080" />
  <circle cx="62" cy="89" r="4" fill="#800080" />
  <circle cx="54" cy="100" r="4" fill="#800080" />
  <circle cx="37" cy="111" r="4" fill="#800080" />
  <circle cx="31" cy="72" r="4" fill="#800080" />
  <circle cx="36" cy="100" r="4" fill="#800080" />
  <circle cx="36" cy="125" r="4" fill="#800080" />
  <circle cx="36" cy="139" r="4" fill="#800080" />
  <circle cx="36" cy="153" r="4" fill="#800080" />
  <circle cx="36" cy="167" r="4" fill="#800080" />
  <circle cx="36" cy="181" r="4" fill="#800080" />
  <circle cx="44" cy="183" r="4" fill="#800080" />
  <circle cx="45" cy="84" r="4" fill="#800080" />
  <circle cx="47" cy="126" r="4" fill="#800080" />
  <circle cx="47" cy="140" r="4" fill="#800080" />
  <circle cx="47" cy="154" r="4" fill="#800080" />
  <circle cx="47" cy="168" r="4" fill="#800080" />
  <circle cx="48" cy="113" r="4" fill="#800080" />
  <circle cx="75" cy="73" r="4" fill="#800080" />
  <circle cx="89" cy="70" r="4" fill="#800080" />
  <circle cx="102" cy="81" r="4" fill="#800080" />
  <circle cx="34" cy="86" r="4" fill="#800080" />
  <circle cx="35" cy="118" r="4" fill="#800080" />
  <circle cx="35" cy="132" r="4" fill="#800080" />
  <circle cx="35" cy="146" r="4" fill="#800080" />
  <circle cx="35" cy="160" r="4" fill="#800080" />
  <circle cx="35" cy="174" r="4" fill="#800080" />
  <circle cx="38" cy="71" r="4" fill="#800080" />
  <circle cx="45" cy="98" r="4" fill="#800080" />
  <circle cx="47" cy="91" r="4" fill="#800080" />
  <circle cx="49" cy="133" r="4" fill="#800080" />
  <circle cx="49" cy="147" r="4" fill="#800080" />
  <circle cx="49" cy="161" r="4" fill="#800080" />
  <circle cx="49" cy="175" r="4" fill="#800080" />
  <circle cx="53" cy="107" r="4" fill="#800080" />
  <circle cx="62" cy="82" r="4" fill="#800080" />
  <circle cx="77" cy="81" r="4" fill="#800080" />
  <circle cx="89" cy="81" r="4" fill="#800080" />
  <circle cx="101" cy="69" r="4" fill="#800080" />
  <circle cx="109" cy="81" r="4" fill="#800080" />
</svg>
