<?xml version="1.0"?>
<svg width="135" height="256">
  <circle cx="22" cy="159" r="4" fill="#800080" />
  <circle cx="26" cy="71" r="4" fill="#800080" />
  <circle cx="27" cy="85" r="4" fill="#800080" />
  <circle cx="105" cy="61" r="4" fill="#800080" />
  <circle cx="106" cy="126" r="4" fill="#800080" />
  <circle cx="111" cy="160" r="4" fill="#800080" />
  <circle cx="113" cy="139" r="4" fill="#800080" />
  <circle cx="35" cy="97" r="4" fill="#800080" />
  <circle cx="30" cy="170" r="4" fill="#800080" />
  <circle cx="31" cy="58" r="4" fill="#800080" />
  <circle cx="69" cy="110" r="4" fill="#800080" />
  <circle cx="92" cy="117" r="4" fill="#800080" />
  <circle cx="95" cy="51" r="4" fill="#800080" />
  <circle cx="103" cy="171" r="4" fill="#800080" />
  <circle cx="48" cy="104" r="4" fill="#800080" />
  <circle cx="41" cy="50" r="4" fill="#800080" />
  <circle cx="41" cy="177" r="4" fill="#800080" />
  <circle cx="53" cy="180" r="4" fill="#800080" />
  <circle cx="57" cy="45" r="4" fill="#800080" />
  <circle cx="65" cy="181" r="4" fill="#800080" />
  <circle cx="77" cy="45" r="4" fill="#800080" />
  <circle cx="77" cy="181" r="4" fill="#800080" />
  <circle cx="90" cy="178" r="4" fill="#800080" />
  <circle cx="81" cy="112" r="4" fill="#800080" />
  <circle cx="58" cy="109" r="4" fill="#800080" />
  <circle cx="67" cy="42" r="4" fill="#800080" />
  <circle cx="109" cy="149" r="4" fill="#800080" />
  <circle cx="87" cy="45" r="4" fill="#800080" />
  <circle cx="26" cy="94" r="4" fill="#800080" />
  <circle cx="101" cy="117" r="4" fill="#800080" />
  <circle cx="104" cy="52" r="4" fill="#800080" />
  <circle cx="112" cy="68" r="4" fill="#800080" />
  <circle cx="115" cy="130" r="4" fill="#800080" />
  <circle cx="118" cy="148" r="4" fill="#800080" />
  <circle cx="103" cy="70" r="4" fill="#800080" />
  <circle cx="14" cy="153" r="4" fill="#800080" />
  <circle cx="20" cy="77" r="4" fill="#800080" />
  <circle cx="20" cy="167" r="4" fill="#800080" />
  <circle cx="22" cy="62" r="4" fill="#800080" />
  <circle cx="24" cy="151" r="4" fill="#800080" />
  <circle cx="30" cy="161" r="4" fill="#800080" />
  <circle cx="31" cy="50" r="4" fill="#800080" />
  <circle cx="32" cy="77" r="4" fill="#800080" />
  <circle cx="32" cy="178" r="4" fill="#800080" />
  <circle cx="33" cy="66" r="4" fill="#800080" />
  <circle cx="35" cy="88" r="4" fill="#800080" />
  <circle cx="37" cy="105" r="4" fill="#800080" />
  <circle cx="38" cy="169" r="4" fill="#800080" />
  <circle cx="43" cy="96" r="4" fill="#800080" />
  <circle cx="46" cy="43" r="4" fill="#800080" />
  <circle cx="49" cy="51" r="4" fill="#800080" />
  <circle cx="56" cy="101" r="4" fill="#800080" />
  <circle cx="95" cy="125" r="4" fill="#800080" />
  <circle cx="95" cy="171" r="4" fill="#800080" />
  <circle cx="96" cy="59" r="4" fill="#800080" />
  <circle cx="98" cy="179" r="4" fill="#800080" />
  <circle cx="103" cy="162" r="4" fill="#800080" />
  <circle cx="104" cy="134" r="4" fill="#800080" />
  <circle cx="111" cy="168" r="4" fill="#800080" />
  <circle cx="119" cy="156" r="4" fill="#800080" />
  <circle cx="64" cy="103" r="4" fill="#800080" />
  <circle cx="15" cy="160" r="4" fill="#800080" />
  <circle cx="19" cy="69" r="4" fill="#800080" />
  <circle cx="20" cy="84" r="4" fill="#800080" />
  <circle cx="38" cy="57" r="4" fill="#800080" />
  <circle cx="44" cy="184" r="4" fill="#800080" />
  <circle cx="48" cy="174" r="4" fill="#800080" />
  <circle cx="50" cy="111" r="4" fill="#800080" />
  <circle cx="58" cy="186" r="4" fill="#800080" />
  <circle cx="64" cy="49" r="4" fill="#800080" />
  <circle cx="71" cy="117" r="4" fill="#800080" />
  <circle cx="71" cy="176" r="4" fill="#800080" />
  <circle cx="71" cy="186" r="4" fill="#800080" />
  <circle cx="76" cy="106" r="4" fill="#800080" />
  <circle cx="79" cy="119" r="4" fill="#800080" />
  <circle cx="82" cy="51" r="4" fill="#800080" />
  <circle cx="82" cy="175" r="4" fill="#800080" />
  <circle cx="84" cy="183" r="4" fill="#800080" />
  <circle cx="88" cy="109" r="4" fill="#800080" />
  <circle cx="94" cy="44" r="4" fill="#800080" />
  <circle cx="106" cy="141" r="4" fill="#800080" />
  <circle cx="108" cy="119" r="4" fill="#800080" />
  <circle cx="112" cy="59" r="4" fill="#800080" />
  <circle cx="120" cy="137" r="4" fill="#800080" />
</svg>
