<?xml version="1.0"?>
<svg width="135" height="256">
  <circle cx="35" cy="110" r="4" fill="#800080" />
  <circle cx="32" cy="97" r="4" fill="#800080" />
  <circle cx="93" cy="134" r="4" fill="#800080" />
  <circle cx="104" cy="143" r="4" fill="#800080" />
  <circle cx="107" cy="156" r="4" fill="#800080" />
  <circle cx="45" cy="119" r="4" fill="#800080" />
  <circle cx="30" cy="167" r="4" fill="#800080" />
  <circle cx="37" cy="84" r="4" fill="#800080" />
  <circle cx="57" cy="123" r="4" fill="#800080" />
  <circle cx="69" cy="126" r="4" fill="#800080" />
  <circle cx="81" cy="129" r="4" fill="#800080" />
  <circle cx="98" cy="83" r="4" fill="#800080" />
  <circle cx="102" cy="170" r="4" fill="#800080" />
  <circle cx="40" cy="177" r="4" fill="#800080" />
  <circle cx="47" cy="77" r="4" fill="#800080" />
  <circle cx="51" cy="181" r="4" fill="#800080" />
  <circle cx="58" cy="74" r="4" fill="#800080" />
  <circle cx="62" cy="182" r="4" fill="#800080" />
  <circle cx="69" cy="73" r="4" fill="#800080" />
  <circle cx="73" cy="182" r="4" fill="#800080" />
  <circle cx="80" cy="75" r="4" fill="#800080" />
  <circle cx="84" cy="181" r="4" fill="#800080" />
  <circle cx="94" cy="177" r="4" fill="#800080" />
  <circle cx="90" cy="76" r="4" fill="#800080" />
  <circle cx="106" cy="90" r="4" fill="#800080" />
  <circle cx="36" cy="119" r="4" fill="#800080" />
  <circle cx="27" cy="104" r="4" fill="#800080" />
  <circle cx="29" cy="89" r="4" fill="#800080" />
  <circle cx="30" cy="175" r="4" fill="#800080" />
  <circle cx="43" cy="111" r="4" fill="#800080" />
  <circle cx="95" cy="142" r="4" fill="#800080" />
  <circle cx="98" cy="91" r="4" fill="#800080" />
  <circle cx="101" cy="133" r="4" fill="#800080" />
  <circle cx="101" cy="162" r="4" fill="#800080" />
  <circle cx="109" cy="164" r="4" fill="#800080" />
  <circle cx="111" cy="148" r="4" fill="#800080" />
  <circle cx="23" cy="163" r="4" fill="#800080" />
  <circle cx="28" cy="111" r="4" fill="#800080" />
  <circle cx="37" cy="91" r="4" fill="#800080" />
  <circle cx="37" cy="103" r="4" fill="#800080" />
  <circle cx="37" cy="168" r="4" fill="#800080" />
  <circle cx="38" cy="77" r="4" fill="#800080" />
  <circle cx="44" cy="84" r="4" fill="#800080" />
  <circle cx="46" cy="126" r="4" fill="#800080" />
  <circle cx="52" cy="116" r="4" fill="#800080" />
  <circle cx="59" cy="130" r="4" fill="#800080" />
  <circle cx="64" cy="119" r="4" fill="#800080" />
  <circle cx="70" cy="133" r="4" fill="#800080" />
  <circle cx="76" cy="122" r="4" fill="#800080" />
  <circle cx="81" cy="136" r="4" fill="#800080" />
  <circle cx="88" cy="126" r="4" fill="#800080" />
  <circle cx="91" cy="83" r="4" fill="#800080" />
  <circle cx="97" cy="76" r="4" fill="#800080" />
  <circle cx="100" cy="150" r="4" fill="#800080" />
  <circle cx="101" cy="177" r="4" fill="#800080" />
  <circle cx="105" cy="83" r="4" fill="#800080" />
</svg>
