<?xml version="1.0"?>
<svg width="135" height="256">
  <circle cx="49" cy="76" r="4" fill="#800080" />
  <circle cx="51" cy="168" r="4" fill="#800080" />
  <circle cx="49" cy="90" r="4" fill="#800080" />
  <circle cx="49" cy="104" r="4" fill="#800080" />
  <circle cx="49" cy="118" r="4" fill="#800080" />
  <circle cx="49" cy="132" r="4" fill="#800080" />
  <circle cx="49" cy="146" r="4" fill="#800080" />
  <circle cx="50" cy="61" r="4" fill="#800080" />
  <circle cx="61" cy="178" r="4" fill="#800080" />
  <circle cx="28" cy="76" r="4" fill="#800080" />
  <circle cx="61" cy="76" r="4" fill="#800080" />
  <circle cx="73" cy="76" r="4" fill="#800080" />
  <circle cx="73" cy="181" r="4" fill="#800080" />
  <circle cx="85" cy="76" r="4" fill="#800080" />
  <circle cx="89" cy="180" r="4" fill="#800080" />
  <circle cx="97" cy="76" r="4" fill="#800080" />
  <circle cx="51" cy="49" r="4" fill="#800080" />
  <circle cx="46" cy="157" r="4" fill="#800080" />
  <circle cx="100" cy="178" r="4" fill="#800080" />
  <circle cx="38" cy="74" r="4" fill="#800080" />
  <circle cx="51" cy="177" r="4" fill="#800080" />
  <circle cx="43" cy="83" r="4" fill="#800080" />
  <circle cx="43" cy="96" r="4" fill="#800080" />
  <circle cx="43" cy="110" r="4" fill="#800080" />
  <circle cx="43" cy="124" r="4" fill="#800080" />
  <circle cx="43" cy="138" r="4" fill="#800080" />
  <circle cx="44" cy="67" r="4" fill="#800080" />
  <circle cx="49" cy="41" r="4" fill="#800080" />
  <circle cx="54" cy="69" r="4" fill="#800080" />
  <circle cx="54" cy="83" r="4" fill="#800080" />
  <circle cx="54" cy="97" r="4" fill="#800080" />
  <circle cx="54" cy="111" r="4" fill="#800080" />
  <circle cx="54" cy="125" r="4" fill="#800080" />
  <circle cx="54" cy="139" r="4" fill="#800080" />
  <circle cx="54" cy="153" r="4" fill="#800080" />
  <circle cx="59" cy="170" r="4" fill="#800080" />
  <circle cx="81" cy="177" r="4" fill="#800080" />
  <circle cx="81" cy="185" r="4" fill="#800080" />
  <circle cx="108" cy="174" r="4" fill="#800080" />
  <circle cx="55" cy="161" r="4" fill="#800080" />
  <circle cx="34" cy="81" r="4" fill="#800080" />
  <circle cx="42" cy="103" r="4" fill="#800080" />
  <circle cx="42" cy="117" r="4" fill="#800080" />
  <circle cx="42" cy="131" r="4" fill="#800080" />
  <circle cx="42" cy="145" r="4" fill="#800080" />
  <circle cx="43" cy="164" r="4" fill="#800080" />
  <circle cx="45" cy="54" r="4" fill="#800080" />
  <circle cx="56" cy="40" r="4" fill="#800080" />
  <circle cx="56" cy="55" r="4" fill="#800080" />
  <circle cx="56" cy="90" r="4" fill="#800080" />
  <circle cx="56" cy="104" r="4" fill="#800080" />
  <circle cx="56" cy="118" r="4" fill="#800080" />
  <circle cx="56" cy="132" r="4" fill="#800080" />
  <circle cx="56" cy="146" r="4" fill="#800080" />
  <circle cx="62" cy="185" r="4" fill="#800080" />
  <circle cx="67" cy="71" r="4" fill="#800080" />
  <circle cx="67" cy="81" r="4" fill="#800080" />
  <circle cx="68" cy="175" r="4" fill="#800080" />
  <circle cx="79" cy="71" r="4" fill="#800080" />
  <circle cx="79" cy="81" r="4" fill="#800080" />
  <circle cx="91" cy="71" r="4" fill="#800080" />
  <circle cx="91" cy="81" r="4" fill="#800080" />
  <circle cx="103" cy="71" r="4" fill="#800080" />
  <circle cx="103" cy="81" r="4" fill="#800080" />
  <circle cx="107" cy="181" r="4" fill="#800080" />
</svg>
