<?xml version="1.0"?>
<svg width="135" height="256">
  <circle cx="67" cy="51" r="4" fill="#800080" />
  <circle cx="67" cy="65" r="4" fill="#800080" />
  <circle cx="67" cy="79" r="4" fill="#800080" />
  <circle cx="67" cy="93" r="4" fill="#800080" />
  <circle cx="67" cy="107" r="4" fill="#800080" />
  <circle cx="67" cy="121" r="4" fill="#800080" />
  <circle cx="67" cy="135" r="4" fill="#800080" />
  <circle cx="67" cy="149" r="4" fill="#800080" />
  <circle cx="67" cy="163" r="4" fill="#800080" />
  <circle cx="67" cy="177" r="4" fill="#800080" />
  <circle cx="16" cy="47" r="4" fill="#800080" />
  <circle cx="28" cy="47" r="4" fill="#800080" />
  <circle cx="40" cy="47" r="4" fill="#800080" />
  <circle cx="52" cy="47" r="4" fill="#800080" />
  <circle cx="79" cy="47" r="4" fill="#800080" />
  <circle cx="91" cy="47" r="4" fill="#800080" />
  <circle cx="103" cy="47" r="4" fill="#800080" />
  <circle cx="115" cy="47" r="4" fill="#800080" />
  <circle cx="61" cy="44" r="4" fill="#800080" />
  <circle cx="59" cy="52" r="4" fill="#800080" />
  <circle cx="61" cy="71" r="4" fill="#800080" />
  <circle cx="61" cy="85" r="4" fill="#800080" />
  <circle cx="61" cy="99" r="4" fill="#800080" />
  <circle cx="61" cy="113" r="4" fill="#800080" />
  <circle cx="61" cy="127" r="4" fill="#800080" />
  <circle cx="61" cy="141" r="4" fill="#800080" />
  <circle cx="61" cy="155" r="4" fill="#800080" />
  <circle cx="61" cy="169" r="4" fill="#800080" />
  <circle cx="61" cy="183" r="4" fill="#800080" />
  <circle cx="69" cy="43" r="4" fill="#800080" />
  <circle cx="72" cy="58" r="4" fill="#800080" />
  <circle cx="72" cy="72" r="4" fill="#800080" />
  <circle cx="72" cy="86" r="4" fill="#800080" />
  <circle cx="72" cy="100" r="4" fill="#800080" />
  <circle cx="72" cy="114" r="4" fill="#800080" />
  <circle cx="72" cy="128" r="4" fill="#800080" />
  <circle cx="72" cy="142" r="4" fill="#800080" />
  <circle cx="72" cy="156" r="4" fill="#800080" />
  <circle cx="72" cy="170" r="4" fill="#800080" />
  <circle cx="73" cy="183" r="4" fill="#800080" />
  <circle cx="122" cy="52" r="4" fill="#800080" />
  <circle cx="123" cy="43" r="4" fill="#800080" />
  <circle cx="22" cy="52" r="4" fill="#800080" />
  <circle cx="11" cy="53" r="4" fill="#800080" />
  <circle cx="22" cy="42" r="4" fill="#800080" />
  <circle cx="33" cy="53" r="4" fill="#800080" />
  <circle cx="34" cy="42" r="4" fill="#800080" />
  <circle cx="45" cy="53" r="4" fill="#800080" />
  <circle cx="46" cy="42" r="4" fill="#800080" />
  <circle cx="60" cy="59" r="4" fill="#800080" />
  <circle cx="60" cy="78" r="4" fill="#800080" />
  <circle cx="60" cy="92" r="4" fill="#800080" />
  <circle cx="60" cy="106" r="4" fill="#800080" />
  <circle cx="60" cy="120" r="4" fill="#800080" />
  <circle cx="60" cy="134" r="4" fill="#800080" />
  <circle cx="60" cy="148" r="4" fill="#800080" />
  <circle cx="60" cy="162" r="4" fill="#800080" />
  <circle cx="60" cy="176" r="4" fill="#800080" />
  <circle cx="74" cy="65" r="4" fill="#800080" />
  <circle cx="74" cy="79" r="4" fill="#800080" />
  <circle cx="74" cy="93" r="4" fill="#800080" />
  <circle cx="74" cy="107" r="4" fill="#800080" />
  <circle cx="74" cy="121" r="4" fill="#800080" />
  <circle cx="74" cy="135" r="4" fill="#800080" />
  <circle cx="74" cy="149" r="4" fill="#800080" />
  <circle cx="74" cy="163" r="4" fill="#800080" />
  <circle cx="84" cy="53" r="4" fill="#800080" />
  <circle cx="85" cy="42" r="4" fill="#800080" />
  <circle cx="96" cy="53" r="4" fill="#800080" />
  <circle cx="97" cy="42" r="4" fill="#800080" />
  <circle cx="108" cy="53" r="4" fill="#800080" />
  <circle cx="109" cy="42" r="4" fill="#800080" />
</svg>
