<?xml version="1.0"?>
<svg width="135" height="256">
  <circle cx="103" cy="160" r="4" fill="#800080" />
  <circle cx="34" cy="169" r="4" fill="#800080" />
  <circle cx="30" cy="78" r="4" fill="#800080" />
  <circle cx="30" cy="92" r="4" fill="#800080" />
  <circle cx="30" cy="106" r="4" fill="#800080" />
  <circle cx="30" cy="120" r="4" fill="#800080" />
  <circle cx="30" cy="134" r="4" fill="#800080" />
  <circle cx="30" cy="148" r="4" fill="#800080" />
  <circle cx="105" cy="78" r="4" fill="#800080" />
  <circle cx="105" cy="92" r="4" fill="#800080" />
  <circle cx="105" cy="106" r="4" fill="#800080" />
  <circle cx="105" cy="120" r="4" fill="#800080" />
  <circle cx="105" cy="134" r="4" fill="#800080" />
  <circle cx="104" cy="147" r="4" fill="#800080" />
  <circle cx="106" cy="173" r="4" fill="#800080" />
  <circle cx="45" cy="179" r="4" fill="#800080" />
  <circle cx="58" cy="182" r="4" fill="#800080" />
  <circle cx="28" cy="159" r="4" fill="#800080" />
  <circle cx="69" cy="181" r="4" fill="#800080" />
  <circle cx="79" cy="178" r="4" fill="#800080" />
  <circle cx="94" cy="164" r="4" fill="#800080" />
  <circle cx="35" cy="178" r="4" fill="#800080" />
  <circle cx="102" cy="182" r="4" fill="#800080" />
  <circle cx="86" cy="172" r="4" fill="#800080" />
  <circle cx="24" cy="72" r="4" fill="#800080" />
  <circle cx="24" cy="84" r="4" fill="#800080" />
  <circle cx="24" cy="98" r="4" fill="#800080" />
  <circle cx="24" cy="112" r="4" fill="#800080" />
  <circle cx="24" cy="126" r="4" fill="#800080" />
  <circle cx="24" cy="140" r="4" fill="#800080" />
  <circle cx="35" cy="85" r="4" fill="#800080" />
  <circle cx="35" cy="99" r="4" fill="#800080" />
  <circle cx="35" cy="113" r="4" fill="#800080" />
  <circle cx="35" cy="127" r="4" fill="#800080" />
  <circle cx="35" cy="141" r="4" fill="#800080" />
  <circle cx="36" cy="72" r="4" fill="#800080" />
  <circle cx="36" cy="154" r="4" fill="#800080" />
  <circle cx="42" cy="170" r="4" fill="#800080" />
  <circle cx="97" cy="154" r="4" fill="#800080" />
  <circle cx="99" cy="72" r="4" fill="#800080" />
  <circle cx="99" cy="84" r="4" fill="#800080" />
  <circle cx="99" cy="98" r="4" fill="#800080" />
  <circle cx="99" cy="112" r="4" fill="#800080" />
  <circle cx="99" cy="126" r="4" fill="#800080" />
  <circle cx="99" cy="140" r="4" fill="#800080" />
  <circle cx="109" cy="154" r="4" fill="#800080" />
  <circle cx="110" cy="85" r="4" fill="#800080" />
  <circle cx="110" cy="99" r="4" fill="#800080" />
  <circle cx="110" cy="113" r="4" fill="#800080" />
  <circle cx="110" cy="127" r="4" fill="#800080" />
  <circle cx="110" cy="141" r="4" fill="#800080" />
  <circle cx="110" cy="165" r="4" fill="#800080" />
  <circle cx="110" cy="181" r="4" fill="#800080" />
  <circle cx="111" cy="72" r="4" fill="#800080" />
  <circle cx="26" cy="167" r="4" fill="#800080" />
  <circle cx="23" cy="91" r="4" fill="#800080" />
  <circle cx="23" cy="105" r="4" fill="#800080" />
  <circle cx="23" cy="119" r="4" fill="#800080" />
  <circle cx="23" cy="133" r="4" fill="#800080" />
  <circle cx="23" cy="147" r="4" fill="#800080" />
  <circle cx="35" cy="161" r="4" fill="#800080" />
  <circle cx="37" cy="92" r="4" fill="#800080" />
  <circle cx="37" cy="106" r="4" fill="#800080" />
  <circle cx="37" cy="120" r="4" fill="#800080" />
  <circle cx="37" cy="134" r="4" fill="#800080" />
  <circle cx="48" cy="186" r="4" fill="#800080" />
  <circle cx="52" cy="176" r="4" fill="#800080" />
  <circle cx="98" cy="91" r="4" fill="#800080" />
  <circle cx="98" cy="105" r="4" fill="#800080" />
  <circle cx="98" cy="119" r="4" fill="#800080" />
  <circle cx="98" cy="133" r="4" fill="#800080" />
  <circle cx="99" cy="170" r="4" fill="#800080" />
  <circle cx="112" cy="92" r="4" fill="#800080" />
  <circle cx="112" cy="106" r="4" fill="#800080" />
  <circle cx="112" cy="120" r="4" fill="#800080" />
  <circle cx="112" cy="134" r="4" fill="#800080" />
</svg>
