<?xml version="1.0"?>
<svg width="135" height="256">
  <circle cx="27" cy="150" r="4" fill="#800080" />
  <circle cx="25" cy="49" r="4" fill="#800080" />
  <circle cx="25" cy="63" r="4" fill="#800080" />
  <circle cx="25" cy="77" r="4" fill="#800080" />
  <circle cx="25" cy="91" r="4" fill="#800080" />
  <circle cx="25" cy="105" r="4" fill="#800080" />
  <circle cx="25" cy="119" r="4" fill="#800080" />
  <circle cx="25" cy="133" r="4" fill="#800080" />
  <circle cx="31" cy="164" r="4" fill="#800080" />
  <circle cx="102" cy="165" r="4" fill="#800080" />
  <circle cx="107" cy="148" r="4" fill="#800080" />
  <circle cx="108" cy="49" r="4" fill="#800080" />
  <circle cx="108" cy="63" r="4" fill="#800080" />
  <circle cx="108" cy="77" r="4" fill="#800080" />
  <circle cx="108" cy="91" r="4" fill="#800080" />
  <circle cx="108" cy="105" r="4" fill="#800080" />
  <circle cx="108" cy="119" r="4" fill="#800080" />
  <circle cx="108" cy="133" r="4" fill="#800080" />
  <circle cx="41" cy="175" r="4" fill="#800080" />
  <circle cx="92" cy="175" r="4" fill="#800080" />
  <circle cx="54" cy="180" r="4" fill="#800080" />
  <circle cx="66" cy="181" r="4" fill="#800080" />
  <circle cx="78" cy="180" r="4" fill="#800080" />
  <circle cx="110" cy="158" r="4" fill="#800080" />
  <circle cx="21" cy="142" r="4" fill="#800080" />
  <circle cx="31" cy="141" r="4" fill="#800080" />
  <circle cx="31" cy="173" r="4" fill="#800080" />
  <circle cx="101" cy="156" r="4" fill="#800080" />
  <circle cx="101" cy="174" r="4" fill="#800080" />
  <circle cx="114" cy="141" r="4" fill="#800080" />
  <circle cx="23" cy="159" r="4" fill="#800080" />
  <circle cx="19" cy="43" r="4" fill="#800080" />
  <circle cx="19" cy="55" r="4" fill="#800080" />
  <circle cx="19" cy="69" r="4" fill="#800080" />
  <circle cx="19" cy="83" r="4" fill="#800080" />
  <circle cx="19" cy="97" r="4" fill="#800080" />
  <circle cx="19" cy="111" r="4" fill="#800080" />
  <circle cx="19" cy="125" r="4" fill="#800080" />
  <circle cx="30" cy="56" r="4" fill="#800080" />
  <circle cx="30" cy="70" r="4" fill="#800080" />
  <circle cx="30" cy="84" r="4" fill="#800080" />
  <circle cx="30" cy="98" r="4" fill="#800080" />
  <circle cx="30" cy="112" r="4" fill="#800080" />
  <circle cx="30" cy="126" r="4" fill="#800080" />
  <circle cx="31" cy="43" r="4" fill="#800080" />
  <circle cx="33" cy="156" r="4" fill="#800080" />
  <circle cx="39" cy="166" r="4" fill="#800080" />
  <circle cx="45" cy="183" r="4" fill="#800080" />
  <circle cx="84" cy="174" r="4" fill="#800080" />
  <circle cx="86" cy="182" r="4" fill="#800080" />
  <circle cx="93" cy="167" r="4" fill="#800080" />
  <circle cx="102" cy="43" r="4" fill="#800080" />
  <circle cx="102" cy="55" r="4" fill="#800080" />
  <circle cx="102" cy="69" r="4" fill="#800080" />
  <circle cx="102" cy="83" r="4" fill="#800080" />
  <circle cx="102" cy="97" r="4" fill="#800080" />
  <circle cx="102" cy="111" r="4" fill="#800080" />
  <circle cx="102" cy="125" r="4" fill="#800080" />
  <circle cx="102" cy="139" r="4" fill="#800080" />
  <circle cx="113" cy="56" r="4" fill="#800080" />
  <circle cx="113" cy="70" r="4" fill="#800080" />
  <circle cx="113" cy="84" r="4" fill="#800080" />
  <circle cx="113" cy="98" r="4" fill="#800080" />
  <circle cx="113" cy="112" r="4" fill="#800080" />
  <circle cx="113" cy="126" r="4" fill="#800080" />
  <circle cx="114" cy="43" r="4" fill="#800080" />
  <circle cx="49" cy="173" r="4" fill="#800080" />
  <circle cx="18" cy="62" r="4" fill="#800080" />
  <circle cx="18" cy="76" r="4" fill="#800080" />
  <circle cx="18" cy="90" r="4" fill="#800080" />
  <circle cx="18" cy="104" r="4" fill="#800080" />
  <circle cx="18" cy="118" r="4" fill="#800080" />
  <circle cx="18" cy="132" r="4" fill="#800080" />
  <circle cx="19" cy="149" r="4" fill="#800080" />
  <circle cx="24" cy="166" r="4" fill="#800080" />
  <circle cx="32" cy="63" r="4" fill="#800080" />
  <circle cx="32" cy="77" r="4" fill="#800080" />
  <circle cx="32" cy="91" r="4" fill="#800080" />
  <circle cx="32" cy="105" r="4" fill="#800080" />
  <circle cx="32" cy="119" r="4" fill="#800080" />
  <circle cx="32" cy="133" r="4" fill="#800080" />
  <circle cx="34" cy="148" r="4" fill="#800080" />
  <circle cx="59" cy="186" r="4" fill="#800080" />
  <circle cx="60" cy="175" r="4" fill="#800080" />
  <circle cx="71" cy="175" r="4" fill="#800080" />
  <circle cx="72" cy="186" r="4" fill="#800080" />
  <circle cx="100" cy="146" r="4" fill="#800080" />
  <circle cx="101" cy="62" r="4" fill="#800080" />
  <circle cx="101" cy="76" r="4" fill="#800080" />
  <circle cx="101" cy="90" r="4" fill="#800080" />
  <circle cx="101" cy="104" r="4" fill="#800080" />
  <circle cx="101" cy="118" r="4" fill="#800080" />
  <circle cx="101" cy="132" r="4" fill="#800080" />
  <circle cx="109" cy="165" r="4" fill="#800080" />
  <circle cx="114" cy="148" r="4" fill="#800080" />
  <circle cx="115" cy="63" r="4" fill="#800080" />
  <circle cx="115" cy="77" r="4" fill="#800080" />
  <circle cx="115" cy="91" r="4" fill="#800080" />
  <circle cx="115" cy="105" r="4" fill="#800080" />
  <circle cx="115" cy="119" r="4" fill="#800080" />
  <circle cx="115" cy="133" r="4" fill="#800080" />
</svg>
