<?xml version="1.0"?>
<svg width="135" height="256">
  <circle cx="71" cy="176" r="4" fill="#800080" />
  <circle cx="16" cy="50" r="4" fill="#800080" />
  <circle cx="115" cy="60" r="4" fill="#800080" />
  <circle cx="21" cy="64" r="4" fill="#800080" />
  <circle cx="25" cy="77" r="4" fill="#800080" />
  <circle cx="30" cy="90" r="4" fill="#800080" />
  <circle cx="35" cy="103" r="4" fill="#800080" />
  <circle cx="40" cy="116" r="4" fill="#800080" />
  <circle cx="45" cy="129" r="4" fill="#800080" />
  <circle cx="50" cy="143" r="4" fill="#800080" />
  <circle cx="86" cy="140" r="4" fill="#800080" />
  <circle cx="91" cy="126" r="4" fill="#800080" />
  <circle cx="96" cy="111" r="4" fill="#800080" />
  <circle cx="101" cy="97" r="4" fill="#800080" />
  <circle cx="106" cy="83" r="4" fill="#800080" />
  <circle cx="55" cy="158" r="4" fill="#800080" />
  <circle cx="59" cy="170" r="4" fill="#800080" />
  <circle cx="78" cy="162" r="4" fill="#800080" />
  <circle cx="118" cy="47" r="4" fill="#800080" />
  <circle cx="109" cy="71" r="4" fill="#800080" />
  <circle cx="80" cy="151" r="4" fill="#800080" />
  <circle cx="60" cy="180" r="4" fill="#800080" />
  <circle cx="8" cy="44" r="4" fill="#800080" />
  <circle cx="12" cy="58" r="4" fill="#800080" />
  <circle cx="18" cy="72" r="4" fill="#800080" />
  <circle cx="22" cy="56" r="4" fill="#800080" />
  <circle cx="23" cy="85" r="4" fill="#800080" />
  <circle cx="27" cy="98" r="4" fill="#800080" />
  <circle cx="28" cy="69" r="4" fill="#800080" />
  <circle cx="32" cy="82" r="4" fill="#800080" />
  <circle cx="32" cy="111" r="4" fill="#800080" />
  <circle cx="37" cy="95" r="4" fill="#800080" />
  <circle cx="37" cy="124" r="4" fill="#800080" />
  <circle cx="42" cy="108" r="4" fill="#800080" />
  <circle cx="42" cy="137" r="4" fill="#800080" />
  <circle cx="47" cy="121" r="4" fill="#800080" />
  <circle cx="47" cy="151" r="4" fill="#800080" />
  <circle cx="51" cy="135" r="4" fill="#800080" />
  <circle cx="55" cy="150" r="4" fill="#800080" />
  <circle cx="71" cy="168" r="4" fill="#800080" />
  <circle cx="79" cy="170" r="4" fill="#800080" />
  <circle cx="83" cy="132" r="4" fill="#800080" />
  <circle cx="88" cy="118" r="4" fill="#800080" />
  <circle cx="88" cy="148" r="4" fill="#800080" />
  <circle cx="92" cy="134" r="4" fill="#800080" />
  <circle cx="94" cy="102" r="4" fill="#800080" />
  <circle cx="96" cy="119" r="4" fill="#800080" />
  <circle cx="99" cy="88" r="4" fill="#800080" />
  <circle cx="102" cy="105" r="4" fill="#800080" />
  <circle cx="107" cy="91" r="4" fill="#800080" />
  <circle cx="114" cy="78" r="4" fill="#800080" />
  <circle cx="117" cy="68" r="4" fill="#800080" />
  <circle cx="122" cy="55" r="4" fill="#800080" />
  <circle cx="126" cy="43" r="4" fill="#800080" />
  <circle cx="20" cy="43" r="4" fill="#800080" />
  <circle cx="9" cy="51" r="4" fill="#800080" />
  <circle cx="14" cy="65" r="4" fill="#800080" />
  <circle cx="37" cy="88" r="4" fill="#800080" />
  <circle cx="52" cy="165" r="4" fill="#800080" />
  <circle cx="61" cy="163" r="4" fill="#800080" />
  <circle cx="67" cy="183" r="4" fill="#800080" />
  <circle cx="74" cy="183" r="4" fill="#800080" />
  <circle cx="78" cy="144" r="4" fill="#800080" />
  <circle cx="79" cy="177" r="4" fill="#800080" />
  <circle cx="85" cy="157" r="4" fill="#800080" />
  <circle cx="98" cy="126" r="4" fill="#800080" />
  <circle cx="102" cy="75" r="4" fill="#800080" />
  <circle cx="103" cy="112" r="4" fill="#800080" />
  <circle cx="106" cy="64" r="4" fill="#800080" />
  <circle cx="108" cy="98" r="4" fill="#800080" />
  <circle cx="110" cy="53" r="4" fill="#800080" />
  <circle cx="113" cy="85" r="4" fill="#800080" />
  <circle cx="122" cy="62" r="4" fill="#800080" />
</svg>
