<?xml version="1.0"?>
<svg width="135" height="256">
  <circle cx="23" cy="80" r="4" fill="#800080" />
  <circle cx="29" cy="95" r="4" fill="#800080" />
  <circle cx="34" cy="108" r="4" fill="#800080" />
  <circle cx="39" cy="121" r="4" fill="#800080" />
  <circle cx="44" cy="134" r="4" fill="#800080" />
  <circle cx="49" cy="147" r="4" fill="#800080" />
  <circle cx="61" cy="176" r="4" fill="#800080" />
  <circle cx="82" cy="154" r="4" fill="#800080" />
  <circle cx="87" cy="141" r="4" fill="#800080" />
  <circle cx="92" cy="128" r="4" fill="#800080" />
  <circle cx="97" cy="115" r="4" fill="#800080" />
  <circle cx="102" cy="102" r="4" fill="#800080" />
  <circle cx="107" cy="89" r="4" fill="#800080" />
  <circle cx="54" cy="161" r="4" fill="#800080" />
  <circle cx="73" cy="175" r="4" fill="#800080" />
  <circle cx="111" cy="77" r="4" fill="#800080" />
  <circle cx="79" cy="165" r="4" fill="#800080" />
  <circle cx="15" cy="73" r="4" fill="#800080" />
  <circle cx="21" cy="89" r="4" fill="#800080" />
  <circle cx="23" cy="72" r="4" fill="#800080" />
  <circle cx="26" cy="103" r="4" fill="#800080" />
  <circle cx="29" cy="86" r="4" fill="#800080" />
  <circle cx="31" cy="116" r="4" fill="#800080" />
  <circle cx="36" cy="100" r="4" fill="#800080" />
  <circle cx="36" cy="129" r="4" fill="#800080" />
  <circle cx="41" cy="113" r="4" fill="#800080" />
  <circle cx="41" cy="142" r="4" fill="#800080" />
  <circle cx="46" cy="126" r="4" fill="#800080" />
  <circle cx="47" cy="155" r="4" fill="#800080" />
  <circle cx="51" cy="139" r="4" fill="#800080" />
  <circle cx="52" cy="169" r="4" fill="#800080" />
  <circle cx="55" cy="153" r="4" fill="#800080" />
  <circle cx="60" cy="167" r="4" fill="#800080" />
  <circle cx="66" cy="183" r="4" fill="#800080" />
  <circle cx="74" cy="183" r="4" fill="#800080" />
  <circle cx="79" cy="146" r="4" fill="#800080" />
  <circle cx="84" cy="133" r="4" fill="#800080" />
  <circle cx="89" cy="149" r="4" fill="#800080" />
  <circle cx="90" cy="120" r="4" fill="#800080" />
  <circle cx="94" cy="136" r="4" fill="#800080" />
  <circle cx="95" cy="107" r="4" fill="#800080" />
  <circle cx="99" cy="123" r="4" fill="#800080" />
  <circle cx="100" cy="94" r="4" fill="#800080" />
  <circle cx="104" cy="110" r="4" fill="#800080" />
  <circle cx="109" cy="97" r="4" fill="#800080" />
  <circle cx="115" cy="85" r="4" fill="#800080" />
  <circle cx="118" cy="72" r="4" fill="#800080" />
  <circle cx="57" cy="183" r="4" fill="#800080" />
  <circle cx="16" cy="80" r="4" fill="#800080" />
  <circle cx="22" cy="96" r="4" fill="#800080" />
  <circle cx="30" cy="78" r="4" fill="#800080" />
  <circle cx="54" cy="176" r="4" fill="#800080" />
  <circle cx="71" cy="168" r="4" fill="#800080" />
  <circle cx="74" cy="158" r="4" fill="#800080" />
  <circle cx="80" cy="172" r="4" fill="#800080" />
  <circle cx="86" cy="161" r="4" fill="#800080" />
  <circle cx="103" cy="82" r="4" fill="#800080" />
  <circle cx="104" cy="117" r="4" fill="#800080" />
  <circle cx="109" cy="104" r="4" fill="#800080" />
</svg>
