<?xml version="1.0"?>
<svg width="135" height="256">
  <circle cx="31" cy="176" r="4" fill="#800080" />
  <circle cx="97" cy="177" r="4" fill="#800080" />
  <circle cx="14" cy="83" r="4" fill="#800080" />
  <circle cx="16" cy="96" r="4" fill="#800080" />
  <circle cx="18" cy="109" r="4" fill="#800080" />
  <circle cx="21" cy="125" r="4" fill="#800080" />
  <circle cx="23" cy="138" r="4" fill="#800080" />
  <circle cx="110" cy="145" r="4" fill="#800080" />
  <circle cx="112" cy="132" r="4" fill="#800080" />
  <circle cx="115" cy="114" r="4" fill="#800080" />
  <circle cx="118" cy="96" r="4" fill="#800080" />
  <circle cx="121" cy="78" r="4" fill="#800080" />
  <circle cx="25" cy="152" r="4" fill="#800080" />
  <circle cx="27" cy="164" r="4" fill="#800080" />
  <circle cx="107" cy="161" r="4" fill="#800080" />
  <circle cx="63" cy="109" r="4" fill="#800080" />
  <circle cx="45" cy="162" r="4" fill="#800080" />
  <circle cx="48" cy="151" r="4" fill="#800080" />
  <circle cx="52" cy="139" r="4" fill="#800080" />
  <circle cx="56" cy="126" r="4" fill="#800080" />
  <circle cx="74" cy="112" r="4" fill="#800080" />
  <circle cx="78" cy="125" r="4" fill="#800080" />
  <circle cx="81" cy="136" r="4" fill="#800080" />
  <circle cx="85" cy="148" r="4" fill="#800080" />
  <circle cx="88" cy="159" r="4" fill="#800080" />
  <circle cx="107" cy="172" r="4" fill="#800080" />
  <circle cx="41" cy="172" r="4" fill="#800080" />
  <circle cx="90" cy="169" r="4" fill="#800080" />
  <circle cx="9" cy="74" r="4" fill="#800080" />
  <circle cx="39" cy="182" r="4" fill="#800080" />
  <circle cx="57" cy="117" r="4" fill="#800080" />
  <circle cx="106" cy="181" r="4" fill="#800080" />
  <circle cx="110" cy="123" r="4" fill="#800080" />
  <circle cx="113" cy="105" r="4" fill="#800080" />
  <circle cx="116" cy="87" r="4" fill="#800080" />
  <circle cx="24" cy="116" r="4" fill="#800080" />
  <circle cx="14" cy="117" r="4" fill="#800080" />
  <circle cx="17" cy="72" r="4" fill="#800080" />
  <circle cx="19" cy="146" r="4" fill="#800080" />
  <circle cx="25" cy="182" r="4" fill="#800080" />
  <circle cx="29" cy="144" r="4" fill="#800080" />
  <circle cx="104" cy="151" r="4" fill="#800080" />
  <circle cx="112" cy="153" r="4" fill="#800080" />
  <circle cx="118" cy="122" r="4" fill="#800080" />
  <circle cx="121" cy="104" r="4" fill="#800080" />
  <circle cx="124" cy="86" r="4" fill="#800080" />
  <circle cx="127" cy="72" r="4" fill="#800080" />
  <circle cx="10" cy="90" r="4" fill="#800080" />
  <circle cx="7" cy="81" r="4" fill="#800080" />
  <circle cx="11" cy="102" r="4" fill="#800080" />
  <circle cx="16" cy="131" r="4" fill="#800080" />
  <circle cx="19" cy="89" r="4" fill="#800080" />
  <circle cx="20" cy="158" r="4" fill="#800080" />
  <circle cx="21" cy="102" r="4" fill="#800080" />
  <circle cx="22" cy="170" r="4" fill="#800080" />
  <circle cx="26" cy="131" r="4" fill="#800080" />
  <circle cx="31" cy="157" r="4" fill="#800080" />
  <circle cx="32" cy="183" r="4" fill="#800080" />
  <circle cx="33" cy="169" r="4" fill="#800080" />
  <circle cx="46" cy="144" r="4" fill="#800080" />
  <circle cx="50" cy="132" r="4" fill="#800080" />
  <circle cx="54" cy="146" r="4" fill="#800080" />
  <circle cx="57" cy="133" r="4" fill="#800080" />
  <circle cx="69" cy="104" r="4" fill="#800080" />
  <circle cx="72" cy="119" r="4" fill="#800080" />
  <circle cx="76" cy="105" r="4" fill="#800080" />
  <circle cx="79" cy="118" r="4" fill="#800080" />
  <circle cx="79" cy="143" r="4" fill="#800080" />
  <circle cx="87" cy="141" r="4" fill="#800080" />
  <circle cx="89" cy="176" r="4" fill="#800080" />
  <circle cx="91" cy="183" r="4" fill="#800080" />
  <circle cx="97" cy="170" r="4" fill="#800080" />
  <circle cx="98" cy="184" r="4" fill="#800080" />
  <circle cx="105" cy="136" r="4" fill="#800080" />
  <circle cx="115" cy="139" r="4" fill="#800080" />
  <circle cx="116" cy="71" r="4" fill="#800080" />
  <circle cx="119" cy="129" r="4" fill="#800080" />
  <circle cx="122" cy="111" r="4" fill="#800080" />
  <circle cx="125" cy="93" r="4" fill="#800080" />
  <circle cx="128" cy="79" r="4" fill="#800080" />
</svg>
