<?xml version="1.0"?>
<svg width="135" height="256">
  <circle cx="33" cy="175" r="4" fill="#800080" />
  <circle cx="98" cy="175" r="4" fill="#800080" />
  <circle cx="66" cy="97" r="4" fill="#800080" />
  <circle cx="12" cy="52" r="4" fill="#800080" />
  <circle cx="122" cy="56" r="4" fill="#800080" />
  <circle cx="14" cy="66" r="4" fill="#800080" />
  <circle cx="15" cy="79" r="4" fill="#800080" />
  <circle cx="17" cy="92" r="4" fill="#800080" />
  <circle cx="19" cy="105" r="4" fill="#800080" />
  <circle cx="21" cy="118" r="4" fill="#800080" />
  <circle cx="24" cy="136" r="4" fill="#800080" />
  <circle cx="112" cy="128" r="4" fill="#800080" />
  <circle cx="114" cy="112" r="4" fill="#800080" />
  <circle cx="116" cy="96" r="4" fill="#800080" />
  <circle cx="118" cy="80" r="4" fill="#800080" />
  <circle cx="26" cy="152" r="4" fill="#800080" />
  <circle cx="107" cy="166" r="4" fill="#800080" />
  <circle cx="109" cy="147" r="4" fill="#800080" />
  <circle cx="119" cy="68" r="4" fill="#800080" />
  <circle cx="27" cy="164" r="4" fill="#800080" />
  <circle cx="43" cy="168" r="4" fill="#800080" />
  <circle cx="46" cy="157" r="4" fill="#800080" />
  <circle cx="49" cy="144" r="4" fill="#800080" />
  <circle cx="52" cy="133" r="4" fill="#800080" />
  <circle cx="55" cy="122" r="4" fill="#800080" />
  <circle cx="58" cy="111" r="4" fill="#800080" />
  <circle cx="75" cy="105" r="4" fill="#800080" />
  <circle cx="78" cy="116" r="4" fill="#800080" />
  <circle cx="81" cy="127" r="4" fill="#800080" />
  <circle cx="83" cy="138" r="4" fill="#800080" />
  <circle cx="86" cy="149" r="4" fill="#800080" />
  <circle cx="89" cy="160" r="4" fill="#800080" />
  <circle cx="126" cy="46" r="4" fill="#800080" />
  <circle cx="107" cy="180" r="4" fill="#800080" />
  <circle cx="6" cy="44" r="4" fill="#800080" />
  <circle cx="19" cy="127" r="4" fill="#800080" />
  <circle cx="40" cy="182" r="4" fill="#800080" />
  <circle cx="73" cy="90" r="4" fill="#800080" />
  <circle cx="90" cy="169" r="4" fill="#800080" />
  <circle cx="105" cy="156" r="4" fill="#800080" />
  <circle cx="107" cy="137" r="4" fill="#800080" />
  <circle cx="58" cy="102" r="4" fill="#800080" />
  <circle cx="7" cy="59" r="4" fill="#800080" />
  <circle cx="9" cy="73" r="4" fill="#800080" />
  <circle cx="14" cy="43" r="4" fill="#800080" />
  <circle cx="18" cy="58" r="4" fill="#800080" />
  <circle cx="20" cy="72" r="4" fill="#800080" />
  <circle cx="20" cy="144" r="4" fill="#800080" />
  <circle cx="22" cy="84" r="4" fill="#800080" />
  <circle cx="24" cy="97" r="4" fill="#800080" />
  <circle cx="25" cy="172" r="4" fill="#800080" />
  <circle cx="26" cy="111" r="4" fill="#800080" />
  <circle cx="26" cy="180" r="4" fill="#800080" />
  <circle cx="27" cy="124" r="4" fill="#800080" />
  <circle cx="28" cy="144" r="4" fill="#800080" />
  <circle cx="35" cy="167" r="4" fill="#800080" />
  <circle cx="60" cy="91" r="4" fill="#800080" />
  <circle cx="90" cy="177" r="4" fill="#800080" />
  <circle cx="96" cy="183" r="4" fill="#800080" />
  <circle cx="98" cy="167" r="4" fill="#800080" />
  <circle cx="108" cy="118" r="4" fill="#800080" />
  <circle cx="110" cy="102" r="4" fill="#800080" />
  <circle cx="112" cy="86" r="4" fill="#800080" />
  <circle cx="113" cy="155" r="4" fill="#800080" />
  <circle cx="115" cy="136" r="4" fill="#800080" />
  <circle cx="116" cy="120" r="4" fill="#800080" />
  <circle cx="117" cy="46" r="4" fill="#800080" />
  <circle cx="118" cy="104" r="4" fill="#800080" />
  <circle cx="120" cy="88" r="4" fill="#800080" />
  <circle cx="125" cy="74" r="4" fill="#800080" />
  <circle cx="127" cy="63" r="4" fill="#800080" />
  <circle cx="11" cy="86" r="4" fill="#800080" />
  <circle cx="5" cy="51" r="4" fill="#800080" />
  <circle cx="7" cy="66" r="4" fill="#800080" />
  <circle cx="12" cy="98" r="4" fill="#800080" />
  <circle cx="14" cy="111" r="4" fill="#800080" />
  <circle cx="19" cy="50" r="4" fill="#800080" />
  <circle cx="21" cy="65" r="4" fill="#800080" />
  <circle cx="21" cy="158" r="4" fill="#800080" />
  <circle cx="26" cy="104" r="4" fill="#800080" />
  <circle cx="32" cy="157" r="4" fill="#800080" />
  <circle cx="33" cy="182" r="4" fill="#800080" />
  <circle cx="40" cy="175" r="4" fill="#800080" />
  <circle cx="44" cy="150" r="4" fill="#800080" />
  <circle cx="51" cy="151" r="4" fill="#800080" />
  <circle cx="65" cy="104" r="4" fill="#800080" />
  <circle cx="73" cy="97" r="4" fill="#800080" />
  <circle cx="105" cy="173" r="4" fill="#800080" />
  <circle cx="113" cy="73" r="4" fill="#800080" />
  <circle cx="114" cy="62" r="4" fill="#800080" />
  <circle cx="115" cy="54" r="4" fill="#800080" />
  <circle cx="116" cy="143" r="4" fill="#800080" />
  <circle cx="123" cy="95" r="4" fill="#800080" />
  <circle cx="125" cy="81" r="4" fill="#800080" />
  <circle cx="129" cy="53" r="4" fill="#800080" />
</svg>
