<?xml version="1.0"?>
<svg width="135" height="256">
  <circle cx="67" cy="106" r="4" fill="#800080" />
  <circle cx="21" cy="178" r="4" fill="#800080" />
  <circle cx="26" cy="49" r="4" fill="#800080" />
  <circle cx="29" cy="166" r="4" fill="#800080" />
  <circle cx="101" cy="60" r="4" fill="#800080" />
  <circle cx="105" cy="165" r="4" fill="#800080" />
  <circle cx="109" cy="48" r="4" fill="#800080" />
  <circle cx="113" cy="177" r="4" fill="#800080" />
  <circle cx="34" cy="61" r="4" fill="#800080" />
  <circle cx="36" cy="155" r="4" fill="#800080" />
  <circle cx="41" cy="72" r="4" fill="#800080" />
  <circle cx="43" cy="144" r="4" fill="#800080" />
  <circle cx="48" cy="83" r="4" fill="#800080" />
  <circle cx="51" cy="132" r="4" fill="#800080" />
  <circle cx="56" cy="94" r="4" fill="#800080" />
  <circle cx="59" cy="120" r="4" fill="#800080" />
  <circle cx="72" cy="118" r="4" fill="#800080" />
  <circle cx="76" cy="97" r="4" fill="#800080" />
  <circle cx="80" cy="128" r="4" fill="#800080" />
  <circle cx="84" cy="85" r="4" fill="#800080" />
  <circle cx="87" cy="139" r="4" fill="#800080" />
  <circle cx="91" cy="74" r="4" fill="#800080" />
  <circle cx="94" cy="150" r="4" fill="#800080" />
  <circle cx="97" cy="159" r="4" fill="#800080" />
  <circle cx="58" cy="103" r="4" fill="#800080" />
  <circle cx="18" cy="44" r="4" fill="#800080" />
  <circle cx="12" cy="182" r="4" fill="#800080" />
  <circle cx="20" cy="170" r="4" fill="#800080" />
  <circle cx="25" cy="57" r="4" fill="#800080" />
  <circle cx="28" cy="158" r="4" fill="#800080" />
  <circle cx="29" cy="174" r="4" fill="#800080" />
  <circle cx="34" cy="51" r="4" fill="#800080" />
  <circle cx="37" cy="163" r="4" fill="#800080" />
  <circle cx="42" cy="64" r="4" fill="#800080" />
  <circle cx="43" cy="136" r="4" fill="#800080" />
  <circle cx="44" cy="152" r="4" fill="#800080" />
  <circle cx="48" cy="91" r="4" fill="#800080" />
  <circle cx="49" cy="75" r="4" fill="#800080" />
  <circle cx="51" cy="124" r="4" fill="#800080" />
  <circle cx="51" cy="140" r="4" fill="#800080" />
  <circle cx="56" cy="85" r="4" fill="#800080" />
  <circle cx="59" cy="128" r="4" fill="#800080" />
  <circle cx="60" cy="111" r="4" fill="#800080" />
  <circle cx="64" cy="97" r="4" fill="#800080" />
  <circle cx="75" cy="105" r="4" fill="#800080" />
  <circle cx="76" cy="89" r="4" fill="#800080" />
  <circle cx="80" cy="119" r="4" fill="#800080" />
  <circle cx="84" cy="93" r="4" fill="#800080" />
  <circle cx="88" cy="131" r="4" fill="#800080" />
  <circle cx="91" cy="66" r="4" fill="#800080" />
  <circle cx="92" cy="82" r="4" fill="#800080" />
  <circle cx="95" cy="141" r="4" fill="#800080" />
  <circle cx="99" cy="68" r="4" fill="#800080" />
  <circle cx="100" cy="52" r="4" fill="#800080" />
  <circle cx="102" cy="152" r="4" fill="#800080" />
  <circle cx="104" cy="173" r="4" fill="#800080" />
  <circle cx="109" cy="56" r="4" fill="#800080" />
  <circle cx="113" cy="168" r="4" fill="#800080" />
  <circle cx="116" cy="43" r="4" fill="#800080" />
  <circle cx="119" cy="183" r="4" fill="#800080" />
  <circle cx="33" cy="69" r="4" fill="#800080" />
  <circle cx="25" cy="42" r="4" fill="#800080" />
  <circle cx="34" cy="148" r="4" fill="#800080" />
  <circle cx="39" cy="79" r="4" fill="#800080" />
  <circle cx="72" cy="125" r="4" fill="#800080" />
  <circle cx="78" cy="135" r="4" fill="#800080" />
  <circle cx="82" cy="78" r="4" fill="#800080" />
  <circle cx="85" cy="146" r="4" fill="#800080" />
  <circle cx="98" cy="75" r="4" fill="#800080" />
  <circle cx="107" cy="158" r="4" fill="#800080" />
  <circle cx="110" cy="184" r="4" fill="#800080" />
</svg>
