<?xml version="1.0"?>
<svg width="135" height="256">
  <circle cx="67" cy="126" r="4" fill="#800080" />
  <circle cx="31" cy="79" r="4" fill="#800080" />
  <circle cx="27" cy="179" r="4" fill="#800080" />
  <circle cx="35" cy="168" r="4" fill="#800080" />
  <circle cx="39" cy="90" r="4" fill="#800080" />
  <circle cx="43" cy="157" r="4" fill="#800080" />
  <circle cx="47" cy="101" r="4" fill="#800080" />
  <circle cx="52" cy="145" r="4" fill="#800080" />
  <circle cx="76" cy="137" r="4" fill="#800080" />
  <circle cx="84" cy="148" r="4" fill="#800080" />
  <circle cx="86" cy="102" r="4" fill="#800080" />
  <circle cx="92" cy="158" r="4" fill="#800080" />
  <circle cx="94" cy="91" r="4" fill="#800080" />
  <circle cx="100" cy="169" r="4" fill="#800080" />
  <circle cx="102" cy="80" r="4" fill="#800080" />
  <circle cx="55" cy="112" r="4" fill="#800080" />
  <circle cx="58" cy="135" r="4" fill="#800080" />
  <circle cx="75" cy="116" r="4" fill="#800080" />
  <circle cx="106" cy="179" r="4" fill="#800080" />
  <circle cx="110" cy="74" r="4" fill="#800080" />
  <circle cx="22" cy="73" r="4" fill="#800080" />
  <circle cx="58" cy="121" r="4" fill="#800080" />
  <circle cx="18" cy="183" r="4" fill="#800080" />
  <circle cx="27" cy="171" r="4" fill="#800080" />
  <circle cx="31" cy="87" r="4" fill="#800080" />
  <circle cx="35" cy="176" r="4" fill="#800080" />
  <circle cx="39" cy="82" r="4" fill="#800080" />
  <circle cx="43" cy="165" r="4" fill="#800080" />
  <circle cx="44" cy="149" r="4" fill="#800080" />
  <circle cx="51" cy="154" r="4" fill="#800080" />
  <circle cx="66" cy="118" r="4" fill="#800080" />
  <circle cx="66" cy="134" r="4" fill="#800080" />
  <circle cx="75" cy="124" r="4" fill="#800080" />
  <circle cx="77" cy="107" r="4" fill="#800080" />
  <circle cx="83" cy="113" r="4" fill="#800080" />
  <circle cx="84" cy="140" r="4" fill="#800080" />
  <circle cx="92" cy="166" r="4" fill="#800080" />
  <circle cx="94" cy="83" r="4" fill="#800080" />
  <circle cx="102" cy="72" r="4" fill="#800080" />
  <circle cx="102" cy="88" r="4" fill="#800080" />
  <circle cx="114" cy="180" r="4" fill="#800080" />
  <circle cx="35" cy="160" r="4" fill="#800080" />
  <circle cx="29" cy="71" r="4" fill="#800080" />
  <circle cx="38" cy="97" r="4" fill="#800080" />
  <circle cx="46" cy="91" r="4" fill="#800080" />
  <circle cx="46" cy="108" r="4" fill="#800080" />
  <circle cx="51" cy="138" r="4" fill="#800080" />
  <circle cx="54" cy="102" r="4" fill="#800080" />
  <circle cx="58" cy="128" r="4" fill="#800080" />
  <circle cx="59" cy="142" r="4" fill="#800080" />
  <circle cx="75" cy="144" r="4" fill="#800080" />
  <circle cx="83" cy="155" r="4" fill="#800080" />
  <circle cx="85" cy="95" r="4" fill="#800080" />
  <circle cx="91" cy="148" r="4" fill="#800080" />
  <circle cx="93" cy="98" r="4" fill="#800080" />
  <circle cx="98" cy="176" r="4" fill="#800080" />
  <circle cx="99" cy="159" r="4" fill="#800080" />
  <circle cx="107" cy="170" r="4" fill="#800080" />
</svg>
