<?xml version="1.0"?>
<svg width="135" height="256">
  <circle cx="67" cy="117" r="4" fill="#800080" />
  <circle cx="67" cy="131" r="4" fill="#800080" />
  <circle cx="67" cy="145" r="4" fill="#800080" />
  <circle cx="67" cy="159" r="4" fill="#800080" />
  <circle cx="67" cy="173" r="4" fill="#800080" />
  <circle cx="22" cy="50" r="4" fill="#800080" />
  <circle cx="30" cy="63" r="4" fill="#800080" />
  <circle cx="38" cy="76" r="4" fill="#800080" />
  <circle cx="48" cy="92" r="4" fill="#800080" />
  <circle cx="94" cy="80" r="4" fill="#800080" />
  <circle cx="102" cy="67" r="4" fill="#800080" />
  <circle cx="110" cy="54" r="4" fill="#800080" />
  <circle cx="56" cy="105" r="4" fill="#800080" />
  <circle cx="76" cy="108" r="4" fill="#800080" />
  <circle cx="83" cy="97" r="4" fill="#800080" />
  <circle cx="118" cy="46" r="4" fill="#800080" />
  <circle cx="91" cy="90" r="4" fill="#800080" />
  <circle cx="40" cy="86" r="4" fill="#800080" />
  <circle cx="13" cy="44" r="4" fill="#800080" />
  <circle cx="58" cy="114" r="4" fill="#800080" />
  <circle cx="62" cy="182" r="4" fill="#800080" />
  <circle cx="71" cy="182" r="4" fill="#800080" />
  <circle cx="73" cy="124" r="4" fill="#800080" />
  <circle cx="21" cy="58" r="4" fill="#800080" />
  <circle cx="29" cy="55" r="4" fill="#800080" />
  <circle cx="29" cy="71" r="4" fill="#800080" />
  <circle cx="37" cy="68" r="4" fill="#800080" />
  <circle cx="46" cy="79" r="4" fill="#800080" />
  <circle cx="47" cy="100" r="4" fill="#800080" />
  <circle cx="55" cy="97" r="4" fill="#800080" />
  <circle cx="61" cy="123" r="4" fill="#800080" />
  <circle cx="61" cy="137" r="4" fill="#800080" />
  <circle cx="61" cy="151" r="4" fill="#800080" />
  <circle cx="61" cy="165" r="4" fill="#800080" />
  <circle cx="64" cy="108" r="4" fill="#800080" />
  <circle cx="72" cy="138" r="4" fill="#800080" />
  <circle cx="72" cy="152" r="4" fill="#800080" />
  <circle cx="72" cy="166" r="4" fill="#800080" />
  <circle cx="75" cy="116" r="4" fill="#800080" />
  <circle cx="83" cy="88" r="4" fill="#800080" />
  <circle cx="84" cy="105" r="4" fill="#800080" />
  <circle cx="93" cy="72" r="4" fill="#800080" />
  <circle cx="101" cy="59" r="4" fill="#800080" />
  <circle cx="101" cy="75" r="4" fill="#800080" />
  <circle cx="109" cy="46" r="4" fill="#800080" />
  <circle cx="109" cy="62" r="4" fill="#800080" />
  <circle cx="75" cy="100" r="4" fill="#800080" />
  <circle cx="15" cy="51" r="4" fill="#800080" />
  <circle cx="20" cy="42" r="4" fill="#800080" />
  <circle cx="51" cy="85" r="4" fill="#800080" />
  <circle cx="60" cy="130" r="4" fill="#800080" />
  <circle cx="60" cy="144" r="4" fill="#800080" />
  <circle cx="60" cy="158" r="4" fill="#800080" />
  <circle cx="60" cy="172" r="4" fill="#800080" />
  <circle cx="74" cy="131" r="4" fill="#800080" />
  <circle cx="74" cy="145" r="4" fill="#800080" />
  <circle cx="74" cy="159" r="4" fill="#800080" />
  <circle cx="74" cy="173" r="4" fill="#800080" />
  <circle cx="87" cy="80" r="4" fill="#800080" />
  <circle cx="90" cy="97" r="4" fill="#800080" />
  <circle cx="117" cy="53" r="4" fill="#800080" />
  <circle cx="125" cy="42" r="4" fill="#800080" />
</svg>
