<?xml version="1.0"?>
<svg width="135" height="256">
  <circle cx="68" cy="178" r="4" fill="#800080" />
  <circle cx="22" cy="79" r="4" fill="#800080" />
  <circle cx="28" cy="93" r="4" fill="#800080" />
  <circle cx="104" cy="100" r="4" fill="#800080" />
  <circle cx="110" cy="85" r="4" fill="#800080" />
  <circle cx="34" cy="107" r="4" fill="#800080" />
  <circle cx="39" cy="119" r="4" fill="#800080" />
  <circle cx="39" cy="225" r="4" fill="#800080" />
  <circle cx="44" cy="131" r="4" fill="#800080" />
  <circle cx="49" cy="143" r="4" fill="#800080" />
  <circle cx="50" cy="218" r="4" fill="#800080" />
  <circle cx="54" cy="155" r="4" fill="#800080" />
  <circle cx="58" cy="208" r="4" fill="#800080" />
  <circle cx="64" cy="196" r="4" fill="#800080" />
  <circle cx="78" cy="164" r="4" fill="#800080" />
  <circle cx="83" cy="151" r="4" fill="#800080" />
  <circle cx="88" cy="138" r="4" fill="#800080" />
  <circle cx="93" cy="126" r="4" fill="#800080" />
  <circle cx="98" cy="113" r="4" fill="#800080" />
  <circle cx="59" cy="167" r="4" fill="#800080" />
  <circle cx="25" cy="226" r="4" fill="#800080" />
  <circle cx="116" cy="75" r="4" fill="#800080" />
  <circle cx="70" cy="188" r="4" fill="#800080" />
  <circle cx="77" cy="173" r="4" fill="#800080" />
  <circle cx="15" cy="73" r="4" fill="#800080" />
  <circle cx="20" cy="87" r="4" fill="#800080" />
  <circle cx="26" cy="101" r="4" fill="#800080" />
  <circle cx="28" cy="85" r="4" fill="#800080" />
  <circle cx="34" cy="99" r="4" fill="#800080" />
  <circle cx="47" cy="226" r="4" fill="#800080" />
  <circle cx="58" cy="175" r="4" fill="#800080" />
  <circle cx="58" cy="216" r="4" fill="#800080" />
  <circle cx="62" cy="184" r="4" fill="#800080" />
  <circle cx="67" cy="170" r="4" fill="#800080" />
  <circle cx="85" cy="159" r="4" fill="#800080" />
  <circle cx="90" cy="146" r="4" fill="#800080" />
  <circle cx="97" cy="105" r="4" fill="#800080" />
  <circle cx="100" cy="121" r="4" fill="#800080" />
  <circle cx="102" cy="91" r="4" fill="#800080" />
  <circle cx="105" cy="108" r="4" fill="#800080" />
  <circle cx="108" cy="76" r="4" fill="#800080" />
  <circle cx="110" cy="93" r="4" fill="#800080" />
  <circle cx="32" cy="115" r="4" fill="#800080" />
  <circle cx="22" cy="71" r="4" fill="#800080" />
  <circle cx="31" cy="231" r="4" fill="#800080" />
  <circle cx="32" cy="222" r="4" fill="#800080" />
  <circle cx="36" cy="126" r="4" fill="#800080" />
  <circle cx="40" cy="112" r="4" fill="#800080" />
  <circle cx="41" cy="138" r="4" fill="#800080" />
  <circle cx="41" cy="218" r="4" fill="#800080" />
  <circle cx="45" cy="124" r="4" fill="#800080" />
  <circle cx="46" cy="150" r="4" fill="#800080" />
  <circle cx="50" cy="136" r="4" fill="#800080" />
  <circle cx="50" cy="211" r="4" fill="#800080" />
  <circle cx="52" cy="162" r="4" fill="#800080" />
  <circle cx="55" cy="148" r="4" fill="#800080" />
  <circle cx="56" cy="201" r="4" fill="#800080" />
  <circle cx="60" cy="160" r="4" fill="#800080" />
  <circle cx="64" cy="203" r="4" fill="#800080" />
  <circle cx="71" cy="195" r="4" fill="#800080" />
  <circle cx="75" cy="157" r="4" fill="#800080" />
  <circle cx="75" cy="180" r="4" fill="#800080" />
  <circle cx="80" cy="144" r="4" fill="#800080" />
  <circle cx="85" cy="131" r="4" fill="#800080" />
  <circle cx="90" cy="119" r="4" fill="#800080" />
  <circle cx="94" cy="133" r="4" fill="#800080" />
  <circle cx="117" cy="82" r="4" fill="#800080" />
  <circle cx="123" cy="71" r="4" fill="#800080" />
</svg>
