<?xml version="1.0"?>
<svg width="135" height="256">
  <circle cx="101" cy="80" r="4" fill="#800080" />
  <circle cx="27" cy="176" r="4" fill="#800080" />
  <circle cx="34" cy="164" r="4" fill="#800080" />
  <circle cx="42" cy="154" r="4" fill="#800080" />
  <circle cx="51" cy="144" r="4" fill="#800080" />
  <circle cx="59" cy="134" r="4" fill="#800080" />
  <circle cx="68" cy="123" r="4" fill="#800080" />
  <circle cx="77" cy="113" r="4" fill="#800080" />
  <circle cx="85" cy="103" r="4" fill="#800080" />
  <circle cx="94" cy="93" r="4" fill="#800080" />
  <circle cx="38" cy="179" r="4" fill="#800080" />
  <circle cx="27" cy="75" r="4" fill="#800080" />
  <circle cx="38" cy="75" r="4" fill="#800080" />
  <circle cx="49" cy="75" r="4" fill="#800080" />
  <circle cx="49" cy="179" r="4" fill="#800080" />
  <circle cx="60" cy="75" r="4" fill="#800080" />
  <circle cx="60" cy="179" r="4" fill="#800080" />
  <circle cx="71" cy="75" r="4" fill="#800080" />
  <circle cx="71" cy="179" r="4" fill="#800080" />
  <circle cx="82" cy="75" r="4" fill="#800080" />
  <circle cx="82" cy="179" r="4" fill="#800080" />
  <circle cx="93" cy="179" r="4" fill="#800080" />
  <circle cx="104" cy="179" r="4" fill="#800080" />
  <circle cx="92" cy="74" r="4" fill="#800080" />
  <circle cx="108" cy="73" r="4" fill="#800080" />
  <circle cx="102" cy="89" r="4" fill="#800080" />
  <circle cx="20" cy="181" r="4" fill="#800080" />
  <circle cx="25" cy="168" r="4" fill="#800080" />
  <circle cx="43" cy="146" r="4" fill="#800080" />
  <circle cx="50" cy="152" r="4" fill="#800080" />
  <circle cx="60" cy="126" r="4" fill="#800080" />
  <circle cx="67" cy="131" r="4" fill="#800080" />
  <circle cx="76" cy="121" r="4" fill="#800080" />
  <circle cx="86" cy="95" r="4" fill="#800080" />
  <circle cx="93" cy="101" r="4" fill="#800080" />
  <circle cx="94" cy="85" r="4" fill="#800080" />
  <circle cx="100" cy="72" r="4" fill="#800080" />
  <circle cx="109" cy="81" r="4" fill="#800080" />
  <circle cx="112" cy="176" r="4" fill="#800080" />
  <circle cx="31" cy="183" r="4" fill="#800080" />
  <circle cx="19" cy="174" r="4" fill="#800080" />
  <circle cx="33" cy="157" r="4" fill="#800080" />
  <circle cx="33" cy="171" r="4" fill="#800080" />
  <circle cx="41" cy="161" r="4" fill="#800080" />
  <circle cx="50" cy="137" r="4" fill="#800080" />
  <circle cx="58" cy="141" r="4" fill="#800080" />
  <circle cx="68" cy="116" r="4" fill="#800080" />
  <circle cx="76" cy="106" r="4" fill="#800080" />
  <circle cx="84" cy="110" r="4" fill="#800080" />
  <circle cx="110" cy="184" r="4" fill="#800080" />
</svg>
