<?xml version="1.0"?>
<svg width="135" height="256">
  <circle cx="21" cy="175" r="4" fill="#800080" />
  <circle cx="108" cy="51" r="4" fill="#800080" />
  <circle cx="28" cy="160" r="4" fill="#800080" />
  <circle cx="24" cy="47" r="4" fill="#800080" />
  <circle cx="33" cy="178" r="4" fill="#800080" />
  <circle cx="36" cy="47" r="4" fill="#800080" />
  <circle cx="36" cy="149" r="4" fill="#800080" />
  <circle cx="44" cy="139" r="4" fill="#800080" />
  <circle cx="45" cy="178" r="4" fill="#800080" />
  <circle cx="48" cy="47" r="4" fill="#800080" />
  <circle cx="52" cy="128" r="4" fill="#800080" />
  <circle cx="57" cy="178" r="4" fill="#800080" />
  <circle cx="60" cy="47" r="4" fill="#800080" />
  <circle cx="60" cy="118" r="4" fill="#800080" />
  <circle cx="68" cy="108" r="4" fill="#800080" />
  <circle cx="69" cy="178" r="4" fill="#800080" />
  <circle cx="72" cy="47" r="4" fill="#800080" />
  <circle cx="76" cy="98" r="4" fill="#800080" />
  <circle cx="81" cy="178" r="4" fill="#800080" />
  <circle cx="84" cy="47" r="4" fill="#800080" />
  <circle cx="84" cy="87" r="4" fill="#800080" />
  <circle cx="92" cy="77" r="4" fill="#800080" />
  <circle cx="93" cy="178" r="4" fill="#800080" />
  <circle cx="96" cy="47" r="4" fill="#800080" />
  <circle cx="100" cy="67" r="4" fill="#800080" />
  <circle cx="105" cy="178" r="4" fill="#800080" />
  <circle cx="117" cy="178" r="4" fill="#800080" />
  <circle cx="109" cy="61" r="4" fill="#800080" />
  <circle cx="13" cy="181" r="4" fill="#800080" />
  <circle cx="19" cy="166" r="4" fill="#800080" />
  <circle cx="115" cy="44" r="4" fill="#800080" />
  <circle cx="28" cy="169" r="4" fill="#800080" />
  <circle cx="12" cy="173" r="4" fill="#800080" />
  <circle cx="21" cy="183" r="4" fill="#800080" />
  <circle cx="28" cy="152" r="4" fill="#800080" />
  <circle cx="36" cy="157" r="4" fill="#800080" />
  <circle cx="44" cy="147" r="4" fill="#800080" />
  <circle cx="52" cy="136" r="4" fill="#800080" />
  <circle cx="60" cy="126" r="4" fill="#800080" />
  <circle cx="68" cy="116" r="4" fill="#800080" />
  <circle cx="76" cy="90" r="4" fill="#800080" />
  <circle cx="76" cy="106" r="4" fill="#800080" />
  <circle cx="84" cy="95" r="4" fill="#800080" />
  <circle cx="92" cy="85" r="4" fill="#800080" />
  <circle cx="100" cy="75" r="4" fill="#800080" />
  <circle cx="101" cy="56" r="4" fill="#800080" />
  <circle cx="104" cy="43" r="4" fill="#800080" />
  <circle cx="116" cy="52" r="4" fill="#800080" />
  <circle cx="36" cy="141" r="4" fill="#800080" />
  <circle cx="19" cy="53" r="4" fill="#800080" />
  <circle cx="28" cy="184" r="4" fill="#800080" />
  <circle cx="29" cy="53" r="4" fill="#800080" />
  <circle cx="30" cy="42" r="4" fill="#800080" />
  <circle cx="38" cy="184" r="4" fill="#800080" />
  <circle cx="39" cy="173" r="4" fill="#800080" />
  <circle cx="41" cy="53" r="4" fill="#800080" />
  <circle cx="42" cy="42" r="4" fill="#800080" />
  <circle cx="43" cy="132" r="4" fill="#800080" />
  <circle cx="50" cy="184" r="4" fill="#800080" />
  <circle cx="51" cy="121" r="4" fill="#800080" />
  <circle cx="51" cy="173" r="4" fill="#800080" />
  <circle cx="53" cy="53" r="4" fill="#800080" />
  <circle cx="54" cy="42" r="4" fill="#800080" />
  <circle cx="59" cy="111" r="4" fill="#800080" />
  <circle cx="62" cy="184" r="4" fill="#800080" />
  <circle cx="63" cy="173" r="4" fill="#800080" />
  <circle cx="65" cy="53" r="4" fill="#800080" />
  <circle cx="66" cy="42" r="4" fill="#800080" />
  <circle cx="67" cy="101" r="4" fill="#800080" />
  <circle cx="74" cy="184" r="4" fill="#800080" />
  <circle cx="75" cy="173" r="4" fill="#800080" />
  <circle cx="77" cy="53" r="4" fill="#800080" />
  <circle cx="78" cy="42" r="4" fill="#800080" />
  <circle cx="83" cy="80" r="4" fill="#800080" />
  <circle cx="86" cy="184" r="4" fill="#800080" />
  <circle cx="87" cy="173" r="4" fill="#800080" />
  <circle cx="89" cy="53" r="4" fill="#800080" />
  <circle cx="90" cy="42" r="4" fill="#800080" />
  <circle cx="91" cy="70" r="4" fill="#800080" />
  <circle cx="98" cy="184" r="4" fill="#800080" />
  <circle cx="99" cy="173" r="4" fill="#800080" />
  <circle cx="107" cy="68" r="4" fill="#800080" />
  <circle cx="110" cy="184" r="4" fill="#800080" />
  <circle cx="111" cy="173" r="4" fill="#800080" />
  <circle cx="122" cy="184" r="4" fill="#800080" />
  <circle cx="123" cy="173" r="4" fill="#800080" />
</svg>
