<?xml version="1.0"?>
<svg width="153" height="256">
  <circle cx="76" cy="108" r="14" fill="#800080" />
  <circle cx="26" cy="100" r="11" fill="#800080" />
  <circle cx="26" cy="121" r="11" fill="#800080" />
  <circle cx="29" cy="78" r="11" fill="#800080" />
  <circle cx="29" cy="142" r="11" fill="#800080" />
  <circle cx="123" cy="76" r="11" fill="#800080" />
  <circle cx="123" cy="143" r="11" fill="#800080" />
  <circle cx="125" cy="97" r="11" fill="#800080" />
  <circle cx="125" cy="118" r="11" fill="#800080" />
  <circle cx="38" cy="52" r="10" fill="#800080" />
  <circle cx="35" cy="162" r="10" fill="#800080" />
  <circle cx="108" cy="44" r="10" fill="#800080" />
  <circle cx="109" cy="175" r="10" fill="#800080" />
  <circle cx="46" cy="178" r="9" fill="#800080" />
  <circle cx="52" cy="38" r="9" fill="#800080" />
  <circle cx="63" cy="187" r="9" fill="#800080" />
  <circle cx="69" cy="33" r="9" fill="#800080" />
  <circle cx="80" cy="188" r="9" fill="#800080" />
  <circle cx="88" cy="34" r="9" fill="#800080" />
  <circle cx="120" cy="57" r="7" fill="#800080" />
  <circle cx="95" cy="186" r="7" fill="#800080" />
  <circle cx="118" cy="160" r="7" fill="#800080" />
  <circle cx="27" cy="62" r="4" fill="#800080" />
  <circle cx="37" cy="65" r="4" fill="#800080" />
  <circle cx="87" cy="121" r="4" fill="#800080" />
  <circle cx="132" cy="131" r="4" fill="#800080" />
</svg>
