<?xml version="1.0"?>
<svg width="153" height="256">
  <circle cx="32" cy="182" r="13" fill="#800080" />
  <circle cx="118" cy="56" r="11" fill="#800080" />
  <circle cx="34" cy="58" r="11" fill="#800080" />
  <circle cx="119" cy="81" r="11" fill="#800080" />
  <circle cx="102" cy="108" r="10" fill="#800080" />
  <circle cx="48" cy="41" r="10" fill="#800080" />
  <circle cx="98" cy="37" r="9" fill="#800080" />
  <circle cx="42" cy="162" r="9" fill="#800080" />
  <circle cx="53" cy="186" r="9" fill="#800080" />
  <circle cx="55" cy="149" r="9" fill="#800080" />
  <circle cx="66" cy="34" r="9" fill="#800080" />
  <circle cx="69" cy="136" r="9" fill="#800080" />
  <circle cx="70" cy="186" r="9" fill="#800080" />
  <circle cx="84" cy="124" r="9" fill="#800080" />
  <circle cx="87" cy="186" r="9" fill="#800080" />
  <circle cx="104" cy="186" r="9" fill="#800080" />
  <circle cx="121" cy="186" r="9" fill="#800080" />
  <circle cx="82" cy="32" r="7" fill="#800080" />
  <circle cx="115" cy="98" r="6" fill="#800080" />
  <circle cx="112" cy="39" r="5" fill="#800080" />
  <circle cx="96" cy="121" r="4" fill="#800080" />
  <circle cx="104" cy="48" r="4" fill="#800080" />
  <circle cx="127" cy="67" r="4" fill="#800080" />
</svg>
