<?xml version="1.0"?>
<svg width="153" height="256">
  <circle cx="125" cy="148" r="12" fill="#800080" />
  <circle cx="116" cy="51" r="11" fill="#800080" />
  <circle cx="30" cy="160" r="11" fill="#800080" />
  <circle cx="113" cy="177" r="11" fill="#800080" />
  <circle cx="120" cy="72" r="11" fill="#800080" />
  <circle cx="33" cy="58" r="10" fill="#800080" />
  <circle cx="42" cy="177" r="10" fill="#800080" />
  <circle cx="75" cy="109" r="10" fill="#800080" />
  <circle cx="48" cy="40" r="9" fill="#800080" />
  <circle cx="59" cy="186" r="9" fill="#800080" />
  <circle cx="65" cy="34" r="9" fill="#800080" />
  <circle cx="76" cy="188" r="9" fill="#800080" />
  <circle cx="82" cy="33" r="9" fill="#800080" />
  <circle cx="93" cy="187" r="9" fill="#800080" />
  <circle cx="99" cy="36" r="9" fill="#800080" />
  <circle cx="111" cy="91" r="9" fill="#800080" />
  <circle cx="115" cy="126" r="9" fill="#800080" />
  <circle cx="91" cy="103" r="7" fill="#800080" />
  <circle cx="97" cy="116" r="7" fill="#800080" />
  <circle cx="127" cy="166" r="6" fill="#800080" />
  <circle cx="102" cy="101" r="4" fill="#800080" />
  <circle cx="33" cy="44" r="4" fill="#800080" />
  <circle cx="111" cy="36" r="4" fill="#800080" />
  <circle cx="115" cy="162" r="4" fill="#800080" />
  <circle cx="123" cy="86" r="4" fill="#800080" />
  <circle cx="126" cy="132" r="4" fill="#800080" />
</svg>
