<?xml version="1.0"?>
<svg width="153" height="256">
  <circle cx="101" cy="41" r="14" fill="#800080" />
  <circle cx="105" cy="146" r="14" fill="#800080" />
  <circle cx="23" cy="144" r="11" fill="#800080" />
  <circle cx="105" cy="65" r="11" fill="#800080" />
  <circle cx="105" cy="86" r="11" fill="#800080" />
  <circle cx="105" cy="107" r="11" fill="#800080" />
  <circle cx="105" cy="170" r="11" fill="#800080" />
  <circle cx="41" cy="146" r="8" fill="#800080" />
  <circle cx="56" cy="146" r="8" fill="#800080" />
  <circle cx="71" cy="146" r="8" fill="#800080" />
  <circle cx="126" cy="146" r="8" fill="#800080" />
  <circle cx="72" cy="68" r="7" fill="#800080" />
  <circle cx="30" cy="126" r="7" fill="#800080" />
  <circle cx="39" cy="113" r="7" fill="#800080" />
  <circle cx="48" cy="101" r="7" fill="#800080" />
  <circle cx="57" cy="88" r="7" fill="#800080" />
  <circle cx="80" cy="56" r="7" fill="#800080" />
  <circle cx="101" cy="124" r="7" fill="#800080" />
  <circle cx="101" cy="187" r="7" fill="#800080" />
  <circle cx="84" cy="144" r="6" fill="#800080" />
  <circle cx="66" cy="79" r="5" fill="#800080" />
  <circle cx="112" cy="121" r="5" fill="#800080" />
  <circle cx="112" cy="184" r="5" fill="#800080" />
  <circle cx="112" cy="129" r="4" fill="#800080" />
  <circle cx="136" cy="151" r="4" fill="#800080" />
</svg>
