<?xml version="1.0"?>
<svg width="153" height="256">
  <circle cx="35" cy="104" r="12" fill="#800080" />
  <circle cx="125" cy="137" r="12" fill="#800080" />
  <circle cx="38" cy="38" r="11" fill="#800080" />
  <circle cx="31" cy="165" r="11" fill="#800080" />
  <circle cx="34" cy="77" r="11" fill="#800080" />
  <circle cx="110" cy="106" r="11" fill="#800080" />
  <circle cx="116" cy="170" r="11" fill="#800080" />
  <circle cx="45" cy="181" r="10" fill="#800080" />
  <circle cx="100" cy="183" r="9" fill="#800080" />
  <circle cx="34" cy="57" r="9" fill="#800080" />
  <circle cx="57" cy="35" r="9" fill="#800080" />
  <circle cx="65" cy="188" r="9" fill="#800080" />
  <circle cx="70" cy="96" r="9" fill="#800080" />
  <circle cx="74" cy="35" r="9" fill="#800080" />
  <circle cx="82" cy="188" r="9" fill="#800080" />
  <circle cx="87" cy="96" r="9" fill="#800080" />
  <circle cx="91" cy="35" r="9" fill="#800080" />
  <circle cx="108" cy="35" r="9" fill="#800080" />
  <circle cx="124" cy="117" r="7" fill="#800080" />
  <circle cx="53" cy="100" r="7" fill="#800080" />
  <circle cx="127" cy="155" r="7" fill="#800080" />
  <circle cx="121" cy="31" r="5" fill="#800080" />
  <circle cx="99" cy="93" r="4" fill="#800080" />
  <circle cx="113" cy="120" r="4" fill="#800080" />
  <circle cx="116" cy="152" r="4" fill="#800080" />
  <circle cx="120" cy="39" r="4" fill="#800080" />
</svg>
