<?xml version="1.0"?>
<svg width="153" height="256">
  <circle cx="120" cy="66" r="12" fill="#800080" />
  <circle cx="28" cy="152" r="11" fill="#800080" />
  <circle cx="31" cy="67" r="11" fill="#800080" />
  <circle cx="120" cy="168" r="11" fill="#800080" />
  <circle cx="123" cy="136" r="11" fill="#800080" />
  <circle cx="35" cy="172" r="10" fill="#800080" />
  <circle cx="31" cy="131" r="10" fill="#800080" />
  <circle cx="39" cy="46" r="10" fill="#800080" />
  <circle cx="60" cy="106" r="10" fill="#800080" />
  <circle cx="92" cy="106" r="10" fill="#800080" />
  <circle cx="111" cy="44" r="9" fill="#800080" />
  <circle cx="36" cy="86" r="9" fill="#800080" />
  <circle cx="50" cy="184" r="9" fill="#800080" />
  <circle cx="105" cy="183" r="9" fill="#800080" />
  <circle cx="113" cy="89" r="9" fill="#800080" />
  <circle cx="56" cy="35" r="8" fill="#800080" />
  <circle cx="66" cy="188" r="8" fill="#800080" />
  <circle cx="71" cy="32" r="8" fill="#800080" />
  <circle cx="81" cy="189" r="8" fill="#800080" />
  <circle cx="86" cy="33" r="8" fill="#800080" />
  <circle cx="110" cy="118" r="8" fill="#800080" />
  <circle cx="44" cy="117" r="7" fill="#800080" />
  <circle cx="129" cy="152" r="6" fill="#800080" />
  <circle cx="45" cy="97" r="6" fill="#800080" />
  <circle cx="75" cy="103" r="6" fill="#800080" />
  <circle cx="99" cy="34" r="6" fill="#800080" />
  <circle cx="93" cy="191" r="5" fill="#800080" />
  <circle cx="118" cy="151" r="5" fill="#800080" />
  <circle cx="105" cy="100" r="4" fill="#800080" />
  <circle cx="117" cy="182" r="4" fill="#800080" />
  <circle cx="121" cy="120" r="4" fill="#800080" />
  <circle cx="122" cy="50" r="4" fill="#800080" />
  <circle cx="123" cy="81" r="4" fill="#800080" />
</svg>
