<?xml version="1.0"?>
<svg width="153" height="256">
  <circle cx="121" cy="106" r="13" fill="#800080" />
  <circle cx="31" cy="63" r="11" fill="#800080" />
  <circle cx="28" cy="84" r="11" fill="#800080" />
  <circle cx="33" cy="105" r="11" fill="#800080" />
  <circle cx="121" cy="74" r="11" fill="#800080" />
  <circle cx="123" cy="130" r="11" fill="#800080" />
  <circle cx="36" cy="170" r="10" fill="#800080" />
  <circle cx="43" cy="44" r="10" fill="#800080" />
  <circle cx="46" cy="121" r="10" fill="#800080" />
  <circle cx="101" cy="40" r="10" fill="#800080" />
  <circle cx="111" cy="167" r="10" fill="#800080" />
  <circle cx="51" cy="184" r="9" fill="#800080" />
  <circle cx="62" cy="34" r="9" fill="#800080" />
  <circle cx="63" cy="129" r="9" fill="#800080" />
  <circle cx="68" cy="188" r="9" fill="#800080" />
  <circle cx="79" cy="33" r="9" fill="#800080" />
  <circle cx="90" cy="185" r="9" fill="#800080" />
  <circle cx="114" cy="54" r="9" fill="#800080" />
  <circle cx="119" cy="149" r="9" fill="#800080" />
  <circle cx="80" cy="129" r="8" fill="#800080" />
  <circle cx="94" cy="124" r="7" fill="#800080" />
  <circle cx="104" cy="116" r="6" fill="#800080" />
  <circle cx="104" cy="181" r="5" fill="#800080" />
  <circle cx="128" cy="88" r="5" fill="#800080" />
  <circle cx="116" cy="88" r="4" fill="#800080" />
  <circle cx="38" cy="183" r="4" fill="#800080" />
  <circle cx="80" cy="193" r="4" fill="#800080" />
  <circle cx="91" cy="29" r="4" fill="#800080" />
  <circle cx="97" cy="174" r="4" fill="#800080" />
</svg>
