<?xml version="1.0"?>
<svg width="153" height="256">
  <circle cx="37" cy="135" r="12" fill="#800080" />
  <circle cx="115" cy="135" r="12" fill="#800080" />
  <circle cx="17" cy="181" r="11" fill="#800080" />
  <circle cx="129" cy="163" r="11" fill="#800080" />
  <circle cx="25" cy="159" r="10" fill="#800080" />
  <circle cx="42" cy="112" r="10" fill="#800080" />
  <circle cx="50" cy="91" r="10" fill="#800080" />
  <circle cx="70" cy="38" r="10" fill="#800080" />
  <circle cx="100" cy="82" r="10" fill="#800080" />
  <circle cx="107" cy="101" r="10" fill="#800080" />
  <circle cx="136" cy="183" r="10" fill="#800080" />
  <circle cx="57" cy="71" r="9" fill="#800080" />
  <circle cx="57" cy="138" r="9" fill="#800080" />
  <circle cx="74" cy="138" r="9" fill="#800080" />
  <circle cx="87" cy="46" r="9" fill="#800080" />
  <circle cx="91" cy="138" r="9" fill="#800080" />
  <circle cx="93" cy="63" r="9" fill="#800080" />
  <circle cx="62" cy="54" r="7" fill="#800080" />
  <circle cx="114" cy="116" r="7" fill="#800080" />
  <circle cx="128" cy="146" r="6" fill="#800080" />
  <circle cx="84" cy="32" r="5" fill="#800080" />
  <circle cx="118" cy="151" r="4" fill="#800080" />
  <circle cx="6" cy="191" r="4" fill="#800080" />
  <circle cx="23" cy="145" r="4" fill="#800080" />
  <circle cx="36" cy="150" r="4" fill="#800080" />
  <circle cx="147" cy="191" r="4" fill="#800080" />
</svg>
