<?xml version="1.0"?>
<svg width="153" height="256">
  <circle cx="116" cy="164" r="13" fill="#800080" />
  <circle cx="116" cy="89" r="13" fill="#800080" />
  <circle cx="33" cy="164" r="11" fill="#800080" />
  <circle cx="28" cy="117" r="11" fill="#800080" />
  <circle cx="28" cy="138" r="11" fill="#800080" />
  <circle cx="33" cy="93" r="11" fill="#800080" />
  <circle cx="118" cy="21" r="11" fill="#800080" />
  <circle cx="118" cy="42" r="11" fill="#800080" />
  <circle cx="118" cy="63" r="11" fill="#800080" />
  <circle cx="118" cy="112" r="11" fill="#800080" />
  <circle cx="118" cy="133" r="11" fill="#800080" />
  <circle cx="44" cy="182" r="10" fill="#800080" />
  <circle cx="45" cy="74" r="10" fill="#800080" />
  <circle cx="117" cy="185" r="9" fill="#800080" />
  <circle cx="61" cy="189" r="8" fill="#800080" />
  <circle cx="62" cy="66" r="8" fill="#800080" />
  <circle cx="76" cy="189" r="8" fill="#800080" />
  <circle cx="77" cy="67" r="8" fill="#800080" />
  <circle cx="90" cy="185" r="6" fill="#800080" />
  <circle cx="90" cy="70" r="6" fill="#800080" />
  <circle cx="98" cy="77" r="5" fill="#800080" />
  <circle cx="98" cy="177" r="5" fill="#800080" />
  <circle cx="125" cy="147" r="5" fill="#800080" />
  <circle cx="23" cy="152" r="4" fill="#800080" />
  <circle cx="37" cy="149" r="4" fill="#800080" />
  <circle cx="110" cy="146" r="4" fill="#800080" />
  <circle cx="126" cy="75" r="4" fill="#800080" />
</svg>
