<?xml version="1.0"?>
<svg width="153" height="256">
  <circle cx="34" cy="108" r="13" fill="#800080" />
  <circle cx="33" cy="40" r="12" fill="#800080" />
  <circle cx="32" cy="63" r="12" fill="#800080" />
  <circle cx="32" cy="132" r="12" fill="#800080" />
  <circle cx="32" cy="155" r="12" fill="#800080" />
  <circle cx="32" cy="178" r="12" fill="#800080" />
  <circle cx="30" cy="84" r="10" fill="#800080" />
  <circle cx="51" cy="186" r="9" fill="#800080" />
  <circle cx="53" cy="36" r="9" fill="#800080" />
  <circle cx="55" cy="108" r="9" fill="#800080" />
  <circle cx="68" cy="185" r="9" fill="#800080" />
  <circle cx="70" cy="36" r="9" fill="#800080" />
  <circle cx="72" cy="108" r="9" fill="#800080" />
  <circle cx="85" cy="185" r="9" fill="#800080" />
  <circle cx="87" cy="36" r="9" fill="#800080" />
  <circle cx="89" cy="108" r="9" fill="#800080" />
  <circle cx="102" cy="185" r="9" fill="#800080" />
  <circle cx="104" cy="36" r="9" fill="#800080" />
  <circle cx="106" cy="108" r="9" fill="#800080" />
  <circle cx="119" cy="185" r="9" fill="#800080" />
  <circle cx="121" cy="36" r="9" fill="#800080" />
  <circle cx="120" cy="105" r="6" fill="#800080" />
  <circle cx="133" cy="182" r="6" fill="#800080" />
  <circle cx="117" cy="114" r="4" fill="#800080" />
  <circle cx="130" cy="191" r="4" fill="#800080" />
</svg>
