<?xml version="1.0"?>
<svg width="153" height="256">
  <circle cx="61" cy="68" r="14" fill="#800080" />
  <circle cx="64" cy="37" r="11" fill="#800080" />
  <circle cx="61" cy="92" r="11" fill="#800080" />
  <circle cx="61" cy="113" r="11" fill="#800080" />
  <circle cx="61" cy="134" r="11" fill="#800080" />
  <circle cx="61" cy="155" r="11" fill="#800080" />
  <circle cx="61" cy="176" r="11" fill="#800080" />
  <circle cx="80" cy="22" r="9" fill="#800080" />
  <circle cx="97" cy="19" r="9" fill="#800080" />
  <circle cx="114" cy="19" r="9" fill="#800080" />
  <circle cx="25" cy="68" r="8" fill="#800080" />
  <circle cx="82" cy="68" r="8" fill="#800080" />
  <circle cx="97" cy="68" r="8" fill="#800080" />
  <circle cx="112" cy="68" r="8" fill="#800080" />
  <circle cx="39" cy="67" r="7" fill="#800080" />
  <circle cx="126" cy="67" r="7" fill="#800080" />
  <circle cx="129" cy="18" r="7" fill="#800080" />
  <circle cx="67" cy="190" r="4" fill="#800080" />
  <circle cx="54" cy="48" r="4" fill="#800080" />
  <circle cx="54" cy="189" r="4" fill="#800080" />
  <circle cx="66" cy="22" r="4" fill="#800080" />
  <circle cx="68" cy="51" r="4" fill="#800080" />
</svg>
