<?xml version="1.0"?>
<svg width="153" height="256">
  <circle cx="34" cy="107" r="14" fill="#800080" />
  <circle cx="119" cy="107" r="14" fill="#800080" />
  <circle cx="32" cy="39" r="12" fill="#800080" />
  <circle cx="32" cy="62" r="12" fill="#800080" />
  <circle cx="32" cy="132" r="12" fill="#800080" />
  <circle cx="32" cy="155" r="12" fill="#800080" />
  <circle cx="32" cy="178" r="12" fill="#800080" />
  <circle cx="121" cy="39" r="12" fill="#800080" />
  <circle cx="121" cy="62" r="12" fill="#800080" />
  <circle cx="121" cy="132" r="12" fill="#800080" />
  <circle cx="121" cy="155" r="12" fill="#800080" />
  <circle cx="121" cy="178" r="12" fill="#800080" />
  <circle cx="30" cy="83" r="10" fill="#800080" />
  <circle cx="57" cy="107" r="10" fill="#800080" />
  <circle cx="76" cy="107" r="10" fill="#800080" />
  <circle cx="95" cy="107" r="10" fill="#800080" />
  <circle cx="119" cy="83" r="10" fill="#800080" />
  <circle cx="40" cy="191" r="4" fill="#800080" />
  <circle cx="129" cy="92" r="4" fill="#800080" />
  <circle cx="129" cy="191" r="4" fill="#800080" />
</svg>
