<?xml version="1.0"?>
<svg width="153" height="256">
  <circle cx="25" cy="89" r="12" fill="#800080" />
  <circle cx="77" cy="92" r="12" fill="#800080" />
  <circle cx="125" cy="76" r="11" fill="#800080" />
  <circle cx="66" cy="70" r="10" fill="#800080" />
  <circle cx="23" cy="110" r="10" fill="#800080" />
  <circle cx="23" cy="129" r="10" fill="#800080" />
  <circle cx="23" cy="148" r="10" fill="#800080" />
  <circle cx="23" cy="167" r="10" fill="#800080" />
  <circle cx="76" cy="113" r="10" fill="#800080" />
  <circle cx="76" cy="132" r="10" fill="#800080" />
  <circle cx="76" cy="151" r="10" fill="#800080" />
  <circle cx="76" cy="170" r="10" fill="#800080" />
  <circle cx="129" cy="96" r="10" fill="#800080" />
  <circle cx="129" cy="115" r="10" fill="#800080" />
  <circle cx="129" cy="134" r="10" fill="#800080" />
  <circle cx="129" cy="153" r="10" fill="#800080" />
  <circle cx="129" cy="172" r="10" fill="#800080" />
  <circle cx="22" cy="185" r="9" fill="#800080" />
  <circle cx="20" cy="68" r="8" fill="#800080" />
  <circle cx="74" cy="187" r="8" fill="#800080" />
  <circle cx="105" cy="67" r="8" fill="#800080" />
  <circle cx="48" cy="68" r="7" fill="#800080" />
  <circle cx="126" cy="188" r="7" fill="#800080" />
  <circle cx="93" cy="74" r="5" fill="#800080" />
  <circle cx="39" cy="77" r="4" fill="#800080" />
  <circle cx="89" cy="82" r="4" fill="#800080" />
  <circle cx="116" cy="62" r="4" fill="#800080" />
  <circle cx="136" cy="184" r="4" fill="#800080" />
  <circle cx="136" cy="191" r="4" fill="#800080" />
</svg>
