<?xml version="1.0"?>
<svg width="153" height="256">
  <circle cx="35" cy="42" r="15" fill="#800080" />
  <circle cx="114" cy="180" r="15" fill="#800080" />
  <circle cx="122" cy="38" r="11" fill="#800080" />
  <circle cx="122" cy="59" r="11" fill="#800080" />
  <circle cx="122" cy="80" r="11" fill="#800080" />
  <circle cx="122" cy="101" r="11" fill="#800080" />
  <circle cx="122" cy="122" r="11" fill="#800080" />
  <circle cx="122" cy="143" r="10" fill="#800080" />
  <circle cx="30" cy="66" r="10" fill="#800080" />
  <circle cx="30" cy="85" r="10" fill="#800080" />
  <circle cx="30" cy="104" r="10" fill="#800080" />
  <circle cx="30" cy="123" r="10" fill="#800080" />
  <circle cx="30" cy="142" r="10" fill="#800080" />
  <circle cx="30" cy="161" r="10" fill="#800080" />
  <circle cx="30" cy="180" r="10" fill="#800080" />
  <circle cx="86" cy="133" r="9" fill="#800080" />
  <circle cx="52" cy="59" r="9" fill="#800080" />
  <circle cx="60" cy="76" r="9" fill="#800080" />
  <circle cx="68" cy="93" r="9" fill="#800080" />
  <circle cx="75" cy="110" r="9" fill="#800080" />
  <circle cx="94" cy="149" r="9" fill="#800080" />
  <circle cx="125" cy="160" r="7" fill="#800080" />
  <circle cx="98" cy="164" r="6" fill="#800080" />
  <circle cx="85" cy="119" r="4" fill="#800080" />
  <circle cx="75" cy="122" r="4" fill="#800080" />
  <circle cx="129" cy="190" r="4" fill="#800080" />
</svg>
