<?xml version="1.0"?>
<svg width="153" height="256">
  <circle cx="28" cy="117" r="12" fill="#800080" />
  <circle cx="125" cy="126" r="12" fill="#800080" />
  <circle cx="29" cy="146" r="11" fill="#800080" />
  <circle cx="33" cy="93" r="11" fill="#800080" />
  <circle cx="118" cy="89" r="11" fill="#800080" />
  <circle cx="121" cy="156" r="11" fill="#800080" />
  <circle cx="36" cy="167" r="10" fill="#800080" />
  <circle cx="111" cy="175" r="9" fill="#800080" />
  <circle cx="44" cy="76" r="9" fill="#800080" />
  <circle cx="49" cy="182" r="9" fill="#800080" />
  <circle cx="100" cy="70" r="9" fill="#800080" />
  <circle cx="92" cy="187" r="8" fill="#800080" />
  <circle cx="60" cy="67" r="8" fill="#800080" />
  <circle cx="65" cy="188" r="8" fill="#800080" />
  <circle cx="75" cy="65" r="8" fill="#800080" />
  <circle cx="126" cy="106" r="8" fill="#800080" />
  <circle cx="78" cy="187" r="6" fill="#800080" />
  <circle cx="130" cy="142" r="5" fill="#800080" />
  <circle cx="113" cy="73" r="5" fill="#800080" />
  <circle cx="87" cy="63" r="4" fill="#800080" />
  <circle cx="20" cy="131" r="4" fill="#800080" />
  <circle cx="34" cy="131" r="4" fill="#800080" />
  <circle cx="85" cy="70" r="4" fill="#800080" />
  <circle cx="103" cy="185" r="4" fill="#800080" />
  <circle cx="116" cy="141" r="4" fill="#800080" />
</svg>
