<?xml version="1.0"?>
<svg width="153" height="256">
  <circle cx="34" cy="122" r="13" fill="#800080" />
  <circle cx="33" cy="40" r="12" fill="#800080" />
  <circle cx="32" cy="63" r="12" fill="#800080" />
  <circle cx="32" cy="86" r="12" fill="#800080" />
  <circle cx="32" cy="146" r="12" fill="#800080" />
  <circle cx="32" cy="169" r="12" fill="#800080" />
  <circle cx="127" cy="72" r="12" fill="#800080" />
  <circle cx="124" cy="96" r="11" fill="#800080" />
  <circle cx="116" cy="49" r="11" fill="#800080" />
  <circle cx="108" cy="114" r="10" fill="#800080" />
  <circle cx="79" cy="37" r="10" fill="#800080" />
  <circle cx="89" cy="121" r="9" fill="#800080" />
  <circle cx="53" cy="36" r="9" fill="#800080" />
  <circle cx="55" cy="122" r="9" fill="#800080" />
  <circle cx="97" cy="39" r="9" fill="#800080" />
  <circle cx="28" cy="188" r="8" fill="#800080" />
  <circle cx="71" cy="121" r="8" fill="#800080" />
  <circle cx="27" cy="103" r="6" fill="#800080" />
  <circle cx="38" cy="103" r="6" fill="#800080" />
  <circle cx="122" cy="111" r="4" fill="#800080" />
  <circle cx="39" cy="183" r="4" fill="#800080" />
  <circle cx="39" cy="190" r="4" fill="#800080" />
  <circle cx="64" cy="42" r="4" fill="#800080" />
  <circle cx="65" cy="31" r="4" fill="#800080" />
  <circle cx="129" cy="55" r="4" fill="#800080" />
  <circle cx="135" cy="85" r="4" fill="#800080" />
</svg>
