<?xml version="1.0"?>
<svg width="153" height="256">
  <circle cx="37" cy="91" r="13" fill="#800080" />
  <circle cx="36" cy="162" r="13" fill="#800080" />
  <circle cx="124" cy="122" r="12" fill="#800080" />
  <circle cx="120" cy="93" r="11" fill="#800080" />
  <circle cx="34" cy="114" r="11" fill="#800080" />
  <circle cx="34" cy="135" r="11" fill="#800080" />
  <circle cx="34" cy="185" r="11" fill="#800080" />
  <circle cx="34" cy="206" r="11" fill="#800080" />
  <circle cx="34" cy="227" r="11" fill="#800080" />
  <circle cx="116" cy="171" r="11" fill="#800080" />
  <circle cx="123" cy="144" r="11" fill="#800080" />
  <circle cx="107" cy="73" r="10" fill="#800080" />
  <circle cx="100" cy="186" r="9" fill="#800080" />
  <circle cx="31" cy="69" r="9" fill="#800080" />
  <circle cx="83" cy="66" r="9" fill="#800080" />
  <circle cx="79" cy="189" r="8" fill="#800080" />
  <circle cx="64" cy="70" r="7" fill="#800080" />
  <circle cx="60" cy="183" r="6" fill="#800080" />
  <circle cx="50" cy="173" r="5" fill="#800080" />
  <circle cx="28" cy="242" r="5" fill="#800080" />
  <circle cx="37" cy="242" r="5" fill="#800080" />
  <circle cx="52" cy="81" r="5" fill="#800080" />
  <circle cx="127" cy="159" r="5" fill="#800080" />
  <circle cx="129" cy="105" r="4" fill="#800080" />
  <circle cx="67" cy="189" r="4" fill="#800080" />
  <circle cx="95" cy="62" r="4" fill="#800080" />
  <circle cx="112" cy="185" r="4" fill="#800080" />
  <circle cx="114" cy="156" r="4" fill="#800080" />
  <circle cx="116" cy="107" r="4" fill="#800080" />
  <circle cx="120" cy="76" r="4" fill="#800080" />
</svg>
