<?xml version="1.0"?>
<svg width="153" height="256">
  <circle cx="34" cy="114" r="13" fill="#800080" />
  <circle cx="33" cy="40" r="12" fill="#800080" />
  <circle cx="32" cy="63" r="12" fill="#800080" />
  <circle cx="32" cy="86" r="12" fill="#800080" />
  <circle cx="32" cy="138" r="12" fill="#800080" />
  <circle cx="32" cy="161" r="12" fill="#800080" />
  <circle cx="84" cy="117" r="12" fill="#800080" />
  <circle cx="127" cy="66" r="12" fill="#800080" />
  <circle cx="124" cy="182" r="11" fill="#800080" />
  <circle cx="31" cy="183" r="11" fill="#800080" />
  <circle cx="114" cy="45" r="11" fill="#800080" />
  <circle cx="121" cy="96" r="11" fill="#800080" />
  <circle cx="103" cy="150" r="10" fill="#800080" />
  <circle cx="92" cy="37" r="9" fill="#800080" />
  <circle cx="53" cy="36" r="9" fill="#800080" />
  <circle cx="55" cy="114" r="9" fill="#800080" />
  <circle cx="70" cy="36" r="9" fill="#800080" />
  <circle cx="104" cy="109" r="9" fill="#800080" />
  <circle cx="111" cy="166" r="8" fill="#800080" />
  <circle cx="91" cy="135" r="7" fill="#800080" />
  <circle cx="132" cy="83" r="6" fill="#800080" />
  <circle cx="68" cy="110" r="4" fill="#800080" />
  <circle cx="67" cy="117" r="4" fill="#800080" />
  <circle cx="101" cy="135" r="4" fill="#800080" />
  <circle cx="119" cy="80" r="4" fill="#800080" />
  <circle cx="122" cy="166" r="4" fill="#800080" />
  <circle cx="128" cy="48" r="4" fill="#800080" />
  <circle cx="135" cy="191" r="4" fill="#800080" />
</svg>
