<?xml version="1.0"?>
<svg width="153" height="256">
  <circle cx="29" cy="38" r="12" fill="#800080" />
  <circle cx="29" cy="61" r="12" fill="#800080" />
  <circle cx="29" cy="84" r="12" fill="#800080" />
  <circle cx="29" cy="107" r="12" fill="#800080" />
  <circle cx="29" cy="130" r="12" fill="#800080" />
  <circle cx="123" cy="38" r="12" fill="#800080" />
  <circle cx="123" cy="61" r="12" fill="#800080" />
  <circle cx="123" cy="84" r="12" fill="#800080" />
  <circle cx="123" cy="107" r="12" fill="#800080" />
  <circle cx="123" cy="130" r="12" fill="#800080" />
  <circle cx="31" cy="155" r="11" fill="#800080" />
  <circle cx="39" cy="175" r="11" fill="#800080" />
  <circle cx="109" cy="178" r="11" fill="#800080" />
  <circle cx="120" cy="157" r="11" fill="#800080" />
  <circle cx="58" cy="186" r="9" fill="#800080" />
  <circle cx="75" cy="187" r="9" fill="#800080" />
  <circle cx="91" cy="186" r="8" fill="#800080" />
  <circle cx="130" cy="144" r="4" fill="#800080" />
  <circle cx="45" cy="188" r="4" fill="#800080" />
  <circle cx="122" cy="171" r="4" fill="#800080" />
</svg>
