<?xml version="1.0"?>
<svg width="153" height="256">
  <circle cx="35" cy="182" r="12" fill="#800080" />
  <circle cx="117" cy="183" r="11" fill="#800080" />
  <circle cx="15" cy="71" r="10" fill="#800080" />
  <circle cx="18" cy="90" r="10" fill="#800080" />
  <circle cx="21" cy="109" r="10" fill="#800080" />
  <circle cx="24" cy="128" r="10" fill="#800080" />
  <circle cx="27" cy="147" r="10" fill="#800080" />
  <circle cx="123" cy="158" r="10" fill="#800080" />
  <circle cx="126" cy="136" r="10" fill="#800080" />
  <circle cx="130" cy="112" r="10" fill="#800080" />
  <circle cx="134" cy="88" r="10" fill="#800080" />
  <circle cx="81" cy="106" r="9" fill="#800080" />
  <circle cx="137" cy="69" r="9" fill="#800080" />
  <circle cx="52" cy="163" r="7" fill="#800080" />
  <circle cx="27" cy="163" r="7" fill="#800080" />
  <circle cx="56" cy="147" r="7" fill="#800080" />
  <circle cx="61" cy="131" r="7" fill="#800080" />
  <circle cx="66" cy="115" r="7" fill="#800080" />
  <circle cx="87" cy="121" r="7" fill="#800080" />
  <circle cx="90" cy="134" r="7" fill="#800080" />
  <circle cx="94" cy="147" r="7" fill="#800080" />
  <circle cx="98" cy="160" r="7" fill="#800080" />
  <circle cx="102" cy="172" r="6" fill="#800080" />
  <circle cx="51" cy="175" r="5" fill="#800080" />
  <circle cx="67" cy="103" r="4" fill="#800080" />
  <circle cx="47" cy="191" r="4" fill="#800080" />
  <circle cx="50" cy="183" r="4" fill="#800080" />
  <circle cx="101" cy="181" r="4" fill="#800080" />
  <circle cx="104" cy="191" r="4" fill="#800080" />
  <circle cx="126" cy="171" r="4" fill="#800080" />
  <circle cx="135" cy="125" r="4" fill="#800080" />
  <circle cx="139" cy="101" r="4" fill="#800080" />
</svg>
