<?xml version="1.0"?>
<svg width="153" height="256">
  <circle cx="76" cy="92" r="13" fill="#800080" />
  <circle cx="37" cy="182" r="12" fill="#800080" />
  <circle cx="110" cy="182" r="12" fill="#800080" />
  <circle cx="13" cy="39" r="11" fill="#800080" />
  <circle cx="16" cy="60" r="11" fill="#800080" />
  <circle cx="135" cy="70" r="11" fill="#800080" />
  <circle cx="138" cy="46" r="11" fill="#800080" />
  <circle cx="19" cy="81" r="10" fill="#800080" />
  <circle cx="22" cy="100" r="10" fill="#800080" />
  <circle cx="25" cy="119" r="10" fill="#800080" />
  <circle cx="27" cy="138" r="10" fill="#800080" />
  <circle cx="126" cy="134" r="10" fill="#800080" />
  <circle cx="129" cy="110" r="10" fill="#800080" />
  <circle cx="132" cy="90" r="10" fill="#800080" />
  <circle cx="30" cy="159" r="9" fill="#800080" />
  <circle cx="122" cy="164" r="9" fill="#800080" />
  <circle cx="57" cy="144" r="8" fill="#800080" />
  <circle cx="51" cy="167" r="8" fill="#800080" />
  <circle cx="61" cy="127" r="8" fill="#800080" />
  <circle cx="87" cy="110" r="8" fill="#800080" />
  <circle cx="91" cy="125" r="8" fill="#800080" />
  <circle cx="95" cy="140" r="8" fill="#800080" />
  <circle cx="99" cy="155" r="8" fill="#800080" />
  <circle cx="66" cy="111" r="7" fill="#800080" />
  <circle cx="121" cy="149" r="6" fill="#800080" />
  <circle cx="99" cy="168" r="5" fill="#800080" />
  <circle cx="146" cy="32" r="4" fill="#800080" />
  <circle cx="49" cy="191" r="4" fill="#800080" />
  <circle cx="50" cy="154" r="4" fill="#800080" />
  <circle cx="52" cy="178" r="4" fill="#800080" />
  <circle cx="57" cy="155" r="4" fill="#800080" />
  <circle cx="122" cy="191" r="4" fill="#800080" />
  <circle cx="125" cy="176" r="4" fill="#800080" />
  <circle cx="130" cy="147" r="4" fill="#800080" />
  <circle cx="133" cy="31" r="4" fill="#800080" />
</svg>
