<?xml version="1.0"?>
<svg width="153" height="256">
  <circle cx="76" cy="104" r="13" fill="#800080" />
  <circle cx="123" cy="38" r="10" fill="#800080" />
  <circle cx="24" cy="185" r="10" fill="#800080" />
  <circle cx="29" cy="37" r="10" fill="#800080" />
  <circle cx="37" cy="165" r="10" fill="#800080" />
  <circle cx="40" cy="54" r="10" fill="#800080" />
  <circle cx="105" cy="149" r="10" fill="#800080" />
  <circle cx="108" cy="61" r="10" fill="#800080" />
  <circle cx="116" cy="166" r="10" fill="#800080" />
  <circle cx="128" cy="184" r="10" fill="#800080" />
  <circle cx="48" cy="148" r="9" fill="#800080" />
  <circle cx="50" cy="70" r="9" fill="#800080" />
  <circle cx="58" cy="132" r="9" fill="#800080" />
  <circle cx="60" cy="85" r="9" fill="#800080" />
  <circle cx="87" cy="123" r="9" fill="#800080" />
  <circle cx="91" cy="85" r="9" fill="#800080" />
  <circle cx="98" cy="133" r="6" fill="#800080" />
  <circle cx="69" cy="122" r="6" fill="#800080" />
  <circle cx="103" cy="76" r="5" fill="#800080" />
  <circle cx="120" cy="52" r="4" fill="#800080" />
  <circle cx="36" cy="178" r="4" fill="#800080" />
  <circle cx="93" cy="72" r="4" fill="#800080" />
  <circle cx="110" cy="46" r="4" fill="#800080" />
  <circle cx="135" cy="31" r="4" fill="#800080" />
  <circle cx="140" cy="190" r="4" fill="#800080" />
</svg>
