<?xml version="1.0"?>
<svg width="153" height="256">
  <circle cx="77" cy="184" r="13" fill="#800080" />
  <circle cx="25" cy="72" r="10" fill="#800080" />
  <circle cx="33" cy="90" r="10" fill="#800080" />
  <circle cx="41" cy="110" r="10" fill="#800080" />
  <circle cx="107" cy="123" r="10" fill="#800080" />
  <circle cx="115" cy="103" r="10" fill="#800080" />
  <circle cx="123" cy="83" r="10" fill="#800080" />
  <circle cx="49" cy="128" r="9" fill="#800080" />
  <circle cx="40" cy="239" r="9" fill="#800080" />
  <circle cx="56" cy="145" r="9" fill="#800080" />
  <circle cx="57" cy="230" r="9" fill="#800080" />
  <circle cx="63" cy="162" r="9" fill="#800080" />
  <circle cx="68" cy="215" r="9" fill="#800080" />
  <circle cx="90" cy="164" r="9" fill="#800080" />
  <circle cx="97" cy="146" r="9" fill="#800080" />
  <circle cx="133" cy="68" r="7" fill="#800080" />
  <circle cx="77" cy="203" r="6" fill="#800080" />
  <circle cx="26" cy="236" r="5" fill="#800080" />
  <circle cx="107" cy="137" r="4" fill="#800080" />
  <circle cx="25" cy="244" r="4" fill="#800080" />
  <circle cx="62" cy="174" r="4" fill="#800080" />
  <circle cx="97" cy="133" r="4" fill="#800080" />
  <circle cx="122" cy="68" r="4" fill="#800080" />
</svg>
