<?xml version="1.0"?>
<svg width="153" height="256">
  <circle cx="24" cy="181" r="14" fill="#800080" />
  <circle cx="123" cy="41" r="13" fill="#800080" />
  <circle cx="36" cy="159" r="10" fill="#800080" />
  <circle cx="49" cy="142" r="9" fill="#800080" />
  <circle cx="27" cy="36" r="9" fill="#800080" />
  <circle cx="44" cy="36" r="9" fill="#800080" />
  <circle cx="46" cy="185" r="9" fill="#800080" />
  <circle cx="60" cy="127" r="9" fill="#800080" />
  <circle cx="61" cy="36" r="9" fill="#800080" />
  <circle cx="63" cy="185" r="9" fill="#800080" />
  <circle cx="72" cy="112" r="9" fill="#800080" />
  <circle cx="78" cy="36" r="9" fill="#800080" />
  <circle cx="80" cy="185" r="9" fill="#800080" />
  <circle cx="83" cy="97" r="9" fill="#800080" />
  <circle cx="95" cy="36" r="9" fill="#800080" />
  <circle cx="95" cy="82" r="9" fill="#800080" />
  <circle cx="97" cy="185" r="9" fill="#800080" />
  <circle cx="107" cy="66" r="9" fill="#800080" />
  <circle cx="114" cy="185" r="9" fill="#800080" />
  <circle cx="131" cy="185" r="9" fill="#800080" />
  <circle cx="119" cy="58" r="5" fill="#800080" />
  <circle cx="106" cy="42" r="4" fill="#800080" />
  <circle cx="107" cy="31" r="4" fill="#800080" />
</svg>
